<?xml version="1.0" encoding="utf-8"?>
<svg viewBox="0 0 1000 1000" style="shape-rendering: crispedges;" xmlns="http://www.w3.org/2000/svg" xmlns:bx="https://boxy-svg.com">
  <path d="M 850.089 311.92 Q 871.477 299.572 892.865 311.92 L 1063.969 410.707 Q 1085.357 423.056 1085.357 447.752 L 1085.357 645.326 Q 1085.357 670.022 1063.969 682.371 L 892.865 781.158 Q 871.477 793.506 850.089 781.158 L 678.985 682.371 Q 657.597 670.023 657.597 645.326 L 657.597 447.752 Q 657.597 423.055 678.985 410.707 Z" style="stroke: rgb(0, 0, 0); stroke-opacity: 0; fill: rgb(255, 200, 0);" transform="matrix(-0.5, -0.866025, 0.866025, -0.5, 209.513351, 1276.010254)" bx:shape="n-gon 871.477 546.539 246.967 246.967 6 0.1 1@922f275e" bx:origin="0.492591 0.503175"/>
  <path d="M 850.089 311.92 Q 871.477 299.572 892.865 311.92 L 1063.969 410.707 Q 1085.357 423.056 1085.357 447.752 L 1085.357 645.326 Q 1085.357 670.022 1063.969 682.371 L 892.865 781.158 Q 871.477 793.506 850.089 781.158 L 678.985 682.371 Q 657.597 670.023 657.597 645.326 L 657.597 447.752 Q 657.597 423.055 678.985 410.707 Z" style="stroke: rgb(0, 0, 0); stroke-opacity: 0; fill: rgb(255, 200, 0);" transform="matrix(-0.5, -0.866025, 0.866025, -0.5, 705.968384, 1774.050537)" bx:shape="n-gon 871.477 546.539 246.967 246.967 6 0.1 1@922f275e" bx:origin="0.494603 0.512706"/>
</svg>