<?xml version="1.0" encoding="utf-8"?>
<svg viewBox="0 0 500 500" style="shape-rendering: crispedges;" xmlns="http://www.w3.org/2000/svg">
  <path d="M 66.003 379.837 C 52.375 371.967 45.56 360.164 45.56 344.427 L 45.56 155.572 C 45.56 139.834 52.375 128.031 66.004 120.162 L 229.555 25.736 C 243.185 17.867 256.814 17.867 270.444 25.736 L 433.996 120.162 C 447.625 128.031 454.44 139.834 454.44 155.572 L 454.44 344.426 C 454.44 360.164 447.625 371.967 433.995 379.837 L 270.444 474.263 C 256.814 482.133 243.185 482.133 229.556 474.263 L 66.003 379.837 Z M 356.581 173.023 C 338.076 173.023 323.075 188.024 323.075 206.529 C 323.075 225.035 338.076 240.035 356.581 240.035 C 375.088 240.035 390.089 225.035 390.089 206.529 C 390.089 188.024 375.088 173.023 356.581 173.023 Z M 328.11 274.275 C 309.605 274.275 294.604 289.275 294.604 307.782 C 294.604 326.287 309.605 341.288 328.11 341.288 C 346.616 341.288 361.617 326.287 361.617 307.782 C 361.617 289.275 346.616 274.275 328.11 274.275 Z M 252.626 341.288 C 234.121 341.288 219.12 356.29 219.12 374.795 C 219.12 393.301 234.121 408.301 252.626 408.301 C 271.132 408.301 286.133 393.301 286.133 374.795 C 286.133 356.29 271.132 341.288 252.626 341.288 Z M 212.038 188.718 C 206.524 194.662 199.305 195.001 197.033 200.852 L 133.472 364.668 C 129.39 375.185 134.608 383.71 145.125 383.71 C 155.641 383.71 167.475 375.185 171.556 364.668 L 234.427 209.734 C 235.898 205.942 230.25 196.245 231.377 193.472 C 233.964 190.899 240.61 186.882 240.728 186.773 C 266.06 163.163 272.864 123.662 256.102 140.627 C 239.34 157.592 269.742 91.206 268.93 87.717 C 268.119 84.227 236.943 98.492 212.811 133.588 C 190.111 166.597 214.335 184.546 212.038 188.718 Z" style="stroke: rgb(0, 0, 0); stroke-opacity: 0; fill: rgb(255, 200, 0);"/>
</svg>