<?xml version="1.0" encoding="utf-8"?>
<svg viewBox="0 0 1000 1000" style="shape-rendering: crispedges;" xmlns="http://www.w3.org/2000/svg">
  <path d="M 104.861 778.83 C 75.592 761.931 60.957 736.583 60.957 702.786 L 60.957 297.215 C 60.957 263.417 75.592 238.069 104.862 221.17 L 456.095 18.385 C 485.365 1.487 514.634 1.487 543.904 18.385 L 895.139 221.171 C 924.408 238.069 939.043 263.417 939.043 297.215 L 939.043 702.785 C 939.043 736.583 924.408 761.931 895.138 778.83 L 543.905 981.615 C 514.635 998.514 485.365 998.514 456.096 981.615 Z M 728.889 334.689 C 689.148 334.689 656.932 366.905 656.932 406.646 C 656.932 446.387 689.148 478.603 728.889 478.603 C 768.63 478.603 800.846 446.387 800.846 406.646 C 800.846 366.905 768.63 334.689 728.889 334.689 Z M 667.745 552.132 C 628.004 552.132 595.788 584.348 595.788 624.089 C 595.788 663.83 628.004 696.046 667.745 696.046 C 707.486 696.046 739.702 663.83 739.702 624.089 C 739.702 584.348 707.486 552.132 667.745 552.132 Z M 505.641 696.046 C 465.9 696.046 433.684 728.262 433.684 768.003 C 433.684 807.744 465.9 839.96 505.641 839.96 C 545.382 839.96 577.598 807.744 577.598 768.003 C 577.598 728.262 545.382 696.046 505.641 696.046 Z M 412.994 363.142 C 401.162 370.644 391.129 381.888 386.252 394.456 L 249.75 746.255 C 240.986 768.84 252.191 787.149 274.776 787.149 C 297.361 787.149 322.774 768.84 331.538 746.255 L 468.04 394.456 C 471.2 386.312 471.764 378.724 470.134 372.349 C 470.383 372.119 470.634 371.887 470.886 371.652 C 525.287 320.947 556.913 224.178 520.916 260.612 C 484.918 297.046 532.158 178.44 530.415 170.947 C 528.673 163.454 497.723 175.734 445.897 251.102 C 397.148 321.993 411.157 358.997 412.994 363.142 Z" style="stroke: rgb(0, 0, 0); stroke-opacity: 0; fill: rgb(255, 200, 0);"/>
</svg>