<?xml version="1.0" encoding="utf-8"?>
<svg viewBox="0 0 500 500" style="shape-rendering: crispedges;" xmlns="http://www.w3.org/2000/svg">
  <path d="M 63.785 381.404 C 49.991 373.44 43.094 361.494 43.094 345.566 L 43.094 154.434 C 43.094 138.507 49.991 126.561 63.785 118.597 L 229.31 23.031 C 243.104 15.067 256.897 15.067 270.69 23.031 L 436.215 118.597 C 450.009 126.561 456.906 138.507 456.906 154.435 L 456.906 345.566 C 456.907 361.493 450.01 373.439 436.216 381.403 L 270.691 476.969 C 256.896 484.933 243.103 484.933 229.31 476.969 Z M 234.212 423.187 C 244.737 429.264 255.263 429.264 265.788 423.187 L 392.09 350.266 C 402.616 344.189 407.878 335.074 407.878 322.921 L 407.878 177.079 C 407.878 164.926 402.616 155.811 392.09 149.734 L 265.788 76.814 C 255.263 70.737 244.738 70.737 234.212 76.813 L 107.91 149.734 C 97.385 155.811 92.122 164.926 92.122 177.08 L 92.122 322.921 C 92.122 335.074 97.385 344.19 107.91 350.266 Z" style="stroke: rgb(0, 0, 0); stroke-opacity: 0; fill: rgb(255, 200, 0);"/>
  <g>
    <rect x="528.277" y="206.72" width="53.757" height="53.757" style="stroke: rgba(64, 64, 64, 0); fill: rgb(64, 64, 64);" transform="matrix(0, -1, 1, 0, -58.235401, 729.900146)"/>
    <rect x="528.277" y="206.72" width="53.757" height="53.757" style="fill: rgb(255, 200, 0); stroke: rgba(0, 0, 0, 0);" transform="matrix(0, -1, 1, 0, 91.038391, 729.900146)"/>
    <rect x="528.277" y="206.72" width="53.757" height="53.757" style="fill: rgb(255, 200, 0); stroke: rgba(0, 0, 0, 0);" transform="matrix(0, -1, 1, 0, -58.235401, 807.81073)"/>
    <rect x="528.277" y="206.72" width="53.757" height="53.757" style="fill: rgb(255, 200, 0); stroke: rgba(0, 0, 0, 0);" transform="matrix(0, -1, 1, 0, 16.199854, 880.410828)"/>
    <rect x="528.277" y="206.72" width="53.757" height="53.757" style="stroke: rgba(64, 64, 64, 0); fill: rgb(64, 64, 64);" transform="matrix(0, -1, 1, 0, -58.235401, 880.410828)"/>
    <rect x="528.277" y="206.72" width="53.757" height="53.757" style="stroke: rgba(64, 64, 64, 0); fill: rgb(64, 64, 64);" transform="matrix(0, -1, 1, 0, 16.199854, 729.900146)"/>
    <rect x="528.277" y="206.72" width="53.757" height="53.757" style="stroke: rgba(64, 64, 64, 0); fill: rgb(64, 64, 64);" transform="matrix(0, -1, 1, 0, 91.038391, 880.410828)"/>
    <rect x="528.277" y="206.72" width="53.757" height="53.757" style="fill: rgb(255, 200, 0); stroke: rgba(0, 0, 0, 0);" transform="matrix(0, -1, 1, 0, 16.199854, 807.81073)"/>
    <rect x="528.277" y="206.72" width="53.757" height="53.757" style="fill: rgb(255, 200, 0); stroke: rgba(0, 0, 0, 0);" transform="matrix(0, -1, 1, 0, 91.038391, 807.81073)"/>
  </g>
</svg>