<?xml version="1.0" encoding="utf-8"?>
<svg viewBox="0 0 36 36" xmlns="http://www.w3.org/2000/svg">
  <path fill="#EF9645" d="M15.977 9.36h3.789c.114-.191.147-.439.058-.673l-3.846-4.705V9.36z"/>
  <path fill="#FFDC5D" d="M12.804 22.277c-.057-.349-.124-.679-.206-.973-.62-2.223-1.14-3.164-.918-5.494.29-1.584.273-4.763 4.483-4.268 1.112.131 2.843.927 3.834.91.567-.01.98-1.157 1.017-1.539.051-.526-.865-1.42-1.248-1.554-.383-.134-2.012-.631-2.681-.824-1.039-.301-.985-1.705-1.051-2.205-.031-.235.084-.467.294-.591.21-.124.375-.008.579.125l.885.648c.497.426-.874 1.24-.503 1.376 0 0 1.755.659 2.507.796.412.075 1.834-1.529 1.917-2.47.065-.74-3.398-4.083-5.867-5.381-.868-.456-1.377-.721-1.949-.694-.683.032-.898.302-1.748 1.03C8.302 4.46 4.568 11.577 4.02 13.152c-2.246 6.461-2.597 9.865-2.677 11.788-.049.59-.076 1.177-.076 1.758.065 0-1 5 0 6s5.326 1 5.326 1c10 3.989 28.57 2.948 28.57-7.233 0-12.172-18.813-10.557-22.359-4.188z"/>
  <path fill="#EF9645" d="M20.63 32.078c-3.16-.332-5.628-1.881-5.767-1.97-.465-.297-.601-.913-.305-1.379s.913-.603 1.38-.308c.04.025 4.003 2.492 7.846 1.467 2.125-.566 3.867-2.115 5.177-4.601.258-.49.866-.676 1.351-.419.488.257.676.862.419 1.351-1.585 3.006-3.754 4.893-6.447 5.606-1.257.332-2.502.374-3.654.253z"/>
  <ellipse style="stroke: rgba(0, 0, 0, 0); fill: rgb(239, 150, 69);" cx="18.823" cy="22.474" rx="1.015" ry="1.015"/>
  <ellipse style="stroke: rgba(0, 0, 0, 0); fill: rgb(239, 150, 69);" cx="24.661" cy="20.964" rx="1.015" ry="1.015"/>
  <path fill-rule="evenodd" clip-rule="evenodd" fill="#292F33" d="M 11.734 20.762 C 11.877 20.905 12.59 21.332 12.733 21.759 C 12.876 22.186 13.162 24.608 14.018 25.32 C 14.9 26.053 18.23 25.781 18.868 25.463 C 20.295 24.751 20.47 22.766 20.722 21.759 C 20.865 21.189 21.721 21.189 21.721 21.189 C 21.721 21.189 22.577 21.189 22.719 21.759 C 22.972 22.766 23.148 24.751 24.574 25.462 C 25.213 25.781 28.542 26.054 29.426 25.32 C 30.281 24.608 30.567 22.187 30.709 21.759 C 30.851 21.333 31.565 20.905 31.708 20.763 C 31.852 20.62 31.852 20.051 31.708 19.908 C 31.423 19.623 28.056 19.37 24.431 19.765 C 23.708 19.844 23.433 20.05 21.721 20.05 C 20.009 20.05 19.733 19.844 19.01 19.765 C 15.387 19.369 12.021 19.623 11.734 19.907 C 11.593 20.05 11.593 20.619 11.734 20.762 Z" style="" transform="matrix(0.978148, -0.207911, 0.207911, 0.978148, -4.239533, 5.011749)"/>
  <path d="M 11.022 19.778 C 11.466 19.422 15.035 19.097 18.704 19.494 C 19.55 19.621 19.799 19.776 21.361 19.776 C 22.923 19.776 23.171 19.621 24.017 19.494 C 27.688 19.098 31.254 19.423 31.701 19.78 C 31.841 19.979 31.956 20.334 31.956 20.561 C 31.956 20.789 31.841 21.144 31.7 21.344 C 31.51 21.523 30.857 21.852 30.823 22.143 C 30.692 22.522 30.329 25.056 29.385 25.931 C 28.811 26.354 27.594 26.529 26.54 26.512 C 25.485 26.495 24.385 26.318 23.991 26.135 C 22.427 25.223 22.12 23.074 21.874 22.106 C 21.921 21.978 21.839 22.019 21.66 21.964 C 21.498 21.915 21.361 21.915 21.361 21.915 C 21.361 21.915 21.224 21.915 21.062 21.964 C 20.882 22.019 20.8 21.978 20.847 22.107 C 20.601 23.075 20.295 25.223 18.731 26.136 C 18.337 26.319 17.238 26.495 16.182 26.512 C 15.129 26.528 13.912 26.353 13.338 25.93 C 12.394 25.056 12.026 22.522 11.899 22.144 C 11.808 21.871 11.209 21.52 11.018 21.339 C 10.88 21.141 10.768 20.787 10.768 20.561 C 10.768 20.334 10.885 19.976 11.022 19.778 Z M 11.768 20.561 C 11.768 20.612 11.762 20.643 11.754 20.659 C 11.925 20.803 12.663 21.277 12.847 21.826 C 13.006 22.302 13.21 24.612 13.978 25.162 C 14.286 25.472 15.175 25.527 16.167 25.512 C 17.156 25.496 18.041 25.377 18.285 25.242 C 19.574 24.731 19.618 22.909 19.877 21.864 C 20.067 21.422 20.484 21.096 20.768 21.008 C 21.07 20.916 21.361 20.915 21.361 20.915 C 21.361 20.915 21.652 20.916 21.954 21.008 C 22.238 21.096 22.655 21.423 22.844 21.864 C 23.104 22.91 23.149 24.731 24.437 25.241 C 24.682 25.376 25.566 25.496 26.556 25.512 C 27.548 25.528 28.437 25.472 28.746 25.162 C 29.513 24.612 29.721 22.305 29.874 21.828 C 30.125 21.266 30.807 20.804 30.971 20.658 C 30.963 20.643 30.956 20.69 30.956 20.562 C 30.956 20.433 30.965 20.482 30.972 20.467 C 30.657 20.264 27.705 20.094 24.125 20.488 C 23.525 20.519 23.223 20.776 21.361 20.776 C 19.499 20.776 19.196 20.519 18.596 20.488 C 15.019 20.093 12.104 20.263 11.755 20.464 C 11.762 20.48 11.768 20.431 11.768 20.561 Z" style="fill: none;"/>
  <path d="M 11.067 19.913 C 11.511 19.557 15.08 19.232 18.749 19.629 C 19.595 19.756 19.844 19.911 21.406 19.911 C 22.968 19.911 23.216 19.756 24.062 19.629 C 27.733 19.233 31.299 19.558 31.746 19.915 C 31.886 20.114 32.001 20.469 32.001 20.696 C 32.001 20.924 31.886 21.279 31.745 21.479 C 31.555 21.658 30.902 21.987 30.868 22.278 C 30.737 22.657 30.374 25.191 29.43 26.066 C 28.856 26.489 27.639 26.664 26.585 26.647 C 25.53 26.63 24.43 26.453 24.036 26.27 C 22.472 25.358 22.165 23.209 21.919 22.241 C 21.966 22.113 21.884 22.154 21.705 22.099 C 21.543 22.05 21.406 22.05 21.406 22.05 C 21.406 22.05 21.269 22.05 21.107 22.099 C 20.927 22.154 20.845 22.113 20.892 22.242 C 20.646 23.21 20.34 25.358 18.776 26.271 C 18.382 26.454 17.283 26.63 16.227 26.647 C 15.174 26.663 13.957 26.488 13.383 26.065 C 12.439 25.191 12.071 22.657 11.944 22.279 C 11.853 22.006 11.254 21.655 11.063 21.474 C 10.925 21.276 10.813 20.922 10.813 20.696 C 10.813 20.469 10.93 20.111 11.067 19.913 Z M 11.813 20.696 C 11.813 20.747 11.807 20.778 11.799 20.794 C 11.97 20.938 12.708 21.412 12.892 21.961 C 13.051 22.437 13.255 24.747 14.023 25.297 C 14.331 25.607 15.22 25.662 16.212 25.647 C 17.201 25.631 18.086 25.512 18.33 25.377 C 19.619 24.866 19.663 23.044 19.922 21.999 C 20.112 21.557 20.529 21.231 20.813 21.143 C 21.115 21.051 21.406 21.05 21.406 21.05 C 21.406 21.05 21.697 21.051 21.999 21.143 C 22.283 21.231 22.7 21.558 22.889 21.999 C 23.149 23.045 23.194 24.866 24.482 25.376 C 24.727 25.511 25.611 25.631 26.601 25.647 C 27.593 25.663 28.482 25.607 28.791 25.297 C 29.558 24.747 29.766 22.44 29.919 21.963 C 30.17 21.401 30.852 20.939 31.016 20.793 C 31.008 20.778 31.001 20.825 31.001 20.697 C 31.001 20.568 31.01 20.617 31.017 20.602 C 30.702 20.399 27.75 20.229 24.17 20.623 C 23.57 20.654 23.268 20.911 21.406 20.911 C 19.544 20.911 19.241 20.654 18.641 20.623 C 15.064 20.228 12.149 20.398 11.8 20.599 C 11.807 20.615 11.813 20.566 11.813 20.696 Z" style="fill: none;"/>
</svg>