<?xml version="1.0" encoding="utf-8"?>
<svg viewBox="0 0 1000 1000" style="shape-rendering: crispedges;" xmlns="http://www.w3.org/2000/svg">
  <path d="M 764.154 251.522 C 775.222 251.522 783.115 254.045 787.835 259.091 C 792.556 264.136 794.916 272.681 794.916 284.725 C 794.916 296.77 792.556 305.314 787.835 310.36 C 783.115 315.406 775.222 317.928 764.154 317.928 L 726.556 317.928 L 551.263 810.116 C 547.031 821.509 540.765 829.647 532.464 834.53 C 524.164 839.413 512.852 841.854 498.529 841.854 C 484.531 841.854 473.382 839.331 465.082 834.286 C 456.781 829.24 450.677 821.184 446.771 810.116 L 272.943 317.928 L 235.834 317.928 C 224.766 317.928 216.872 315.406 212.152 310.36 C 207.432 305.314 205.072 296.77 205.072 284.725 C 205.072 272.681 207.432 264.136 212.152 259.091 C 216.872 254.045 224.766 251.522 235.834 251.522 L 418.451 251.522 C 429.518 251.522 437.412 254.045 442.132 259.091 C 446.852 264.136 449.212 272.681 449.212 284.725 C 449.212 296.77 446.852 305.314 442.132 310.36 C 437.412 315.406 429.518 317.928 418.451 317.928 L 349.603 317.928 L 499.017 749.569 L 649.896 317.928 L 601.068 317.928 C 590 317.928 582.106 315.406 577.386 310.36 C 572.666 305.314 570.306 296.77 570.306 284.725 C 570.306 272.681 572.666 264.136 577.386 259.091 C 582.106 254.045 590 251.522 601.068 251.522 Z M 456.096 981.615 C 485.365 998.514 514.635 998.514 543.905 981.615 L 895.138 778.83 C 924.408 761.931 939.043 736.583 939.043 702.785 L 939.043 297.215 C 939.043 263.417 924.408 238.069 895.139 221.171 L 543.904 18.385 C 514.634 1.487 485.365 1.487 456.095 18.385 L 104.862 221.17 C 75.592 238.069 60.957 263.417 60.957 297.215 L 60.957 702.786 C 60.957 736.583 75.592 761.931 104.861 778.83 Z" style="white-space: pre; fill: rgb(255, 200, 0);"/>
</svg>