<svg xmlns="http://www.w3.org/2000/svg" xmlns:xlink="http://www.w3.org/1999/xlink" width="260" height="109" fill="none" viewBox="0 0 260 109"><defs><path id="b" fill="#FB6B1D" fill-rule="evenodd" d="M130 89c16.569 0 30-13.431 30-30 0-1.356-.09-2.691-.264-4H168v17c0 21.263-20.5 34-38.5 34S91 93.263 91 72V55h9.264a30.335 30.335 0 0 0-.264 4c0 16.569 13.431 30 30 30Z" clip-rule="evenodd"/><path id="e" fill="#FB6B1D" fill-rule="evenodd" d="M130 73c-33.683 0-65.985-1.791-89.803-4.98C16.38 64.834 3 59.91 3 56s31-8.5 51-11.5 32.5-41 76-41 56 38 76 41l.894.134C226.909 47.636 257 52.148 257 56c0 3.91-13.38 8.833-37.197 12.02C195.985 71.21 163.682 73 130 73Zm-20.655-14.235c-5.478-.733-8.555-1.728-8.555-2.765C103.5 36 121 30 130 30s26.5 6 29.21 26c0 1.037-3.077 2.032-8.555 2.765-5.478.733-12.908 1.145-20.655 1.145-7.747 0-15.177-.412-20.655-1.145Z" clip-rule="evenodd"/></defs><mask id="c" width="83" height="57" x="88" y="52" fill="#000" maskUnits="userSpaceOnUse"><path fill="#fff" d="M88 52h83v57H88z"/><path fill-rule="evenodd" d="M130 89c16.569 0 30-13.431 30-30 0-1.356-.09-2.691-.264-4H168v17c0 21.263-20.5 34-38.5 34S91 93.263 91 72V55h9.264a30.335 30.335 0 0 0-.264 4c0 16.569 13.431 30 30 30Z" clip-rule="evenodd"/></mask><g filter="url(#a)"><use xlink:href="#b" fill-rule="evenodd" clip-rule="evenodd"/></g><path fill="#000" d="M159.736 55v-3h-3.427l.453 3.396 2.974-.396ZM168 55h3v-3h-3v3Zm-77 0v-3h-3v3h3Zm8.5 0v3-3Zm.764 0 2.974.396.453-3.396h-3.427v3ZM157 59c0 14.912-12.088 27-27 27v6c18.225 0 33-14.775 33-33h-6Zm-.238-3.604A27.26 27.26 0 0 1 157 59h6c0-1.49-.099-2.957-.291-4.396l-5.947.792ZM159.736 58H168v-6h-8.264v6ZM165 55v17h6V55h-6Zm0 17c0 9.568-4.583 17.251-11.363 22.622-6.829 5.41-15.793 8.378-24.137 8.378v6c9.656 0 19.942-3.4 27.863-9.675C165.333 93.012 171 83.695 171 72h-6Zm-35.5 31c-8.344 0-17.308-2.968-24.137-8.378C98.583 89.252 94 81.568 94 72h-6c0 11.695 5.667 21.012 13.637 27.325C109.558 105.6 119.844 109 129.5 109v-6ZM94 72V55h-6v17h6Zm-3-14h8.5v-6H91v6Zm8.5 0h.764v-6H99.5v6Zm3.5 1c0-1.223.081-2.426.238-3.604l-5.947-.792A33.275 33.275 0 0 0 97 59h6Zm27 27c-14.912 0-27-12.088-27-27h-6c0 18.225 14.775 33 33 33v-6Z" mask="url(#c)"/><circle cx="130" cy="59" r="31.5" fill="#000" stroke="#000" stroke-width="3"/><g filter="url(#d)"><use xlink:href="#e" fill-rule="evenodd" clip-rule="evenodd"/></g><path stroke="#000" stroke-width="3" d="M39.998 69.508C63.902 72.708 96.275 74.5 130 74.5c33.725 0 66.098-1.793 90.002-4.992 11.958-1.601 21.36-3.645 27.807-5.805 3.214-1.076 5.767-2.206 7.548-3.367.89-.58 1.646-1.207 2.192-1.89.549-.685.951-1.511.951-2.446 0-.754-.37-1.343-.738-1.744-.369-.402-.846-.739-1.344-1.026-.999-.578-2.372-1.12-3.972-1.636-3.22-1.04-7.677-2.072-12.702-3.068-10.059-1.991-22.613-3.873-32.608-5.372l-.02-.003-.893-.134c-4.57-.686-8.834-3.391-13.444-7.33-2.294-1.96-4.63-4.184-7.107-6.56l-.527-.506c-2.31-2.218-4.741-4.551-7.334-6.865C166.613 11.76 152.27 2 130 2s-36.613 9.76-47.811 19.756c-2.593 2.314-5.024 4.647-7.335 6.865l-.526.506c-2.477 2.376-4.813 4.6-7.107 6.56-4.61 3.939-8.874 6.644-13.444 7.33l-.907.136c-9.848 1.476-22.178 3.325-32.159 5.284-5.137 1.008-9.707 2.055-13.01 3.11-1.642.523-3.05 1.073-4.073 1.656-.509.29-.996.63-1.373 1.034-.374.402-.755.998-.755 1.763 0 .935.402 1.76.95 2.446.547.683 1.303 1.31 2.193 1.89 1.78 1.161 4.334 2.29 7.548 3.367 6.447 2.16 15.85 4.204 27.807 5.805Zm69.546-12.23c-2.705-.362-4.741-.78-6.069-1.209-.523-.169-.884-.323-1.115-.448 1.406-9.212 6.116-15.178 11.524-18.884C119.453 32.922 125.777 31.5 130 31.5c4.223 0 10.547 1.422 16.116 5.237 5.408 3.706 10.118 9.672 11.524 18.884-.231.125-.592.279-1.115.448-1.328.43-3.364.847-6.069 1.209C145.064 58 137.705 58.41 130 58.41s-15.064-.41-20.456-1.132Zm-7.453-1.836a.12.12 0 0 1 .022.022c-.017-.014-.023-.022-.022-.022Zm55.796.022a.17.17 0 0 1 .022-.022c.001 0-.005.008-.022.022Z"/><g filter="url(#f)"><use xlink:href="#b" fill-rule="evenodd" clip-rule="evenodd"/></g><circle cx="130" cy="59" r="30" fill="#000"/><g filter="url(#g)"><use xlink:href="#e" fill-rule="evenodd" clip-rule="evenodd"/></g><defs><filter id="a" width="83" height="57" x="88" y="52" color-interpolation-filters="sRGB" filterUnits="userSpaceOnUse"><feFlood flood-opacity="0" result="BackgroundImageFix"/><feBlend in="SourceGraphic" in2="BackgroundImageFix" result="shape"/><feColorMatrix in="SourceAlpha" result="hardAlpha"/><feOffset dy="-4"/><feComposite in2="hardAlpha" k2="-1" k3="1" operator="arithmetic"/><feColorMatrix/><feBlend in2="shape" result="E"/><feColorMatrix in="SourceAlpha" result="hardAlpha"/><feOffset dy="4"/><feComposite in2="hardAlpha" k2="-1" k3="1" operator="arithmetic"/><feColorMatrix/><feBlend in2="E" result="E"/></filter><filter id="d" width="260" height="75.5" x="0" y=".5" color-interpolation-filters="sRGB" filterUnits="userSpaceOnUse"><feFlood flood-opacity="0" result="BackgroundImageFix"/><feBlend in="SourceGraphic" in2="BackgroundImageFix" result="shape"/><feColorMatrix in="SourceAlpha" result="hardAlpha"/><feOffset dy="-4"/><feComposite in2="hardAlpha" k2="-1" k3="1" operator="arithmetic"/><feColorMatrix/><feBlend in2="shape" result="E"/><feColorMatrix in="SourceAlpha" result="hardAlpha"/><feOffset dy="4"/><feComposite in2="hardAlpha" k2="-1" k3="1" operator="arithmetic"/><feColorMatrix/><feBlend in2="E" result="E"/></filter><filter id="f" width="77" height="51" x="91" y="55" color-interpolation-filters="sRGB" filterUnits="userSpaceOnUse"><feFlood flood-opacity="0" result="BackgroundImageFix"/><feBlend in="SourceGraphic" in2="BackgroundImageFix" result="shape"/><feColorMatrix in="SourceAlpha" result="hardAlpha"/><feOffset dy="-4"/><feComposite in2="hardAlpha" k2="-1" k3="1" operator="arithmetic"/><feColorMatrix values="0 0 0 0 0.909804 0 0 0 0 0.231373 0 0 0 0 0.231373 0 0 0 1 0"/><feBlend in2="shape" result="E"/><feColorMatrix in="SourceAlpha" result="hardAlpha"/><feOffset dy="4"/><feComposite in2="hardAlpha" k2="-1" k3="1" operator="arithmetic"/><feColorMatrix values="0 0 0 0 0.968627 0 0 0 0 0.588235 0 0 0 0 0.0901961 0 0 0 1 0"/><feBlend in2="E" result="E"/></filter><filter id="g" width="254" height="69.5" x="3" y="3.5" color-interpolation-filters="sRGB" filterUnits="userSpaceOnUse"><feFlood flood-opacity="0" result="BackgroundImageFix"/><feBlend in="SourceGraphic" in2="BackgroundImageFix" result="shape"/><feColorMatrix in="SourceAlpha" result="hardAlpha"/><feOffset dy="-4"/><feComposite in2="hardAlpha" k2="-1" k3="1" operator="arithmetic"/><feColorMatrix values="0 0 0 0 0.909804 0 0 0 0 0.231373 0 0 0 0 0.231373 0 0 0 1 0"/><feBlend in2="shape" result="E"/><feColorMatrix in="SourceAlpha" result="hardAlpha"/><feOffset dy="4"/><feComposite in2="hardAlpha" k2="-1" k3="1" operator="arithmetic"/><feColorMatrix values="0 0 0 0 0.968627 0 0 0 0 0.588235 0 0 0 0 0.0901961 0 0 0 1 0"/><feBlend in2="E" result="E"/></filter></defs></svg>