<svg xmlns="http://www.w3.org/2000/svg" width="147" height="154" fill="none" viewBox="0 0 147 154"><path fill="#9B116F" stroke="#000" stroke-width="3" d="M2 121.5c32.333 2 106.1 1.7 142.5-15.5C132.1 166.4 44.333 154.167 2 140.5v-19Z"/><path fill="#E31366" d="M19 102.5h63V4c-15.667 16.5-52.2 62.5-63 98.5Z"/><path stroke="#000" stroke-width="3" d="M82 120V4m0 0v98.5H19c10.8-36 47.333-82 63-98.5Z"/><path fill="#FF8630" d="M85 33.057c13.833 13.5 34.2 44 5 60 9.442 2.463 28.996 5.533 43.441 1.903 3.148-.79 6.054-1.9 8.559-3.403 2.167-23.167-6.2-66.9-57-58.5Z"/><path fill="#FF414D" d="M85 33.057v72.5c11.5 2.333 38.4 5.2 54-2a926.718 926.718 0 0 0-5.559-8.597c-14.445 3.63-33.999.56-43.441-1.903 29.2-16 8.833-46.5-5-60Z"/><path fill="#000" d="m85 33.057-.245-1.48-1.255.207v1.273H85Zm0 72.5h-1.5v1.226l1.202.244.298-1.47Zm54-2 .629 1.362 1.56-.721-.925-1.448-1.264.807Zm-49-10.5-.72-1.316-3.311 1.814 3.652.953.379-1.451Zm52-1.5.772 1.286.651-.39.07-.757-1.493-.14Zm-8.559 3.403-.365-1.455.365 1.455ZM83.5 33.057v72.5h3v-72.5h-3Zm1.202 73.97c5.833 1.183 15.528 2.495 25.744 2.605 10.177.109 21.074-.971 29.183-4.713l-1.258-2.724c-7.491 3.457-17.844 4.544-27.892 4.437-10.009-.107-19.514-1.396-25.18-2.545l-.597 2.94Zm-.75-72.897c6.829 6.664 15.172 17.443 18.241 28.394 1.527 5.449 1.723 10.843-.116 15.783-1.831 4.92-5.75 9.572-12.798 13.434l1.442 2.631c7.551-4.138 12.038-9.297 14.168-15.019 2.122-5.7 1.836-11.775.193-17.639-3.272-11.673-12.03-22.895-19.034-29.73l-2.096 2.146Zm59.541 57.566c1.101-11.77-.45-28.872-8.867-42.035-4.227-6.612-10.194-12.237-18.408-15.65-8.207-3.411-18.549-4.57-31.463-2.434l.49 2.96c12.486-2.065 22.24-.907 29.822 2.244 7.574 3.148 13.088 8.329 17.032 14.496 7.925 12.395 9.473 28.744 8.408 40.14l2.986.28Zm-3.229 11.054a907.334 907.334 0 0 0-5.567-8.611l-2.511 1.642a930.606 930.606 0 0 1 5.55 8.583l2.528-1.614Zm-50.643-8.242c9.517 2.483 29.37 5.63 44.186 1.907l-.731-2.91c-14.074 3.537-33.33.544-42.697-1.9l-.758 2.903Zm44.186 1.907c3.253-.818 6.303-1.975 8.965-3.572l-1.544-2.573c-2.349 1.41-5.109 2.47-8.152 3.235l.731 2.91Z"/></svg>