<svg width="1754" height="1754" viewBox="0 0 1754 1754" fill="none" xmlns="http://www.w3.org/2000/svg"><g filter="url(#a)"><rect y="876.812" width="1240" height="1240" rx="90" transform="rotate(-45 0 876.812)" fill="#4D413C"/></g><g filter="url(#b)"><path fill-rule="evenodd" clip-rule="evenodd" d="M1646.24 835.566 924.992 114.317c-25.384-25.384-66.54-25.384-91.924 0L111.819 835.566c-25.384 25.384-25.384 66.54 0 91.924l721.249 721.25c25.384 25.38 66.54 25.38 91.924 0l721.248-721.25c25.38-25.384 25.38-66.54 0-91.924ZM942.67 96.64c-35.148-35.148-92.132-35.148-127.28 0L94.141 817.889c-35.147 35.147-35.147 92.132 0 127.279L815.39 1666.42c35.148 35.14 92.132 35.14 127.28 0l721.25-721.252c35.15-35.147 35.15-92.132 0-127.279L942.67 96.639Z" fill="#EDEDED"/></g><g filter="url(#c)"><path fill-rule="evenodd" clip-rule="evenodd" d="M830.376 1542.7c8.07 3.99 17.621 5.83 26.722 5.01 4.18-.38 8.03-1.83 12.107-3.36h.012c.824-.32 1.65-.62 2.477-.93 10.687-3.89 21.639-3.36 30.838 1.48 3.787 1.99 6.921 5.16 9.418 8.5l20.193-31.39-11.641-21.35-90.126 42.04Zm88.353-38.44-79.989 37.7 72.397-29.9.829 36.85 6.763-44.65Z" fill="#EDEDED"/><path d="M900.304 1549.16c-7.99-4.2-17.57-4.63-26.973-1.21-.816.3-1.625.6-2.432.9-4.199 1.58-8.54 3.21-13.368 3.65-8.933.81-18.273-.73-26.498-4.22 5.356 6.62 32.293 35.37 77.333 8.34-2.169-2.97-4.864-5.77-8.062-7.46Z" fill="#6F9FC4"/><path fill-rule="evenodd" clip-rule="evenodd" d="M923.881 1471.05a4.326 4.326 0 0 0-6.063 1.15l-18.841 26.19 3.611-7.68-2.927-1.69-6.728 3.89-7.389 6.08 18.158-21.52c1.686-1.96 1.307-4.95-.814-6.42a4.326 4.326 0 0 0-6.063 1.15l-15.336 21.3h-3.291v-4.26l-9.468-5.48v-4.84l-4.667-2.71v-1.22h4.919v-1.26h-4.919v-2.47l-3.678-3.26-3.835 3.26v2.47h-5.41v1.26h5.41v.58l-5.771 3.35v10.7h1.925v6.73l-5.368 3.11v15.94l-4.757 2.85 4.738 3.72-11.651-6.17a2.658 2.658 0 0 0-3.688 1.47 2.67 2.67 0 0 0 .086 2.06c.149.32.361.61.622.84.262.24.568.42.9.54l7.945 2.83-6.545 3.79 3.754 2.96-9.889-4.75c-.325-.17-.68-.26-1.043-.28-.363-.02-.726.04-1.067.16a2.61 2.61 0 0 0-.915.58c-.263.25-.472.55-.614.89a2.641 2.641 0 0 0 .013 2.11c.146.34.358.64.624.89s.58.44.922.56l6.646 2.37-4.461 5.09 80.991-37.78v-4.79l14.748-17.87c1.686-1.96 1.306-4.95-.814-6.42Zm.764 4.26c-.68.93-2.206.98-3.406.1-1.201-.88-1.624-2.35-.944-3.28.679-.94 2.204-.98 3.406-.11 1.201.88 1.623 2.35.944 3.29Zm-48.462 28.78-1.54-12.12-5.925-5.46 7.465 4.39v13.19Zm-15.345 8.65.001-6.45 8.004-8.65v8.09l-8.005 7.01Zm-1.454 1.27-6.063 5.31v-4.9l6.063-6.55v6.14Zm7.155-33.57v13.19l-1.54-12.12-5.925-5.47 7.465 4.4Zm-38.381 47.47c-.338.86-1.147 1.33-1.806 1.07s-.92-1.17-.582-2.02c.339-.85 1.147-1.33 1.807-1.06.659.26.919 1.16.581 2.01Zm6.815-9.73c-.338.85-1.147 1.33-1.806 1.06-.66-.26-.92-1.16-.582-2.02.339-.85 1.148-1.32 1.807-1.06s.919 1.17.581 2.02Zm64.329-46.05c.68-.94 2.205-.98 3.406-.11 1.201.88 1.623 2.35.944 3.29-.68.93-2.205.98-3.406.1-1.202-.88-1.624-2.35-.944-3.28Z" fill="#EDEDED"/></g><g filter="url(#d)"><circle cx="162" cy="877" r="31" fill="#EDEDED"/></g><g filter="url(#e)"><circle cx="1597" cy="877" r="31" fill="#EDEDED"/></g><g filter="url(#f)" fill="#EDEDED"><path d="M691.436 486.771c-.61 7.262-2.666 13.762-6.17 19.5-3.454 5.688-8.303 10.157-14.549 13.407-6.246 3.25-13.889 4.875-22.928 4.875-9.141 0-17.088-2.133-23.842-6.399-6.703-4.316-11.883-10.41-15.539-18.281-3.605-7.871-5.408-17.164-5.408-27.879v-8.76c0-10.765 1.854-20.058 5.561-27.879 3.707-7.871 8.962-13.964 15.767-18.281 6.856-4.316 14.93-6.474 24.223-6.474 8.887 0 16.377 1.65 22.47 4.951 6.145 3.25 10.893 7.769 14.245 13.558 3.402 5.739 5.459 12.34 6.17 19.805h-19.577c-.761-7.059-2.869-12.543-6.322-16.453-3.402-3.91-9.064-5.865-16.986-5.865-5.739 0-10.512 1.422-14.321 4.265-3.757 2.793-6.601 6.907-8.531 12.34-1.929 5.383-2.894 12.01-2.894 19.881v8.912c0 7.516.863 14.016 2.59 19.5 1.726 5.434 4.417 9.649 8.074 12.645 3.656 2.945 8.429 4.418 14.32 4.418 5.383 0 9.725-.838 13.025-2.514 3.352-1.676 5.891-4.113 7.618-7.313 1.726-3.25 2.843-7.236 3.351-11.959h19.653Zm66.15-19.423c0-4.266-1.193-7.668-3.58-10.207-2.336-2.539-5.89-3.809-10.664-3.809-2.844 0-5.332.508-7.465 1.523-2.133.965-3.783 2.286-4.951 3.961-1.168 1.676-1.752 3.58-1.752 5.713h-18.89c0-4.418 1.396-8.556 4.189-12.416 2.793-3.91 6.728-7.058 11.807-9.445 5.129-2.387 11.171-3.58 18.129-3.58 6.195 0 11.705 1.041 16.529 3.123 4.824 2.082 8.607 5.23 11.349 9.445 2.793 4.215 4.19 9.496 4.19 15.844v36.334c0 3.859.279 7.262.838 10.207.558 2.945 1.345 5.51 2.361 7.693v1.295h-19.348c-.863-1.98-1.548-4.545-2.056-7.693a64.135 64.135 0 0 1-.686-9.217v-38.771Zm2.895 17.138h-12.949c-6.704 0-11.756 1.244-15.159 3.733-3.351 2.437-5.027 5.763-5.027 9.978 0 3.25 1.117 5.967 3.352 8.151 2.234 2.132 5.382 3.199 9.445 3.199 3.707 0 6.932-.736 9.674-2.209 2.793-1.524 4.976-3.377 6.55-5.561 1.575-2.234 2.387-4.316 2.438-6.246l6.018 8.455c-.61 2.082-1.651 4.317-3.123 6.703-1.422 2.336-3.327 4.571-5.713 6.704-2.336 2.082-5.129 3.808-8.379 5.179-3.199 1.321-6.932 1.981-11.198 1.981-5.382 0-10.181-1.067-14.396-3.199-4.215-2.133-7.541-5.053-9.979-8.76-2.386-3.758-3.58-7.973-3.58-12.645 0-8.734 3.276-15.437 9.827-20.109 6.55-4.672 15.843-7.008 27.878-7.008h14.168l.153 11.654Zm89.154-43.875h18.891v82.418h-17.824l-1.067-19.5v-62.918Zm8.913 45.551c0 7.414-1.092 14.016-3.276 19.805-2.183 5.738-5.586 10.283-10.207 13.635-4.621 3.3-10.613 4.951-17.976 4.951-8.125 0-14.702-2.387-19.729-7.16-5.027-4.774-7.541-12.62-7.541-23.538v-53.244h18.891v53.397c0 3.808.584 6.83 1.752 9.064 1.218 2.184 2.818 3.733 4.798 4.647 1.981.914 4.164 1.371 6.551 1.371 5.129 0 9.166-.99 12.112-2.971 2.996-2.031 5.128-4.773 6.398-8.226 1.269-3.454 1.904-7.313 1.904-11.579l6.323-.152Zm71.406-31.611h-46.769v-13.94h46.769v13.94Zm-14.625-34.125v79.371c0 2.539.356 4.469 1.066 5.789.711 1.269 1.727 2.133 3.047 2.59 1.321.457 2.844.685 4.571.685a28.33 28.33 0 0 0 3.656-.228c1.168-.153 2.107-.305 2.818-.457v14.549c-1.523.507-3.301.939-5.332 1.295-1.98.355-4.316.533-7.008.533-4.214 0-7.972-.762-11.273-2.285-3.25-1.524-5.814-3.987-7.693-7.389-1.828-3.453-2.743-8.024-2.743-13.711v-80.742h18.891Zm53.354 102.603h-18.891v-82.418h18.891v82.418Zm-20.109-103.974c0-2.895.939-5.282 2.818-7.16 1.879-1.93 4.494-2.895 7.846-2.895 3.351 0 5.992.965 7.921 2.895 1.93 1.878 2.895 4.265 2.895 7.16 0 2.843-.965 5.23-2.895 7.16-1.929 1.879-4.57 2.818-7.921 2.818-3.352 0-5.967-.939-7.846-2.818-1.879-1.93-2.818-4.317-2.818-7.16Zm41.242 62.004c0-8.024 1.523-15.184 4.57-21.481 3.047-6.297 7.414-11.273 13.104-14.93 5.74-3.707 12.62-5.56 20.64-5.56 8.13 0 15.06 1.853 20.8 5.56 5.73 3.657 10.1 8.633 13.1 14.93 3.04 6.297 4.57 13.457 4.57 21.481v1.599c0 7.973-1.53 15.133-4.57 21.481-3 6.297-7.37 11.273-13.1 14.929-5.69 3.657-12.57 5.485-20.65 5.485-8.07 0-14.98-1.828-20.72-5.485-5.73-3.656-10.127-8.632-13.174-14.929-3.047-6.348-4.57-13.508-4.57-21.481v-1.599Zm18.894 1.599c0 4.875.68 9.344 2.05 13.406 1.37 4.012 3.48 7.237 6.33 9.674 2.89 2.438 6.62 3.657 11.19 3.657 4.52 0 8.2-1.219 11.05-3.657 2.89-2.437 5-5.662 6.32-9.674 1.37-4.062 2.06-8.531 2.06-13.406v-1.599c0-4.825-.69-9.268-2.06-13.33-1.32-4.063-3.43-7.313-6.32-9.75-2.9-2.489-6.63-3.733-11.2-3.733-4.52 0-8.23 1.244-11.12 3.733-2.84 2.437-4.95 5.687-6.32 9.75-1.32 4.062-1.98 8.505-1.98 13.33v1.599Zm96.62 40.371h-18.89v-82.418h17.74l1.15 17.596v64.822Zm-9.45-44.103c.05-7.973 1.45-14.93 4.19-20.871 2.74-5.993 6.58-10.639 11.5-13.94 4.93-3.351 10.67-5.027 17.22-5.027 5.33 0 9.95 1.016 13.86 3.047 3.91 1.98 6.96 5.23 9.14 9.75 2.18 4.469 3.28 10.486 3.28 18.053v53.091h-18.97v-53.244c0-3.808-.56-6.83-1.68-9.064-1.06-2.235-2.69-3.809-4.87-4.723-2.13-.965-4.75-1.447-7.85-1.447-3.15 0-5.94.635-8.38 1.904-2.38 1.219-4.44 2.945-6.17 5.18-1.67 2.234-2.97 4.824-3.88 7.769-.86 2.946-1.3 6.094-1.3 9.446l-6.09.076Z"/></g><g filter="url(#g)"><path fill-rule="evenodd" clip-rule="evenodd" d="M489.948 594c6.904 0 12.5 5.596 12.5 12.5v.223c0 23.122 12.892 38.074 28.515 47.851 7.855 4.915 16.136 8.309 23.128 10.462 7.296 2.247 12.215 2.851 13.305 2.851 1.09 0 6.009-.604 13.305-2.851 6.992-2.153 15.273-5.547 23.128-10.462 15.623-9.777 28.515-24.729 28.515-47.851 0-6.904 5.597-12.5 12.5-12.5 6.904 0 12.5 5.596 12.5 12.5v.222c0 23.122 12.892 38.075 28.515 47.852 7.855 4.915 16.137 8.309 23.128 10.462 7.296 2.247 12.215 2.851 13.305 2.851.516 0 1.024.031 1.523.092 2.188-.277 6.319-1.038 11.782-2.72 6.992-2.153 15.274-5.548 23.128-10.463 15.624-9.777 28.515-24.729 28.515-47.851 0-6.904 5.597-12.5 12.5-12.5 6.904 0 12.5 5.596 12.5 12.5v.222c0 23.122 12.892 38.075 28.516 47.852 7.854 4.915 16.136 8.309 23.128 10.462 7.295 2.247 12.215 2.851 13.304 2.851 1.09 0 6.009-.604 13.305-2.851 6.992-2.153 15.274-5.547 23.128-10.462 15.624-9.777 28.516-24.73 28.516-47.852 0-6.903 5.596-12.5 12.5-12.5 6.903 0 12.5 5.597 12.5 12.5l-.001.162.001.061c0 23.122 12.891 38.074 28.515 47.851 7.858 4.915 16.138 8.31 23.128 10.463 5.46 1.682 9.59 2.443 11.78 2.72.5-.061 1.01-.092 1.52-.092 1.09 0 6.01-.604 13.31-2.851 6.99-2.153 15.27-5.547 23.13-10.462 15.62-9.777 28.51-24.73 28.51-47.852 0-6.903 5.6-12.5 12.5-12.5 6.91 0 12.5 5.597 12.5 12.5v.223c0 23.122 12.89 38.074 28.52 47.851 7.85 4.915 16.13 8.31 23.13 10.463 7.29 2.246 12.21 2.85 13.3 2.85 1.09 0 6.01-.604 13.31-2.85 6.99-2.153 15.27-5.548 23.12-10.463 15.63-9.777 28.52-24.729 28.52-47.851 0-6.904 5.6-12.5 12.5-12.5s12.5 5.596 12.5 12.5v.222c0 23.123 12.89 38.075 28.51 47.852 7.86 4.915 16.14 8.309 23.13 10.462 7.3 2.247 12.22 2.851 13.31 2.851 6.9 0 12.5 5.596 12.5 12.5s-5.6 12.5-12.5 12.5c-4.7 0-12.35-1.399-20.67-3.958-8.61-2.653-18.97-6.867-29.03-13.163-10.16-6.357-20.27-15.047-27.82-26.504-7.54 11.347-17.59 19.966-27.68 26.282-10.07 6.296-20.42 10.51-29.04 13.163-8.31 2.559-15.96 3.957-20.66 3.957-4.7 0-12.35-1.398-20.66-3.957-8.62-2.653-18.97-6.867-29.03-13.163-10.16-6.357-20.28-15.048-27.83-26.505-7.54 11.347-17.59 19.966-27.68 26.282-10.06 6.296-20.42 10.51-29.03 13.163-6.69 2.059-12.95 3.367-17.59 3.799-.98.249-2.01.381-3.08.381-4.69 0-12.35-1.398-20.66-3.957-8.61-2.653-18.969-6.867-29.03-13.163-10.159-6.357-20.276-15.048-27.827-26.505-7.535 11.347-17.587 19.966-27.68 26.282-10.061 6.296-20.418 10.51-29.032 13.163-8.311 2.559-15.966 3.958-20.663 3.958-4.696 0-12.351-1.399-20.662-3.958-8.614-2.653-18.971-6.867-29.032-13.163-10.159-6.357-20.277-15.048-27.827-26.505-7.535 11.348-17.587 19.967-27.68 26.283-10.061 6.295-20.418 10.51-29.033 13.162-8.31 2.56-15.965 3.958-20.662 3.958-1.061 0-2.091-.132-3.074-.381-4.639-.432-10.901-1.74-17.588-3.799-8.614-2.653-18.972-6.867-29.032-13.163-10.159-6.357-20.277-15.048-27.827-26.505-7.535 11.347-17.587 19.967-27.68 26.283-10.061 6.295-20.418 10.51-29.033 13.162-8.31 2.559-15.965 3.958-20.662 3.958-4.696 0-12.351-1.399-20.662-3.958-8.615-2.652-18.972-6.867-29.033-13.162-10.158-6.357-20.276-15.048-27.827-26.505-7.534 11.347-17.587 19.966-27.679 26.282-10.061 6.296-20.418 10.51-29.033 13.163-8.31 2.559-15.965 3.958-20.662 3.958-6.904 0-12.5-5.597-12.5-12.5 0-6.904 5.596-12.5 12.5-12.5 1.09 0 6.009-.604 13.305-2.851 6.992-2.153 15.273-5.547 23.128-10.463 15.623-9.776 28.515-24.729 28.515-47.851 0-6.904 5.597-12.5 12.5-12.5Z" fill="#6F9FC4"/></g><g filter="url(#h)" fill="#EDEDED"><path d="M501.188 1116.5c0-2.46-.521-4.54-1.563-6.25-1-1.75-2.896-3.35-5.687-4.81-2.792-1.5-6.813-3.06-12.063-4.69-4.292-1.29-8.271-2.77-11.937-4.44-3.626-1.66-6.792-3.58-9.5-5.75-2.709-2.21-4.834-4.75-6.376-7.62-1.5-2.92-2.25-6.27-2.25-10.06 0-4.96 1.376-9.32 4.126-13.07 2.75-3.79 6.562-6.75 11.437-8.87 4.875-2.13 10.521-3.19 16.937-3.19 6.834 0 12.709 1.25 17.626 3.75 4.916 2.46 8.687 5.79 11.312 10 2.667 4.21 4 8.9 4 14.06h-16.125c0-2.87-.625-5.44-1.875-7.68-1.208-2.3-3.062-4.07-5.562-5.32-2.5-1.29-5.688-1.94-9.563-1.94-3.625 0-6.646.55-9.063 1.63-2.416 1.08-4.208 2.54-5.374 4.37-1.167 1.84-1.75 3.92-1.75 6.26 0 2.2.708 4.16 2.124 5.87 1.417 1.71 3.563 3.27 6.438 4.69 2.875 1.37 6.458 2.71 10.75 4 6.75 1.96 12.354 4.25 16.812 6.87 4.459 2.63 7.771 5.73 9.938 9.31 2.208 3.59 3.312 7.84 3.312 12.76 0 5.12-1.333 9.56-4 13.31-2.666 3.71-6.437 6.56-11.312 8.56-4.875 2-10.604 3-17.188 3-4.374 0-8.687-.58-12.937-1.75-4.25-1.21-8.104-3-11.563-5.38a28.047 28.047 0 0 1-8.25-9.06c-2.041-3.62-3.062-7.89-3.062-12.81h16.125c0 2.92.5 5.4 1.5 7.44s2.396 3.73 4.187 5.06c1.792 1.29 3.876 2.23 6.25 2.81 2.417.59 5 .88 7.75.88 3.626 0 6.646-.5 9.063-1.5 2.417-1.04 4.229-2.46 5.437-4.25 1.25-1.79 1.876-3.86 1.876-6.19Zm72.839-44.12h15.5V1140h-14.625l-.875-16v-51.62Zm7.313 37.37c0 6.08-.896 11.5-2.688 16.25-1.791 4.71-4.583 8.44-8.375 11.19-3.791 2.71-8.708 4.06-14.75 4.06-6.666 0-12.062-1.96-16.187-5.87-4.125-3.92-6.188-10.36-6.188-19.32v-43.68h15.5v43.81c0 3.12.48 5.6 1.438 7.43 1 1.8 2.312 3.07 3.937 3.82s3.417 1.12 5.375 1.12c4.209 0 7.521-.81 9.938-2.44 2.458-1.66 4.208-3.91 5.25-6.74 1.042-2.84 1.562-6 1.562-9.5l5.188-.13Zm42.777-65.75v81.38l-1.5 14.62h-14v-96h15.5Zm44 62.88c0 6.66-1 12.58-3 17.74-1.958 5.17-4.895 9.23-8.812 12.19-3.875 2.96-8.708 4.44-14.5 4.44-5.625 0-10.292-1.42-14-4.25-3.667-2.83-6.521-6.73-8.563-11.69-2-5-3.375-10.75-4.125-17.25v-3.68c.75-6.55 2.125-12.3 4.125-17.26 2.042-5 4.896-8.91 8.563-11.74 3.667-2.84 8.292-4.26 13.875-4.26 5.833 0 10.708 1.46 14.625 4.38s6.854 6.96 8.812 12.12c2 5.17 3 11.15 3 17.94v1.32Zm-15.5-1.32c0-3.96-.458-7.58-1.375-10.87-.875-3.29-2.395-5.92-4.562-7.88-2.125-2-5.083-3-8.875-3-2.625 0-4.875.44-6.75 1.31-1.875.88-3.458 2.09-4.75 3.63-1.25 1.54-2.229 3.35-2.938 5.44-.708 2.08-1.187 4.33-1.437 6.75v10.62c.375 3.13 1.146 5.98 2.312 8.56 1.167 2.59 2.875 4.65 5.125 6.19 2.25 1.5 5.105 2.25 8.563 2.25 3.708 0 6.625-.96 8.75-2.87 2.125-1.92 3.646-4.5 4.562-7.75.917-3.29 1.375-6.98 1.375-11.06v-1.32Zm47.34 34.44h-15.562v-67.62h14.625l.937 13.81V1140Zm-7.812-36.19c0-6.29 1-11.89 3-16.81 2.042-4.92 5.062-8.79 9.062-11.62 4-2.84 8.98-4.26 14.938-4.26 6.125 0 11.167 1.86 15.125 5.57s5.937 9.79 5.937 18.25V1140h-15.5v-43.62c0-3.17-.5-5.67-1.5-7.5-.958-1.84-2.333-3.13-4.125-3.88-1.75-.79-3.854-1.19-6.312-1.19-2.792 0-5.167.52-7.125 1.57-1.917 1-3.479 2.41-4.688 4.24-1.208 1.84-2.104 3.96-2.687 6.38-.542 2.42-.813 5-.813 7.75l-5.312.06Zm39.812-2.19c.042-5.54 1.063-10.62 3.063-15.24 2-4.63 4.958-8.32 8.875-11.07 3.917-2.79 8.75-4.19 14.5-4.19 4.583 0 8.521.86 11.812 2.57 3.292 1.66 5.834 4.35 7.625 8.06 1.792 3.67 2.688 8.54 2.688 14.63V1140h-15.563v-43.75c0-3.29-.5-5.83-1.5-7.63-.958-1.83-2.333-3.08-4.125-3.74-1.75-.71-3.833-1.07-6.25-1.07-2.291 0-4.312.42-6.062 1.25-1.708.84-3.146 2-4.313 3.5-1.125 1.46-2 3.19-2.625 5.19-.583 1.96-.875 4.08-.875 6.37l-7.25 1.5Zm105.653-7.31c0-3.5-.979-6.29-2.938-8.37-1.916-2.09-4.833-3.13-8.75-3.13-2.333 0-4.375.42-6.125 1.25-1.75.79-3.104 1.88-4.062 3.25-.958 1.38-1.438 2.94-1.438 4.69h-15.5c0-3.62 1.146-7.02 3.438-10.19 2.292-3.21 5.521-5.79 9.687-7.75 4.209-1.96 9.167-2.94 14.875-2.94 5.084 0 9.605.86 13.563 2.57s7.062 4.29 9.312 7.75c2.292 3.46 3.438 7.79 3.438 13v29.81c0 3.17.229 5.96.687 8.37.459 2.42 1.105 4.53 1.938 6.32v1.06H839.86c-.708-1.62-1.271-3.73-1.688-6.31a52.772 52.772 0 0 1-.562-7.57v-31.81Zm2.375 14.07H829.36c-5.5 0-9.646 1.02-12.438 3.06-2.75 2-4.125 4.73-4.125 8.18 0 2.67.917 4.9 2.75 6.69 1.834 1.75 4.417 2.63 7.75 2.63 3.042 0 5.688-.61 7.938-1.82 2.292-1.24 4.083-2.77 5.375-4.56 1.292-1.83 1.958-3.54 2-5.12l4.937 6.94c-.5 1.7-1.354 3.54-2.562 5.5-1.167 1.91-2.729 3.74-4.688 5.5-1.916 1.7-4.208 3.12-6.875 4.24-2.625 1.09-5.687 1.63-9.187 1.63-4.417 0-8.354-.87-11.813-2.63-3.458-1.74-6.187-4.14-8.187-7.18-1.958-3.09-2.938-6.54-2.938-10.38 0-7.16 2.688-12.66 8.063-16.5 5.375-3.83 13-5.75 22.875-5.75h11.625l.125 9.57Zm48.152 31.62h-15.5v-67.62h14.75l.75 13.24V1140Zm20.375-53.38c-.958-.16-1.979-.29-3.062-.37a40.81 40.81 0 0 0-3.125-.13c-3.417 0-6.271.63-8.563 1.88-2.25 1.21-3.958 2.96-5.125 5.25-1.166 2.25-1.854 4.92-2.062 8l-3.563.06c0-5.71.75-10.83 2.25-15.37 1.5-4.54 3.75-8.15 6.75-10.82 3-2.66 6.75-4 11.25-4 .875 0 1.855.09 2.938.26 1.083.16 1.896.35 2.437.56l-.125 14.68Zm29.841 53.38h-15.5v-67.62h15.5V1140Zm-16.5-85.31c0-2.38.77-4.34 2.312-5.88 1.542-1.58 3.688-2.37 6.438-2.37 2.75 0 4.916.79 6.5 2.37 1.583 1.54 2.375 3.5 2.375 5.88 0 2.33-.792 4.29-2.375 5.87-1.584 1.54-3.75 2.32-6.5 2.32s-4.896-.78-6.438-2.32c-1.542-1.58-2.312-3.54-2.312-5.87ZM973.88 1140h-15.5v-67.62h14.563l.937 14.43V1140Zm-7.75-36.19c.042-6.54 1.188-12.25 3.438-17.12 2.25-4.92 5.395-8.73 9.437-11.44 4.042-2.75 8.75-4.13 14.125-4.13 4.375 0 8.17.84 11.38 2.5 3.2 1.63 5.7 4.3 7.5 8 1.79 3.67 2.68 8.61 2.68 14.82V1140h-15.56v-43.69c0-3.12-.458-5.6-1.375-7.43-.875-1.84-2.208-3.13-4-3.88-1.75-.79-3.896-1.19-6.437-1.19-2.584 0-4.875.52-6.875 1.57-1.959 1-3.646 2.41-5.063 4.24-1.375 1.84-2.437 3.96-3.187 6.38-.709 2.42-1.063 5-1.063 7.75l-5 .06Zm97.59 37.44c-6.71 0-12.5-1.44-17.38-4.31-4.87-2.92-8.62-6.84-11.25-11.75-2.62-4.96-3.93-10.5-3.93-16.63V1106c0-7.04 1.33-13.17 4-18.38 2.66-5.24 6.31-9.31 10.93-12.18 4.67-2.88 9.94-4.32 15.82-4.32 6.5 0 11.89 1.42 16.18 4.26 4.3 2.79 7.5 6.68 9.63 11.68 2.12 4.96 3.19 10.71 3.19 17.25v6.69h-52.32v-11.19h37v-1.19c-.08-2.62-.58-5.08-1.5-7.37-.91-2.29-2.37-4.15-4.37-5.56-1.96-1.42-4.58-2.13-7.88-2.13-3.29 0-6.06.94-8.31 2.82-2.25 1.83-3.96 4.43-5.12 7.81-1.17 3.33-1.75 7.27-1.75 11.81v2.56c0 3.84.71 7.27 2.12 10.32 1.42 3.04 3.48 5.45 6.19 7.24 2.71 1.76 5.94 2.63 9.69 2.63 3.62 0 6.83-.71 9.62-2.13 2.84-1.41 5.27-3.45 7.31-6.12l8.13 8.12c-2.13 3.21-5.33 6.13-9.63 8.76-4.25 2.58-9.7 3.87-16.37 3.87Zm80.4-19.69c0-1.41-.37-2.71-1.12-3.87-.71-1.17-2.11-2.25-4.19-3.25-2.08-1-5.15-1.92-9.19-2.75-4.79-1-9.02-2.34-12.69-4-3.62-1.67-6.45-3.81-8.5-6.44-2-2.63-3-5.83-3-9.63 0-3.66 1.05-7.04 3.13-10.12 2.12-3.12 5.15-5.62 9.06-7.5 3.96-1.92 8.63-2.88 14-2.88 5.67 0 10.54.96 14.63 2.88 4.08 1.88 7.21 4.44 9.37 7.69 2.21 3.21 3.31 6.85 3.31 10.93h-15.5c0-2.66-1-5-3-7-1.95-2.04-4.91-3.06-8.87-3.06-2.46 0-4.52.4-6.19 1.19-1.62.79-2.85 1.81-3.69 3.06-.79 1.25-1.18 2.63-1.18 4.13 0 1.46.39 2.73 1.18 3.81.84 1.08 2.23 2.04 4.19 2.87 2 .84 4.79 1.63 8.38 2.38 5.16 1.08 9.62 2.46 13.37 4.12 3.75 1.63 6.63 3.8 8.63 6.5 2.04 2.67 3.06 6.07 3.06 10.19 0 3.96-1.15 7.48-3.44 10.57-2.25 3.08-5.44 5.5-9.56 7.24-4.08 1.76-8.92 2.63-14.5 2.63-6.21 0-11.44-1.1-15.69-3.31s-7.48-5.02-9.69-8.44c-2.16-3.46-3.25-7.04-3.25-10.75h14.94c.17 2.67.92 4.81 2.25 6.44 1.38 1.62 3.09 2.81 5.13 3.56 2.08.71 4.25 1.06 6.5 1.06 2.66 0 4.87-.35 6.62-1.06 1.79-.71 3.15-1.67 4.06-2.87.96-1.26 1.44-2.69 1.44-4.32Zm84.31 18.44h-15.5v-67.62h15.5V1140Zm-16.5-85.31c0-2.38.77-4.34 2.31-5.88 1.54-1.58 3.69-2.37 6.44-2.37 2.75 0 4.91.79 6.5 2.37 1.58 1.54 2.37 3.5 2.37 5.88 0 2.33-.79 4.29-2.37 5.87-1.59 1.54-3.75 2.32-6.5 2.32s-4.9-.78-6.44-2.32c-1.54-1.58-2.31-3.54-2.31-5.87Zm52.02 85.31h-15.5v-67.62h14.57l.93 14.43V1140Zm-7.75-36.19c.05-6.54 1.19-12.25 3.44-17.12 2.25-4.92 5.4-8.73 9.44-11.44 4.04-2.75 8.75-4.13 14.12-4.13 4.38 0 8.17.84 11.38 2.5 3.21 1.63 5.71 4.3 7.5 8 1.79 3.67 2.69 8.61 2.69 14.82V1140h-15.57v-43.69c0-3.12-.45-5.6-1.37-7.43-.88-1.84-2.21-3.13-4-3.88-1.75-.79-3.9-1.19-6.44-1.19-2.58 0-4.87.52-6.87 1.57-1.96 1-3.65 2.41-5.07 4.24-1.37 1.84-2.43 3.96-3.18 6.38-.71 2.42-1.07 5-1.07 7.75l-5 .06Zm-600.85 168h-38.375v-11.43h38.375v11.43Zm-12-28v65.13c0 2.08.292 3.66.875 4.75.583 1.04 1.417 1.75 2.5 2.12 1.083.38 2.333.57 3.75.57 1.042 0 2.042-.07 3-.19.958-.13 1.729-.25 2.313-.38v11.94c-1.25.42-2.709.77-4.375 1.06-1.625.29-3.542.44-5.75.44-3.459 0-6.542-.63-9.25-1.87-2.667-1.26-4.771-3.28-6.313-6.07-1.5-2.83-2.25-6.58-2.25-11.25v-66.25h15.5Zm42.528 84.19h-15.5v-96h15.5v96Zm-7.688-36.19c.042-6.29 1.146-11.89 3.313-16.81 2.208-4.92 5.291-8.79 9.25-11.62 3.958-2.84 8.583-4.26 13.875-4.26 4.458 0 8.333.86 11.625 2.57 3.333 1.66 5.916 4.37 7.75 8.12 1.833 3.71 2.75 8.67 2.75 14.88V1328H711.19v-43.44c0-3.16-.458-5.68-1.375-7.56s-2.271-3.21-4.062-4c-1.75-.79-3.896-1.19-6.438-1.19-2.667 0-5 .52-7 1.57-2 1-3.687 2.41-5.062 4.24-1.375 1.84-2.396 3.96-3.063 6.38-.667 2.42-1 5-1 7.75l-5 .06Zm84.027 36.19h-15.5v-67.62h15.5V1328Zm-16.5-85.31c0-2.38.771-4.34 2.313-5.88 1.542-1.58 3.687-2.37 6.437-2.37 2.75 0 4.917.79 6.5 2.37 1.584 1.54 2.375 3.5 2.375 5.88 0 2.33-.791 4.29-2.375 5.87-1.583 1.54-3.75 2.32-6.5 2.32s-4.895-.78-6.437-2.32c-1.542-1.58-2.313-3.54-2.313-5.87Zm74.466 66.87c0-1.41-.375-2.71-1.125-3.87-.709-1.17-2.105-2.25-4.188-3.25-2.083-1-5.146-1.92-9.187-2.75-4.792-1-9.021-2.34-12.688-4-3.625-1.67-6.458-3.81-8.5-6.44-2-2.63-3-5.83-3-9.63 0-3.66 1.042-7.04 3.125-10.12 2.125-3.12 5.146-5.62 9.063-7.5 3.958-1.92 8.625-2.88 14-2.88 5.666 0 10.541.96 14.625 2.88 4.083 1.88 7.208 4.44 9.375 7.69 2.208 3.21 3.312 6.85 3.312 10.93h-15.5c0-2.66-1-5-3-7-1.958-2.04-4.917-3.06-8.875-3.06-2.458 0-4.521.4-6.187 1.19-1.625.79-2.855 1.81-3.688 3.06a7.57 7.57 0 0 0-1.187 4.13c0 1.46.395 2.73 1.187 3.81.833 1.08 2.229 2.04 4.188 2.87 2 .84 4.791 1.63 8.375 2.38 5.166 1.08 9.625 2.46 13.375 4.12 3.75 1.63 6.625 3.8 8.625 6.5 2.041 2.67 3.062 6.07 3.062 10.19 0 3.96-1.146 7.48-3.437 10.57-2.25 3.08-5.438 5.5-9.563 7.24-4.083 1.76-8.917 2.63-14.5 2.63-6.208 0-11.437-1.1-15.687-3.31s-7.48-5.02-9.688-8.44c-2.167-3.46-3.25-7.04-3.25-10.75h14.938c.166 2.67.916 4.81 2.25 6.44 1.375 1.62 3.083 2.81 5.125 3.56 2.083.71 4.25 1.06 6.5 1.06 2.666 0 4.875-.35 6.625-1.06 1.791-.71 3.145-1.67 4.062-2.87.958-1.26 1.438-2.69 1.438-4.32Zm105.742-27.25c0-3.5-.979-6.29-2.937-8.37-1.917-2.09-4.834-3.13-8.75-3.13-2.334 0-4.375.42-6.125 1.25-1.75.79-3.105 1.88-4.063 3.25-.958 1.38-1.437 2.94-1.437 4.69h-15.5c0-3.62 1.145-7.02 3.437-10.19 2.292-3.21 5.521-5.79 9.688-7.75 4.208-1.96 9.166-2.94 14.875-2.94 5.083 0 9.604.86 13.562 2.57s7.063 4.29 9.313 7.75c2.291 3.46 3.437 7.79 3.437 13v29.81c0 3.17.229 5.96.688 8.37.458 2.42 1.104 4.53 1.937 6.32v1.06h-15.875c-.708-1.62-1.271-3.73-1.687-6.31a52.776 52.776 0 0 1-.563-7.57v-31.81Zm2.375 14.07h-10.625c-5.5 0-9.646 1.02-12.437 3.06-2.75 2-4.125 4.73-4.125 8.18 0 2.67.916 4.9 2.75 6.69 1.833 1.75 4.416 2.63 7.75 2.63 3.041 0 5.687-.61 7.937-1.82 2.292-1.24 4.083-2.77 5.375-4.56 1.292-1.83 1.958-3.54 2-5.12l4.938 6.94c-.5 1.7-1.355 3.54-2.563 5.5-1.167 1.91-2.729 3.74-4.687 5.5-1.917 1.7-4.209 3.12-6.875 4.24-2.625 1.09-5.688 1.63-9.188 1.63-4.417 0-8.354-.87-11.812-2.63-3.459-1.74-6.188-4.14-8.188-7.18-1.958-3.09-2.937-6.54-2.937-10.38 0-7.16 2.687-12.66 8.062-16.5 5.375-3.83 13-5.75 22.875-5.75h11.625l.125 9.57Zm48.153 31.62h-15.5v-67.62h14.75l.75 13.24V1328Zm20.375-53.38c-.959-.16-1.98-.29-3.063-.37a40.81 40.81 0 0 0-3.125-.13c-3.417 0-6.271.63-8.562 1.88-2.25 1.21-3.959 2.96-5.125 5.25-1.167 2.25-1.855 4.92-2.063 8l-3.562.06c0-5.71.75-10.83 2.25-15.37 1.5-4.54 3.75-8.15 6.75-10.82 3-2.66 6.75-4 11.25-4 .875 0 1.854.09 2.937.26 1.083.16 1.896.35 2.438.56l-.125 14.68Zm43.272 54.63c-6.7 0-12.5-1.44-17.37-4.31-4.88-2.92-8.63-6.84-11.25-11.75-2.63-4.96-3.94-10.5-3.94-16.63V1294c0-7.04 1.34-13.17 4-18.38 2.67-5.24 6.31-9.31 10.94-12.18 4.67-2.88 9.94-4.32 15.81-4.32 6.5 0 11.9 1.42 16.19 4.26 4.29 2.79 7.5 6.68 9.62 11.68 2.13 4.96 3.19 10.71 3.19 17.25v6.69h-52.31v-11.19h37v-1.19c-.08-2.62-.58-5.08-1.5-7.37s-2.38-4.15-4.38-5.56c-1.95-1.42-4.58-2.13-7.87-2.13s-6.06.94-8.31 2.82c-2.25 1.83-3.96 4.43-5.13 7.81-1.16 3.33-1.75 7.27-1.75 11.81v2.56c0 3.84.71 7.27 2.13 10.32 1.41 3.04 3.48 5.45 6.18 7.24 2.71 1.76 5.94 2.63 9.69 2.63 3.63 0 6.84-.71 9.63-2.13 2.83-1.41 5.27-3.45 7.31-6.12l8.12 8.12c-2.12 3.21-5.33 6.13-9.62 8.76-4.25 2.58-9.71 3.87-16.38 3.87Zm80.59-46.94c0-3.5-.97-6.29-2.93-8.37-1.92-2.09-4.84-3.13-8.75-3.13-2.34 0-4.38.42-6.13 1.25-1.75.79-3.1 1.88-4.06 3.25-.96 1.38-1.44 2.94-1.44 4.69h-15.5c0-3.62 1.15-7.02 3.44-10.19 2.29-3.21 5.52-5.79 9.69-7.75 4.21-1.96 9.16-2.94 14.87-2.94 5.09 0 9.61.86 13.56 2.57 3.96 1.71 7.07 4.29 9.32 7.75 2.29 3.46 3.43 7.79 3.43 13v29.81c0 3.17.23 5.96.69 8.37.46 2.42 1.11 4.53 1.94 6.32v1.06h-15.88c-.7-1.62-1.27-3.73-1.68-6.31-.38-2.59-.57-5.11-.57-7.57v-31.81Zm2.38 14.07h-10.63c-5.5 0-9.64 1.02-12.43 3.06-2.75 2-4.13 4.73-4.13 8.18 0 2.67.92 4.9 2.75 6.69 1.84 1.75 4.42 2.63 7.75 2.63 3.04 0 5.69-.61 7.94-1.82 2.29-1.24 4.08-2.77 5.37-4.56 1.3-1.83 1.96-3.54 2-5.12l4.94 6.94c-.5 1.7-1.35 3.54-2.56 5.5-1.17 1.91-2.73 3.74-4.69 5.5-1.91 1.7-4.21 3.12-6.87 4.24-2.63 1.09-5.69 1.63-9.19 1.63-4.42 0-8.35-.87-11.81-2.63-3.46-1.74-6.19-4.14-8.19-7.18-1.96-3.09-2.94-6.54-2.94-10.38 0-7.16 2.69-12.66 8.06-16.5 5.38-3.83 13-5.75 22.88-5.75h11.62l.13 9.57Z"/></g><g filter="url(#i)" fill="#EDEDED"><path d="m1127.97 812.287 1.88-58.421c20.32-5.936 69.7-14.246 104.71 0 0 14.94-4.37 57.438 35.32 58.421 71.48 1.771 204.74 13.066 204.74 67.482 0 69.3-133.47 65.294-195.36 66.856H655.036c-52.201 0-208.18-34.678-244.127-34.678l-12.503 33.741h-34.071v-42.801l-35.947-8.747v16.245c-12.191.417-39.135-.5-49.388-7.498v-48.424c10.253-6.998 37.197-7.914 49.388-7.498v16.246l35.947-7.066v-54.792h34.071l10.628 46.007c73.769 0 175.983-35.073 275.697-35.073 37.761 0 311.227.104 443.239 0Z"/><path fill-rule="evenodd" clip-rule="evenodd" d="m1139.6 761.644-1.63 50.964c-.18 5.392-4.6 9.675-9.99 9.68-104.59.082-297.973.034-392.581.01-24.808-.006-42.825-.011-50.668-.011-48.823 0-98.47 8.592-145.753 17.369-3.627.673-7.245 1.349-10.85 2.022-42.898 8.008-84.005 15.682-119.094 15.682a9.999 9.999 0 0 1-9.743-7.749l-8.838-38.258h-16.118v44.793a10 10 0 0 1-8.072 9.812l-35.947 7.065a10 10 0 0 1-11.928-9.812v-6.27c-4.448.112-9.434.393-14.325.933-4.485.494-8.701 1.185-12.257 2.095-1.045.267-1.978.54-2.806.811v35.79c.828.272 1.761.544 2.806.812 3.556.909 7.772 1.601 12.257 2.095 4.891.539 9.877.82 14.325.933v-6.27a10.001 10.001 0 0 1 12.364-9.717l35.947 8.748a9.999 9.999 0 0 1 7.636 9.716v32.801h17.112l10.086-27.215a9.999 9.999 0 0 1 9.376-6.526c9.925 0 27.231 2.321 47.536 5.542 16.764 2.66 36.194 6.04 56.301 9.539 4.586.798 9.207 1.602 13.839 2.405 50.461 8.747 101.435 17.192 126.451 17.192h624.104c5.19-.13 10.81-.223 16.77-.321 30.24-.5 68.94-1.139 102.37-7.527 20.02-3.828 37.02-9.539 48.81-17.75 11.34-7.908 17.53-17.822 17.53-31.258 0-8.811-5.19-17.035-17.34-24.837-12.19-7.831-29.79-14.083-50.49-18.907-41.24-9.611-91.61-12.86-127.15-13.741-11.81-.292-21.28-3.74-28.46-9.79-7.08-5.955-11.1-13.723-13.4-21.252-3.26-10.622-3.47-22.371-3.35-30.377-14.31-4.424-31.07-5.451-47.2-4.582-14.54.785-27.96 3.075-37.63 5.361ZM338.388 906.865v3.52a10 10 0 0 1-9.659 9.994c-6.48.222-16.753.091-26.857-1.022-5.057-.558-10.262-1.382-15.022-2.599-4.613-1.18-9.519-2.903-13.488-5.611a10.002 10.002 0 0 1-4.362-8.26v-48.424a10 10 0 0 1 4.362-8.259c3.969-2.709 8.875-4.432 13.488-5.611 4.76-1.218 9.965-2.042 15.022-2.599 10.104-1.114 20.377-1.244 26.857-1.023a10 10 0 0 1 9.659 9.994v4.089l15.947-3.134v-46.567c0-5.523 4.477-10 10-10h34.071a10 10 0 0 1 9.744 7.749l8.807 38.126c31.412-1.024 67.919-7.831 108.056-15.316 3.412-.636 6.851-1.277 10.315-1.92 47.195-8.76 98.513-17.705 149.403-17.705 7.848 0 25.873.005 50.691.011 91.769.023 276.418.069 382.868-.003l1.56-48.75a10.002 10.002 0 0 1 7.19-9.278c10.87-3.174 29.05-6.873 49.12-7.955 19.94-1.075 42.72.376 62.17 8.292a9.995 9.995 0 0 1 6.23 9.262c0 1.506-.03 3.12-.06 4.816-.14 7.998-.32 17.823 2.4 26.697 1.56 5.087 3.89 9.061 7.16 11.817 3.16 2.662 8.03 4.896 16.07 5.095 35.94.89 87.94 4.174 131.2 14.256 21.55 5.023 41.73 11.909 56.76 21.555 15.07 9.676 26.53 23.27 26.53 41.667 0 21.213-10.49 36.786-26.1 47.667-15.18 10.577-35.41 16.956-56.49 20.985-35.32 6.75-76.18 7.409-106.33 7.895-5.84.094-11.27.182-16.19.306a9.82 9.82 0 0 1-.25.003H655.036c-27.185 0-80.301-8.894-129.867-17.486-4.669-.809-9.315-1.617-13.915-2.418-20.1-3.497-39.341-6.845-55.942-9.479-15.86-2.516-28.773-4.287-37.562-4.976l-9.967 26.897a10 10 0 0 1-9.377 6.525h-34.071c-5.523 0-10-4.477-10-10v-34.942l-15.947-3.881Z"/></g><defs><filter id="a" x="37.279" y="37.279" width="1689.07" height="1699.07" filterUnits="userSpaceOnUse" color-interpolation-filters="sRGB"><feFlood flood-opacity="0" result="BackgroundImageFix"/><feColorMatrix in="SourceAlpha" values="0 0 0 0 0 0 0 0 0 0 0 0 0 0 0 0 0 0 127 0" result="hardAlpha"/><feOffset dx="10" dy="20"/><feComposite in2="hardAlpha" operator="out"/><feColorMatrix values="0 0 0 0 0 0 0 0 0 0 0 0 0 0 0 0 0 0 0.25 0"/><feBlend in2="BackgroundImageFix" result="effect1_dropShadow_518_82"/><feBlend in="SourceGraphic" in2="effect1_dropShadow_518_82" result="shape"/><feColorMatrix in="SourceAlpha" values="0 0 0 0 0 0 0 0 0 0 0 0 0 0 0 0 0 0 127 0" result="hardAlpha"/><feOffset dx="5" dy="10"/><feComposite in2="hardAlpha" operator="arithmetic" k2="-1" k3="1"/><feColorMatrix values="0 0 0 0 1 0 0 0 0 1 0 0 0 0 1 0 0 0 0.25 0"/><feBlend in2="shape" result="effect2_innerShadow_518_82"/></filter><filter id="b" x="67.781" y="70.279" width="1622.5" height="1622.5" filterUnits="userSpaceOnUse" color-interpolation-filters="sRGB"><feFlood flood-opacity="0" result="BackgroundImageFix"/><feBlend in="SourceGraphic" in2="BackgroundImageFix" result="shape"/><feColorMatrix in="SourceAlpha" values="0 0 0 0 0 0 0 0 0 0 0 0 0 0 0 0 0 0 127 0" result="hardAlpha"/><feOffset dx="3" dy="6"/><feComposite in2="hardAlpha" operator="arithmetic" k2="-1" k3="1"/><feColorMatrix values="0 0 0 0 0 0 0 0 0 0 0 0 0 0 0 0 0 0 0.25 0"/><feBlend in2="shape" result="effect1_innerShadow_518_82"/></filter><filter id="c" x="825" y="1468" width="107.143" height="100" filterUnits="userSpaceOnUse" color-interpolation-filters="sRGB"><feFlood flood-opacity="0" result="BackgroundImageFix"/><feBlend in="SourceGraphic" in2="BackgroundImageFix" result="shape"/><feColorMatrix in="SourceAlpha" values="0 0 0 0 0 0 0 0 0 0 0 0 0 0 0 0 0 0 127 0" result="hardAlpha"/><feOffset dx="1.5" dy="3"/><feComposite in2="hardAlpha" operator="arithmetic" k2="-1" k3="1"/><feColorMatrix values="0 0 0 0 0 0 0 0 0 0 0 0 0 0 0 0 0 0 0.25 0"/><feBlend in2="shape" result="effect1_innerShadow_518_82"/></filter><filter id="d" x="131" y="846" width="72" height="82" filterUnits="userSpaceOnUse" color-interpolation-filters="sRGB"><feFlood flood-opacity="0" result="BackgroundImageFix"/><feColorMatrix in="SourceAlpha" values="0 0 0 0 0 0 0 0 0 0 0 0 0 0 0 0 0 0 127 0" result="hardAlpha"/><feOffset dx="10" dy="20"/><feComposite in2="hardAlpha" operator="out"/><feColorMatrix values="0 0 0 0 0 0 0 0 0 0 0 0 0 0 0 0 0 0 0.25 0"/><feBlend mode="multiply" in2="BackgroundImageFix" result="effect1_dropShadow_518_82"/><feBlend in="SourceGraphic" in2="effect1_dropShadow_518_82" result="shape"/><feColorMatrix in="SourceAlpha" values="0 0 0 0 0 0 0 0 0 0 0 0 0 0 0 0 0 0 127 0" result="hardAlpha"/><feOffset dx="-3" dy="-6"/><feComposite in2="hardAlpha" operator="arithmetic" k2="-1" k3="1"/><feColorMatrix values="0 0 0 0 0 0 0 0 0 0 0 0 0 0 0 0 0 0 1 0"/><feBlend mode="overlay" in2="shape" result="effect2_innerShadow_518_82"/><feColorMatrix in="SourceAlpha" values="0 0 0 0 0 0 0 0 0 0 0 0 0 0 0 0 0 0 127 0" result="hardAlpha"/><feOffset dx="3" dy="6"/><feComposite in2="hardAlpha" operator="arithmetic" k2="-1" k3="1"/><feColorMatrix values="0 0 0 0 1 0 0 0 0 1 0 0 0 0 1 0 0 0 1 0"/><feBlend mode="soft-light" in2="effect2_innerShadow_518_82" result="effect3_innerShadow_518_82"/></filter><filter id="e" x="1566" y="846" width="72" height="82" filterUnits="userSpaceOnUse" color-interpolation-filters="sRGB"><feFlood flood-opacity="0" result="BackgroundImageFix"/><feColorMatrix in="SourceAlpha" values="0 0 0 0 0 0 0 0 0 0 0 0 0 0 0 0 0 0 127 0" result="hardAlpha"/><feOffset dx="10" dy="20"/><feComposite in2="hardAlpha" operator="out"/><feColorMatrix values="0 0 0 0 0 0 0 0 0 0 0 0 0 0 0 0 0 0 0.25 0"/><feBlend mode="multiply" in2="BackgroundImageFix" result="effect1_dropShadow_518_82"/><feBlend in="SourceGraphic" in2="effect1_dropShadow_518_82" result="shape"/><feColorMatrix in="SourceAlpha" values="0 0 0 0 0 0 0 0 0 0 0 0 0 0 0 0 0 0 127 0" result="hardAlpha"/><feOffset dx="-3" dy="-6"/><feComposite in2="hardAlpha" operator="arithmetic" k2="-1" k3="1"/><feColorMatrix values="0 0 0 0 0 0 0 0 0 0 0 0 0 0 0 0 0 0 1 0"/><feBlend mode="overlay" in2="shape" result="effect2_innerShadow_518_82"/><feColorMatrix in="SourceAlpha" values="0 0 0 0 0 0 0 0 0 0 0 0 0 0 0 0 0 0 127 0" result="hardAlpha"/><feOffset dx="3" dy="6"/><feComposite in2="hardAlpha" operator="arithmetic" k2="-1" k3="1"/><feColorMatrix values="0 0 0 0 1 0 0 0 0 1 0 0 0 0 1 0 0 0 1 0"/><feBlend mode="soft-light" in2="effect2_innerShadow_518_82" result="effect3_innerShadow_518_82"/></filter><filter id="f" x="603" y="409" width="552.066" height="115.553" filterUnits="userSpaceOnUse" color-interpolation-filters="sRGB"><feFlood flood-opacity="0" result="BackgroundImageFix"/><feBlend in="SourceGraphic" in2="BackgroundImageFix" result="shape"/><feColorMatrix in="SourceAlpha" values="0 0 0 0 0 0 0 0 0 0 0 0 0 0 0 0 0 0 127 0" result="hardAlpha"/><feOffset dx="1.5" dy="3"/><feComposite in2="hardAlpha" operator="arithmetic" k2="-1" k3="1"/><feColorMatrix values="0 0 0 0 0 0 0 0 0 0 0 0 0 0 0 0 0 0 0.25 0"/><feBlend in2="shape" result="effect1_innerShadow_518_82"/></filter><filter id="g" x="400" y="594" width="954.377" height="100" filterUnits="userSpaceOnUse" color-interpolation-filters="sRGB"><feFlood flood-opacity="0" result="BackgroundImageFix"/><feBlend in="SourceGraphic" in2="BackgroundImageFix" result="shape"/><feColorMatrix in="SourceAlpha" values="0 0 0 0 0 0 0 0 0 0 0 0 0 0 0 0 0 0 127 0" result="hardAlpha"/><feOffset dx="3" dy="6"/><feComposite in2="hardAlpha" operator="arithmetic" k2="-1" k3="1"/><feColorMatrix values="0 0 0 0 0 0 0 0 0 0 0 0 0 0 0 0 0 0 0.25 0"/><feBlend in2="shape" result="effect1_innerShadow_518_82"/></filter><filter id="h" x="449" y="1044" width="855.768" height="285.25" filterUnits="userSpaceOnUse" color-interpolation-filters="sRGB"><feFlood flood-opacity="0" result="BackgroundImageFix"/><feBlend in="SourceGraphic" in2="BackgroundImageFix" result="shape"/><feColorMatrix in="SourceAlpha" values="0 0 0 0 0 0 0 0 0 0 0 0 0 0 0 0 0 0 127 0" result="hardAlpha"/><feOffset dx="1.5" dy="3"/><feComposite in2="hardAlpha" operator="arithmetic" k2="-1" k3="1"/><feColorMatrix values="0 0 0 0 0 0 0 0 0 0 0 0 0 0 0 0 0 0 0.25 0"/><feBlend in2="shape" result="effect1_innerShadow_518_82"/></filter><filter id="i" x="269" y="736" width="1215.62" height="220.625" filterUnits="userSpaceOnUse" color-interpolation-filters="sRGB"><feFlood flood-opacity="0" result="BackgroundImageFix"/><feBlend in="SourceGraphic" in2="BackgroundImageFix" result="shape"/><feColorMatrix in="SourceAlpha" values="0 0 0 0 0 0 0 0 0 0 0 0 0 0 0 0 0 0 127 0" result="hardAlpha"/><feOffset dx="3" dy="6"/><feComposite in2="hardAlpha" operator="arithmetic" k2="-1" k3="1"/><feColorMatrix values="0 0 0 0 0 0 0 0 0 0 0 0 0 0 0 0 0 0 0.25 0"/><feBlend in2="shape" result="effect1_innerShadow_518_82"/></filter></defs></svg>