<svg width="1237" height="1718" viewBox="0 0 1237 1718" fill="none" xmlns="http://www.w3.org/2000/svg"><rect width="1237" height="1717.03" rx="30" fill="#fff"/><path fill="#fff" stroke="#fff" stroke-width="10" d="M41.925 40.079h1153.15v1635.03H41.925z"/><path fill="#000" d="M36.925 1563.79h1163.15v116.315H36.925zM37 35h1163v904H37z"/><rect x="333" y="664" width="572" height="572" rx="85" fill="#D81E05" stroke="#fff" stroke-width="10"/><path d="M817.688 919.048a200.03 200.03 0 0 1-32.743 130.722 200.002 200.002 0 0 1-108.237 80.27 200.055 200.055 0 0 1-134.594-6.61 200.01 200.01 0 0 1-119.62-223.797 200 200 0 0 1 196.157-160.981v19.998a179.999 179.999 0 0 0-158.747 264.85c8.406 15.73 19.037 30 31.466 42.43a179.892 179.892 0 0 0 58.397 39.02 180.023 180.023 0 0 0 121.136 5.95 179.895 179.895 0 0 0 75.028-44.97 179.813 179.813 0 0 0 22.386-27.28 179.97 179.97 0 0 0 29.469-117.642 180.013 180.013 0 0 0-37.618-93.593l-14.237 14.236V797.23h44.421L774.4 813.183a200.005 200.005 0 0 1 43.288 105.865Z" fill="#000"/><path d="M483.649 938.651h-22.5M618.65 803.65v-22.5m135.002 157.501h22.5M618.65 1073.65v22.5m-116.507-225.7-19.418-11.367m252.433 147.767 19.418 11.37m-204.126 36.94-11.367 19.42m8.887-250.949-11.78-19.17m197.48 63.509 19.17-11.781m-63.507 197.481 11.78 19.17m-197.481-63.51-19.17 11.78" stroke="#000" stroke-width="5"/><path d="M701.568 938.651c-21.125 20.939-42.794 39.797-82.93 40-40.537-.003-61.711-18.925-82.91-40 21.2-21.074 42.373-39.996 82.91-40 40.136.203 61.805 19.061 82.93 40Z" stroke="#000" stroke-width="10"/><path fill-rule="evenodd" clip-rule="evenodd" d="M618.651 983.985c25.037 0 45.334-20.297 45.334-45.333 0-25.037-20.297-45.334-45.334-45.334-25.037 0-45.333 20.297-45.333 45.334 0 25.036 20.296 45.333 45.333 45.333Zm-13-51c5.891 0 10.667-4.776 10.667-10.667s-4.776-10.667-10.667-10.667-10.667 4.776-10.667 10.667 4.776 10.667 10.667 10.667Z" fill="#000"/><path d="M749.57 1612.73h3.785l6.879 12.06v-12.06h3.364V1630h-3.61l-7.054-12.27V1630h-3.364v-17.27Zm22.172 6.91c-.773 0-1.375.24-1.804.73-.422.48-.688 1.14-.797 1.97h5.191c-.055-.89-.324-1.55-.809-2.01-.476-.46-1.07-.69-1.781-.69Zm0-2.75c1.063 0 2.02.2 2.871.59.852.4 1.555 1.03 2.11 1.89.5.76.824 1.64.972 2.64.086.58.121 1.43.106 2.53h-8.742c.046 1.28.449 2.18 1.207 2.69.461.32 1.015.48 1.664.48.687 0 1.246-.19 1.675-.58.235-.21.442-.51.622-.88h3.41c-.086.76-.481 1.53-1.184 2.31-1.094 1.24-2.625 1.86-4.594 1.86-1.625 0-3.058-.52-4.3-1.57-1.243-1.05-1.864-2.75-1.864-5.11 0-2.21.559-3.9 1.676-5.08 1.125-1.18 2.582-1.77 4.371-1.77Zm14.344.34h3.387l1.945 9.2 1.992-9.2h3.481l-3.703 12.77h-3.434l-2.004-9.3-2.027 9.3h-3.469l-3.586-12.77h3.586l1.992 9.16 1.84-9.16Zm29.039-4.5h4.09l-5.777 10.78v6.49h-3.61v-6.49l-5.976-10.78h4.253l3.586 7.52 3.434-7.52Zm9.832 14.91c.977 0 1.727-.34 2.25-1.04.523-.69.785-1.68.785-2.96s-.262-2.27-.785-2.96-1.273-1.04-2.25-1.04c-.977 0-1.73.35-2.262 1.04-.523.69-.785 1.68-.785 2.96s.262 2.27.785 2.96c.532.7 1.285 1.04 2.262 1.04Zm6.539-4c0 1.87-.539 3.48-1.617 4.81-1.078 1.33-2.715 2-4.91 2-2.196 0-3.832-.67-4.91-2-1.079-1.33-1.618-2.94-1.618-4.81 0-1.85.539-3.44 1.618-4.8 1.078-1.35 2.714-2.02 4.91-2.02 2.195 0 3.832.67 4.91 2.02 1.078 1.36 1.617 2.95 1.617 4.8Zm9.34-6.72c.062 0 .113.01.152.01.047 0 .145.01.293.02v3.42c-.211-.03-.398-.04-.562-.05-.164-.01-.297-.01-.399-.01-1.343 0-2.246.44-2.707 1.31-.258.49-.386 1.25-.386 2.27v6.11h-3.364v-12.77h3.188v2.22c.515-.85.965-1.43 1.347-1.74.625-.53 1.438-.79 2.438-.79Zm2.379-4.13h3.281v9.3l4.16-4.8h4.137l-4.465 4.88 4.641 7.83h-4.031l-3.059-5.46-1.383 1.44v4.02h-3.281v-17.21Zm19.594 8.71c0-3.01.808-5.34 2.425-6.97 1.407-1.42 3.196-2.13 5.368-2.13 2.906 0 5.031.95 6.375 2.86.742 1.07 1.14 2.14 1.195 3.22h-3.61c-.234-.83-.535-1.45-.902-1.87-.656-.75-1.629-1.13-2.918-1.13-1.312 0-2.347.53-3.105 1.59s-1.137 2.55-1.137 4.49c0 1.94.398 3.39 1.195 4.36.805.96 1.825 1.44 3.059 1.44 1.266 0 2.23-.41 2.894-1.24.368-.44.672-1.11.914-2h3.575c-.313 1.88-1.114 3.41-2.403 4.59-1.281 1.18-2.925 1.77-4.933 1.77-2.485 0-4.438-.8-5.86-2.39-1.421-1.6-2.132-3.8-2.132-6.59Zm21.257-5.8h-3.386v-3.08h3.386v3.08Zm-3.386 1.53h3.386V1630h-3.386v-12.77Zm5.32 2.49v-2.38h1.781v-3.56h3.305v3.56h2.074v2.38h-2.074v6.75c0 .53.066.85.199.99.133.12.539.18 1.219.18h.316c.118 0 .231-.01.34-.02v2.5l-1.582.06c-1.578.05-2.656-.22-3.234-.82-.375-.39-.563-.98-.563-1.77v-7.87H886Zm9.82 12.73.422.02c.328.02.641.01.938-.03.297-.04.547-.13.75-.27.195-.13.375-.41.539-.83.172-.43.242-.68.211-.78l-4.688-13.33h3.715l2.789 9.42 2.637-9.42h3.551l-4.383 12.56c-.844 2.42-1.512 3.92-2.004 4.5-.492.59-1.477.88-2.953.88-.297 0-.535-.01-.715-.01-.18 0-.449-.02-.809-.04v-2.67Zm32.344-19.72v3.06h-5.168V1630h-3.633v-14.21h-5.191v-3.06h13.992Zm7.477 4.19c.062 0 .113.01.152.01.047 0 .145.01.293.02v3.42c-.211-.03-.398-.04-.563-.05-.164-.01-.296-.01-.398-.01-1.344 0-2.246.44-2.707 1.31-.258.49-.387 1.25-.387 2.27v6.11h-3.363v-12.77h3.187v2.22c.516-.85.965-1.43 1.348-1.74.625-.53 1.438-.79 2.438-.79Zm9.457 6.87c-.211.13-.426.24-.645.33-.211.08-.504.15-.879.22l-.75.14c-.703.13-1.207.28-1.512.46-.515.3-.773.77-.773 1.42 0 .57.156.98.469 1.24.32.25.707.37 1.16.37.719 0 1.379-.21 1.98-.63.61-.42.926-1.19.95-2.31v-1.24Zm-2.028-1.56c.618-.08 1.059-.18 1.325-.29.476-.21.714-.52.714-.95 0-.53-.183-.88-.55-1.08-.36-.2-.891-.3-1.594-.3-.789 0-1.348.19-1.676.58-.234.29-.391.68-.469 1.17h-3.222c.07-1.11.382-2.03.937-2.75.883-1.13 2.399-1.69 4.547-1.69 1.398 0 2.641.28 3.727.83 1.086.56 1.629 1.61 1.629 3.14v5.86c0 .41.007.9.023 1.48.023.44.09.73.199.89.11.16.274.29.492.39v.49h-3.632a3.69 3.69 0 0 1-.211-.73 8.202 8.202 0 0 1-.094-.77c-.461.5-.992.93-1.594 1.28-.719.41-1.531.62-2.437.62-1.157 0-2.114-.33-2.872-.99-.75-.66-1.124-1.6-1.124-2.81 0-1.57.605-2.71 1.816-3.41.664-.38 1.641-.65 2.93-.82l1.136-.14Zm15.422-5.31c1.32 0 2.399.35 3.235 1.04.843.69 1.265 1.84 1.265 3.44v8.6h-3.422v-7.77c0-.67-.09-1.19-.269-1.55-.328-.65-.953-.98-1.875-.98-1.133 0-1.91.48-2.332 1.44-.219.51-.328 1.16-.328 1.95v6.91h-3.328v-12.75h3.222v1.86c.43-.65.836-1.13 1.219-1.41.687-.52 1.559-.78 2.613-.78Zm10.196 9c.07.6.222 1.02.457 1.27.414.44 1.179.67 2.296.67.657 0 1.176-.1 1.559-.3.391-.19.586-.49.586-.88 0-.37-.156-.66-.469-.85-.312-.2-1.472-.53-3.48-1.01-1.446-.36-2.465-.81-3.059-1.35-.594-.53-.89-1.29-.89-2.29 0-1.18.46-2.2 1.382-3.04.93-.85 2.235-1.28 3.914-1.28 1.594 0 2.891.32 3.891.96 1.008.64 1.586 1.73 1.734 3.3h-3.339c-.047-.43-.168-.77-.364-1.02-.367-.46-.992-.68-1.875-.68-.726 0-1.246.11-1.558.34-.305.22-.457.49-.457.79 0 .39.164.66.492.84.328.18 1.488.49 3.48.92 1.328.31 2.324.79 2.989 1.42.656.64.984 1.44.984 2.4 0 1.27-.473 2.3-1.418 3.11-.938.8-2.391 1.19-4.359 1.19-2.008 0-3.493-.42-4.454-1.26-.953-.85-1.429-1.94-1.429-3.25h3.387Zm14.191-10.22h-3.387v-3.08h3.387v3.08Zm-3.387 1.53h3.387V1630h-3.387v-12.77Zm5.32 2.49v-2.38h1.782v-3.56h3.304v3.56h2.075v2.38h-2.075v6.75c0 .53.067.85.2.99.132.12.539.18 1.218.18h.317c.117 0 .23-.01.34-.02v2.5l-1.582.06c-1.579.05-2.657-.22-3.235-.82-.375-.39-.562-.98-.562-1.77v-7.87h-1.782Zm38.678 2.74.29-1.39h7.39l-1.89 8.93h-1.39l.62-2.95a9.446 9.446 0 0 1-2.93 2.49c-1.13.61-2.55.92-4.25.92-1.08 0-2.05-.2-2.9-.58-.85-.38-1.53-.95-2.04-1.7-.5-.77-.82-1.73-.96-2.88-.13-1.16-.03-2.5.29-4.04.27-1.26.68-2.44 1.22-3.52.56-1.11 1.26-2.06 2.09-2.86a9.06 9.06 0 0 1 2.9-1.92c1.11-.46 2.34-.7 3.7-.7.91 0 1.74.12 2.47.34.75.22 1.39.57 1.92 1.03.55.45.96 1.02 1.25 1.71.29.67.43 1.47.43 2.4h-1.68c0-.64-.12-1.22-.36-1.73s-.57-.94-.98-1.27c-.4-.36-.88-.62-1.44-.8a5.4 5.4 0 0 0-1.78-.28c-1.13 0-2.16.2-3.07.6-.9.4-1.69.96-2.38 1.7-.67.72-1.24 1.59-1.7 2.62-.46 1-.82 2.12-1.08 3.33-.21.96-.26 1.87-.17 2.74.1.86.35 1.62.75 2.28.4.65.94 1.17 1.63 1.56.69.38 1.53.57 2.52.57.46 0 .95-.04 1.46-.14a7.01 7.01 0 0 0 1.56-.53 7.66 7.66 0 0 0 1.49-.93c.5-.39.94-.86 1.34-1.42.4-.54.72-1.11.94-1.7.22-.6.42-1.22.58-1.88h-5.84Zm14.39 7.88c-.8-.02-1.52-.16-2.16-.44a3.82 3.82 0 0 1-1.56-1.22c-.4-.54-.67-1.22-.79-2.04-.13-.82-.08-1.77.14-2.86.19-.91.49-1.76.89-2.54.41-.8.93-1.5 1.53-2.09.61-.59 1.31-1.05 2.09-1.39.8-.35 1.68-.53 2.64-.53.98 0 1.79.18 2.43.53.65.34 1.16.8 1.51 1.39.35.58.56 1.27.62 2.07.07.8 0 1.65-.19 2.56-.21 1-.54 1.89-.98 2.69-.45.8-.99 1.49-1.61 2.07a7.2 7.2 0 0 1-2.11 1.34c-.77.3-1.59.46-2.45.46Zm5.61-6.56c.15-.73.21-1.42.2-2.06-.02-.64-.15-1.19-.39-1.66a2.42 2.42 0 0 0-1.05-1.12c-.47-.28-1.08-.41-1.85-.41-.75 0-1.43.15-2.04.45-.59.29-1.11.68-1.56 1.18-.45.48-.82 1.04-1.11 1.68-.28.62-.5 1.27-.64 1.94-.16.77-.22 1.48-.17 2.14.05.64.2 1.19.45 1.66.26.46.62.82 1.08 1.08.48.25 1.07.38 1.76.38.75 0 1.42-.14 2.01-.43.61-.31 1.13-.71 1.56-1.2.45-.5.82-1.06 1.11-1.68.28-.63.5-1.27.64-1.95Zm2.65 6.22 2.64-12.43h1.44l-2.64 12.43h-1.44Zm3.14-15.14.46-2.14h1.58l-.46 2.14h-1.58Zm3.4 15.14h-1.44l2.64-12.43h1.44l-.36 1.73c.7-.61 1.4-1.11 2.09-1.49.7-.39 1.49-.58 2.35-.58.77 0 1.45.14 2.04.41.61.26 1.06.71 1.37 1.37.21.45.29.91.24 1.39-.03.46-.11.95-.22 1.46l-1.73 8.14h-1.44l1.73-8.11c.24-1.12.17-1.96-.21-2.52-.37-.56-1.13-.84-2.28-.84-.45 0-.88.07-1.28.21a5 5 0 0 0-1.12.53c-.34.23-.64.48-.92.77-.27.29-.49.59-.67.91-.22.4-.39.79-.5 1.15-.11.37-.22.77-.31 1.2l-1.42 6.7Zm22.82-6.17c.16-.75.21-1.45.16-2.09-.04-.65-.2-1.21-.45-1.68a2.84 2.84 0 0 0-1.08-1.12c-.47-.28-1.03-.41-1.71-.41-.6 0-1.19.11-1.75.33-.56.21-1.08.52-1.56.94-.46.42-.87.93-1.22 1.54-.34.59-.59 1.28-.77 2.06-.19.78-.28 1.52-.26 2.21.01.67.14 1.26.38 1.77.26.52.62.92 1.1 1.23.48.29 1.1.43 1.85.43.66 0 1.27-.14 1.85-.41.58-.29 1.1-.66 1.56-1.13.46-.48.86-1.03 1.18-1.65.33-.64.57-1.31.72-2.02Zm1.32-6.26h1.44l-2.38 11.23c-.18.83-.43 1.62-.77 2.38-.32.76-.76 1.44-1.32 2.01-.56.58-1.25 1.03-2.09 1.37-.81.35-1.81.53-3 .53-.91 0-1.67-.12-2.28-.36-.6-.23-1.08-.51-1.44-.87-.33-.35-.56-.74-.69-1.17-.11-.42-.14-.81-.07-1.18h1.53c0 .47.09.84.27 1.13.17.3.4.54.69.7.31.17.65.29 1.03.36.39.06.8.09 1.23.09.97 0 1.79-.17 2.45-.5.67-.34 1.21-.78 1.63-1.32.43-.55.76-1.16.98-1.85.24-.69.43-1.39.58-2.11a6.18 6.18 0 0 1-2.28 1.75c-.9.38-1.79.58-2.67.58-.94 0-1.72-.18-2.35-.53-.62-.37-1.1-.85-1.44-1.44-.32-.61-.51-1.31-.57-2.11a9 9 0 0 1 .21-2.5c.19-.91.48-1.77.87-2.57.38-.8.86-1.49 1.44-2.06.57-.59 1.24-1.06 2.01-1.39.79-.34 1.68-.51 2.69-.51.4 0 .79.06 1.18.17.4.11.76.27 1.1.48.35.21.66.47.91.79.27.32.47.68.6 1.08h.05l.46-2.18Zm8.29 15.81c.18.04.36.07.55.1.21.03.42.05.63.05.4 0 .75-.13 1.05-.39.32-.25.6-.56.84-.93.24-.35.46-.73.65-1.13.21-.38.41-.71.6-.98l-2.16-12.53h1.61l1.73 10.68 6.24-10.68h1.56l-7.25 12.26c-.46.79-.89 1.49-1.27 2.11-.39.63-.77 1.16-1.15 1.59-.39.45-.79.78-1.2 1.01-.42.24-.88.36-1.37.36-.26 0-.51-.02-.75-.05-.22-.03-.42-.07-.6-.12l.29-1.35Zm17.69-3.04c-.8-.02-1.52-.16-2.16-.44-.62-.27-1.14-.68-1.56-1.22-.4-.54-.66-1.22-.79-2.04-.13-.82-.08-1.77.14-2.86.19-.91.49-1.76.89-2.54.42-.8.93-1.5 1.54-2.09.6-.59 1.3-1.05 2.08-1.39.8-.35 1.68-.53 2.64-.53.98 0 1.79.18 2.43.53.65.34 1.16.8 1.51 1.39.35.58.56 1.27.62 2.07.07.8 0 1.65-.19 2.56-.21 1-.53 1.89-.98 2.69-.45.8-.99 1.49-1.61 2.07-.62.57-1.33 1.02-2.11 1.34-.77.3-1.59.46-2.45.46Zm5.62-6.56c.14-.73.2-1.42.19-2.06-.02-.64-.15-1.19-.39-1.66a2.42 2.42 0 0 0-1.05-1.12c-.47-.28-1.08-.41-1.85-.41-.75 0-1.43.15-2.04.45-.59.29-1.11.68-1.56 1.18a5.89 5.89 0 0 0-1.1 1.68c-.29.62-.51 1.27-.65 1.94-.16.77-.22 1.48-.17 2.14.05.64.2 1.19.46 1.66.25.46.61.82 1.08 1.08.48.25 1.06.38 1.75.38.75 0 1.42-.14 2.01-.43.61-.31 1.13-.71 1.56-1.2.45-.5.82-1.06 1.11-1.68.29-.63.5-1.27.65-1.95Zm13.91-6.21h1.44l-2.64 12.43h-1.44l.36-1.73c-.24.23-.51.46-.79.7-.29.24-.62.46-.99.67-.35.19-.75.35-1.2.48-.43.14-.92.22-1.46.22-.83 0-1.51-.12-2.02-.34-.51-.24-.89-.57-1.15-.98-.26-.42-.4-.9-.43-1.44-.03-.56.02-1.17.17-1.83l1.72-8.18h1.44l-1.72 8.16c-.23 1.07-.16 1.89.21 2.47.39.56 1.15.84 2.28.84.59 0 1.15-.11 1.66-.34.53-.24.99-.56 1.39-.98.42-.42.77-.91 1.06-1.49.3-.57.52-1.21.67-1.89l1.44-6.77Zm3.78 12.43h-1.44l2.64-12.43h1.44l-.5 2.33h.05c.6-1 1.27-1.68 1.99-2.07.72-.4 1.6-.6 2.64-.6l-.34 1.56c-.8-.01-1.49.11-2.09.39-.57.27-1.07.64-1.48 1.1-.4.46-.74 1.02-1.01 1.66-.26.62-.46 1.28-.6 1.96l-1.3 6.1Zm24.08-1.92 5.5-10.51h1.46l-6.67 12.43h-1.54l-.5-10.44h-.05l-4.97 10.44h-1.73l-1.15-12.43h1.44l.96 10.61 5.14-10.61h1.61l.5 10.51Zm15.93-4.61c-.67.26-1.33.43-1.97.51-.62.08-1.25.14-1.89.19-1.12.08-2.04.33-2.76.74-.71.42-1.15 1.05-1.32 1.9-.08.38-.08.72.02 1.01.1.27.25.5.46.69.22.18.48.31.79.41.3.08.62.12.96.12.57 0 1.14-.07 1.7-.22.58-.14 1.11-.36 1.59-.64.49-.31.92-.68 1.27-1.13.35-.47.6-1.01.74-1.63l.41-1.95Zm-2.28-.72c.27-.03.6-.08.98-.14.4-.07.74-.15 1.01-.27.27-.11.46-.29.55-.55.12-.27.2-.52.24-.74.08-.37.1-.71.05-1.01-.05-.3-.17-.57-.38-.79-.19-.23-.47-.4-.84-.53-.35-.13-.81-.19-1.37-.19-.99 0-1.86.2-2.59.6-.74.4-1.28 1.13-1.63 2.21h-1.47c.21-.74.51-1.36.89-1.88.4-.52.86-.95 1.39-1.27.53-.33 1.11-.57 1.73-.72.64-.16 1.3-.24 1.97-.24.62 0 1.19.07 1.7.22.53.13.96.34 1.3.65.35.28.59.68.72 1.17.13.5.12 1.11-.03 1.83l-1.44 6.76c-.12.56-.11.92.05 1.08.18.15.59.11 1.25-.12l-.24 1.13c-.11.03-.29.08-.53.15-.22.06-.44.09-.65.09-.2 0-.41-.02-.62-.07-.46-.08-.73-.3-.79-.65-.07-.37-.06-.77.02-1.2-.75.67-1.56 1.19-2.42 1.54-.85.35-1.73.53-2.64.53-.55 0-1.06-.08-1.54-.22-.46-.14-.85-.37-1.17-.67a2.5 2.5 0 0 1-.68-1.11c-.12-.44-.12-.97 0-1.58.44-2.11 2.15-3.36 5.14-3.74l2.04-.27Zm5.27 10.63c.18.04.36.07.55.1.21.03.42.05.63.05.4 0 .75-.13 1.05-.39.32-.25.6-.56.84-.93.24-.35.46-.73.65-1.13.21-.38.41-.71.6-.98l-2.16-12.53h1.61l1.73 10.68 6.24-10.68h1.56l-7.25 12.26c-.46.79-.89 1.49-1.27 2.11-.39.63-.77 1.16-1.15 1.59-.39.45-.79.78-1.2 1.01-.42.24-.88.36-1.37.36-.26 0-.51-.02-.75-.05-.22-.03-.42-.07-.6-.12l.29-1.35Z" fill="#fff"/><path d="m690 1605.7 7.709 1.58 2.269 16.28 2.242-15.52 7.975 1.4v25.35l-5.102.89.349-16.35h-.322l-2.954 16.89-5.048.86-3.598-18.18h-.269l.484 18.83-3.115.62-.62-32.65Zm21.537 3.9 11.654 2.1v5.5l-3.088-.32v16.22l-4.726.75v-17.3l-3.84-.46v-6.49Z" fill="#000"/><path fill-rule="evenodd" clip-rule="evenodd" d="m725.715 1612.13 3.41.54 2.739 18.32-2.846.54-.349-2.39-2.498.32-.349 2.64-3.625.55 3.518-20.52Zm2.417 12.8-1.424.11.537-6.06h.35l.537 5.95Z" fill="#000"/><path fill-rule="evenodd" clip-rule="evenodd" d="M740 1621.6c0-15.24-12.316-27.6-27.509-27.6-8.918 0-17.464 5.1-22.491 11.7l7.709 1.58 2.269 16.28 2.242-15.52 7.975 1.4v25.35l-5.102.89.349-16.35h-.322l-2.954 16.89-5.048.86-3.598-18.18h-.269l.484 18.83-3.115.62c5.027 6.6 12.953 10.86 21.871 10.86 8.917 0 16.843-4.26 21.87-10.86A27.535 27.535 0 0 0 740 1621.6Zm-16.809-9.9-11.654-2.1v6.49l3.84.46v17.3l4.726-.75v-16.22l3.088.32v-5.5Zm5.934.97-3.41-.54-3.518 20.52 3.625-.55.349-2.64 2.498-.32.349 2.39 2.846-.54-2.739-18.32Z" fill="#fff"/><path d="m726.708 1625.04 1.424-.11-.537-5.95h-.35l-.537 6.06ZM270.062 103.527V150.5h13.868c7.096 0 12.044-3.499 14.843-10.498 1.53-3.841 2.295-8.415 2.295-13.721 0-7.324-1.155-12.939-3.466-16.845-2.279-3.939-6.836-5.909-13.672-5.909h-13.868Zm16.407-12.5c4.459.065 8.17.586 11.133 1.563 5.045 1.66 9.13 4.704 12.255 9.131 2.507 3.58 4.216 7.454 5.127 11.621.912 4.166 1.368 8.138 1.368 11.914 0 9.57-1.921 17.676-5.762 24.316-5.208 8.952-13.249 13.428-24.121 13.428h-31.006V91.027h31.006Zm94.482 12.744h-38.086v15.284h34.961v12.5h-34.961v18.506h39.844V163h-54.541V91.027h52.783v12.744Zm-9.375-33.105-14.844 14.6h-10.058l9.375-14.6h15.527Zm31.641 65.039v1.66c.13 5.567.732 9.489 1.806 11.768 1.107 2.246 3.451 3.369 7.032 3.369 3.548 0 5.892-1.237 7.031-3.711.684-1.465 1.025-3.939 1.025-7.422V91.027h15.039v50.098c0 6.12-1.058 10.97-3.173 14.551-3.581 6.054-10.043 9.082-19.385 9.082-9.343 0-15.609-2.442-18.799-7.324-3.19-4.916-4.785-11.605-4.785-20.069v-1.66h14.209Zm66.553.098h18.261l-8.984-28.321-9.277 28.321Zm.927-44.776h16.992L513.178 163h-16.309l-4.639-14.795h-26.513L460.736 163h-15.722l25.683-71.973Zm16.651-5.761h-10.059l-14.795-14.6h15.479l9.375 14.6Zm104.98 5.761h15.625L583.393 163h-14.209l-24.317-71.973h16.065l15.625 54.639 15.771-54.639Zm24.561 0h15.283v44.239c0 4.948.586 8.561 1.758 10.839 1.823 4.037 5.794 6.055 11.914 6.055 6.087 0 10.042-2.018 11.865-6.055 1.172-2.278 1.758-5.891 1.758-10.839V91.027h15.283v44.239c0 7.649-1.188 13.606-3.564 17.871-4.428 7.812-12.875 11.718-25.342 11.718-12.468 0-20.931-3.906-25.391-11.718-2.376-4.265-3.564-10.222-3.564-17.871V91.027Zm116.064 44.776h18.262l-8.985-28.321-9.277 28.321Zm.928-44.776h16.992L776.361 163h-16.308l-4.639-14.795H728.9L723.92 163h-15.723l25.684-71.973Zm66.699 12.5v19.336h17.041c3.386 0 5.925-.39 7.617-1.172 2.995-1.367 4.492-4.069 4.492-8.105 0-4.362-1.448-7.292-4.345-8.789-1.628-.846-4.069-1.27-7.324-1.27H800.58Zm20.606-12.5c5.045.098 8.919.716 11.621 1.856 2.734 1.14 5.045 2.816 6.933 5.03a22.255 22.255 0 0 1 3.711 6.054c.912 2.213 1.367 4.736 1.367 7.568 0 3.418-.862 6.787-2.588 10.108-1.725 3.287-4.573 5.615-8.544 6.982 3.32 1.335 5.664 3.239 7.031 5.713 1.4 2.441 2.099 6.185 2.099 11.23v4.834c0 3.288.131 5.518.391 6.69.391 1.855 1.302 3.222 2.734 4.101V163h-16.552c-.456-1.595-.782-2.881-.977-3.857a35.464 35.464 0 0 1-.635-6.202l-.097-6.689c-.065-4.59-.912-7.65-2.539-9.18-1.595-1.53-4.606-2.295-9.034-2.295H800.58V163h-14.697V91.027h35.303Zm89.843 12.744h-38.086v15.284h34.961v12.5h-34.961v18.506h39.844V163h-54.541V91.027h52.783v12.744Zm33.155 32.032h18.261l-8.984-28.321-9.277 28.321Zm.927-44.776h16.993L987.592 163h-16.309l-4.638-14.795h-26.514L935.15 163h-15.722l25.683-71.973ZM179.633 244.816v7.647h-12.92V288h-9.082v-35.537h-12.979v-7.647h34.981ZM184.877 288v-43.184h8.935v16.465h16.876v-16.465h8.964V288h-8.964v-19.277h-16.876V288h-8.935Zm51.68 0h-8.965v-43.184h8.965V288Zm14.97-13.33c.274 1.973.811 3.447 1.612 4.424 1.465 1.777 3.974 2.666 7.529 2.666 2.129 0 3.857-.235 5.186-.703 2.519-.899 3.779-2.569 3.779-5.01 0-1.426-.625-2.529-1.875-3.311-1.25-.761-3.213-1.435-5.889-2.021l-4.57-1.026c-4.492-1.015-7.598-2.119-9.317-3.31-2.91-1.992-4.365-5.108-4.365-9.346 0-3.867 1.406-7.08 4.219-9.638 2.812-2.559 6.943-3.838 12.393-3.838 4.55 0 8.427 1.211 11.63 3.632 3.223 2.403 4.912 5.899 5.069 10.489h-8.672c-.156-2.598-1.289-4.444-3.399-5.537-1.406-.723-3.154-1.084-5.244-1.084-2.324 0-4.179.468-5.566 1.406-1.387.937-2.08 2.246-2.08 3.926 0 1.543.683 2.695 2.051 3.457.878.508 2.753 1.103 5.625 1.787l7.441 1.787c3.262.781 5.723 1.826 7.383 3.135 2.578 2.031 3.867 4.97 3.867 8.818 0 3.945-1.514 7.227-4.541 9.844-3.008 2.597-7.266 3.896-12.773 3.896-5.625 0-10.049-1.279-13.272-3.838-3.223-2.578-4.834-6.113-4.834-10.605h8.613ZM309.975 288h-8.965v-43.184h8.965V288Zm14.97-13.33c.274 1.973.811 3.447 1.612 4.424 1.464 1.777 3.974 2.666 7.529 2.666 2.129 0 3.857-.235 5.185-.703 2.52-.899 3.78-2.569 3.78-5.01 0-1.426-.625-2.529-1.875-3.311-1.25-.761-3.213-1.435-5.889-2.021l-4.57-1.026c-4.492-1.015-7.598-2.119-9.317-3.31-2.91-1.992-4.365-5.108-4.365-9.346 0-3.867 1.406-7.08 4.219-9.638 2.812-2.559 6.943-3.838 12.392-3.838 4.551 0 8.428 1.211 11.631 3.632 3.223 2.403 4.912 5.899 5.069 10.489h-8.672c-.156-2.598-1.289-4.444-3.399-5.537-1.406-.723-3.154-1.084-5.244-1.084-2.324 0-4.179.468-5.566 1.406-1.387.937-2.08 2.246-2.08 3.926 0 1.543.683 2.695 2.051 3.457.878.508 2.753 1.103 5.625 1.787l7.441 1.787c3.262.781 5.723 1.826 7.383 3.135 2.578 2.031 3.867 4.97 3.867 8.818 0 3.945-1.514 7.227-4.541 9.844-3.008 2.597-7.266 3.896-12.773 3.896-5.626 0-10.049-1.279-13.272-3.838-3.223-2.578-4.834-6.113-4.834-10.605h8.613Zm73.77-29.854h10.224l-14.443 26.954V288h-9.023v-16.23l-14.942-26.954h10.635l8.965 18.809 8.584-18.809Zm34.482 36.739c3.574 0 6.407-1.319 8.496-3.955 2.11-2.637 3.164-6.387 3.164-11.25 0-4.844-1.054-8.584-3.164-11.221-2.089-2.656-4.922-3.984-8.496-3.984-3.574 0-6.426 1.318-8.554 3.955-2.129 2.636-3.194 6.386-3.194 11.25 0 4.863 1.065 8.613 3.194 11.25 2.128 2.636 4.98 3.955 8.554 3.955Zm20.684-15.205c0 7.754-2.178 13.691-6.533 17.812-3.262 3.359-7.979 5.039-14.151 5.039s-10.888-1.68-14.15-5.039c-4.375-4.121-6.563-10.058-6.563-17.812 0-7.911 2.188-13.848 6.563-17.813 3.262-3.359 7.978-5.039 14.15-5.039 6.172 0 10.889 1.68 14.151 5.039 4.355 3.965 6.533 9.902 6.533 17.813Zm6.914-21.534h9.17v26.543c0 2.969.351 5.137 1.055 6.504 1.093 2.422 3.476 3.633 7.148 3.633 3.652 0 6.025-1.211 7.119-3.633.703-1.367 1.055-3.535 1.055-6.504v-26.543h9.17v26.543c0 4.59-.713 8.164-2.139 10.723-2.656 4.688-7.725 7.031-15.205 7.031s-12.559-2.343-15.234-7.031c-1.426-2.559-2.139-6.133-2.139-10.723v-26.543Zm52.383 7.5v11.602h10.224c2.032 0 3.555-.234 4.571-.703 1.797-.82 2.695-2.442 2.695-4.863 0-2.618-.869-4.375-2.607-5.274-.977-.508-2.442-.762-4.395-.762h-10.488Zm12.363-7.5c3.027.059 5.352.43 6.973 1.114a10.891 10.891 0 0 1 4.16 3.017 13.366 13.366 0 0 1 2.226 3.633c.547 1.328.821 2.842.821 4.541 0 2.051-.518 4.072-1.553 6.065-1.035 1.972-2.744 3.369-5.127 4.189 1.992.801 3.398 1.943 4.219 3.428.84 1.465 1.26 3.711 1.26 6.738v2.9c0 1.973.078 3.311.234 4.014.234 1.113.781 1.934 1.641 2.461V288h-9.932a30.723 30.723 0 0 1-.586-2.314 21.355 21.355 0 0 1-.381-3.721l-.058-4.014c-.04-2.754-.547-4.59-1.524-5.508-.957-.918-2.764-1.377-5.42-1.377h-9.316V288h-8.819v-43.184h21.182Zm38.672.059h30.615v7.588h-21.65v9.932h18.955v7.5h-18.955V288h-8.965v-43.125ZM609.154 288h-8.965v-43.184h8.965V288Zm17.461-35.684v11.602h10.225c2.031 0 3.555-.234 4.57-.703 1.797-.82 2.695-2.442 2.695-4.863 0-2.618-.869-4.375-2.607-5.274-.977-.508-2.441-.762-4.394-.762h-10.489Zm12.364-7.5c3.027.059 5.351.43 6.972 1.114a10.876 10.876 0 0 1 4.16 3.017 13.37 13.37 0 0 1 2.227 3.633c.547 1.328.82 2.842.82 4.541 0 2.051-.517 4.072-1.553 6.065-1.035 1.972-2.744 3.369-5.126 4.189 1.992.801 3.398 1.943 4.218 3.428.84 1.465 1.26 3.711 1.26 6.738v2.9c0 1.973.078 3.311.234 4.014.235 1.113.782 1.934 1.641 2.461V288H643.9a31.734 31.734 0 0 1-.586-2.314 21.259 21.259 0 0 1-.38-3.721l-.059-4.014c-.039-2.754-.547-4.59-1.523-5.508-.957-.918-2.764-1.377-5.42-1.377h-9.317V288h-8.818v-43.184h21.182Zm28.505 29.854c.274 1.973.811 3.447 1.612 4.424 1.465 1.777 3.974 2.666 7.529 2.666 2.129 0 3.857-.235 5.186-.703 2.519-.899 3.779-2.569 3.779-5.01 0-1.426-.625-2.529-1.875-3.311-1.25-.761-3.213-1.435-5.889-2.021l-4.57-1.026c-4.492-1.015-7.598-2.119-9.317-3.31-2.91-1.992-4.365-5.108-4.365-9.346 0-3.867 1.406-7.08 4.219-9.638 2.812-2.559 6.943-3.838 12.393-3.838 4.55 0 8.427 1.211 11.63 3.632 3.223 2.403 4.913 5.899 5.069 10.489h-8.672c-.156-2.598-1.289-4.444-3.399-5.537-1.406-.723-3.154-1.084-5.244-1.084-2.324 0-4.179.468-5.566 1.406-1.387.937-2.08 2.246-2.08 3.926 0 1.543.683 2.695 2.051 3.457.879.508 2.754 1.103 5.625 1.787l7.441 1.787c3.262.781 5.723 1.826 7.383 3.135 2.578 2.031 3.867 4.97 3.867 8.818 0 3.945-1.514 7.227-4.541 9.844-3.008 2.597-7.266 3.896-12.773 3.896-5.625 0-10.049-1.279-13.272-3.838-3.223-2.578-4.834-6.113-4.834-10.605h8.613Zm64.864-29.854v7.647h-12.92V288h-9.082v-35.537h-12.979v-7.647h34.981Zm53.379 0v7.647h-12.92V288h-9.082v-35.537h-12.979v-7.647h34.981ZM799.291 288h-8.965v-43.184h8.965V288Zm37.061-43.184h12.978V288h-8.408v-29.209c0-.84.01-2.012.029-3.516.02-1.523.029-2.695.029-3.515L832.807 288h-8.76l-8.115-36.24c0 .82.009 1.992.029 3.515.019 1.504.029 2.676.029 3.516V288h-8.408v-43.184h13.125l7.852 33.955 7.793-33.955Zm53.291 7.647h-22.852v9.17h20.977v7.5h-20.977v11.103h23.906V288h-32.724v-43.184h31.67v7.647ZM914.369 288v-43.184h8.936v16.465h16.875v-16.465h8.965V288h-8.965v-19.277h-16.875V288h-8.936Zm75.352-35.537h-22.852v9.17h20.977v7.5h-20.977v11.103h23.906V288h-32.724v-43.184h31.67v7.647Zm17.109-.147v11.602h10.22c2.04 0 3.56-.234 4.57-.703 1.8-.82 2.7-2.442 2.7-4.863 0-2.618-.87-4.375-2.61-5.274-.97-.508-2.44-.762-4.39-.762h-10.49Zm12.36-7.5c3.03.059 5.35.43 6.98 1.114 1.64.683 3.02 1.689 4.16 3.017a13.371 13.371 0 0 1 2.22 3.633c.55 1.328.82 2.842.82 4.541 0 2.051-.51 4.072-1.55 6.065-1.03 1.972-2.74 3.369-5.13 4.189 2 .801 3.4 1.943 4.22 3.428.84 1.465 1.26 3.711 1.26 6.738v2.9c0 1.973.08 3.311.24 4.014.23 1.113.78 1.934 1.64 2.461V288h-9.93c-.28-.957-.47-1.729-.59-2.314a20.79 20.79 0 0 1-.38-3.721l-.06-4.014c-.04-2.754-.55-4.59-1.52-5.508-.96-.918-2.77-1.377-5.42-1.377h-9.32V288h-8.818v-43.184h21.178Zm53.91 7.647h-22.85v9.17h20.97v7.5h-20.97v11.103h23.9V288h-32.72v-43.184h31.67v7.647Zm7.27 26.807h8.87V288h-8.87v-8.73ZM250.004 416h-8.965v-43.184h8.965V416Zm8.437-43.125h30.616v7.588h-21.651v9.932h18.955v7.5h-18.955V416h-8.965v-43.125Zm84.756-.059v7.647h-12.92V416h-9.082v-35.537h-12.978v-7.647h34.98ZM348.441 416v-43.184h8.936v16.465h16.875v-16.465h8.965V416h-8.965v-19.277h-16.875V416h-8.936Zm51.68 0h-8.965v-43.184h8.965V416Zm14.971-13.33c.273 1.973.81 3.447 1.611 4.424 1.465 1.777 3.975 2.666 7.529 2.666 2.129 0 3.858-.235 5.186-.703 2.52-.899 3.779-2.569 3.779-5.01 0-1.426-.625-2.529-1.875-3.311-1.25-.761-3.213-1.435-5.888-2.021l-4.571-1.026c-4.492-1.015-7.597-2.119-9.316-3.31-2.91-1.992-4.365-5.108-4.365-9.346 0-3.867 1.406-7.08 4.218-9.638 2.813-2.559 6.944-3.838 12.393-3.838 4.551 0 8.428 1.211 11.631 3.632 3.222 2.403 4.912 5.899 5.068 10.489h-8.672c-.156-2.598-1.289-4.444-3.398-5.537-1.406-.723-3.154-1.084-5.244-1.084-2.324 0-4.18.468-5.567 1.406-1.386.937-2.08 2.246-2.08 3.926 0 1.543.684 2.695 2.051 3.457.879.508 2.754 1.103 5.625 1.787l7.441 1.787c3.262.781 5.723 1.826 7.383 3.135 2.578 2.031 3.867 4.97 3.867 8.818 0 3.945-1.513 7.227-4.541 9.844-3.007 2.597-7.265 3.896-12.773 3.896-5.625 0-10.049-1.279-13.272-3.838-3.222-2.578-4.833-6.113-4.833-10.605h8.613Zm74.502-16.113c0-2.246-.596-3.848-1.787-4.805-1.172-.957-2.823-1.436-4.952-1.436h-8.408v12.715h8.408c2.129 0 3.78-.517 4.952-1.552 1.191-1.036 1.787-2.676 1.787-4.922Zm8.935-.059c0 5.098-1.289 8.701-3.867 10.811-2.578 2.109-6.26 3.164-11.045 3.164h-9.17V416h-8.965v-43.184h18.809c4.336 0 7.793 1.114 10.371 3.34 2.578 2.227 3.867 5.674 3.867 10.342Zm6.768-13.682h9.023v35.42h21.387V416h-30.41v-43.184Zm48.486 26.866h10.957l-5.39-16.993-5.567 16.993Zm.557-26.866h10.195L579.828 416h-9.785l-2.783-8.877h-15.908L548.363 416h-9.433l15.41-43.184Zm57.92 0v7.647h-12.92V416h-9.082v-35.537h-12.979v-7.647h34.981Zm5.302.059h30.616v7.588h-21.651v9.932h18.955v7.5h-18.955V416h-8.965v-43.125Zm55.782 36.68c3.574 0 6.406-1.319 8.496-3.955 2.109-2.637 3.164-6.387 3.164-11.25 0-4.844-1.055-8.584-3.164-11.221-2.09-2.656-4.922-3.984-8.496-3.984-3.574 0-6.426 1.318-8.555 3.955-2.129 2.636-3.193 6.386-3.193 11.25 0 4.863 1.064 8.613 3.193 11.25 2.129 2.636 4.981 3.955 8.555 3.955Zm20.683-15.205c0 7.754-2.177 13.691-6.533 17.812-3.262 3.359-7.978 5.039-14.15 5.039-6.172 0-10.889-1.68-14.151-5.039-4.375-4.121-6.562-10.058-6.562-17.812 0-7.911 2.187-13.848 6.562-17.813 3.262-3.359 7.979-5.039 14.151-5.039s10.888 1.68 14.15 5.039c4.356 3.965 6.533 9.902 6.533 17.813Zm15.938-14.034v11.602h10.224c2.032 0 3.555-.234 4.571-.703 1.797-.82 2.695-2.442 2.695-4.863 0-2.618-.869-4.375-2.607-5.274-.977-.508-2.442-.762-4.395-.762h-10.488Zm12.363-7.5c3.027.059 5.352.43 6.973 1.114a10.891 10.891 0 0 1 4.16 3.017 13.394 13.394 0 0 1 2.227 3.633c.546 1.328.82 2.842.82 4.541 0 2.051-.518 4.072-1.553 6.065-1.035 1.972-2.744 3.369-5.127 4.189 1.992.801 3.399 1.943 4.219 3.428.84 1.465 1.26 3.711 1.26 6.738v2.9c0 1.973.078 3.311.234 4.014.234 1.113.781 1.934 1.641 2.461V416h-9.932a31.22 31.22 0 0 1-.586-2.314 21.355 21.355 0 0 1-.381-3.721l-.058-4.014c-.039-2.754-.547-4.59-1.524-5.508-.957-.918-2.763-1.377-5.42-1.377h-9.316V416h-8.819v-43.184h21.182Zm50.596 0h12.978V416h-8.408v-29.209c0-.84.01-2.012.029-3.516.02-1.523.03-2.695.03-3.515L769.379 416h-8.76l-8.115-36.24c0 .82.01 1.992.029 3.515.02 1.504.029 2.676.029 3.516V416h-8.408v-43.184h13.125l7.852 33.955 7.793-33.955Zm38.056.059h30.616v7.588h-21.651v9.932H838.9v7.5h-18.955V416h-8.965v-43.125Zm68.614 7.588h-22.852v9.17h20.977v7.5h-20.977v11.103h23.906V416h-32.724v-43.184h31.67v7.647Zm40.019 0h-22.851v9.17h20.976v7.5h-20.976v11.103h23.906V416h-32.725v-43.184h31.67v7.647Zm8.086-7.647h9.024v35.42h21.386V416h-30.41v-43.184Zm43.213 29.854c.274 1.973.811 3.447 1.611 4.424 1.465 1.777 3.975 2.666 7.53 2.666 2.129 0 3.857-.235 5.185-.703 2.52-.899 3.78-2.569 3.78-5.01 0-1.426-.625-2.529-1.875-3.311-1.25-.761-3.213-1.435-5.889-2.021l-4.57-1.026c-4.493-1.015-7.598-2.119-9.317-3.31-2.91-1.992-4.365-5.108-4.365-9.346 0-3.867 1.406-7.08 4.219-9.638 2.812-2.559 6.943-3.838 12.392-3.838 4.551 0 8.428 1.211 11.631 3.632 3.223 2.403 4.912 5.899 5.068 10.489h-8.671c-.157-2.598-1.289-4.444-3.399-5.537-1.406-.723-3.154-1.084-5.244-1.084-2.324 0-4.18.468-5.566 1.406-1.387.937-2.08 2.246-2.08 3.926 0 1.543.683 2.695 2.05 3.457.879.508 2.754 1.103 5.625 1.787l7.442 1.787c3.261.781 5.722 1.826 7.383 3.135 2.578 2.031 3.867 4.97 3.867 8.818 0 3.945-1.514 7.227-4.541 9.844-3.008 2.597-7.266 3.896-12.774 3.896-5.625 0-10.049-1.279-13.271-3.838-3.223-2.578-4.834-6.113-4.834-10.605h8.613Zm-814.834 39.205h30.615v7.588h-21.65v9.932h18.955v7.5h-18.955V485h-8.965v-43.125Zm45.205 26.807h10.957l-5.39-16.993-5.567 16.993Zm.557-26.866h10.195L227.328 485h-9.785l-2.783-8.877h-15.908L195.863 485h-9.433l15.41-43.184Zm59.619 0h12.979V485h-8.409v-29.209c0-.84.01-2.012.03-3.516.019-1.523.029-2.695.029-3.515L257.914 485h-8.76l-8.115-36.24c0 .82.01 1.992.029 3.515.02 1.504.03 2.676.03 3.516V485h-8.409v-43.184h13.125l7.852 33.955 7.793-33.955ZM291.078 485h-8.965v-43.184h8.965V485Zm8.438-43.184h9.023v35.42h21.387V485h-30.41v-43.184ZM344.457 485h-8.965v-43.184h8.965V485Zm20.244-16.318h10.957l-5.39-16.993-5.567 16.993Zm.557-26.866h10.195L390.746 485h-9.785l-2.783-8.877H362.27L359.281 485h-9.433l15.41-43.184Zm40.019 7.5v11.602h10.225c2.031 0 3.555-.234 4.57-.703 1.797-.82 2.696-2.442 2.696-4.863 0-2.618-.87-4.375-2.608-5.274-.976-.508-2.441-.762-4.394-.762h-10.489Zm12.364-7.5c3.027.059 5.351.43 6.972 1.114a10.876 10.876 0 0 1 4.16 3.017A13.37 13.37 0 0 1 431 449.58c.547 1.328.82 2.842.82 4.541 0 2.051-.517 4.072-1.552 6.065-1.036 1.972-2.745 3.369-5.127 4.189 1.992.801 3.398 1.943 4.218 3.428.84 1.465 1.26 3.711 1.26 6.738v2.9c0 1.973.078 3.311.235 4.014.234 1.113.781 1.934 1.64 2.461V485h-9.932a31.13 31.13 0 0 1-.585-2.314 21.163 21.163 0 0 1-.381-3.721l-.059-4.014c-.039-2.754-.547-4.59-1.523-5.508-.957-.918-2.764-1.377-5.42-1.377h-9.317V485h-8.818v-43.184h21.182Zm20.859 50.127c1.68-.468 2.91-1.25 3.691-2.343.801-1.094 1.26-2.627 1.377-4.6H438.5v-8.73h9.023v7.558c0 1.328-.175 2.715-.527 4.16-.351 1.446-1.006 2.696-1.963 3.75a9.924 9.924 0 0 1-3.662 2.549c-1.387.586-2.344.879-2.871.879v-3.223ZM481.273 485h-8.964v-43.184h8.964V485Zm37.061-43.184h12.978V485h-8.408v-29.209c0-.84.01-2.012.03-3.516.019-1.523.029-2.695.029-3.515L514.789 485h-8.76l-8.115-36.24c0 .82.01 1.992.029 3.515.02 1.504.03 2.676.03 3.516V485h-8.409v-43.184h13.125l7.852 33.955 7.793-33.955Zm49.98 0h12.979V485h-8.408v-29.209c0-.84.01-2.012.029-3.516.02-1.523.029-2.695.029-3.515L564.77 485h-8.76l-8.115-36.24c0 .82.009 1.992.029 3.515.019 1.504.029 2.676.029 3.516V485h-8.408v-43.184h13.125l7.851 33.955 7.793-33.955Zm53.291 7.647h-22.851v9.17h20.976v7.5h-20.976v11.103h23.906V485h-32.724v-43.184h31.669v7.647Zm16.846-.147V477.5h8.32c4.258 0 7.227-2.1 8.907-6.299.918-2.305 1.377-5.049 1.377-8.232 0-4.395-.694-7.764-2.08-10.108-1.368-2.363-4.102-3.545-8.204-3.545h-8.32Zm9.844-7.5c2.676.039 4.902.352 6.68.938 3.027.996 5.478 2.822 7.353 5.478 1.504 2.149 2.529 4.473 3.076 6.973.547 2.5.821 4.883.821 7.149 0 5.742-1.153 10.605-3.457 14.589-3.125 5.371-7.95 8.057-14.473 8.057h-18.604v-43.184h18.604ZM681.312 485h-8.964v-43.184h8.964V485Zm20.245-16.318h10.957l-5.391-16.993-5.566 16.993Zm.556-26.866h10.196L727.602 485h-9.786l-2.783-8.877h-15.908L696.137 485h-9.434l15.41-43.184Zm57.92 0v7.647h-12.92V485h-9.082v-35.537h-12.978v-7.647h34.98Zm37.237 7.647h-22.852v9.17h20.977v7.5h-20.977v11.103h23.906V485H765.6v-43.184h31.67v7.647Zm8.085-7.647h9.024v35.42h21.387V485h-30.411v-43.184Zm55.811 0h10.225l-14.444 26.954V485h-9.023v-16.23l-14.942-26.954h10.635l8.965 18.809 8.584-18.809Zm40.605 26.866h10.958l-5.391-16.993-5.567 16.993Zm.557-26.866h10.195L927.816 485h-9.785l-2.783-8.877H899.34L896.352 485h-9.434l15.41-43.184Zm30.996 0h9.024v35.42h21.386V485h-30.41v-43.184Zm68.616 7.647h-22.854v9.17h20.974v7.5h-20.974v11.103h23.904V485h-32.722v-43.184h31.672v7.647Zm17.11-.147v11.602h10.22c2.03 0 3.56-.234 4.57-.703 1.8-.82 2.7-2.442 2.7-4.863 0-2.618-.87-4.375-2.61-5.274-.98-.508-2.44-.762-4.39-.762h-10.49Zm12.36-7.5c3.03.059 5.35.43 6.97 1.114 1.64.683 3.03 1.689 4.16 3.017a13.404 13.404 0 0 1 2.23 3.633c.55 1.328.82 2.842.82 4.541 0 2.051-.52 4.072-1.55 6.065-1.04 1.972-2.75 3.369-5.13 4.189 1.99.801 3.4 1.943 4.22 3.428.84 1.465 1.26 3.711 1.26 6.738v2.9c0 1.973.08 3.311.23 4.014.24 1.113.78 1.934 1.64 2.461V485h-9.93c-.27-.957-.47-1.729-.58-2.314a19.913 19.913 0 0 1-.38-3.721l-.06-4.014c-.04-2.754-.55-4.59-1.53-5.508-.95-.918-2.76-1.377-5.42-1.377h-9.31V485h-8.82v-43.184h21.18Zm53.35 0v7.647h-12.92V485h-9.08v-35.537h-12.98v-7.647h34.98Zm-746.69 95.866h10.957l-5.39-16.993-5.567 16.993Zm.557-26.866h10.195L364.115 554h-9.785l-2.783-8.877h-15.908L332.65 554h-9.433l15.41-43.184Zm30.85 0h9.462l17.198 30.147v-30.147h8.408V554h-9.024l-17.636-30.674V554h-8.408v-43.184Zm88.828 0h12.978V554h-8.408v-29.209c0-.84.01-2.012.029-3.516.02-1.523.03-2.695.03-3.515L454.76 554H446l-8.115-36.24c0 .82.01 1.992.029 3.515.02 1.504.029 2.676.029 3.516V554h-8.408v-43.184h13.125l7.852 33.955 7.793-33.955Zm52.734 0v7.647h-12.92V554h-9.082v-35.537h-12.978v-7.647h34.98Zm12.656 26.866h10.957l-5.39-16.993-5.567 16.993Zm.557-26.866h10.195L549.74 554h-9.785l-2.783-8.877h-15.908L518.275 554h-9.433l15.41-43.184Zm77.402 7.647h-22.851v9.17h20.976v7.5h-20.976v11.103h23.906V554h-32.725v-43.184h31.67v7.647Zm36.709-7.647h12.979V554h-8.408v-29.209c0-.84.009-2.012.029-3.516.019-1.523.029-2.695.029-3.515L634.818 554h-8.759l-8.116-36.24c0 .82.01 1.992.03 3.515.019 1.504.029 2.676.029 3.516V554h-8.408v-43.184h13.125l7.851 33.955 7.793-33.955Zm45.674 13.741c0-2.246-.596-3.848-1.787-4.805-1.172-.957-2.822-1.436-4.951-1.436h-8.408v12.715h8.408c2.129 0 3.779-.517 4.951-1.552 1.191-1.036 1.787-2.676 1.787-4.922Zm8.936-.059c0 5.098-1.289 8.701-3.868 10.811-2.578 2.109-6.259 3.164-11.044 3.164h-9.17V554h-8.965v-43.184h18.808c4.336 0 7.793 1.114 10.371 3.34 2.579 2.227 3.868 5.674 3.868 10.342Zm6.767-13.682h9.024v35.42h21.386V554h-30.41v-43.184Zm55.781 36.739c3.575 0 6.407-1.319 8.497-3.955 2.109-2.637 3.164-6.387 3.164-11.25 0-4.844-1.055-8.584-3.164-11.221-2.09-2.656-4.922-3.984-8.497-3.984-3.574 0-6.425 1.318-8.554 3.955-2.129 2.636-3.194 6.386-3.194 11.25 0 4.863 1.065 8.613 3.194 11.25 2.129 2.636 4.98 3.955 8.554 3.955Zm20.684-15.205c0 7.754-2.178 13.691-6.533 17.812-3.262 3.359-7.979 5.039-14.151 5.039-6.171 0-10.888-1.68-14.15-5.039-4.375-4.121-6.562-10.058-6.562-17.812 0-7.911 2.187-13.848 6.562-17.813 3.262-3.359 7.979-5.039 14.15-5.039 6.172 0 10.889 1.68 14.151 5.039 4.355 3.965 6.533 9.902 6.533 17.813Zm31.553-21.534h10.224l-14.443 26.954V554h-9.023v-16.23l-14.942-26.954h10.635l8.965 18.809 8.584-18.809Zm47.314 7.647h-22.851v9.17h20.976v7.5h-20.976v11.103h23.906V554h-32.725v-43.184h31.67v7.647Zm40.02 0H872.24v9.17h20.977v7.5H872.24v11.103h23.906V554h-32.724v-43.184h31.67v7.647Zm7.265 26.807h8.877V554h-8.877v-8.73Z" fill="#fff"/><path fill="#000" d="M614 781h10v28h-10zm0 288h10v28h-10zm137-125v-10h28v10zm-294 0v-10h28v10zm21-83.355 5.027-8.645 24.205 14.075-5.026 8.644zm252 148.995 5.027-8.645 24.205 14.075-5.026 8.644zm.001-145.56 5.027 8.645 24.205-14.075-5.026-8.644zm-220.769 147.566-5.027-8.645L480 1017.075l5.026 8.645zm174.073 43.454 8.534-5.212 14.595 23.895-8.534 5.212zm-128.173.125-8.534-5.212-14.595 23.895 8.534 5.213zM529 804.212l8.534-5.212 14.595 23.895-8.534 5.212zM256.596 1389h-8.965v-43.18h8.965V1389Zm8.437-43.12h30.615v7.58h-21.65v9.93h18.955v7.5h-18.955V1389h-8.965v-43.12Zm76.963-.06h10.225l-14.444 26.95V1389h-9.023v-16.23l-14.942-26.95h10.635l8.965 18.8 8.584-18.8Zm34.483 36.73c3.574 0 6.406-1.31 8.496-3.95 2.109-2.64 3.164-6.39 3.164-11.25 0-4.84-1.055-8.58-3.164-11.22-2.09-2.66-4.922-3.99-8.496-3.99-3.575 0-6.426 1.32-8.555 3.96-2.129 2.64-3.194 6.39-3.194 11.25s1.065 8.61 3.194 11.25c2.129 2.64 4.98 3.95 8.555 3.95Zm20.683-15.2c0 7.75-2.178 13.69-6.533 17.81-3.262 3.36-7.979 5.04-14.15 5.04-6.172 0-10.889-1.68-14.151-5.04-4.375-4.12-6.562-10.06-6.562-17.81 0-7.91 2.187-13.85 6.562-17.81 3.262-3.36 7.979-5.04 14.151-5.04 6.171 0 10.888 1.68 14.15 5.04 4.355 3.96 6.533 9.9 6.533 17.81Zm6.914-21.53h9.17v26.54c0 2.97.352 5.14 1.055 6.5 1.094 2.43 3.476 3.64 7.148 3.64 3.653 0 6.026-1.21 7.119-3.64.703-1.36 1.055-3.53 1.055-6.5v-26.54h9.17v26.54c0 4.59-.713 8.16-2.139 10.72-2.656 4.69-7.724 7.03-15.205 7.03-7.48 0-12.558-2.34-15.234-7.03-1.426-2.56-2.139-6.13-2.139-10.72v-26.54Zm66.592 29.85c.273 1.97.811 3.45 1.611 4.42 1.465 1.78 3.975 2.67 7.53 2.67 2.129 0 3.857-.23 5.185-.7 2.52-.9 3.779-2.57 3.779-5.01 0-1.43-.625-2.53-1.875-3.31-1.25-.77-3.212-1.44-5.888-2.03l-4.571-1.02c-4.492-1.02-7.597-2.12-9.316-3.31-2.91-1.99-4.365-5.11-4.365-9.35 0-3.86 1.406-7.08 4.219-9.64 2.812-2.55 6.943-3.83 12.392-3.83 4.551 0 8.428 1.21 11.631 3.63 3.223 2.4 4.912 5.9 5.068 10.49h-8.672c-.156-2.6-1.289-4.45-3.398-5.54-1.406-.72-3.154-1.08-5.244-1.08-2.324 0-4.18.47-5.566 1.4-1.387.94-2.081 2.25-2.081 3.93 0 1.54.684 2.69 2.051 3.46.879.5 2.754 1.1 5.625 1.78l7.442 1.79c3.261.78 5.722 1.83 7.382 3.13 2.579 2.04 3.868 4.98 3.868 8.82 0 3.95-1.514 7.23-4.541 9.85-3.008 2.59-7.266 3.89-12.774 3.89-5.625 0-10.049-1.28-13.271-3.83-3.223-2.58-4.834-6.12-4.834-10.61h8.613Zm65.42-22.21h-22.852v9.17h20.977v7.5h-20.977v11.11h23.907v7.76h-32.725v-43.18h31.67v7.64Zm40.019 0h-22.851v9.17h20.976v7.5h-20.976v11.11h23.906v7.76h-32.724v-43.18h31.669v7.64Zm31.319 22.21c.273 1.97.81 3.45 1.611 4.42 1.465 1.78 3.975 2.67 7.529 2.67 2.129 0 3.858-.23 5.186-.7 2.519-.9 3.779-2.57 3.779-5.01 0-1.43-.625-2.53-1.875-3.31-1.25-.77-3.213-1.44-5.888-2.03l-4.571-1.02c-4.492-1.02-7.597-2.12-9.316-3.31-2.91-1.99-4.365-5.11-4.365-9.35 0-3.86 1.406-7.08 4.218-9.64 2.813-2.55 6.944-3.83 12.393-3.83 4.551 0 8.428 1.21 11.631 3.63 3.222 2.4 4.912 5.9 5.068 10.49h-8.672c-.156-2.6-1.289-4.45-3.398-5.54-1.406-.72-3.154-1.08-5.244-1.08-2.324 0-4.18.47-5.567 1.4-1.386.94-2.08 2.25-2.08 3.93 0 1.54.684 2.69 2.051 3.46.879.5 2.754 1.1 5.625 1.78l7.441 1.79c3.262.78 5.723 1.83 7.383 3.13 2.578 2.04 3.867 4.98 3.867 8.82 0 3.95-1.513 7.23-4.541 9.85-3.007 2.59-7.265 3.89-12.773 3.89-5.625 0-10.049-1.28-13.272-3.83-3.222-2.58-4.834-6.12-4.834-10.61h8.614Zm52.588 6.88c3.574 0 6.406-1.31 8.496-3.95 2.109-2.64 3.164-6.39 3.164-11.25 0-4.84-1.055-8.58-3.164-11.22-2.09-2.66-4.922-3.99-8.496-3.99-3.575 0-6.426 1.32-8.555 3.96-2.129 2.64-3.193 6.39-3.193 11.25s1.064 8.61 3.193 11.25c2.129 2.64 4.98 3.95 8.555 3.95Zm20.683-15.2c0 7.75-2.177 13.69-6.533 17.81-3.262 3.36-7.978 5.04-14.15 5.04-6.172 0-10.889-1.68-14.151-5.04-4.375-4.12-6.562-10.06-6.562-17.81 0-7.91 2.187-13.85 6.562-17.81 3.262-3.36 7.979-5.04 14.151-5.04s10.888 1.68 14.15 5.04c4.356 3.96 6.533 9.9 6.533 17.81Zm35.537-21.53h12.979V1389h-8.408v-29.21c0-.84.009-2.01.029-3.51.02-1.53.029-2.7.029-3.52l-8.174 36.24h-8.759l-8.116-36.24c0 .82.01 1.99.03 3.52.019 1.5.029 2.67.029 3.51V1389h-8.408v-43.18h13.125l7.851 33.95 7.793-33.95Zm53.291 7.64h-22.851v9.17h20.976v7.5h-20.976v11.11h23.906v7.76h-32.725v-43.18h31.67v7.64Zm39.463-7.64v7.64h-12.92V1389h-9.082v-35.54h-12.978v-7.64h34.98Zm5.244 43.18v-43.18h8.936v16.46h16.875v-16.46h8.965V1389h-8.965v-19.28h-16.875V1389h-8.936Zm51.68 0h-8.965v-43.18h8.965V1389Zm8.291-43.18h9.463l17.197 30.14v-30.14h8.408V1389h-9.023l-17.637-30.67V1389h-8.408v-43.18Zm72.539 13.47c-.683-2.95-2.353-5.01-5.01-6.18-1.484-.64-3.134-.97-4.951-.97-3.476 0-6.338 1.32-8.584 3.96-2.226 2.62-3.34 6.56-3.34 11.84 0 5.31 1.211 9.07 3.633 11.27 2.422 2.21 5.176 3.32 8.262 3.32 3.027 0 5.508-.87 7.441-2.61 1.934-1.76 3.125-4.05 3.575-6.89h-9.991v-7.2h17.989V1389h-5.977l-.908-5.39c-1.738 2.05-3.301 3.5-4.688 4.34-2.382 1.46-5.312 2.19-8.789 2.19-5.722 0-10.41-1.98-14.062-5.94-3.809-3.99-5.713-9.44-5.713-16.35 0-6.99 1.924-12.6 5.771-16.82 3.848-4.22 8.936-6.33 15.264-6.33 5.488 0 9.893 1.4 13.213 4.19 3.34 2.78 5.254 6.24 5.742 10.4h-8.877Zm16.553 36.65c1.68-.47 2.91-1.25 3.691-2.34.801-1.09 1.26-2.63 1.377-4.6h-5.068v-8.73h9.023v7.56c0 1.33-.175 2.71-.527 4.16-.352 1.44-1.006 2.69-1.963 3.75a10.01 10.01 0 0 1-3.662 2.55c-1.387.58-2.344.88-2.871.88v-3.23Zm-590.566 48.73c.273 1.97.81 3.45 1.611 4.42 1.465 1.78 3.974 2.67 7.529 2.67 2.129 0 3.858-.23 5.186-.7 2.519-.9 3.779-2.57 3.779-5.01 0-1.43-.625-2.53-1.875-3.31-1.25-.77-3.213-1.44-5.889-2.03l-4.57-1.02c-4.492-1.02-7.598-2.12-9.316-3.31-2.911-1.99-4.366-5.11-4.366-9.35 0-3.86 1.407-7.08 4.219-9.64 2.813-2.55 6.943-3.83 12.393-3.83 4.55 0 8.427 1.21 11.631 3.63 3.222 2.4 4.912 5.9 5.068 10.49h-8.672c-.156-2.6-1.289-4.45-3.398-5.54-1.407-.72-3.155-1.08-5.245-1.08-2.324 0-4.179.47-5.566 1.4-1.387.94-2.08 2.25-2.08 3.93 0 1.54.684 2.69 2.051 3.46.879.5 2.754 1.1 5.625 1.78l7.441 1.79c3.262.78 5.723 1.83 7.383 3.13 2.578 2.04 3.867 4.98 3.867 8.82 0 3.95-1.514 7.23-4.541 9.85-3.008 2.59-7.265 3.89-12.773 3.89-5.625 0-10.049-1.28-13.272-3.83-3.222-2.58-4.834-6.12-4.834-10.61h8.614Zm45.292-2.99h10.958l-5.391-16.99-5.567 16.99Zm.557-26.86h10.195l15.293 43.18h-9.785l-2.783-8.88H415.59l-2.988 8.88h-9.434l15.41-43.18Zm50.127 0h10.225l-14.444 26.95V1458h-9.023v-16.23l-14.942-26.95h10.635l8.965 18.8 8.584-18.8Zm37.559 29.85c.273 1.97.81 3.45 1.611 4.42 1.465 1.78 3.975 2.67 7.529 2.67 2.129 0 3.858-.23 5.186-.7 2.519-.9 3.779-2.57 3.779-5.01 0-1.43-.625-2.53-1.875-3.31-1.25-.77-3.213-1.44-5.889-2.03l-4.57-1.02c-4.492-1.02-7.597-2.12-9.316-3.31-2.91-1.99-4.365-5.11-4.365-9.35 0-3.86 1.406-7.08 4.218-9.64 2.813-2.55 6.944-3.83 12.393-3.83 4.551 0 8.428 1.21 11.631 3.63 3.222 2.4 4.912 5.9 5.068 10.49h-8.672c-.156-2.6-1.289-4.45-3.398-5.54-1.406-.72-3.155-1.08-5.244-1.08-2.325 0-4.18.47-5.567 1.4-1.387.94-2.08 2.25-2.08 3.93 0 1.54.684 2.69 2.051 3.46.879.5 2.754 1.1 5.625 1.78l7.441 1.79c3.262.78 5.723 1.83 7.383 3.13 2.578 2.04 3.867 4.98 3.867 8.82 0 3.95-1.513 7.23-4.541 9.85-3.008 2.59-7.265 3.89-12.773 3.89-5.625 0-10.049-1.28-13.272-3.83-3.222-2.58-4.834-6.12-4.834-10.61h8.614Zm52.588 6.88c3.574 0 6.406-1.31 8.496-3.95 2.109-2.64 3.164-6.39 3.164-11.25 0-4.84-1.055-8.58-3.164-11.22-2.09-2.66-4.922-3.99-8.496-3.99-3.575 0-6.426 1.32-8.555 3.96-2.129 2.64-3.193 6.39-3.193 11.25s1.064 8.61 3.193 11.25c2.129 2.64 4.98 3.95 8.555 3.95Zm20.683-15.2c0 7.75-2.178 13.69-6.533 17.81-3.262 3.36-7.979 5.04-14.15 5.04-6.172 0-10.889-1.68-14.151-5.04-4.375-4.12-6.562-10.06-6.562-17.81 0-7.91 2.187-13.85 6.562-17.81 3.262-3.36 7.979-5.04 14.151-5.04 6.171 0 10.888 1.68 14.15 5.04 4.355 3.96 6.533 9.9 6.533 17.81Zm35.537-21.53h12.979V1458h-8.408v-29.21c0-.84.009-2.01.029-3.51.019-1.53.029-2.7.029-3.52l-8.174 36.24h-8.759l-8.116-36.24c0 .82.01 1.99.03 3.52.019 1.5.029 2.67.029 3.51V1458h-8.408v-43.18h13.125l7.851 33.95 7.793-33.95Zm53.291 7.64h-22.851v9.17h20.976v7.5h-20.976v11.11h23.906v7.76h-32.725v-43.18h31.67v7.64Zm39.463-7.64v7.64h-12.92V1458h-9.082v-35.54h-12.978v-7.64h34.98Zm5.244 43.18v-43.18h8.936v16.46h16.875v-16.46h8.965V1458h-8.965v-19.28h-16.875V1458h-8.936Zm51.68 0h-8.965v-43.18h8.965V1458Zm8.291-43.18h9.463l17.197 30.14v-30.14h8.408V1458h-9.023l-17.637-30.67V1458h-8.408v-43.18Zm72.539 13.47c-.684-2.95-2.353-5.01-5.01-6.18-1.484-.64-3.134-.97-4.951-.97-3.476 0-6.338 1.32-8.584 3.96-2.226 2.62-3.34 6.56-3.34 11.84 0 5.31 1.211 9.07 3.633 11.27 2.422 2.21 5.176 3.32 8.262 3.32 3.027 0 5.508-.87 7.441-2.61 1.934-1.76 3.125-4.05 3.574-6.89h-9.99v-7.2h17.989V1458h-5.977l-.908-5.39c-1.739 2.05-3.301 3.5-4.688 4.34-2.383 1.46-5.312 2.19-8.789 2.19-5.722 0-10.41-1.98-14.062-5.94-3.809-3.99-5.713-9.44-5.713-16.35 0-6.99 1.924-12.6 5.771-16.82 3.848-4.22 8.936-6.33 15.264-6.33 5.488 0 9.893 1.4 13.213 4.19 3.34 2.78 5.254 6.24 5.742 10.4h-8.877Zm16.846 20.98h8.877v8.73h-8.877v-8.73Z"/></svg>