<svg width="248" height="350.8" viewBox="0 0 2480 3508" fill="none" xmlns="http://www.w3.org/2000/svg"><g clip-path="url(#a)"><path d="M2480 0H0v3508h2480V0Z" fill="#fff"/><path d="M2405.97 71.669H74.031V3432.56H2405.97V71.669Z" fill="#fff"/><path d="M0 0h2480v900H0V0Zm0 3155h2480v352.61H0V3155Z" fill="#0098CD"/><path d="M197.691 425.226c-3.128 0-4.691-1.593-4.691-4.78V160.813c0-3.187 1.563-4.781 4.691-4.781h85.166c32.478 0 57.379 9.072 74.701 27.214 17.562 18.142 26.343 42.046 26.343 71.712v70.24c0 30.156-8.781 54.427-26.343 72.815-17.322 18.142-42.343 27.213-75.062 27.213h-84.805Zm41.5-43.394h44.027c36.328 0 54.492-18.878 54.492-56.634v-69.137c0-37.756-18.164-56.634-54.492-56.634h-44.027v182.405Zm276.963 47.44c-26.705 0-47.635-7.11-62.792-21.33-15.157-14.22-22.735-34.323-22.735-60.311v-46.337c0-26.233 7.217-46.582 21.652-61.046 14.435-14.711 34.644-22.066 60.627-22.066 25.742 0 45.831 7.355 60.266 22.066 14.435 14.464 21.652 34.813 21.652 61.046v31.627c0 3.187-1.564 4.781-4.691 4.781H473.571v9.929c0 13.974 3.729 24.884 11.187 32.73 7.458 7.6 17.803 11.4 31.035 11.4 18.525 0 31.276-7.968 38.253-23.904 1.202-2.942 3.127-3.922 5.774-2.942l29.952 9.194c2.887 1.226 3.97 3.065 3.248 5.516-10.345 33.098-35.967 49.647-76.866 49.647Zm-42.583-121.726h80.114v-9.194c0-13.484-3.489-24.026-10.466-31.626-6.977-7.601-16.84-11.401-29.591-11.401-12.751 0-22.615 3.8-29.592 11.401-6.977 7.6-10.465 18.142-10.465 31.626v9.194Zm30.674-109.59c-1.925 0-3.128-.49-3.609-1.471-.481-1.226-.24-2.697.722-4.413l28.87-44.13c1.203-1.961 3.127-2.942 5.774-2.942h30.313c1.925 0 3.128.613 3.609 1.839.722 1.226.481 2.574-.722 4.045l-35.726 44.13c-1.444 1.961-3.368 2.942-5.774 2.942h-23.457ZM613.34 481.492c-2.405-2.206-2.526-4.413-.36-6.619 11.307-11.523 19.006-22.433 23.095-32.73 4.331-10.297 6.496-23.904 6.496-40.82V227.008c0-3.187 1.564-4.78 4.692-4.78h35.365c3.128 0 4.691 1.593 4.691 4.78V401.69c0 20.84-3.247 38.982-9.743 54.428-6.496 15.69-16.961 30.768-31.396 45.233-2.406 1.961-4.691 2.084-6.857.368l-25.983-20.227Zm33.923-288.317c-3.128 0-4.692-1.593-4.692-4.78v-38.614c0-3.187 1.564-4.781 4.692-4.781h35.365c3.128 0 4.691 1.594 4.691 4.781v38.614c0 3.187-1.563 4.78-4.691 4.78h-35.365Zm207.266 232.051c-3.128 0-4.692-1.593-4.692-4.78v-24.272c-13.472 22.065-32.839 33.098-58.1 33.098-18.044 0-32.599-5.639-43.666-16.917-11.067-11.278-16.6-26.233-16.6-44.865 0-19.124 6.857-34.079 20.57-44.866 13.713-11.033 34.884-16.549 63.513-16.549h32.479v-20.226c0-20.84-10.826-31.259-32.479-31.259-17.081 0-28.388 7.723-33.922 23.168-.962 2.942-2.887 4.045-5.774 3.31l-32.839-8.826c-2.887-.736-3.97-2.574-3.248-5.516 4.09-14.956 12.51-26.724 25.261-35.304 12.992-8.827 30.313-13.24 51.966-13.24 24.058 0 42.463 5.639 55.213 16.917 12.992 11.278 19.488 27.949 19.488 50.014v135.333c0 3.187-1.564 4.78-4.692 4.78h-32.478Zm-92.023-274.342c-1.203-1.471-1.564-2.819-1.083-4.045.722-1.226 2.045-1.839 3.97-1.839h29.953c2.405 0 4.33.981 5.774 2.942l29.23 44.13c.963 1.716 1.203 3.187.722 4.413-.481.981-1.684 1.471-3.609 1.471h-23.457c-2.405 0-4.33-.981-5.773-2.942l-35.727-44.13Zm11.548 214.031c0 8.581 2.646 15.446 7.939 20.594 5.293 4.904 12.751 7.355 22.374 7.355 10.105 0 18.886-2.819 26.344-8.458 7.458-5.884 13.232-14.097 17.322-24.639v-24.272h-32.479c-27.667 0-41.5 9.807-41.5 29.42Zm320.066 60.311c-2.65 0-4.33-1.348-5.05-4.045l-77.95-259.632c-1.21-3.678.12-5.517 3.97-5.517h37.89c2.65 0 4.33 1.349 5.05 4.046l40.06 137.906c8.66 30.401 15.27 56.757 19.85 79.067h1.08c2.4-11.278 9.38-37.878 20.93-79.802l39.7-137.171c.72-2.697 2.4-4.046 5.05-4.046h36.08c3.85 0 5.18 1.839 3.97 5.517l-77.22 259.632c-.72 2.697-2.41 4.045-5.05 4.045h-48.36Zm313.67-202.998c3.13 0 4.69 1.593 4.69 4.78v193.438c0 3.187-1.56 4.78-4.69 4.78h-34.28c-3.13 0-4.69-1.593-4.69-4.78v-20.594c-13.96 19.613-32.6 29.42-55.94 29.42-19.48 0-34.76-6.742-45.83-20.227-11.06-13.484-16.6-32.607-16.6-57.369V227.008c0-3.187 1.57-4.78 4.69-4.78h35.37c3.13 0 4.69 1.593 4.69 4.78v124.668c0 12.013 2.77 21.33 8.3 27.949 5.77 6.375 13.35 9.562 22.74 9.562 9.14 0 17.32-2.942 24.54-8.826 7.45-5.884 13.11-13.73 16.96-23.536V227.008c0-3.187 1.56-4.78 4.69-4.78h35.36Zm129.56 202.998c-3.61 0-4.81-1.838-3.61-5.516l79.75-259.632c.73-2.697 2.41-4.046 5.06-4.046h48.71c2.65 0 4.33 1.349 5.06 4.046l81.19 259.632c1.21 3.678 0 5.516-3.61 5.516h-38.25c-2.65 0-4.33-1.348-5.05-4.045l-19.13-63.253h-89.49l-19.49 63.253c-.72 2.697-2.41 4.045-5.05 4.045h-36.09Zm73.62-109.957h63.51l-9.74-31.995c-5.78-18.387-12.87-44.743-21.29-79.066h-1.09c-7.94 31.872-15.15 58.472-21.65 79.802l-9.74 31.259Zm183.39 109.957c-3.12 0-4.69-1.593-4.69-4.78V227.008c0-3.187 1.57-4.78 4.69-4.78h34.29c3.12 0 4.69 1.593 4.69 4.78v27.582c13.23-23.536 33.56-35.182 60.99-34.937 3.12 0 4.69 1.594 4.69 4.781v33.833c0 3.433-1.69 4.904-5.05 4.413-30.32-.735-50.17 10.175-59.55 32.73v125.036c0 3.187-1.56 4.78-4.69 4.78h-35.37Zm216.38 4.046c-26.7 0-47.63-7.11-62.79-21.33-15.15-14.22-22.73-34.323-22.73-60.311v-46.337c0-26.233 7.21-46.582 21.65-61.046 14.43-14.711 34.64-22.066 60.63-22.066 25.74 0 45.83 7.355 60.26 22.066 14.44 14.464 21.65 34.813 21.65 61.046v31.627c0 3.187-1.56 4.781-4.69 4.781h-116.56v9.929c0 13.974 3.73 24.884 11.19 32.73 7.46 7.6 17.8 11.4 31.03 11.4 18.53 0 31.28-7.968 38.26-23.904 1.2-2.942 3.12-3.922 5.77-2.942l29.95 9.194c2.89 1.226 3.97 3.065 3.25 5.516-10.34 33.098-35.97 49.647-76.87 49.647Zm-42.58-121.726h80.11v-9.194c0-13.484-3.48-24.026-10.46-31.626-6.98-7.601-16.84-11.401-29.59-11.401s-22.62 3.8-29.59 11.401c-6.98 7.6-10.47 18.142-10.47 31.626v9.194Zm280.87 117.68c-3.12 0-4.69-1.593-4.69-4.78v-24.272c-13.47 22.065-32.84 33.098-58.1 33.098-18.04 0-32.6-5.639-43.66-16.917-11.07-11.278-16.6-26.233-16.6-44.865 0-19.124 6.85-34.079 20.57-44.866 13.71-11.033 34.88-16.549 63.51-16.549h32.48v-20.226c0-20.84-10.83-31.259-32.48-31.259-17.08 0-28.39 7.723-33.92 23.168-.97 2.942-2.89 4.045-5.78 3.31l-32.84-8.826c-2.88-.736-3.97-2.574-3.24-5.516 4.09-14.956 12.51-26.724 25.26-35.304 12.99-8.827 30.31-13.24 51.96-13.24 24.06 0 42.47 5.639 55.22 16.917 12.99 11.278 19.48 27.949 19.48 50.014v135.333c0 3.187-1.56 4.78-4.69 4.78h-32.48Zm-80.47-60.311c0 8.581 2.64 15.446 7.94 20.594 5.29 4.904 12.75 7.355 22.37 7.355 10.11 0 18.89-2.819 26.35-8.458 7.45-5.884 13.23-14.097 17.32-24.639v-24.272h-32.48c-27.67 0-41.5 9.807-41.5 29.42ZM259.516 750.073c-1.39 0-2.085-.708-2.085-2.124v-98.231h-30.795c-1.39 0-2.085-.708-2.085-2.125v-15.037c0-1.416.695-2.124 2.085-2.124h82.119c1.39 0 2.085.708 2.085 2.124v15.037c0 1.417-.695 2.125-2.085 2.125h-30.794v98.231c0 1.416-.695 2.124-2.085 2.124h-16.36Zm69.893 0c-1.39 0-2.085-.708-2.085-2.124V627.653c0-1.416.695-2.125 2.085-2.125h15.718c1.39 0 2.085.709 2.085 2.125v43.15c6.095-8.499 14.274-12.749 24.539-12.749 8.661 0 15.397 2.996 20.209 8.989 4.919 5.993 7.378 14.493 7.378 25.498v55.408c0 1.416-.695 2.124-2.085 2.124h-15.718c-1.39 0-2.085-.708-2.085-2.124v-55.408c0-5.339-1.283-9.426-3.849-12.259-2.46-2.942-5.774-4.413-9.945-4.413-4.063 0-7.752 1.308-11.066 3.923-3.208 2.615-5.667 6.102-7.378 10.461v57.696c0 1.416-.695 2.124-2.085 2.124h-15.718Zm95.856 0c-1.39 0-2.085-.708-2.085-2.124v-85.972c0-1.417.695-2.125 2.085-2.125h15.718c1.39 0 2.085.708 2.085 2.125v85.972c0 1.416-.695 2.124-2.085 2.124h-15.718Zm0-103.133c-1.39 0-2.085-.709-2.085-2.125v-17.162c0-1.416.695-2.125 2.085-2.125h15.718c1.39 0 2.085.709 2.085 2.125v17.162c0 1.416-.695 2.125-2.085 2.125h-15.718Zm72.233 104.931c-9.302 0-17.054-1.907-23.256-5.72-6.202-3.814-10.318-9.153-12.35-16.018-.321-1.198.107-2.07 1.283-2.615l12.029-5.721c1.39-.653 2.246-.217 2.566 1.308 1.177 4.141 3.476 7.355 6.897 9.643 3.529 2.289 7.806 3.433 12.831 3.433 4.812 0 8.661-.981 11.548-2.942 2.887-1.962 4.331-4.577 4.331-7.846s-1.444-5.72-4.331-7.355c-2.78-1.743-9.195-4.031-19.246-6.864-8.554-2.398-14.917-5.558-19.087-9.48-4.063-4.032-6.094-9.589-6.094-16.672 0-8.172 2.994-14.71 8.981-19.613 6.095-4.903 14.008-7.355 23.738-7.355 8.661 0 15.985 1.907 21.973 5.72 6.095 3.705 10.158 8.99 12.189 15.855.321 1.198-.16 2.07-1.443 2.615l-12.35 4.413c-1.283.545-2.192.109-2.727-1.308-2.245-7.627-7.912-11.441-17.001-11.441-4.491 0-8.019.872-10.585 2.615-2.46 1.744-3.689 4.086-3.689 7.028 0 3.051 1.283 5.34 3.849 6.865 2.673 1.525 8.287 3.541 16.841 6.048 9.944 2.833 17.108 6.428 21.492 10.787 4.384 4.249 6.576 9.97 6.576 17.162 0 8.39-3.155 15.091-9.463 20.103-6.309 4.904-14.809 7.355-25.502 7.355Zm98.649-1.798c-1.39 0-2.085-.708-2.085-2.124v-85.972c0-1.417.695-2.125 2.085-2.125h15.718c1.39 0 2.086.708 2.086 2.125v85.972c0 1.416-.696 2.124-2.086 2.124h-15.718Zm0-103.133c-1.39 0-2.085-.709-2.085-2.125v-17.162c0-1.416.695-2.125 2.085-2.125h15.718c1.39 0 2.086.709 2.086 2.125v17.162c0 1.416-.696 2.125-2.086 2.125h-15.718Zm72.234 104.931c-9.302 0-17.054-1.907-23.256-5.72-6.202-3.814-10.318-9.153-12.35-16.018-.321-1.198.107-2.07 1.283-2.615l12.029-5.721c1.39-.653 2.246-.217 2.567 1.308 1.176 4.141 3.475 7.355 6.896 9.643 3.529 2.289 7.806 3.433 12.831 3.433 4.812 0 8.661-.981 11.548-2.942 2.887-1.962 4.331-4.577 4.331-7.846s-1.444-5.72-4.331-7.355c-2.78-1.743-9.195-4.031-19.246-6.864-8.554-2.398-14.916-5.558-19.086-9.48-4.064-4.032-6.095-9.589-6.095-16.672 0-8.172 2.994-14.71 8.982-19.613 6.094-4.903 14.007-7.355 23.737-7.355 8.661 0 15.985 1.907 21.973 5.72 6.095 3.705 10.158 8.99 12.19 15.855.32 1.198-.161 2.07-1.444 2.615l-12.35 4.413c-1.283.545-2.192.109-2.726-1.308-2.246-7.627-7.913-11.441-17.001-11.441-4.491 0-8.02.872-10.586 2.615-2.459 1.744-3.689 4.086-3.689 7.028 0 3.051 1.283 5.34 3.849 6.865 2.673 1.525 8.287 3.541 16.841 6.048 9.944 2.833 17.108 6.428 21.492 10.787 4.384 4.249 6.576 9.97 6.576 17.162 0 8.39-3.154 15.091-9.463 20.103-6.309 4.904-14.809 7.355-25.502 7.355Zm94.897 21.248c-.962-1.198-.908-2.179.161-2.942 5.988-4.467 10.425-8.39 13.312-11.768 2.887-3.378 5.239-8.009 7.057-13.893l-31.596-82.213c-.535-1.634 0-2.451 1.604-2.451h17.161c1.283 0 2.085.545 2.406 1.634l10.585 30.891c4.598 13.076 7.859 23.972 9.784 32.689h.321c1.176-5.121 4.33-16.017 9.463-32.689l9.944-30.727c.321-1.199 1.069-1.798 2.245-1.798h16.2c1.71 0 2.298.817 1.764 2.451l-29.512 81.723c-6.415 18.524-15.771 31.817-28.068 39.881-1.176.653-2.138.544-2.886-.327l-9.945-10.461Zm146.134-30.727c-6.522 6.319-15.718 9.479-27.586 9.479-11.869 0-21.118-3.16-27.748-9.479-6.522-6.32-9.783-15.255-9.783-26.805v-20.595c0-11.659 3.261-20.703 9.783-27.131 6.63-6.538 15.879-9.807 27.748-9.807 11.761 0 20.957 3.269 27.586 9.807 6.63 6.428 9.944 15.472 9.944 27.131v20.595c0 11.55-3.314 20.485-9.944 26.805Zm-45.229-26.805c0 5.884 1.497 10.46 4.491 13.729 3.1 3.16 7.484 4.74 13.152 4.74 5.666 0 9.997-1.58 12.991-4.74 3.101-3.269 4.651-7.845 4.651-13.729v-20.595c0-6.101-1.55-10.787-4.651-14.056-2.994-3.378-7.325-5.067-12.991-5.067-5.668 0-10.052 1.689-13.152 5.067-2.994 3.269-4.491 7.955-4.491 14.056v20.595Zm146.417-55.735c1.39 0 2.08.708 2.08 2.125v85.972c0 1.416-.69 2.124-2.08 2.124h-15.237c-1.39 0-2.085-.708-2.085-2.124v-9.153c-6.202 8.717-14.489 13.075-24.861 13.075-8.66 0-15.45-2.996-20.369-8.989-4.918-5.993-7.378-14.492-7.378-25.498v-55.407c0-1.417.695-2.125 2.085-2.125h15.718c1.39 0 2.085.708 2.085 2.125v55.407c0 5.34 1.23 9.48 3.689 12.422 2.567 2.833 5.935 4.25 10.105 4.25 4.063 0 7.698-1.308 10.906-3.923 3.315-2.615 5.828-6.102 7.538-10.46v-57.696c0-1.417.695-2.125 2.085-2.125h15.719Zm28.49 90.221c-1.39 0-2.08-.708-2.08-2.124v-85.972c0-1.417.69-2.125 2.08-2.125h15.24c1.39 0 2.08.708 2.08 2.125v12.258c5.89-10.461 14.92-15.636 27.11-15.527 1.39 0 2.08.708 2.08 2.124v15.037c0 1.526-.74 2.18-2.24 1.962-13.47-.327-22.29 4.522-26.46 14.546v55.572c0 1.416-.7 2.124-2.09 2.124h-15.72Zm107.4-97.74c0-8.608 2.3-15.2 6.9-19.777 4.7-4.685 11.39-7.028 20.05-7.028h11.06c1.39 0 2.09.709 2.09 2.125v12.095c0 1.417-.7 2.125-2.09 2.125h-7.53c-7.06 0-10.59 3.214-10.59 9.643v8.336h18.12c1.39 0 2.09.708 2.09 2.125v12.258c0 1.416-.7 2.125-2.09 2.125h-18.12v71.589c0 1.416-.69 2.124-2.08 2.124h-15.72c-1.39 0-2.09-.708-2.09-2.124V676.36h-11.87c-1.39 0-2.08-.709-2.08-2.125v-12.258c0-1.417.69-2.125 2.08-2.125h11.87v-7.519Zm58.54 97.74c-1.39 0-2.08-.708-2.08-2.124v-85.972c0-1.417.69-2.125 2.08-2.125h15.72c1.39 0 2.09.708 2.09 2.125v85.972c0 1.416-.7 2.124-2.09 2.124h-15.72Zm0-103.133c-1.39 0-2.08-.709-2.08-2.125v-17.162c0-1.416.69-2.125 2.08-2.125h15.72c1.39 0 2.09.709 2.09 2.125v17.162c0 1.416-.7 2.125-2.09 2.125h-15.72Zm44.42 103.133c-1.39 0-2.09-.708-2.09-2.124v-85.972c0-1.417.7-2.125 2.09-2.125h15.23c1.39 0 2.09.708 2.09 2.125v12.258c5.88-10.461 14.91-15.636 27.1-15.527 1.39 0 2.09.708 2.09 2.124v15.037c0 1.526-.75 2.18-2.25 1.962-13.47-.327-22.29 4.522-26.46 14.546v55.572c0 1.416-.7 2.124-2.09 2.124h-15.71Zm91.96 1.798c-9.3 0-17.05-1.907-23.25-5.72-6.2-3.814-10.32-9.153-12.35-16.018-.32-1.198.1-2.07 1.28-2.615l12.03-5.721c1.39-.653 2.25-.217 2.57 1.308 1.17 4.141 3.47 7.355 6.89 9.643 3.53 2.289 7.81 3.433 12.83 3.433 4.82 0 8.66-.981 11.55-2.942 2.89-1.962 4.33-4.577 4.33-7.846s-1.44-5.72-4.33-7.355c-2.78-1.743-9.19-4.031-19.24-6.864-8.56-2.398-14.92-5.558-19.09-9.48-4.06-4.032-6.1-9.589-6.1-16.672 0-8.172 3-14.71 8.99-19.613 6.09-4.903 14-7.355 23.73-7.355 8.66 0 15.99 1.907 21.98 5.72 6.09 3.705 10.15 8.99 12.19 15.855.32 1.198-.16 2.07-1.45 2.615l-12.35 4.413c-1.28.545-2.19.109-2.72-1.308-2.25-7.627-7.92-11.441-17.01-11.441-4.49 0-8.01.872-10.58 2.615-2.46 1.744-3.69 4.086-3.69 7.028 0 3.051 1.28 5.34 3.85 6.865 2.67 1.525 8.29 3.541 16.84 6.048 9.94 2.833 17.11 6.428 21.49 10.787 4.39 4.249 6.58 9.97 6.58 17.162 0 8.39-3.16 15.091-9.46 20.103-6.31 4.904-14.81 7.355-25.51 7.355Zm87.16-1.798c-8.56 0-15.19-2.179-19.89-6.537-4.71-4.359-7.06-10.461-7.06-18.306v-48.87h-11.23c-1.39 0-2.08-.709-2.08-2.125v-12.258c0-1.417.69-2.125 2.08-2.125h11.23v-20.104c0-1.416.7-2.125 2.09-2.125h15.23c1.39 0 2.09.709 2.09 2.125v20.104h17.64c1.39 0 2.09.708 2.09 2.125v12.258c0 1.416-.7 2.125-2.09 2.125h-17.64v46.091c0 6.538 3.58 9.807 10.74 9.807h6.9c1.39 0 2.09.708 2.09 2.125v13.566c0 1.416-.7 2.124-2.09 2.124h-10.1Zm103.53 0c-8.56 0-15.18-2.179-19.89-6.537-4.7-4.359-7.06-10.461-7.06-18.306v-48.87h-11.22c-1.39 0-2.09-.709-2.09-2.125v-12.258c0-1.417.7-2.125 2.09-2.125h11.22v-20.104c0-1.416.7-2.125 2.09-2.125h15.24c1.39 0 2.08.709 2.08 2.125v20.104h17.64c1.39 0 2.09.708 2.09 2.125v12.258c0 1.416-.7 2.125-2.09 2.125h-17.64v46.091c0 6.538 3.58 9.807 10.75 9.807h6.89c1.39 0 2.09.708 2.09 2.125v13.566c0 1.416-.7 2.124-2.09 2.124h-10.1Zm33.11 0c-1.39 0-2.09-.708-2.09-2.124v-85.972c0-1.417.7-2.125 2.09-2.125h15.72c1.39 0 2.08.708 2.08 2.125v85.972c0 1.416-.69 2.124-2.08 2.124h-15.72Zm0-103.133c-1.39 0-2.09-.709-2.09-2.125v-17.162c0-1.416.7-2.125 2.09-2.125h15.72c1.39 0 2.08.709 2.08 2.125v17.162c0 1.416-.69 2.125-2.08 2.125h-15.72Zm44.32 103.133c-1.39 0-2.08-.708-2.08-2.124v-85.972c0-1.417.69-2.125 2.08-2.125h15.24c1.39 0 2.09.708 2.09 2.125v8.989c5.66-8.608 13.26-12.912 22.77-12.912 10.48 0 17.81 4.958 21.98 14.873 6.2-9.915 14.64-14.873 25.34-14.873 8.12 0 14.43 2.996 18.92 8.989 4.49 5.993 6.74 14.493 6.74 25.498v55.408c0 1.416-.7 2.124-2.09 2.124h-15.71c-1.39 0-2.09-.708-2.09-2.124v-55.408c0-5.339-1.02-9.426-3.05-12.259-2.03-2.942-4.86-4.413-8.5-4.413-3.53 0-6.73 1.308-9.62 3.923-2.89 2.615-5.08 6.102-6.58 10.461v57.696c0 1.416-.69 2.124-2.08 2.124h-15.72c-1.39 0-2.08-.708-2.08-2.124v-55.408c0-5.339-1.07-9.426-3.21-12.259-2.03-2.942-4.81-4.413-8.34-4.413-3.53 0-6.74 1.308-9.63 3.923-2.88 2.615-5.08 6.102-6.57 10.461v57.696c0 1.416-.7 2.124-2.09 2.124h-15.72Zm172.45 1.798c-11.87 0-21.17-3.16-27.91-9.479-6.73-6.32-10.1-15.255-10.1-26.805v-20.595c0-11.659 3.21-20.703 9.62-27.131 6.42-6.538 15.4-9.807 26.95-9.807 11.44 0 20.37 3.269 26.78 9.807 6.42 6.428 9.63 15.472 9.63 27.131v14.057c0 1.416-.7 2.125-2.09 2.125h-51.8v4.413c0 6.21 1.65 11.059 4.97 14.546 3.31 3.378 7.91 5.067 13.79 5.067 8.23 0 13.9-3.541 17-10.624.54-1.308 1.39-1.743 2.57-1.308l13.31 4.087c1.28.544 1.77 1.362 1.44 2.451-4.59 14.71-15.98 22.065-34.16 22.065Zm-18.92-54.1h35.6v-4.086c0-5.993-1.55-10.679-4.65-14.056-3.1-3.378-7.48-5.067-13.15-5.067s-10.05 1.689-13.15 5.067c-3.1 3.377-4.65 8.063-4.65 14.056v4.086Zm119.17 52.302c-1.39 0-2.09-.708-2.09-2.124V627.653c0-1.416.7-2.125 2.09-2.125h15.71c1.39 0 2.09.709 2.09 2.125v43.15c6.09-8.499 14.27-12.749 24.54-12.749 8.66 0 15.4 2.996 20.21 8.989 4.92 5.993 7.38 14.493 7.38 25.498v55.408c0 1.416-.7 2.124-2.09 2.124h-15.72c-1.39 0-2.08-.708-2.08-2.124v-55.408c0-5.339-1.29-9.426-3.85-12.259-2.46-2.942-5.78-4.413-9.95-4.413-4.06 0-7.75 1.308-11.06 3.923-3.21 2.615-5.67 6.102-7.38 10.461v57.696c0 1.416-.7 2.124-2.09 2.124h-15.71Zm129.21 1.798c-11.87 0-21.17-3.16-27.9-9.479-6.74-6.32-10.11-15.255-10.11-26.805v-20.595c0-11.659 3.21-20.703 9.62-27.131 6.42-6.538 15.4-9.807 26.95-9.807 11.44 0 20.37 3.269 26.78 9.807 6.42 6.428 9.63 15.472 9.63 27.131v14.057c0 1.416-.7 2.125-2.09 2.125h-51.8v4.413c0 6.21 1.66 11.059 4.97 14.546 3.31 3.378 7.91 5.067 13.79 5.067 8.24 0 13.9-3.541 17-10.624.54-1.308 1.39-1.743 2.57-1.308l13.31 4.087c1.29.544 1.77 1.362 1.45 2.451-4.6 14.71-15.99 22.065-34.17 22.065Zm-18.92-54.1h35.6v-4.086c0-5.993-1.55-10.679-4.65-14.056-3.1-3.378-7.48-5.067-13.15-5.067s-10.05 1.689-13.15 5.067c-3.1 3.377-4.65 8.063-4.65 14.056v4.086Zm77.03 52.302c-1.39 0-2.08-.708-2.08-2.124v-85.972c0-1.417.69-2.125 2.08-2.125h15.24c1.39 0 2.09.708 2.09 2.125v12.258c5.88-10.461 14.91-15.636 27.1-15.527 1.39 0 2.09.708 2.09 2.124v15.037c0 1.526-.75 2.18-2.25 1.962-13.47-.327-22.29 4.522-26.46 14.546v55.572c0 1.416-.7 2.124-2.09 2.124h-15.72Zm96.17 1.798c-11.87 0-21.17-3.16-27.9-9.479-6.74-6.32-10.11-15.255-10.11-26.805v-20.595c0-11.659 3.21-20.703 9.62-27.131 6.42-6.538 15.4-9.807 26.95-9.807 11.44 0 20.37 3.269 26.78 9.807 6.42 6.428 9.63 15.472 9.63 27.131v14.057c0 1.416-.7 2.125-2.09 2.125h-51.8v4.413c0 6.21 1.65 11.059 4.97 14.546 3.31 3.378 7.91 5.067 13.79 5.067 8.24 0 13.9-3.541 17-10.624.54-1.308 1.39-1.743 2.57-1.308l13.31 4.087c1.29.544 1.77 1.362 1.45 2.451-4.6 14.71-15.99 22.065-34.17 22.065Zm-18.92-54.1h35.6v-4.086c0-5.993-1.55-10.679-4.65-14.056-3.1-3.378-7.48-5.067-13.15-5.067s-10.05 1.689-13.15 5.067c-3.1 3.377-4.65 8.063-4.65 14.056v4.086Zm76.87 52.302c-1.39 0-2.08-.708-2.08-2.124V724.74c0-1.417.69-2.125 2.08-2.125h14.76c1.39 0 2.08.708 2.08 2.125v23.209c0 1.416-.69 2.124-2.08 2.124h-14.76Z" fill="#fff"/><path d="M397.853 2531.35c-1.027 0-1.541-.52-1.541-1.56v-92.58c0-1.05.514-1.57 1.541-1.57h8.981c1.027 0 1.54.52 1.54 1.57v92.58c0 1.04-.513 1.56-1.54 1.56h-8.981Zm38.886-79.36c0-6.45 1.668-11.38 5.004-14.78 3.421-3.4 8.34-5.1 14.756-5.1h6.928c1.027 0 1.54.52 1.54 1.57v6.67c0 1.04-.513 1.57-1.54 1.57h-5.132c-6.587 0-9.88 3.22-9.88 9.67v7.98h15.012c1.027 0 1.54.52 1.54 1.57v6.67c0 1.04-.513 1.57-1.54 1.57h-15.012v60.41c0 1.04-.513 1.56-1.54 1.56h-8.597c-1.026 0-1.539-.52-1.539-1.56v-60.41h-9.752c-1.026 0-1.54-.53-1.54-1.57v-6.67c0-1.05.514-1.57 1.54-1.57h9.752v-7.58Zm97.433 79.36c-6.158 0-10.949-1.61-14.37-4.83-3.422-3.23-5.133-7.72-5.133-13.47v-43.67h-9.495c-1.026 0-1.539-.53-1.539-1.57v-6.67c0-1.05.513-1.57 1.539-1.57h9.495v-16.87c0-1.04.514-1.57 1.54-1.57h8.34c1.027 0 1.54.53 1.54 1.57v16.87h15.012c1.027 0 1.54.52 1.54 1.57v6.67c0 1.04-.513 1.57-1.54 1.57h-15.012v41.97c0 6.28 3.25 9.41 9.752 9.41h5.26c1.027 0 1.54.53 1.54 1.57v7.46c0 1.04-.513 1.56-1.54 1.56h-6.929Zm25.913 0c-1.026 0-1.54-.52-1.54-1.56v-96.11c0-1.05.514-1.57 1.54-1.57h8.469c1.026 0 1.539.52 1.539 1.57v35.3c4.962-7.23 11.719-10.85 20.273-10.85 6.758 0 12.104 2.31 16.039 6.93 4.021 4.62 6.031 10.98 6.031 19.09v45.64c0 1.04-.513 1.56-1.54 1.56h-8.597c-1.026 0-1.539-.52-1.539-1.56v-45.64c0-4.97-1.241-8.76-3.721-11.37-2.396-2.71-5.603-4.06-9.624-4.06-3.678 0-7.1 1.18-10.265 3.53-3.079 2.27-5.431 5.36-7.057 9.29v48.25c0 1.04-.513 1.56-1.539 1.56h-8.469Zm75.182 0c-1.026 0-1.54-.52-1.54-1.56v-68.65c0-1.05.514-1.57 1.54-1.57h8.469c1.026 0 1.539.52 1.539 1.57v68.65c0 1.04-.513 1.56-1.539 1.56h-8.469Zm0-82.89c-1.026 0-1.54-.53-1.54-1.57v-13.21c0-1.05.514-1.57 1.54-1.57h8.469c1.026 0 1.539.52 1.539 1.57v13.21c0 1.04-.513 1.57-1.539 1.57h-8.469Zm54.116 84.33c-6.929 0-12.788-1.48-17.579-4.44-4.704-3.05-7.784-7.24-9.238-12.56-.257-.87.043-1.52.898-1.96l6.672-3c1.027-.44 1.668-.09 1.925 1.04 1.027 3.58 3.08 6.37 6.159 8.37 3.079 2.01 6.8 3.01 11.163 3.01 4.448 0 7.998-1 10.65-3.01 2.737-2 4.106-4.66 4.106-7.98 0-3.22-1.241-5.66-3.721-7.32-2.395-1.74-7.485-3.75-15.269-6.01-7.186-2.18-12.446-4.75-15.782-7.72-3.251-2.96-4.876-7.28-4.876-12.94 0-6.1 2.267-10.99 6.8-14.65 4.619-3.66 10.607-5.49 17.964-5.49 6.501 0 11.975 1.48 16.423 4.45 4.534 2.87 7.528 6.93 8.982 12.16.257 1.04-.085 1.7-1.026 1.96l-6.801 2.48c-1.026.44-1.668.09-1.924-1.04-2.139-6.89-7.271-10.33-15.398-10.33-4.277 0-7.656.87-10.136 2.61-2.395 1.75-3.593 4.14-3.593 7.19 0 3.14 1.155 5.5 3.464 7.06 2.31 1.49 6.929 3.23 13.858 5.24 7.955 2.35 13.644 5.18 17.065 8.49 3.507 3.23 5.261 7.68 5.261 13.34 0 6.28-2.395 11.38-7.185 15.3-4.791 3.84-11.078 5.75-18.862 5.75Zm80.835 24.72c-1.027 0-1.54-.53-1.54-1.57v-94.8c0-1.05.513-1.57 1.54-1.57h8.211c1.027 0 1.54.52 1.54 1.57v8.11c1.882-3.32 4.619-5.98 8.212-7.98 3.593-2.09 7.784-3.14 12.574-3.14 7.614 0 13.601 2.53 17.964 7.59 4.362 5.05 6.544 12.02 6.544 20.92v18.04c0 8.8-2.224 15.69-6.672 20.66-4.363 4.97-10.394 7.45-18.092 7.45-9.153 0-15.911-3.57-20.273-10.72v33.87c0 1.04-.513 1.57-1.54 1.57h-8.468Zm10.008-52.96c0 5.58 1.668 9.94 5.004 13.08 3.336 3.05 7.527 4.57 12.574 4.57 4.791 0 8.597-1.48 11.42-4.44 2.908-3.05 4.363-7.41 4.363-13.08v-18.04c0-5.84-1.412-10.29-4.235-13.34-2.823-3.05-6.672-4.58-11.548-4.58-5.218 0-9.452 1.66-12.702 4.97-3.251 3.31-4.876 7.67-4.876 13.08v17.78Zm66.3 26.8c-1.026 0-1.54-.52-1.54-1.56v-96.11c0-1.05.514-1.57 1.54-1.57h8.469c1.026 0 1.539.52 1.539 1.57v96.11c0 1.04-.513 1.56-1.539 1.56h-8.469Zm72.082 0c-1.027 0-1.54-.52-1.54-1.56v-9.29c-4.876 8.2-12.019 12.29-21.428 12.29-6.416 0-11.591-1.91-15.526-5.75-3.849-3.92-5.774-9.11-5.774-15.56 0-6.8 2.481-12.07 7.442-15.82 5.047-3.84 12.489-5.75 22.327-5.75h12.574v-9.03c0-8.63-4.662-12.94-13.986-12.94-4.02 0-7.185.78-9.495 2.35-2.224 1.57-3.892 4.01-5.004 7.32-.257.96-.855 1.31-1.796 1.05l-8.084-2.22c-1.026-.26-1.411-.87-1.155-1.83 1.369-5.15 4.235-9.16 8.597-12.03 4.363-2.97 10.094-4.45 17.194-4.45 8.04 0 14.242 1.88 18.605 5.62 4.362 3.75 6.544 9.37 6.544 16.87v49.17c0 1.04-.514 1.56-1.54 1.56h-7.955Zm-33.105-20.52c0 3.66 1.155 6.62 3.465 8.89 2.309 2.18 5.56 3.27 9.751 3.27 8.298 0 14.286-4.49 17.964-13.47v-11.51h-12.574c-12.404 0-18.606 4.27-18.606 12.82Zm87.229 20.52c-6.158 0-10.949-1.61-14.37-4.83-3.422-3.23-5.133-7.72-5.133-13.47v-43.67h-9.495c-1.026 0-1.539-.53-1.539-1.57v-6.67c0-1.05.513-1.57 1.539-1.57h9.495v-16.87c0-1.04.514-1.57 1.54-1.57h8.34c1.027 0 1.54.53 1.54 1.57v16.87h15.012c1.027 0 1.54.52 1.54 1.57v6.67c0 1.04-.513 1.57-1.54 1.57h-15.012v41.97c0 6.28 3.25 9.41 9.752 9.41h5.26c1.027 0 1.54.53 1.54 1.57v7.46c0 1.04-.513 1.56-1.54 1.56h-6.929Zm29.248-79.36c0-6.45 1.67-11.38 5.01-14.78 3.42-3.4 8.34-5.1 14.75-5.1h6.93c1.03 0 1.54.52 1.54 1.57v6.67c0 1.04-.51 1.57-1.54 1.57h-5.13c-6.59 0-9.88 3.22-9.88 9.67v7.98h15.01c1.03 0 1.54.52 1.54 1.57v6.67c0 1.04-.51 1.57-1.54 1.57h-15.01v60.41c0 1.04-.52 1.56-1.54 1.56h-8.6c-1.03 0-1.54-.52-1.54-1.56v-60.41h-9.751c-1.027 0-1.54-.53-1.54-1.57v-6.67c0-1.05.513-1.57 1.54-1.57h9.751v-7.58Zm67.92 80.8c-8.9 0-15.87-2.44-20.92-7.32-4.96-4.97-7.44-11.9-7.44-20.79v-18.17c0-8.98 2.48-15.96 7.44-20.93 5.05-4.96 12.02-7.45 20.92-7.45 8.98 0 15.95 2.49 20.91 7.45 5.05 4.97 7.57 11.95 7.57 20.93v18.17c0 8.89-2.52 15.82-7.57 20.79-4.96 4.88-11.93 7.32-20.91 7.32Zm-16.81-28.11c0 5.58 1.45 9.89 4.36 12.95 2.91 3.05 7.06 4.57 12.45 4.57 5.47 0 9.66-1.48 12.57-4.44 2.91-3.05 4.36-7.41 4.36-13.08v-18.17c0-5.67-1.45-10.03-4.36-13.08-2.91-3.14-7.1-4.71-12.57-4.71-5.39 0-9.54 1.57-12.45 4.71-2.91 3.05-4.36 7.41-4.36 13.08v18.17Zm66.6 26.67c-1.03 0-1.54-.52-1.54-1.56v-68.65c0-1.05.51-1.57 1.54-1.57h8.21c1.03 0 1.54.52 1.54 1.57v10.33c4.79-8.54 12.1-12.82 21.94-12.82 1.03 0 1.54.53 1.54 1.57v8.24c0 1.05-.51 1.57-1.54 1.57-10.69 0-17.92 4.4-21.68 13.21v46.55c0 1.04-.52 1.56-1.54 1.56h-8.47Zm49.12 0c-1.03 0-1.54-.52-1.54-1.56v-68.65c0-1.05.51-1.57 1.54-1.57h8.21c1.03 0 1.54.52 1.54 1.57v7.71c4.62-7.14 10.78-10.72 18.48-10.72 8.46 0 14.28 4.14 17.45 12.42 4.87-8.28 11.63-12.42 20.27-12.42 6.16 0 10.99 2.31 14.5 6.93 3.59 4.62 5.39 10.98 5.39 19.09v45.64c0 1.04-.52 1.56-1.54 1.56h-8.47c-1.03 0-1.54-.52-1.54-1.56v-45.64c0-4.88-1.03-8.67-3.08-11.37-1.97-2.71-4.71-4.06-8.21-4.06-3.25 0-6.25 1.18-8.98 3.53-2.66 2.27-4.67 5.36-6.04 9.29v48.25c0 1.04-.51 1.56-1.53 1.56h-8.6c-1.03 0-1.54-.52-1.54-1.56v-45.64c0-4.97-1.03-8.76-3.08-11.37-1.97-2.71-4.62-4.06-7.96-4.06-3.25 0-6.24 1.18-8.98 3.53-2.74 2.27-4.83 5.36-6.28 9.29v48.25c0 1.04-.52 1.56-1.54 1.56h-8.47Zm146.55-79.36c0-6.45 1.67-11.38 5.01-14.78 3.42-3.4 8.34-5.1 14.75-5.1h6.93c1.03 0 1.54.52 1.54 1.57v6.67c0 1.04-.51 1.57-1.54 1.57h-5.13c-6.59 0-9.88 3.22-9.88 9.67v7.98h15.01c1.03 0 1.54.52 1.54 1.57v6.67c0 1.04-.51 1.57-1.54 1.57h-15.01v60.41c0 1.04-.51 1.56-1.54 1.56h-8.6c-1.02 0-1.54-.52-1.54-1.56v-60.41h-9.75c-1.02 0-1.54-.53-1.54-1.57v-6.67c0-1.05.52-1.57 1.54-1.57h9.75v-7.58Zm68.18 80.8c-8.81 0-15.79-2.48-20.92-7.45-5.13-4.97-7.7-11.86-7.7-20.66v-18.17c0-8.98 2.4-15.96 7.19-20.93 4.87-4.96 11.67-7.45 20.4-7.45 8.64 0 15.4 2.49 20.27 7.45 4.88 4.97 7.32 11.95 7.32 20.93v11.24c0 1.05-.52 1.57-1.54 1.57h-42.47v5.36c0 5.75 1.54 10.2 4.62 13.34 3.07 3.14 7.35 4.7 12.83 4.7 7.87 0 13.08-3.22 15.65-9.67.43-.96 1.07-1.27 1.92-.92l7.32 2.49c.94.35 1.28.96 1.03 1.83-3.68 10.89-12.32 16.34-25.92 16.34Zm-17.45-41.84h33.23v-5.1c0-5.58-1.46-9.94-4.36-13.07-2.83-3.14-6.89-4.71-12.19-4.71-5.31 0-9.41 1.57-12.32 4.71-2.91 3.13-4.36 7.49-4.36 13.07v5.1Zm89.75 41.84c-8.81 0-15.79-2.48-20.92-7.45-5.13-4.97-7.7-11.86-7.7-20.66v-18.17c0-8.98 2.4-15.96 7.19-20.93 4.87-4.96 11.67-7.45 20.4-7.45 8.64 0 15.4 2.49 20.27 7.45 4.88 4.97 7.32 11.95 7.32 20.93v11.24c0 1.05-.52 1.57-1.54 1.57h-42.47v5.36c0 5.75 1.54 10.2 4.62 13.34 3.07 3.14 7.35 4.7 12.83 4.7 7.87 0 13.08-3.22 15.65-9.67.43-.96 1.07-1.27 1.92-.92l7.32 2.49c.94.35 1.28.96 1.03 1.83-3.68 10.89-12.32 16.34-25.92 16.34Zm-17.45-41.84h33.23v-5.1c0-5.58-1.46-9.94-4.36-13.07-2.83-3.14-6.89-4.71-12.19-4.71-5.31 0-9.41 1.57-12.32 4.71-2.91 3.13-4.36 7.49-4.36 13.07v5.1Zm64.73 40.4c-1.03 0-1.54-.52-1.54-1.56v-96.11c0-1.05.51-1.57 1.54-1.57h8.46c1.03 0 1.54.52 1.54 1.57v96.11c0 1.04-.51 1.56-1.54 1.56h-8.46Zm54.11 1.44c-6.93 0-12.79-1.48-17.58-4.44-4.7-3.05-7.78-7.24-9.23-12.56-.26-.87.04-1.52.89-1.96l6.68-3c1.02-.44 1.66-.09 1.92 1.04 1.03 3.58 3.08 6.37 6.16 8.37 3.08 2.01 6.8 3.01 11.16 3.01 4.45 0 8-1 10.65-3.01 2.74-2 4.11-4.66 4.11-7.98 0-3.22-1.24-5.66-3.72-7.32-2.4-1.74-7.49-3.75-15.27-6.01-7.19-2.18-12.45-4.75-15.78-7.72-3.25-2.96-4.88-7.28-4.88-12.94 0-6.1 2.27-10.99 6.8-14.65 4.62-3.66 10.61-5.49 17.96-5.49 6.51 0 11.98 1.48 16.43 4.45 4.53 2.87 7.53 6.93 8.98 12.16.26 1.04-.09 1.7-1.03 1.96l-6.8 2.48c-1.02.44-1.67.09-1.92-1.04-2.14-6.89-7.27-10.33-15.4-10.33-4.28 0-7.65.87-10.14 2.61-2.39 1.75-3.59 4.14-3.59 7.19 0 3.14 1.16 5.5 3.47 7.06 2.31 1.49 6.92 3.23 13.85 5.24 7.96 2.35 13.65 5.18 17.07 8.49 3.51 3.23 5.26 7.68 5.26 13.34 0 6.28-2.4 11.38-7.19 15.3-4.79 3.84-11.07 5.75-18.86 5.75Zm83.17-80.8c0-6.45 1.67-11.38 5-14.78 3.43-3.4 8.35-5.1 14.76-5.1h6.93c1.03 0 1.54.52 1.54 1.57v6.67c0 1.04-.51 1.57-1.54 1.57h-5.13c-6.59 0-9.88 3.22-9.88 9.67v7.98h15.01c1.03 0 1.54.52 1.54 1.57v6.67c0 1.04-.51 1.57-1.54 1.57h-15.01v60.41c0 1.04-.52 1.56-1.54 1.56h-8.6c-1.03 0-1.54-.52-1.54-1.56v-60.41h-9.75c-1.03 0-1.54-.53-1.54-1.57v-6.67c0-1.05.51-1.57 1.54-1.57h9.75v-7.58Zm82.03 79.36c-1.03 0-1.54-.52-1.54-1.56v-9.29c-4.88 8.2-12.02 12.29-21.43 12.29-6.42 0-11.59-1.91-15.53-5.75-3.85-3.92-5.77-9.11-5.77-15.56 0-6.8 2.48-12.07 7.44-15.82 5.05-3.84 12.49-5.75 22.33-5.75h12.57v-9.03c0-8.63-4.66-12.94-13.98-12.94-4.02 0-7.19.78-9.5 2.35-2.22 1.57-3.89 4.01-5 7.32-.26.96-.86 1.31-1.8 1.05l-8.08-2.22c-1.03-.26-1.41-.87-1.16-1.83 1.37-5.15 4.24-9.16 8.6-12.03 4.36-2.97 10.09-4.45 17.19-4.45 8.04 0 14.25 1.88 18.61 5.62 4.36 3.75 6.54 9.37 6.54 16.87v49.17c0 1.04-.51 1.56-1.54 1.56h-7.95Zm-33.11-20.52c0 3.66 1.16 6.62 3.47 8.89 2.31 2.18 5.56 3.27 9.75 3.27 8.3 0 14.28-4.49 17.96-13.47v-11.51h-12.57c-12.41 0-18.61 4.27-18.61 12.82Zm65.4 20.52c-1.02 0-1.54-.52-1.54-1.56v-68.65c0-1.05.52-1.57 1.54-1.57h8.22c1.02 0 1.54.52 1.54 1.57v7.71c4.62-7.14 10.77-10.72 18.47-10.72 8.47 0 14.29 4.14 17.45 12.42 4.88-8.28 11.64-12.42 20.28-12.42 6.15 0 10.99 2.31 14.5 6.93 3.59 4.62 5.38 10.98 5.38 19.09v45.64c0 1.04-.51 1.56-1.54 1.56h-8.46c-1.03 0-1.54-.52-1.54-1.56v-45.64c0-4.88-1.03-8.67-3.08-11.37-1.97-2.71-4.71-4.06-8.22-4.06-3.25 0-6.24 1.18-8.98 3.53-2.65 2.27-4.66 5.36-6.03 9.29v48.25c0 1.04-.51 1.56-1.54 1.56h-8.59c-1.03 0-1.54-.52-1.54-1.56v-45.64c0-4.97-1.03-8.76-3.08-11.37-1.97-2.71-4.62-4.06-7.96-4.06-3.25 0-6.24 1.18-8.98 3.53-2.74 2.27-4.83 5.36-6.29 9.29v48.25c0 1.04-.51 1.56-1.54 1.56h-8.47Zm108.77 0c-1.03 0-1.54-.52-1.54-1.56v-68.65c0-1.05.51-1.57 1.54-1.57h8.47c1.02 0 1.54.52 1.54 1.57v68.65c0 1.04-.52 1.56-1.54 1.56h-8.47Zm0-82.89c-1.03 0-1.54-.53-1.54-1.57v-13.21c0-1.05.51-1.57 1.54-1.57h8.47c1.02 0 1.54.52 1.54 1.57v13.21c0 1.04-.52 1.57-1.54 1.57h-8.47Zm33.33 82.89c-1.03 0-1.54-.52-1.54-1.56v-96.11c0-1.05.51-1.57 1.54-1.57h8.47c1.02 0 1.54.52 1.54 1.57v96.11c0 1.04-.52 1.56-1.54 1.56h-8.47Zm33.33 0c-1.03 0-1.54-.52-1.54-1.56v-68.65c0-1.05.51-1.57 1.54-1.57h8.47c1.02 0 1.54.52 1.54 1.57v68.65c0 1.04-.52 1.56-1.54 1.56h-8.47Zm0-82.89c-1.03 0-1.54-.53-1.54-1.57v-13.21c0-1.05.51-1.57 1.54-1.57h8.47c1.02 0 1.54.52 1.54 1.57v13.21c0 1.04-.52 1.57-1.54 1.57h-8.47Zm72.08 82.89c-1.03 0-1.54-.52-1.54-1.56v-9.29c-4.88 8.2-12.02 12.29-21.43 12.29-6.41 0-11.59-1.91-15.52-5.75-3.85-3.92-5.78-9.11-5.78-15.56 0-6.8 2.48-12.07 7.44-15.82 5.05-3.84 12.49-5.75 22.33-5.75h12.57v-9.03c0-8.63-4.66-12.94-13.98-12.94-4.02 0-7.19.78-9.5 2.35-2.22 1.57-3.89 4.01-5 7.32-.26.96-.86 1.31-1.8 1.05l-8.08-2.22c-1.03-.26-1.41-.87-1.16-1.83 1.37-5.15 4.24-9.16 8.6-12.03 4.36-2.97 10.1-4.45 17.2-4.45 8.04 0 14.24 1.88 18.6 5.62 4.36 3.75 6.54 9.37 6.54 16.87v49.17c0 1.04-.51 1.56-1.54 1.56h-7.95Zm-33.1-20.52c0 3.66 1.15 6.62 3.46 8.89 2.31 2.18 5.56 3.27 9.75 3.27 8.3 0 14.29-4.49 17.96-13.47v-11.51h-12.57c-12.4 0-18.6 4.27-18.6 12.82Zm65.4 20.52c-1.03 0-1.54-.52-1.54-1.56v-68.65c0-1.05.51-1.57 1.54-1.57h8.21c1.02 0 1.54.52 1.54 1.57v10.33c4.79-8.54 12.1-12.82 21.94-12.82 1.03 0 1.54.53 1.54 1.57v8.24c0 1.05-.51 1.57-1.54 1.57-10.69 0-17.92 4.4-21.69 13.21v46.55c0 1.04-.51 1.56-1.54 1.56h-8.46Zm34.93 14.26c-.94-.44-1.16-1.14-.64-2.1 2.39-4.7 3.89-8.8 4.49-12.29.68-3.48 1.02-9.72 1.02-18.69 0-1.14.52-1.7 1.54-1.7h8.34c1.03 0 1.54.52 1.54 1.57-.08 8.97-.77 15.9-2.05 20.79-1.28 4.88-3.51 9.67-6.67 14.38-.51.78-1.2.96-2.05.52l-5.52-2.48ZM363.296 2700.93c-1.027 0-1.54-.52-1.54-1.57v-68.65c0-1.04.513-1.57 1.54-1.57h8.468c1.027 0 1.54.53 1.54 1.57v68.65c0 1.05-.513 1.57-1.54 1.57h-8.468Zm0-82.9c-1.027 0-1.54-.52-1.54-1.57v-13.21c0-1.04.513-1.56 1.54-1.56h8.468c1.027 0 1.54.52 1.54 1.56v13.21c0 1.05-.513 1.57-1.54 1.57h-8.468Zm33.33 82.9c-1.026 0-1.54-.52-1.54-1.57v-68.65c0-1.04.514-1.57 1.54-1.57h8.212c1.027 0 1.54.53 1.54 1.57v7.72c4.619-7.15 10.778-10.72 18.477-10.72 8.468 0 14.285 4.14 17.45 12.42 4.876-8.28 11.633-12.42 20.273-12.42 6.159 0 10.992 2.31 14.499 6.93 3.593 4.62 5.389 10.98 5.389 19.09v45.63c0 1.05-.513 1.57-1.54 1.57h-8.468c-1.027 0-1.54-.52-1.54-1.57v-45.63c0-4.89-1.027-8.68-3.079-11.38-1.968-2.7-4.705-4.05-8.212-4.05-3.251 0-6.245 1.17-8.982 3.53-2.652 2.26-4.662 5.36-6.031 9.28v48.25c0 1.05-.513 1.57-1.539 1.57h-8.597c-1.027 0-1.54-.52-1.54-1.57v-45.63c0-4.97-1.026-8.76-3.079-11.38-1.968-2.7-4.62-4.05-7.956-4.05-3.25 0-6.244 1.17-8.981 3.53-2.738 2.26-4.833 5.36-6.288 9.28v48.25c0 1.05-.513 1.57-1.539 1.57h-8.469Zm108.763 0c-1.026 0-1.539-.52-1.539-1.57v-68.65c0-1.04.513-1.57 1.539-1.57h8.212c1.027 0 1.54.53 1.54 1.57v7.72c4.619-7.15 10.778-10.72 18.477-10.72 8.468 0 14.285 4.14 17.45 12.42 4.876-8.28 11.633-12.42 20.273-12.42 6.159 0 10.992 2.31 14.499 6.93 3.593 4.62 5.389 10.98 5.389 19.09v45.63c0 1.05-.513 1.57-1.54 1.57h-8.468c-1.027 0-1.54-.52-1.54-1.57v-45.63c0-4.89-1.026-8.68-3.079-11.38-1.968-2.7-4.705-4.05-8.212-4.05-3.251 0-6.245 1.17-8.982 3.53-2.652 2.26-4.662 5.36-6.031 9.28v48.25c0 1.05-.513 1.57-1.539 1.57h-8.597c-1.027 0-1.54-.52-1.54-1.57v-45.63c0-4.97-1.026-8.76-3.079-11.38-1.968-2.7-4.619-4.05-7.955-4.05-3.251 0-6.245 1.17-8.982 3.53-2.738 2.26-4.833 5.36-6.287 9.28v48.25c0 1.05-.514 1.57-1.54 1.57h-8.469Zm133.785 1.44c-8.811 0-15.782-2.49-20.915-7.46-5.132-4.96-7.698-11.85-7.698-20.66v-18.17c0-8.98 2.395-15.95 7.185-20.92 4.876-4.97 11.676-7.45 20.402-7.45 8.639 0 15.397 2.48 20.273 7.45 4.875 4.97 7.313 11.94 7.313 20.92v11.24c0 1.05-.513 1.57-1.539 1.57h-42.471v5.36c0 5.76 1.54 10.2 4.619 13.34 3.079 3.14 7.356 4.71 12.831 4.71 7.87 0 13.088-3.23 15.654-9.68.428-.96 1.069-1.26 1.925-.91l7.313 2.48c.941.35 1.283.96 1.027 1.83-3.679 10.9-12.318 16.35-25.919 16.35Zm-17.45-41.84h33.232v-5.1c0-5.58-1.454-9.94-4.362-13.08-2.823-3.14-6.886-4.71-12.19-4.71-5.303 0-9.409 1.57-12.318 4.71-2.908 3.14-4.362 7.5-4.362 13.08v5.1Zm85.77 41.84c-7.613 0-13.643-2.53-18.091-7.59-4.363-5.05-6.544-12.03-6.544-20.92v-18.04c0-8.81 2.181-15.69 6.544-20.66 4.362-4.97 10.393-7.45 18.091-7.45 9.068 0 15.825 3.44 20.273 10.33v-34.79c0-1.04.514-1.56 1.54-1.56h8.597c1.026 0 1.54.52 1.54 1.56v96.11c0 1.05-.514 1.57-1.54 1.57h-8.212c-1.026 0-1.54-.52-1.54-1.57v-8.5c-4.106 7.67-10.992 11.51-20.658 11.51Zm-13.087-28.51c0 5.84 1.411 10.29 4.234 13.34 2.908 3.05 6.8 4.58 11.676 4.58 5.218 0 9.41-1.66 12.575-4.97 3.25-3.32 4.875-7.67 4.875-13.08v-17.78c0-5.58-1.668-9.9-5.004-12.95-3.336-3.13-7.485-4.7-12.446-4.7-4.876 0-8.768 1.52-11.676 4.57-2.823 2.97-4.234 7.28-4.234 12.95v18.04Zm68.356 27.07c-1.026 0-1.54-.52-1.54-1.57v-68.65c0-1.04.514-1.57 1.54-1.57h8.469c1.026 0 1.539.53 1.539 1.57v68.65c0 1.05-.513 1.57-1.539 1.57h-8.469Zm0-82.9c-1.026 0-1.54-.52-1.54-1.57v-13.21c0-1.04.514-1.56 1.54-1.56h8.469c1.026 0 1.539.52 1.539 1.56v13.21c0 1.05-.513 1.57-1.539 1.57h-8.469Zm72.078 82.9c-1.026 0-1.539-.52-1.539-1.57v-9.28c-4.876 8.19-12.019 12.29-21.428 12.29-6.416 0-11.591-1.92-15.526-5.76-3.849-3.92-5.774-9.11-5.774-15.56 0-6.8 2.481-12.07 7.442-15.82 5.047-3.83 12.489-5.75 22.326-5.75h12.575v-9.02c0-8.63-4.662-12.95-13.986-12.95-4.02 0-7.185.79-9.495 2.36-2.224 1.56-3.892 4.01-5.004 7.32-.257.96-.856 1.31-1.797 1.04l-8.083-2.22c-1.027-.26-1.411-.87-1.155-1.83 1.369-5.14 4.234-9.15 8.597-12.03 4.363-2.96 10.094-4.44 17.194-4.44 8.04 0 14.242 1.87 18.605 5.62 4.362 3.75 6.543 9.37 6.543 16.87v49.16c0 1.05-.513 1.57-1.539 1.57h-7.956Zm-33.104-20.53c0 3.66 1.155 6.63 3.465 8.89 2.309 2.18 5.56 3.27 9.751 3.27 8.298 0 14.286-4.49 17.964-13.47v-11.5h-12.575c-12.403 0-18.605 4.27-18.605 12.81Zm87.231 20.53c-6.159 0-10.949-1.61-14.37-4.84-3.422-3.22-5.133-7.71-5.133-13.47v-43.67h-9.495c-1.026 0-1.54-.52-1.54-1.57v-6.67c0-1.04.514-1.57 1.54-1.57h9.495v-16.86c0-1.05.513-1.57 1.54-1.57h8.34c1.027 0 1.54.52 1.54 1.57v16.86h15.012c1.027 0 1.54.53 1.54 1.57v6.67c0 1.05-.513 1.57-1.54 1.57h-15.012v41.97c0 6.28 3.25 9.42 9.751 9.42h5.261c1.027 0 1.54.52 1.54 1.57v7.45c0 1.05-.513 1.57-1.54 1.57h-6.929Zm50.933 1.44c-8.811 0-15.783-2.49-20.915-7.46-5.132-4.96-7.699-11.85-7.699-20.66v-18.17c0-8.98 2.395-15.95 7.186-20.92 4.876-4.97 11.676-7.45 20.401-7.45 8.64 0 15.397 2.48 20.273 7.45 4.876 4.97 7.314 11.94 7.314 20.92v11.24c0 1.05-.513 1.57-1.54 1.57H922.45v5.36c0 5.76 1.54 10.2 4.62 13.34 3.079 3.14 7.356 4.71 12.831 4.71 7.869 0 13.087-3.23 15.653-9.68.428-.96 1.07-1.26 1.925-.91l7.314 2.48c.941.35 1.283.96 1.026 1.83-3.678 10.9-12.317 16.35-25.918 16.35Zm-17.451-41.84h33.233v-5.1c0-5.58-1.454-9.94-4.363-13.08-2.823-3.14-6.886-4.71-12.189-4.71-5.304 0-9.41 1.57-12.318 4.71-2.908 3.14-4.363 7.5-4.363 13.08v5.1Zm64.731 40.4c-1.026 0-1.54-.52-1.54-1.57v-96.11c0-1.04.514-1.56 1.54-1.56h8.468c1.027 0 1.54.52 1.54 1.56v96.11c0 1.05-.513 1.57-1.54 1.57h-8.468Zm33.329 20.92c-.77-.96-.68-1.7.26-2.22 4.53-3.14 7.95-6.24 10.26-9.29 2.4-2.96 4.41-7.23 6.03-12.81l-25.02-66.56c-.43-1.22 0-1.83 1.29-1.83h9.36c.86 0 1.41.44 1.67 1.31l11.03 31.12c3.43 9.59 5.95 17.52 7.57 23.8h.13c.77-2.79 3.25-10.72 7.45-23.8l10.52-31.12c.25-.87.81-1.31 1.66-1.31h8.86c1.28 0 1.71.61 1.28 1.83l-24.63 69.04c-4.71 12.9-11.51 22.19-20.41 27.85-.77.53-1.45.44-2.05-.26l-5.26-5.75Zm139.74-20.92c-1.02 0-1.54-.52-1.54-1.57v-9.28c-4.87 8.19-12.01 12.29-21.42 12.29-6.42 0-11.59-1.92-15.53-5.76-3.85-3.92-5.77-9.11-5.77-15.56 0-6.8 2.48-12.07 7.44-15.82 5.05-3.83 12.49-5.75 22.33-5.75h12.57v-9.02c0-8.63-4.66-12.95-13.99-12.95-4.02 0-7.18.79-9.49 2.36-2.22 1.56-3.89 4.01-5 7.32-.26.96-.86 1.31-1.8 1.04l-8.08-2.22c-1.03-.26-1.42-.87-1.16-1.83 1.37-5.14 4.23-9.15 8.6-12.03 4.36-2.96 10.09-4.44 17.19-4.44 8.04 0 14.24 1.87 18.61 5.62 4.36 3.75 6.54 9.37 6.54 16.87v49.16c0 1.05-.51 1.57-1.54 1.57h-7.96Zm-33.1-20.53c0 3.66 1.16 6.63 3.46 8.89 2.31 2.18 5.57 3.27 9.76 3.27 8.29 0 14.28-4.49 17.96-13.47v-11.5h-12.57c-12.41 0-18.61 4.27-18.61 12.81Zm65.4 20.53c-1.02 0-1.54-.52-1.54-1.57v-96.11c0-1.04.52-1.56 1.54-1.56h8.47c1.03 0 1.54.52 1.54 1.56v96.11c0 1.05-.51 1.57-1.54 1.57h-8.47Zm58.35 1.44c-8.81 0-15.78-2.49-20.91-7.46-5.13-4.96-7.7-11.85-7.7-20.66v-18.17c0-8.98 2.39-15.95 7.19-20.92 4.87-4.97 11.67-7.45 20.4-7.45 8.64 0 15.39 2.48 20.27 7.45 4.88 4.97 7.31 11.94 7.31 20.92v11.24c0 1.05-.51 1.57-1.54 1.57h-42.47v5.36c0 5.76 1.54 10.2 4.62 13.34 3.08 3.14 7.36 4.71 12.83 4.71 7.87 0 13.09-3.23 15.66-9.68.42-.96 1.07-1.26 1.92-.91l7.32 2.48c.94.35 1.28.96 1.02 1.83-3.68 10.9-12.32 16.35-25.92 16.35Zm-17.45-41.84h33.24v-5.1c0-5.58-1.46-9.94-4.37-13.08-2.82-3.14-6.88-4.71-12.19-4.71-5.3 0-9.41 1.57-12.31 4.71-2.91 3.14-4.37 7.5-4.37 13.08v5.1Zm64.73 40.4c-1.02 0-1.54-.52-1.54-1.57v-68.65c0-1.04.52-1.57 1.54-1.57h8.21c1.03 0 1.54.53 1.54 1.57v10.33c4.79-8.54 12.11-12.81 21.95-12.81 1.02 0 1.53.52 1.53 1.57v8.24c0 1.04-.51 1.56-1.53 1.56-10.7 0-17.93 4.41-21.69 13.21v46.55c0 1.05-.51 1.57-1.54 1.57h-8.47Zm71.58 0c-6.16 0-10.95-1.61-14.38-4.84-3.42-3.22-5.13-7.71-5.13-13.47v-43.67h-9.49c-1.03 0-1.54-.52-1.54-1.57v-6.67c0-1.04.51-1.57 1.54-1.57h9.49v-16.86c0-1.05.52-1.57 1.54-1.57h8.34c1.03 0 1.54.52 1.54 1.57v16.86h15.01c1.03 0 1.54.53 1.54 1.57v6.67c0 1.05-.51 1.57-1.54 1.57h-15.01v41.97c0 6.28 3.25 9.42 9.75 9.42h5.26c1.03 0 1.54.52 1.54 1.57v7.45c0 1.05-.51 1.57-1.54 1.57h-6.92Zm100.12 0c-1.03 0-1.54-.52-1.54-1.57v-9.28c-4.88 8.19-12.02 12.29-21.43 12.29-6.41 0-11.59-1.92-15.52-5.76-3.85-3.92-5.78-9.11-5.78-15.56 0-6.8 2.48-12.07 7.44-15.82 5.05-3.83 12.49-5.75 22.33-5.75h12.57v-9.02c0-8.63-4.66-12.95-13.98-12.95-4.02 0-7.19.79-9.5 2.36-2.22 1.56-3.89 4.01-5 7.32-.26.96-.86 1.31-1.8 1.04l-8.08-2.22c-1.03-.26-1.41-.87-1.16-1.83 1.37-5.14 4.24-9.15 8.6-12.03 4.36-2.96 10.1-4.44 17.19-4.44 8.05 0 14.25 1.87 18.61 5.62 4.36 3.75 6.54 9.37 6.54 16.87v49.16c0 1.05-.51 1.57-1.54 1.57h-7.95Zm-33.11-20.53c0 3.66 1.16 6.63 3.47 8.89 2.31 2.18 5.56 3.27 9.75 3.27 8.3 0 14.29-4.49 17.96-13.47v-11.5h-12.57c-12.4 0-18.61 4.27-18.61 12.81Zm117.25 20.53c-1.03 0-1.54-.52-1.54-1.57v-82.77h-25.54c-1.02 0-1.54-.52-1.54-1.57v-8.24c0-1.04.52-1.56 1.54-1.56h63.26c1.03 0 1.54.52 1.54 1.56v8.24c0 1.05-.51 1.57-1.54 1.57h-25.66v82.77c0 1.05-.52 1.57-1.54 1.57h-8.98Zm43.64 0c-1.03 0-1.54-.52-1.54-1.57v-68.65c0-1.04.51-1.57 1.54-1.57h8.21c1.03 0 1.54.53 1.54 1.57v10.33c4.79-8.54 12.1-12.81 21.94-12.81 1.03 0 1.54.52 1.54 1.57v8.24c0 1.04-.51 1.56-1.54 1.56-10.69 0-17.92 4.41-21.68 13.21v46.55c0 1.05-.52 1.57-1.54 1.57h-8.47Zm86.49 0c-1.03 0-1.54-.52-1.54-1.57v-9.28c-4.88 8.19-12.02 12.29-21.43 12.29-6.42 0-11.59-1.92-15.53-5.76-3.85-3.92-5.77-9.11-5.77-15.56 0-6.8 2.48-12.07 7.44-15.82 5.05-3.83 12.49-5.75 22.33-5.75h12.57v-9.02c0-8.63-4.66-12.95-13.98-12.95-4.02 0-7.19.79-9.5 2.36-2.22 1.56-3.89 4.01-5 7.32-.26.96-.86 1.31-1.8 1.04l-8.08-2.22c-1.03-.26-1.41-.87-1.16-1.83 1.37-5.14 4.24-9.15 8.6-12.03 4.36-2.96 10.09-4.44 17.19-4.44 8.04 0 14.25 1.87 18.61 5.62 4.36 3.75 6.54 9.37 6.54 16.87v49.16c0 1.05-.51 1.57-1.54 1.57h-7.95Zm-33.11-20.53c0 3.66 1.16 6.63 3.47 8.89 2.31 2.18 5.56 3.27 9.75 3.27 8.3 0 14.28-4.49 17.96-13.47v-11.5h-12.57c-12.41 0-18.61 4.27-18.61 12.81Zm65.4 20.53c-1.02 0-1.54-.52-1.54-1.57v-68.65c0-1.04.52-1.57 1.54-1.57h8.22c1.02 0 1.54.53 1.54 1.57v7.98c4.96-7.32 11.8-10.98 20.53-10.98 6.75 0 12.1 2.31 16.03 6.93 4.02 4.62 6.03 10.98 6.03 19.09v45.63c0 1.05-.51 1.57-1.53 1.57h-8.6c-1.03 0-1.54-.52-1.54-1.57v-45.63c0-4.97-1.24-8.76-3.72-11.38-2.4-2.7-5.61-4.05-9.63-4.05-3.67 0-7.1 1.17-10.26 3.53-3.08 2.26-5.43 5.36-7.06 9.28v48.25c0 1.05-.51 1.57-1.54 1.57h-8.47Zm95.97 1.44c-6.93 0-12.79-1.48-17.58-4.45-4.7-3.05-7.78-7.23-9.23-12.55-.26-.87.04-1.53.89-1.96l6.68-3.01c1.02-.44 1.66-.09 1.92 1.05 1.03 3.57 3.08 6.36 6.16 8.36 3.08 2.01 6.8 3.01 11.16 3.01 4.45 0 8-1 10.65-3.01 2.74-2 4.11-4.66 4.11-7.97 0-3.23-1.24-5.67-3.72-7.32-2.4-1.75-7.49-3.75-15.27-6.02-7.19-2.18-12.45-4.75-15.78-7.71-3.25-2.97-4.88-7.28-4.88-12.95 0-6.1 2.27-10.98 6.8-14.64 4.62-3.66 10.61-5.49 17.96-5.49 6.51 0 11.98 1.48 16.43 4.44 4.53 2.88 7.53 6.93 8.98 12.16.26 1.05-.09 1.7-1.03 1.96l-6.8 2.49c-1.02.43-1.67.08-1.92-1.05-2.14-6.89-7.27-10.33-15.4-10.33-4.28 0-7.66.87-10.14 2.62-2.39 1.74-3.59 4.14-3.59 7.19 0 3.14 1.16 5.49 3.47 7.06 2.31 1.48 6.92 3.22 13.85 5.23 7.96 2.35 13.65 5.19 17.07 8.5 3.51 3.22 5.26 7.67 5.26 13.34 0 6.27-2.4 11.37-7.19 15.29-4.79 3.84-11.07 5.76-18.86 5.76Zm45.38 24.71c-1.03 0-1.54-.52-1.54-1.57v-94.8c0-1.04.51-1.57 1.54-1.57h8.21c1.02 0 1.54.53 1.54 1.57v8.11c1.88-3.31 4.62-5.97 8.21-7.98 3.59-2.09 7.78-3.13 12.57-3.13 7.62 0 13.61 2.52 17.97 7.58 4.36 5.06 6.54 12.03 6.54 20.92v18.04c0 8.81-2.22 15.7-6.67 20.66-4.36 4.97-10.39 7.46-18.09 7.46-9.16 0-15.91-3.58-20.28-10.72v33.86c0 1.05-.51 1.57-1.54 1.57h-8.46Zm10-52.96c0 5.58 1.67 9.94 5.01 13.08 3.33 3.05 7.53 4.58 12.57 4.58 4.79 0 8.6-1.49 11.42-4.45 2.91-3.05 4.37-7.41 4.37-13.08v-18.04c0-5.84-1.42-10.29-4.24-13.34-2.82-3.05-6.67-4.57-11.55-4.57-5.21 0-9.45 1.65-12.7 4.97-3.25 3.31-4.88 7.67-4.88 13.07v17.78Zm91.07 28.25c-8.9 0-15.87-2.44-20.91-7.33-4.97-4.96-7.45-11.89-7.45-20.79v-18.17c0-8.98 2.48-15.95 7.45-20.92 5.04-4.97 12.01-7.45 20.91-7.45 8.98 0 15.95 2.48 20.91 7.45 5.05 4.97 7.57 11.94 7.57 20.92v18.17c0 8.9-2.52 15.83-7.57 20.79-4.96 4.89-11.93 7.33-20.91 7.33Zm-16.81-28.12c0 5.58 1.46 9.9 4.36 12.95 2.91 3.05 7.06 4.58 12.45 4.58 5.47 0 9.67-1.49 12.57-4.45 2.91-3.05 4.37-7.41 4.37-13.08v-18.17c0-5.67-1.46-10.03-4.37-13.08-2.9-3.13-7.1-4.7-12.57-4.7-5.39 0-9.54 1.57-12.45 4.7-2.9 3.05-4.36 7.41-4.36 13.08v18.17Zm66.6 26.68c-1.03 0-1.54-.52-1.54-1.57v-68.65c0-1.04.51-1.57 1.54-1.57h8.21c1.03 0 1.54.53 1.54 1.57v10.33c4.79-8.54 12.11-12.81 21.94-12.81 1.03 0 1.54.52 1.54 1.57v8.24c0 1.04-.51 1.56-1.54 1.56-10.69 0-17.92 4.41-21.68 13.21v46.55c0 1.05-.51 1.57-1.54 1.57h-8.47Zm71.57 0c-6.15 0-10.94-1.61-14.37-4.84-3.42-3.22-5.13-7.71-5.13-13.47v-43.67h-9.49c-1.03 0-1.54-.52-1.54-1.57v-6.67c0-1.04.51-1.57 1.54-1.57h9.49v-16.86c0-1.05.51-1.57 1.54-1.57h8.34c1.03 0 1.54.52 1.54 1.57v16.86h15.01c1.03 0 1.54.53 1.54 1.57v6.67c0 1.05-.51 1.57-1.54 1.57h-15.01v41.97c0 6.28 3.25 9.42 9.75 9.42h5.26c1.03 0 1.54.52 1.54 1.57v7.45c0 1.05-.51 1.57-1.54 1.57h-6.93Zm-1387.924 90.2c0-6.45 1.668-11.37 5.004-14.77 3.421-3.4 8.34-5.1 14.755-5.1h6.929c1.027 0 1.54.52 1.54 1.57v6.67c0 1.04-.513 1.57-1.54 1.57h-5.132c-6.587 0-9.88 3.22-9.88 9.67v7.98h15.012c1.027 0 1.54.52 1.54 1.57v6.67c0 1.04-.513 1.56-1.54 1.56h-15.012v60.41c0 1.05-.513 1.57-1.54 1.57h-8.597c-1.026 0-1.539-.52-1.539-1.57v-60.41h-9.752c-1.027 0-1.54-.52-1.54-1.56v-6.67c0-1.05.513-1.57 1.54-1.57h9.752v-7.59Zm67.915 80.81c-8.896 0-15.869-2.44-20.916-7.32-4.961-4.97-7.441-11.9-7.441-20.79v-18.18c0-8.97 2.48-15.95 7.441-20.92 5.047-4.97 12.02-7.45 20.916-7.45 8.982 0 15.953 2.48 20.914 7.45 5.047 4.97 7.57 11.95 7.57 20.92v18.18c0 8.89-2.523 15.82-7.57 20.79-4.961 4.88-11.932 7.32-20.914 7.32Zm-16.81-28.11c0 5.58 1.454 9.89 4.363 12.94 2.908 3.05 7.058 4.58 12.447 4.58 5.474 0 9.665-1.48 12.573-4.45 2.909-3.05 4.363-7.41 4.363-13.07v-18.18c0-5.66-1.454-10.02-4.363-13.07-2.908-3.14-7.099-4.71-12.573-4.71-5.389 0-9.539 1.57-12.447 4.71-2.909 3.05-4.363 7.41-4.363 13.07v18.18Zm66.601 26.67c-1.026 0-1.539-.52-1.539-1.57v-68.64c0-1.05.513-1.57 1.539-1.57h8.212c1.027 0 1.54.52 1.54 1.57v10.33c4.79-8.55 12.104-12.82 21.941-12.82 1.026 0 1.54.53 1.54 1.57v8.24c0 1.05-.514 1.57-1.54 1.57-10.693 0-17.921 4.4-21.684 13.2v46.55c0 1.05-.514 1.57-1.54 1.57h-8.469Zm83.111 0c-1.026 0-1.539-.52-1.539-1.57v-92.57c0-1.05.513-1.57 1.539-1.57h13.858c.77 0 1.369.39 1.796 1.18l26.945 54.78c3.251 6.8 7.143 15.52 11.677 26.15h.256c-.598-7.67-.898-16.03-.898-25.1v-55.44c0-1.05.513-1.57 1.54-1.57h8.597c1.026 0 1.539.52 1.539 1.57v92.57c0 1.05-.513 1.57-1.539 1.57h-12.831c-.856 0-1.455-.39-1.797-1.17l-27.458-54.79c-2.737-5.58-6.715-14.47-11.933-26.67h-.257c.428 9.15.642 17.43.642 24.84v56.22c0 1.05-.513 1.57-1.54 1.57h-8.597Zm116.487 1.44c-8.38 0-15.27-1.92-20.659-5.75-5.389-3.92-8.939-9.5-10.65-16.74-.171-.96.214-1.57 1.155-1.83l8.084-2.22c.941-.26 1.54.09 1.796 1.04 3.08 9.59 9.795 14.39 20.144 14.39 5.73 0 10.18-1.31 13.35-3.93 3.25-2.61 4.87-6.23 4.87-10.85 0-4.36-1.45-7.84-4.36-10.46-2.91-2.7-8.6-5.62-17.07-8.76-9.235-3.49-15.822-7.37-19.757-11.64-3.849-4.36-5.774-9.67-5.774-15.95 0-7.93 2.652-14.21 7.956-18.83 5.303-4.7 12.405-7.06 21.295-7.06 14.89 0 24.55 6.76 29 20.27.43.96.13 1.61-.9 1.96l-7.95 2.48c-.94.27-1.58-.04-1.93-.91-3.25-8.46-9.28-12.68-18.09-12.68-5.39 0-9.66 1.22-12.829 3.66-3.079 2.44-4.619 5.88-4.619 10.33 0 3.83 1.454 7.06 4.363 9.67 2.995 2.62 8.635 5.45 16.935 8.5 9.5 3.58 16.17 7.54 20.02 11.9 3.85 4.27 5.77 9.76 5.77 16.48 0 8.36-2.69 14.95-8.08 19.74-5.39 4.79-12.75 7.19-22.07 7.19Zm63.37-1.44c-.94 0-1.5-.48-1.67-1.44l-18.73-92.57c-.26-1.13.17-1.7 1.28-1.7h9.24c1.02 0 1.58.48 1.67 1.44l10.65 57.01c1.11 6.54 2.43 14.73 3.97 24.58h.39c.25-1.22.98-4.93 2.18-11.11 1.2-6.19 2.09-10.73 2.69-13.6l13.09-57.01c.26-.87.81-1.31 1.67-1.31h10.65c.85 0 1.41.44 1.67 1.31l13.08 57.4c.77 3.22 2.4 11.33 4.88 24.32h.39c.34-2.01.94-5.84 1.79-11.51.94-5.66 1.67-9.93 2.18-12.81l10.52-57.27c.09-.96.65-1.44 1.67-1.44h8.6c1.11 0 1.54.57 1.28 1.7l-18.35 92.57c-.17.96-.72 1.44-1.66 1.44h-11.81c-.85 0-1.41-.43-1.67-1.3l-12.96-55.84c-.85-3.48-1.49-6.19-1.92-8.1-.34-1.92-.77-4.06-1.28-6.41-.43-2.44-.99-5.19-1.67-8.24h-.26c-2.48 11.33-4.15 18.87-5 22.62l-13.09 55.97c-.26.87-.81 1.3-1.67 1.3h-11.8Zm160.77 1.44c-8.81 0-15.79-2.48-20.92-7.45-5.13-4.97-7.7-11.86-7.7-20.66v-18.18c0-8.97 2.4-15.95 7.19-20.92 4.87-4.97 11.67-7.45 20.4-7.45 8.64 0 15.4 2.48 20.27 7.45 4.88 4.97 7.32 11.95 7.32 20.92v11.25c0 1.04-.52 1.57-1.54 1.57h-42.47v5.36c0 5.75 1.54 10.2 4.62 13.34 3.07 3.13 7.35 4.7 12.83 4.7 7.87 0 13.08-3.22 15.65-9.67.43-.96 1.07-1.27 1.93-.92l7.31 2.49c.94.35 1.28.96 1.03 1.83-3.68 10.89-12.32 16.34-25.92 16.34Zm-17.45-41.84h33.23v-5.1c0-5.58-1.46-9.94-4.36-13.08-2.83-3.13-6.89-4.7-12.19-4.7-5.31 0-9.41 1.57-12.32 4.7-2.91 3.14-4.36 7.5-4.36 13.08v5.1Zm64.73 40.4c-1.03 0-1.54-.52-1.54-1.57v-68.64c0-1.05.51-1.57 1.54-1.57h8.21c1.02 0 1.54.52 1.54 1.57v7.71c4.62-7.15 10.78-10.72 18.47-10.72 8.47 0 14.29 4.14 17.45 12.42 4.88-8.28 11.64-12.42 20.28-12.42 6.16 0 10.99 2.31 14.5 6.93 3.59 4.62 5.39 10.98 5.39 19.09v45.63c0 1.05-.52 1.57-1.54 1.57h-8.47c-1.03 0-1.54-.52-1.54-1.57v-45.63c0-4.88-1.03-8.67-3.08-11.38-1.97-2.7-4.71-4.05-8.21-4.05-3.25 0-6.25 1.18-8.99 3.53-2.65 2.27-4.66 5.36-6.03 9.29v48.24c0 1.05-.51 1.57-1.54 1.57h-8.59c-1.03 0-1.54-.52-1.54-1.57v-45.63c0-4.97-1.03-8.76-3.08-11.38-1.97-2.7-4.62-4.05-7.96-4.05-3.25 0-6.24 1.18-8.98 3.53-2.74 2.27-4.83 5.36-6.29 9.29v48.24c0 1.05-.51 1.57-1.54 1.57h-8.46Zm108.76 26.15c-1.03 0-1.54-.52-1.54-1.56v-94.8c0-1.05.51-1.57 1.54-1.57h8.21c1.03 0 1.54.52 1.54 1.57v8.1c1.88-3.31 4.62-5.97 8.21-7.97 3.6-2.09 7.79-3.14 12.58-3.14 7.61 0 13.6 2.53 17.96 7.58 4.36 5.06 6.54 12.03 6.54 20.92v18.05c0 8.8-2.22 15.69-6.67 20.66-4.36 4.97-10.39 7.45-18.09 7.45-9.15 0-15.91-3.57-20.27-10.72v33.87c0 1.04-.52 1.56-1.54 1.56h-8.47Zm10.01-52.95c0 5.58 1.67 9.94 5 13.07 3.34 3.05 7.53 4.58 12.58 4.58 4.79 0 8.59-1.48 11.42-4.45 2.9-3.05 4.36-7.41 4.36-13.07v-18.05c0-5.84-1.41-10.28-4.24-13.33-2.82-3.05-6.67-4.58-11.54-4.58-5.22 0-9.46 1.66-12.71 4.97-3.25 3.31-4.87 7.67-4.87 13.08v17.78Zm66.3 26.8c-1.03 0-1.54-.52-1.54-1.57v-96.1c0-1.05.51-1.57 1.54-1.57h8.47c1.02 0 1.54.52 1.54 1.57v96.1c0 1.05-.52 1.57-1.54 1.57h-8.47Zm58.09 1.44c-8.89 0-15.86-2.44-20.91-7.32-4.96-4.97-7.44-11.9-7.44-20.79v-18.18c0-8.97 2.48-15.95 7.44-20.92 5.05-4.97 12.02-7.45 20.91-7.45 8.98 0 15.96 2.48 20.92 7.45 5.04 4.97 7.57 11.95 7.57 20.92v18.18c0 8.89-2.53 15.82-7.57 20.79-4.96 4.88-11.94 7.32-20.92 7.32Zm-16.81-28.11c0 5.58 1.46 9.89 4.37 12.94 2.91 3.05 7.05 4.58 12.44 4.58 5.48 0 9.67-1.48 12.58-4.45 2.91-3.05 4.36-7.41 4.36-13.07v-18.18c0-5.66-1.45-10.02-4.36-13.07-2.91-3.14-7.1-4.71-12.58-4.71-5.39 0-9.53 1.57-12.44 4.71-2.91 3.05-4.37 7.41-4.37 13.07v18.18Zm64.6 47.59c-.77-.95-.68-1.7.26-2.22 4.53-3.14 7.95-6.23 10.26-9.28 2.4-2.97 4.41-7.24 6.03-12.82l-25.02-66.55c-.43-1.22 0-1.83 1.28-1.83h9.37c.86 0 1.41.43 1.67 1.31l11.03 31.12c3.43 9.58 5.95 17.52 7.57 23.79h.13c.77-2.79 3.25-10.72 7.44-23.79l10.53-31.12c.25-.88.81-1.31 1.66-1.31h8.86c1.28 0 1.71.61 1.28 1.83l-24.64 69.04c-4.7 12.9-11.5 22.18-20.4 27.85-.77.52-1.45.43-2.05-.26l-5.26-5.76Zm91.93-19.48c-8.81 0-15.78-2.48-20.91-7.45-5.13-4.97-7.7-11.86-7.7-20.66v-18.18c0-8.97 2.39-15.95 7.18-20.92 4.88-4.97 11.68-7.45 20.41-7.45 8.64 0 15.39 2.48 20.27 7.45 4.87 4.97 7.31 11.95 7.31 20.92v11.25c0 1.04-.51 1.57-1.54 1.57h-42.47v5.36c0 5.75 1.54 10.2 4.62 13.34 3.08 3.13 7.36 4.7 12.83 4.7 7.87 0 13.09-3.22 15.66-9.67.42-.96 1.07-1.27 1.92-.92l7.31 2.49c.95.35 1.29.96 1.03 1.83-3.68 10.89-12.32 16.34-25.92 16.34Zm-17.45-41.84h33.23v-5.1c0-5.58-1.45-9.94-4.36-13.08-2.82-3.13-6.88-4.7-12.19-4.7-5.3 0-9.41 1.57-12.32 4.7-2.9 3.14-4.36 7.5-4.36 13.08v5.1Zm89.75 41.84c-8.81 0-15.78-2.48-20.91-7.45-5.13-4.97-7.7-11.86-7.7-20.66v-18.18c0-8.97 2.39-15.95 7.18-20.92 4.88-4.97 11.68-7.45 20.41-7.45 8.64 0 15.39 2.48 20.27 7.45 4.87 4.97 7.31 11.95 7.31 20.92v11.25c0 1.04-.51 1.57-1.54 1.57h-42.47v5.36c0 5.75 1.54 10.2 4.62 13.34 3.08 3.13 7.36 4.7 12.83 4.7 7.87 0 13.09-3.22 15.66-9.67.42-.96 1.07-1.27 1.92-.92l7.31 2.49c.95.35 1.29.96 1.03 1.83-3.68 10.89-12.32 16.34-25.92 16.34Zm-17.45-41.84h33.23v-5.1c0-5.58-1.45-9.94-4.36-13.08-2.82-3.13-6.88-4.7-12.19-4.7-5.3 0-9.41 1.57-12.32 4.7-2.9 3.14-4.36 7.5-4.36 13.08v5.1Zm64.35 40.4c-1.03 0-1.54-.52-1.54-1.57v-17.39c0-1.04.51-1.57 1.54-1.57h8.21c1.02 0 1.54.53 1.54 1.57v17.39c0 1.05-.52 1.57-1.54 1.57h-8.21Z" fill="#000"/><path d="M2145.32 3261.87v-31.99h3.9c1 0 1.99.01 2.98.03.99 0 1.83 0 2.49.02 3.81.09 6.91.78 9.29 2.08 2.41 1.3 4.17 3.11 5.3 5.44 1.13 2.33 1.69 5.09 1.69 8.27 0 3.32-.59 6.19-1.78 8.61-1.18 2.4-3 4.26-5.45 5.57-2.43 1.31-5.52 1.97-9.26 1.97h-9.16Zm6.38-5.22h2.91c1.79 0 3.42-.35 4.88-1.06 1.48-.71 2.66-1.87 3.54-3.47.88-1.61 1.32-3.76 1.32-6.44 0-3.73-.87-6.42-2.6-8.08-1.72-1.66-4.08-2.5-7.06-2.5h-2.99v21.55Zm34.93 5.66c-2.2 0-4.11-.48-5.75-1.44-1.62-.95-2.88-2.31-3.78-4.07-.88-1.75-1.32-3.83-1.32-6.23 0-2.41.44-4.51 1.32-6.31.89-1.8 2.15-3.2 3.78-4.2 1.64-1 3.56-1.5 5.77-1.5 2.22 0 4.13.49 5.74 1.48 1.62.99 2.87 2.38 3.75 4.18.9 1.78 1.35 3.9 1.35 6.35 0 2.3-.44 4.33-1.31 6.1-.85 1.76-2.09 3.14-3.71 4.14-1.6 1-3.55 1.5-5.84 1.5Zm.02-4.8c1.12 0 2.02-.33 2.7-.99.68-.67 1.17-1.54 1.47-2.61.31-1.09.46-2.28.46-3.56 0-1.21-.15-2.35-.44-3.41-.27-1.08-.75-1.95-1.43-2.61-.66-.68-1.58-1.02-2.76-1.02-1.11 0-2.01.32-2.71.95-.69.64-1.2 1.48-1.52 2.55-.3 1.06-.45 2.24-.45 3.54 0 1.19.14 2.34.43 3.45.29 1.09.77 1.98 1.45 2.67.68.7 1.62 1.04 2.8 1.04Zm30.39 11.66c-1.53 0-2.62-.13-3.25-.4-.64-.25-.96-.37-.96-.37v-4.12l2.24.09c1.28.07 2.25-.03 2.88-.31.64-.27 1.07-.59 1.28-.97.24-.39.39-.69.48-.91l.41-1.26-8.72-21.92h6.27l5.38 14.91 5.43-14.91h6.21l-9.1 23c-.78 1.95-1.61 3.44-2.49 4.47-.87 1.03-1.81 1.74-2.82 2.13-1 .38-2.08.57-3.24.57Zm31.14-6.86c-2.2 0-4.11-.48-5.75-1.44-1.62-.95-2.88-2.31-3.78-4.07-.88-1.75-1.32-3.83-1.32-6.23 0-2.41.44-4.51 1.32-6.31.89-1.8 2.15-3.2 3.78-4.2 1.64-1 3.56-1.5 5.78-1.5 2.21 0 4.12.49 5.73 1.48 1.62.99 2.87 2.38 3.75 4.18.9 1.78 1.35 3.9 1.35 6.35 0 2.3-.44 4.33-1.3 6.1-.86 1.76-2.1 3.14-3.72 4.14-1.6 1-3.55 1.5-5.84 1.5Zm.03-4.8c1.11 0 2.01-.33 2.69-.99.68-.67 1.17-1.54 1.47-2.61.31-1.09.46-2.28.46-3.56 0-1.21-.15-2.35-.43-3.41-.28-1.08-.76-1.95-1.44-2.61-.66-.68-1.58-1.02-2.75-1.02-1.12 0-2.02.32-2.72.95-.69.64-1.2 1.48-1.52 2.55-.3 1.06-.45 2.24-.45 3.54 0 1.19.14 2.34.43 3.45.29 1.09.78 1.98 1.46 2.67.68.7 1.61 1.04 2.8 1.04Zm24.34 4.8c-1.37 0-2.72-.28-4.04-.86a8.274 8.274 0 0 1-3.23-2.52c-.85-1.12-1.28-2.49-1.28-4.12V3239h6.34v15c0 1.06.34 1.93 1.02 2.61.68.67 1.68 1.01 2.99 1.01 1.23 0 2.22-.32 2.96-.97.73-.66 1.1-1.59 1.1-2.77V3239h6.28v22.87h-4.78l-.74-4.53c-.26 1.34-.75 2.37-1.47 3.09-.71.71-1.53 1.2-2.46 1.46-.91.28-1.81.42-2.69.42Zm18.76-.44V3239h6.1v5.42c.54-1.76 1.41-3.17 2.63-4.25s2.71-1.61 4.49-1.61c.48 0 .81.04.98.13v6.15c-.13-.05-.29-.08-.48-.09-.17-.03-.33-.05-.48-.07-2.5-.22-4.28.12-5.34 1.02-1.04.9-1.56 2.12-1.56 3.65v12.52h-6.34Zm42.36.44c-1.47 0-2.7-.25-3.67-.75-.95-.52-1.71-1.16-2.28-1.95-.55-.78-.96-1.59-1.23-2.43l-.72 4.69h-4.6V3229h6.36v13.09c.53-.97 1.39-1.8 2.56-2.5 1.19-.69 2.58-1.03 4.19-1.03 2.78 0 4.96 1.02 6.56 3.07 1.59 2.05 2.38 4.94 2.38 8.67 0 3.63-.81 6.54-2.43 8.74-1.62 2.18-3.99 3.27-7.12 3.27Zm-1.39-4.64c1.36 0 2.49-.57 3.39-1.71.91-1.15 1.37-3.06 1.37-5.75 0-2.37-.44-4.13-1.31-5.26-.85-1.14-2.01-1.71-3.49-1.71-3.11 0-4.68 2.33-4.71 6.97 0 2.7.39 4.62 1.17 5.75.78 1.14 1.98 1.71 3.58 1.71Zm16.39-21.95v-5.81h6.16v5.81h-6.16Zm.06 26.15V3239h6.06v22.87h-6.06Zm22.28.24c-1.98 0-3.52-.25-4.6-.77-1.07-.52-1.82-1.24-2.24-2.17-.4-.93-.61-2-.61-3.23v-12.45h-3.64V3239h3.84l1.6-6.9h4.52v6.88h4.99v4.51h-4.99l.04 12.19c0 .84.16 1.37.48 1.59.32.21.82.31 1.52.31h3.02v3.98c-.31.13-.77.26-1.39.38-.61.11-1.46.17-2.54.17Zm-256.01 52.3v-31.99h19.55l-.02 3.58h-15.41v10.58h13.85v3.54h-13.85v14.29H2115Zm33.3.44c-3.11 0-5.61-1.01-7.49-3.03-1.87-2.02-2.8-4.94-2.8-8.76 0-2.39.4-4.48 1.19-6.28.8-1.8 1.96-3.2 3.5-4.18 1.53-1.01 3.41-1.51 5.62-1.51 3.08 0 5.55 1.03 7.4 3.1 1.87 2.06 2.8 5.02 2.8 8.87 0 2.33-.39 4.38-1.17 6.15-.77 1.77-1.91 3.15-3.43 4.16-1.52.99-3.39 1.48-5.62 1.48Zm.02-3.23c2 0 3.53-.77 4.6-2.3 1.09-1.55 1.63-3.67 1.63-6.35 0-1.64-.22-3.1-.65-4.4-.42-1.31-1.09-2.35-2.02-3.12-.91-.77-2.1-1.15-3.56-1.15-2.04 0-3.6.77-4.69 2.3-1.08 1.52-1.63 3.64-1.63 6.37 0 1.61.21 3.07.63 4.38.44 1.31 1.12 2.35 2.04 3.12.93.77 2.14 1.15 3.65 1.15Zm15.54 2.79v-22.88h3.82v4.41c.56-1.64 1.45-2.86 2.67-3.65 1.23-.8 2.55-1.2 3.97-1.2.33 0 .65.02.96.07.32.04.57.12.76.22v3.96c-.22-.1-.5-.17-.85-.2-.33-.04-.62-.07-.85-.07-1.78-.11-3.3.23-4.58 1.04-1.27.81-1.91 2.17-1.91 4.07v14.23h-3.99Zm33.81.44c-2.19 0-3.97-.58-5.34-1.75-1.38-1.16-2.06-2.79-2.06-4.89 0-2.53.86-4.42 2.58-5.66 1.74-1.24 4.53-1.9 8.38-1.99l3.99-.11v-1.79c0-1.4-.41-2.51-1.23-3.32-.83-.83-2.1-1.24-3.82-1.24-1.29.01-2.43.33-3.41.95-.99.61-1.62 1.59-1.89 2.94h-3.54c.12-2.22.97-3.93 2.56-5.11 1.59-1.19 3.75-1.79 6.47-1.79 2.91 0 5.09.63 6.56 1.88 1.46 1.26 2.19 3.08 2.19 5.47v15.97h-3.43l-.3-4.29c-.87 1.78-1.97 3.02-3.3 3.71-1.34.68-2.8 1.02-4.41 1.02Zm1.19-2.94c1.02 0 2.01-.25 2.98-.73.97-.49 1.77-1.11 2.41-1.86.65-.77.97-1.58.97-2.43v-3.92l-3.32.07c-2.57.04-4.51.43-5.82 1.17-1.28.72-1.93 1.92-1.93 3.6 0 1.3.44 2.31 1.33 3.04.88.7 2.01 1.06 3.38 1.06Zm35.14 2.94c-1.56 0-3.02-.25-4.36-.75-1.33-.5-2.44-1.27-3.32-2.3-.88-1.05-1.43-2.4-1.65-4.05h3.64c.29 1.34.95 2.35 1.98 3.03 1.04.68 2.27 1.02 3.69 1.02 1.52 0 2.74-.29 3.67-.87.92-.57 1.39-1.46 1.39-2.65 0-1.61-1-2.66-3-3.14l-4.64-1.17c-1.81-.45-3.26-1.14-4.34-2.08-1.08-.95-1.62-2.27-1.63-3.96 0-2.01.71-3.65 2.13-4.91 1.43-1.29 3.57-1.93 6.42-1.93 2.43 0 4.39.56 5.88 1.68 1.51 1.12 2.3 2.75 2.37 4.89h-3.56c-.15-1.09-.62-1.95-1.43-2.59-.81-.65-1.91-.97-3.3-.97-1.44 0-2.6.3-3.5.88-.9.58-1.34 1.48-1.34 2.7 0 .81.31 1.46.95 1.93.65.46 1.59.84 2.82 1.15l4.52 1.15c1.37.37 2.44.89 3.19 1.57.77.68 1.3 1.42 1.61 2.23.3.81.45 1.6.45 2.35 0 2.11-.76 3.77-2.28 4.98-1.5 1.2-3.62 1.81-6.36 1.81Zm20.27 0c-2.19 0-3.97-.58-5.34-1.75-1.38-1.16-2.06-2.79-2.06-4.89 0-2.53.86-4.42 2.58-5.66 1.74-1.24 4.53-1.9 8.38-1.99l3.99-.11v-1.79c0-1.4-.41-2.51-1.24-3.32-.82-.83-2.09-1.24-3.82-1.24-1.28.01-2.42.33-3.4.95-.99.61-1.62 1.59-1.89 2.94h-3.54c.12-2.22.97-3.93 2.56-5.11 1.59-1.19 3.75-1.79 6.47-1.79 2.91 0 5.09.63 6.56 1.88 1.46 1.26 2.19 3.08 2.19 5.47v15.97h-3.43l-.31-4.29c-.86 1.78-1.96 3.02-3.3 3.71-1.33.68-2.8 1.02-4.4 1.02Zm1.19-2.94c1.02 0 2.01-.25 2.98-.73.97-.49 1.77-1.11 2.41-1.86.65-.77.97-1.58.97-2.43v-3.92l-3.32.07c-2.57.04-4.51.43-5.82 1.17-1.28.72-1.93 1.92-1.93 3.6 0 1.3.44 2.31 1.33 3.04.88.7 2.01 1.06 3.38 1.06Zm18.78 2.5v-19.89h-4.75v-2.99h4.75v-3.54c0-3.71 1.81-5.57 5.43-5.57h4.23l.03 2.9h-3.35c-.92 0-1.55.25-1.89.75-.33.5-.5 1.26-.5 2.28v3.18h5.52v2.99h-5.45v19.89h-4.02Zm23.37.44c-2.09 0-3.92-.47-5.52-1.39-1.59-.93-2.83-2.27-3.73-4.01-.9-1.74-1.34-3.83-1.34-6.26 0-2.4.4-4.51 1.21-6.32.81-1.82 1.98-3.23 3.52-4.25 1.53-1.02 3.39-1.53 5.58-1.53 3.15 0 5.57 1.03 7.27 3.08 1.71 2.03 2.56 4.78 2.56 8.25v1.5h-16.09c0 1.45.24 2.76.7 3.94.48 1.16 1.19 2.09 2.15 2.79.95.69 2.16 1.04 3.62 1.04 1.44 0 2.67-.34 3.69-1.02 1.05-.68 1.71-1.66 2-2.94h3.78c-.28 1.54-.89 2.85-1.83 3.91a8.808 8.808 0 0 1-3.38 2.41c-1.33.53-2.73.8-4.19.8Zm-6.51-13.69h12.2c0-1.96-.5-3.62-1.48-4.96-.98-1.34-2.49-2.01-4.52-2.01-1.4 0-2.56.35-3.49 1.04-.93.68-1.61 1.55-2.06 2.63a8.001 8.001 0 0 0-.65 3.3Zm21.61 13.25v-22.88h3.82v4.41c.57-1.64 1.46-2.86 2.67-3.65 1.23-.8 2.56-1.2 3.98-1.2.33 0 .65.02.95.07.32.04.57.12.76.22v3.96c-.22-.1-.5-.17-.85-.2-.33-.04-.61-.07-.84-.07-1.78-.11-3.31.23-4.58 1.04-1.28.81-1.91 2.17-1.91 4.07v14.23h-4Zm35.74.11c-2.33 0-3.9-.48-4.71-1.44-.79-.96-1.19-2.36-1.19-4.2v-14.36h-3.65v-2.99h3.76l.98-6.65h2.95v6.63h5.06v3.01h-5.06v14.22c0 1.23.19 1.98.56 2.26.39.27 1.12.4 2.17.4h2.46v2.74c-.29.1-.72.19-1.29.27-.55.07-1.23.11-2.04.11Zm8.65-.11v-22.88h3.82v4.41c.57-1.64 1.46-2.86 2.67-3.65 1.23-.8 2.56-1.2 3.97-1.2.34 0 .66.02.96.07.32.04.57.12.76.22v3.96c-.22-.1-.5-.17-.85-.2-.33-.04-.61-.07-.84-.07-1.78-.11-3.31.23-4.58 1.04-1.28.81-1.91 2.17-1.91 4.07v14.23h-4Zm16.96-27.72v-4.25h4.1v4.25h-4.1Zm.11 27.72v-22.88h3.88v22.88h-3.88Zm10.91 7.12v-30h4l.04 3.99c.35-.62.83-1.27 1.45-1.95.64-.69 1.44-1.28 2.41-1.75.97-.48 2.15-.73 3.52-.73 2.68 0 4.86.95 6.56 2.83 1.69 1.89 2.54 4.8 2.54 8.74 0 3.92-.84 6.94-2.5 9.05-1.66 2.09-3.97 3.14-6.92 3.14-1.34 0-2.47-.24-3.41-.73-.93-.5-1.69-1.11-2.28-1.81-.6-.71-1.05-1.39-1.37-2.04v11.26h-4.04Zm10.34-9.87c1.85 0 3.36-.71 4.53-2.14 1.17-1.45 1.76-3.69 1.76-6.73 0-2.59-.54-4.66-1.61-6.19-1.07-1.55-2.63-2.32-4.68-2.32-2.09 0-3.67.79-4.74 2.36-1.07 1.58-1.6 3.63-1.6 6.15 0 1.64.24 3.13.71 4.47.48 1.34 1.19 2.41 2.13 3.21.94.8 2.11 1.19 3.5 1.19Z" fill="#fff"/><path d="M2202.9 3371.09c0 12.03-9.53 21.54-20.99 21.54-11.46 0-20.99-9.51-20.99-21.54 0-12.02 9.53-21.53 20.99-21.53 11.46 0 20.99 9.51 20.99 21.53Zm111.32 0c0 12.03 9.53 21.54 20.99 21.54 11.46 0 20.99-9.51 20.99-21.54 0-12.02-9.53-21.53-20.99-21.53-11.46 0-20.99 9.51-20.99 21.53Z" stroke="#fff" stroke-width="15"/><path d="M2191.4 3390.45c5.88 14.28 23.88 42.86 65.12 42.86 41.25 0 63.31-28.58 69.19-42.86" stroke="#fff" stroke-width="30"/><path d="M1639.01 1567.56c9.09 94.08-14.11 188.46-65.65 267.06-51.53 78.61-128.22 136.57-216.99 164.01-88.78 27.44-184.14 22.67-269.84-13.51-85.71-36.18-156.453-101.52-200.183-184.89-43.73-83.37-57.74-179.62-39.642-272.33 18.098-92.72 67.183-176.18 138.892-236.15 71.713-59.97 161.603-92.75 254.373-92.75v40.86c-83.49 0-164.4 29.5-228.94 83.47a365.747 365.747 0 0 0-26.238 24.24c-50.283 51.24-84.789 116.7-98.764 188.3a374.466 374.466 0 0 0-6.935 71.74c.001 60.11 14.467 119.7 42.613 173.36 16.854 32.13 38.167 61.29 63.086 86.68 33.268 33.91 72.978 61.11 117.078 79.72 44.1 18.62 91.05 28 138.1 28 35.24 0 70.54-5.26 104.76-15.84 57.13-17.66 108.71-49.37 150.42-91.88a367.033 367.033 0 0 0 44.88-55.72c39.8-60.7 60.82-131.85 60.82-204.32 0-11.99-.58-24.02-1.74-36.04-6.77-70.06-33.09-136.35-75.42-191.22l-28.54 29.09v-90.76h89.06l-31.99 32.59c48.78 61.7 79.11 136.81 86.79 216.29Z" fill="#0098CD"/><path d="M1406.37 1607.61c-42.44 42.89-85.88 81.52-166.43 81.94-81.35-.01-123.79-38.77-166.39-81.94 42.6-43.17 85.04-81.93 166.39-81.94 80.55.42 123.99 39.05 166.43 81.94Z" stroke="#0098CD" stroke-width="20"/><path fill-rule="evenodd" clip-rule="evenodd" d="M1239.97 1700.23c50.19 0 90.89-41.47 90.89-92.62 0-51.15-40.7-92.62-90.89-92.62-50.2 0-90.89 41.47-90.89 92.62 0 51.15 40.69 92.62 90.89 92.62Zm-26.07-104.2c11.82 0 21.39-9.75 21.39-21.79 0-12.03-9.57-21.79-21.39-21.79-11.81 0-21.38 9.76-21.38 21.79 0 12.04 9.57 21.79 21.38 21.79Z" fill="#0098CD"/><path d="M1250.69 1285.52h-20.05v57.21h20.05v-57.21Zm0 588.4h-20.05v57.21h20.05v-57.21Zm254.62-275.81v20.43h56.14v-20.43h-56.14Zm-589.425 0v20.43h56.136v-20.43h-56.136Zm52.179-167.53-10.078 17.66 48.524 28.76 10.08-17.67-48.526-28.75ZM1473.29 1735l-10.08 17.66 48.53 28.76 10.08-17.67-48.53-28.75Zm0-262.09-10.08-17.66 48.53-28.76 10.08 17.67-48.53 28.75Zm-462.77 266.17 10.08 17.66-48.529 28.76-10.078-17.67 48.527-28.75Zm376.18 95.8-17.11 10.65 29.26 48.82 17.11-10.65-29.26-48.82Zm-291.19.22 17.11 10.65-29.26 48.82-17.11-10.65 29.26-48.82Zm-18.17-512.8-17.11 10.65 29.26 48.82 17.11-10.65-29.26-48.82Z" fill="#0098CD"/><path d="M1004.73 2176h470.54L1808 1843.27v-470.54L1475.27 1040h-470.54L672 1372.73v470.54L1004.73 2176Z" stroke="#0098CD" stroke-width="40"/><path d="M1004.73 2176h470.54L1808 1843.27v-470.54L1475.27 1040h-470.54L672 1372.73v470.54L1004.73 2176Z" stroke="#0098CD" stroke-width="40"/><path d="M290.253 3418.25c-.937 0-1.607-.7-1.607-1.68V3244.7c0-.98.67-1.68 1.607-1.68.937 0 1.607.7 1.607 1.68v171.87c0 .98-.803 1.68-1.607 1.68Zm-63.067-75.3-7.499 33.31-7.766-33.31h-10.713l-7.9 32.89-7.231-32.89h-11.784l12.989 51.93h11.516l7.633-32.89 7.766 32.89h11.382l.134-.42 13.123-51.51h-11.65Zm-107.66 33.17-27.182-33.17H80.828v51.93h11.248v-33.17l27.049 33.17h11.649v-51.93h-11.248v33.17Zm-39.903 34.71c0-4.48 3.348-8.4 8.034-8.4 2.678 0 4.285.84 5.892 2.24l-1.74 2.1c-1.206-1.12-2.41-1.68-4.285-1.68-2.813 0-4.955 2.66-4.955 5.74 0 3.36 2.142 5.74 5.222 5.74 1.473 0 2.812-.42 3.75-1.26v-2.94h-4.017v-2.52h6.56v6.72c-1.472 1.4-3.749 2.52-6.427 2.52-4.82 0-8.034-3.5-8.034-8.26Zm29.461 0c0-3.22-2.143-5.74-5.223-5.74s-5.222 2.52-5.222 5.74c0 3.08 2.142 5.74 5.222 5.74 3.08 0 5.223-2.52 5.223-5.74Zm-13.39 0c0-4.62 3.347-8.4 8.167-8.4 4.687 0 8.035 3.78 8.035 8.26s-3.348 8.26-8.169 8.26c-4.686.14-8.034-3.5-8.034-8.12Zm16.07-8.12h2.946l4.687 12.46 4.553-12.46h2.946l-6.428 16.24h-2.276l-6.428-16.24Zm17.006 0h11.516v2.66h-8.838v4.06h7.767v2.52h-7.767v4.34h8.838v2.52H128.77v-16.1Zm20.886 7.98c1.875 0 3.214-1.12 3.214-2.66 0-1.68-1.206-2.66-3.214-2.66h-4.017v5.46h4.017v-.14Zm-6.695-7.98h6.829c1.874 0 3.481.56 4.419 1.54.803.84 1.339 2.1 1.339 3.5 0 2.66-1.473 4.2-3.75 4.9l4.151 6.16h-3.213l-3.75-5.6h-3.347v5.6h-2.678v-16.1Zm14.996 0h2.544l8.302 11.2v-11.2h2.678v16.1h-2.276l-8.57-11.34v11.34h-2.678v-16.1Zm16.203 0h2.946l4.686 7.7 4.687-7.7h2.946v16.1h-2.678v-11.48l-4.955 7.56h-.133l-4.821-7.56v11.48h-2.678v-16.1Zm17.809 0h11.516v2.66h-8.704v4.06h7.633v2.52h-7.633v4.34h8.838v2.52h-11.65v-16.1Zm14.332 0h2.41l8.302 11.2v-11.2h2.678v16.1h-2.276l-8.436-11.34v11.34h-2.678v-16.1Zm20.483 2.66h-4.954v-2.66h12.587v2.66h-4.955v13.44h-2.678v-13.44Zm-92.929-17.63 6.562-8.26c4.552 3.92 9.373 6.44 15.131 6.44 4.553 0 7.365-1.82 7.365-5.04v-.14c0-2.94-1.741-4.48-10.177-6.72-10.177-2.66-16.872-5.6-16.872-16.09v-.14c0-9.52 7.365-15.96 17.809-15.96 7.365 0 13.658 2.38 18.881 6.72l-5.758 8.68c-4.553-3.22-8.972-5.18-13.257-5.18s-6.561 2.1-6.561 4.62v.14c0 3.5 2.142 4.62 10.98 6.99 10.311 2.8 16.069 6.58 16.069 15.82v.14c0 10.5-7.633 16.38-18.613 16.38-7.767 0-15.533-2.8-21.559-8.4Zm-20.352-79.22c4.418 7.84 10.042 13.16 16.604 15.4 2.008.7 4.151 1.12 6.293 1.26-.401-.28-.803-.7-1.205-1.12-3.214-2.8-6.695-7.28-8.704-13.58-2.142-6.86-3.213-14.98-3.213-24.08 0-12.59 2.008-23.51 2.678-26.45v-.14c.401-1.82 1.339-3.22 2.678-3.92-.536-.42-1.205-.84-1.741-1.12-8.436-5.46-15.533-8.67-17.006-9.37-.937-.42-1.473-.56-1.473-.56-.401-.14-.669-.28-.937-.28-1.071 0-1.607.7-1.875 1.96 0 0-.268 1.95-.535 5.17-.268 2.94-.536 7.56-.536 13.16 0 1.54 0 3.08.134 4.62.268 11.76 2.276 27.01 8.838 39.05Zm52.761 18.33c2.142 0 4.687-.56 7.231-1.82l1.607-.84c4.82-2.8 9.507-7.69 11.649-14.97 2.009-6.58 2.946-14.28 2.946-23.1 0-10.77-1.473-20.29-2.142-23.79-.268-1.26-.402-1.96-.402-1.96-.134-.56-.402-1.4-.937-1.4-.268 0-.536.14-.804.28 0 0-.267.28-.803.7-.536.42-1.339 1.12-2.276 2.1-1.34 1.26-4.152 4.06-7.499 7.7-5.222 6.02-12.052 15.53-15.399 26.59-1.875 6.44-2.812 12.04-2.812 16.52 0 3.36.535 6.3 1.473 8.53 1.071 2.24 2.544 3.78 4.686 4.9.938.42 2.009.56 3.482.56Z" fill="#fff"/><path d="M156.488 3293.4c.134-.28.134-.42.268-.7-6.829-17.77-22.63-31.21-24.505-32.75-.535-.42-.803-.7-.803-.7-.268-.28-.536-.28-.803-.28-.536 0-.938.7-1.072 1.4 0 .14-.134.84-.401 1.96-.134.98-.536 2.8-.938 5.6-.535 4.34-1.339 10.92-1.339 18.19 0 8.82 1.072 16.66 2.946 22.96 2.277 7.56 7.365 12.59 12.453 15.25.268.14.402.14.67.28 2.812 1.4 5.624 2.1 7.9 2.1 1.339 0 2.544-.28 3.616-.7.535-.28 1.071-.56 1.607-.98-.536-.7-.938-1.4-1.34-2.24-1.205-2.65-1.874-6.01-1.874-10.21 0-5.04 1.071-11.06 3.08-17.64.134-.28.401-.84.535-1.54Zm2.138-5.46c3.482-7.83 8.838-15.81 15.935-23.37-2.009-6.16-4.285-11.9-6.427-16.8-3.214-7.13-6.294-12.73-7.901-15.39-.535-.98-.803-1.4-.803-1.4-.536-.84-.938-.98-1.072-.98-.401 0-.803.28-1.205.98 0 0-.267.56-.803 1.4-.804 1.4-1.607 2.66-2.276 4.06-1.34 2.52-3.348 6.44-5.491 11.33-.535 1.12-.937 2.1-1.473 3.22-1.874 4.34-3.481 8.82-4.954 13.3 5.088 5.18 11.918 13.58 16.47 23.65Zm29.324-32.19c1.339.7 2.276 2.1 2.678 3.92v.14c.669 3.08 2.678 13.86 2.678 26.46 0 9.09-1.071 17.21-3.08 24.07-2.009 6.44-5.356 10.78-8.57 13.58-.402.42-.803.7-1.205 1.12 2.008-.14 4.017-.56 6.026-1.12 6.427-2.24 12.185-7.42 16.604-15.4 6.561-12.04 8.57-27.43 8.971-39.47 0-1.54.134-3.08.134-4.48 0-4.48-.134-8.82-.535-13.16-.268-3.21-.536-5.03-.536-5.03-.268-1.26-.803-1.82-1.875-1.96-.267 0-.535 0-.937.28 0 0-.535.14-1.473.56-.937.42-2.008.98-3.481 1.68l-.536.28c-4.419 2.23-8.704 4.75-12.855 7.41-.134.14-.268.14-.402.28-.669.14-1.071.42-1.606.84Zm-11.243 3.64c3.75-3.08 7.767-5.88 12.32-8.82.267-.14.535-.28.669-.42-1.339-7.27-2.946-12.59-3.615-14.55v-.14c-.402-.98-.938-1.54-1.875-1.54h-.402c-.268 0-.535.14-.803.42 0 0-2.009 1.26-4.955 3.5-1.606 1.26-4.285 3.36-7.632 6.16.268.56.535 1.12.669 1.68 2.143 4.47 4.017 9.09 5.624 13.71Zm-36.823 0c1.607-4.48 3.482-9.24 5.624-13.85.268-.56.536-1.12.67-1.54-2.545-2.24-5.089-4.34-7.633-6.16-3.08-2.24-4.954-3.5-4.954-3.5-.268-.28-.536-.28-.804-.42h-.402c-.803 0-1.473.56-1.874 1.54v.14c-.67 1.96-2.143 7.42-3.616 14.55.268.14.536.42.804.56 4.419 2.8 8.436 5.6 12.185 8.68Zm-48.607 30.51c3.75-1.95 7.499-3.63 10.98-5.03-.669-4.48-1.205-9.38-1.339-14.56 0-.7 0-1.4-.134-1.96-1.606-.14-2.945-.28-4.284-.42-2.678-.14-4.955-.28-6.562-.28h-1.473c-2.678 0-4.15.14-4.15.14-1.072 0-2.01.7-2.545 1.68-.402.56-.536 1.26-.536 1.96.134 1.82 1.34 8.68 9.24 18.89.402-.28.535-.28.803-.42Zm134.706.28c7.766-10.21 8.971-17.07 9.239-18.89 0-.7-.268-1.54-.536-1.96-.669-.98-1.606-1.54-2.678-1.68 0 0-1.205 0-3.08-.14h-2.41c-1.741 0-4.285.14-7.365.28-1.071.14-2.276.14-3.481.28 0 .7-.134 1.4-.134 1.96-.134 5.04-.536 9.94-1.339 14.55 3.615 1.4 7.365 3.08 11.114 5.04.268.42.536.42.67.56Z" fill="#fff"/><path d="m241.113 3304.04-1.206-.84c-.535-.42-1.472-.98-2.544-1.82-.268-.14-.535-.42-.937-.56-1.473-.98-3.615-2.38-6.026-3.78-.268-.14-.401-.28-.669-.42-1.607-.98-3.482-1.96-5.49-2.94-.402-.14-.67-.28-1.072-.56a100.888 100.888 0 0 0-9.775-4.48c-1.607 8.4-4.151 15.68-7.498 21.7-3.08 5.6-6.83 9.94-11.114 13.15-.536.42-1.206.84-1.741 1.26 37.091-2.1 47.67-14.55 48.741-15.95.134-.28.268-.42.402-.7.134-.42.268-.7.268-1.12 0-1.26-.536-2.38-1.339-2.94Zm-119.577 19.46c-4.285-3.22-8.034-7.56-11.114-13.16-3.348-6.02-5.892-13.44-7.499-21.7-3.481 1.4-6.695 2.8-9.64 4.34-.536.28-1.206.56-1.741.84-7.097 3.78-12.454 7.42-14.998 9.24l-1.205.84c-.803.56-1.339 1.68-1.339 2.8 0 .56.134.98.402 1.54 0 .14.134.28.134.42v.14l.267.28.134.14c.268.28.804.98 1.741 1.68 1.607 1.4 4.419 3.5 8.838 5.6 9.373 4.48 22.362 7.14 37.627 8.12-.402-.28-.938-.7-1.607-1.12Zm87.443 4.05c-1.874 0-4.686.42-8.971.98-.67.14-1.339.14-2.009.28-1.875.28-4.151.42-7.097.42-1.875 0-3.749 0-5.758-.14h-.134c-1.874 0-4.151-.14-6.293-.14-1.607 0-3.482 0-5.49.14-2.545.14-5.223.42-7.767.98-.803.14-1.607.28-2.41.56-.268.14-.402.42-.402.56 0 .14.402.28.67.28h.268c2.008-.14 4.017-.28 5.891-.28 6.829 0 11.382 1.26 15.801 2.38 4.151 1.12 8.168 2.1 13.658 2.1 5.491 0 10.043-1.12 12.052-3.08l.402-.42c.669-.7.937-1.54.803-2.38 0-.28-.134-.56-.134-.84-.268-.84-1.071-1.4-3.08-1.4Zm-55.306 3.22c-.804-.28-1.607-.42-2.411-.56-2.544-.56-5.088-.84-7.632-.98-2.009-.14-3.883-.14-5.624-.14-2.143 0-4.419 0-6.294.14h-.134c-2.008 0-3.883.14-5.758.14-3.079 0-5.222-.14-7.096-.42-.67-.14-1.34-.14-2.009-.28-4.285-.56-7.097-.98-8.972-.98-1.874 0-2.678.42-2.946 1.26-.134.28-.134.7-.267 1.12-.134.84.267 1.68.803 2.38.268.28.536.56.937.84 2.277 1.68 6.562 2.66 11.516 2.66 5.49 0 9.507-.98 13.658-2.1 4.419-1.12 9.106-2.38 15.801-2.38 1.875 0 3.884.14 5.892.28h.268c.268 0 .536 0 .669-.28 0-.28-.133-.7-.401-.7Zm431.105 30.53v4.57c0 1.84-1.444 3.35-3.196 3.35h-14.241v46.25c0 1.85-1.466 3.35-3.224 3.35h-6.377c-1.758 0-3.208-1.5-3.208-3.35v-46.25H540.28c-1.758 0-3.196-1.51-3.196-3.35v-4.57c0-1.84 1.433-3.37 3.196-3.37h41.302c1.752 0 3.196 1.53 3.196 3.37Zm252.946 37.67c0-1.99.187-3.84.562-5.56.408-1.68 1.025-3.18 1.918-4.46.898-1.29 2.094-2.31 3.549-3.04 1.472-.73 3.263-1.11 5.396-1.11.083 0 .149.01.237.01h.705c1.77 0 3.202-1.51 3.202-3.34v-4.55c0-.39-.066-.79-.192-1.17-.441-1.2-1.522-2.09-2.817-2.17h-.137c-.866.05-1.709.16-2.53.35-.584.16-1.091.32-1.091.32-1.362.46-2.64 1.09-3.82 1.91a15.306 15.306 0 0 0-3.191 2.98 16.208 16.208 0 0 0-2.199 3.78h-.143l-.017-4.8c0-1.83-1.421-3.36-3.185-3.36h-4.591c-1.764 0-3.213 1.53-3.213 3.36v37.35c0 1.86 1.449 3.36 3.213 3.36h5.142c1.769 0 3.213-1.5 3.213-3.36v-16.5h-.011Zm-248.366 0c0-1.99.193-3.84.568-5.56.375-1.68 1.03-3.18 1.923-4.45.888-1.3 2.089-2.32 3.539-3.05h.022c1.455-.73 3.251-1.11 5.362-1.11.083 0 .182.01.243.01h.7c1.758 0 3.196-1.51 3.196-3.34v-4.55c0-.39-.061-.79-.187-1.17-.419-1.18-1.516-2.09-2.795-2.17h-.159c-.866.05-1.692.16-2.536.35-.573.16-1.08.32-1.08.32a15.243 15.243 0 0 0-3.819 1.91c-1.202.84-2.271 1.81-3.197 2.98a16.538 16.538 0 0 0-2.193 3.77h-.171v-4.8c0-1.83-1.433-3.35-3.186-3.35h-4.59c-1.759 0-3.213 1.52-3.213 3.35v37.36c0 1.85 1.454 3.35 3.213 3.35h5.158c1.758 0 3.208-1.5 3.208-3.35v-16.5h-.006Zm98.691-14.72c-.469-2.24-1.262-4.13-2.409-5.7-1.146-1.56-2.7-2.81-4.695-3.67-1.984-.89-4.52-1.32-7.606-1.32-2.452 0-4.828.57-7.176 1.75-2.342 1.16-4.232 3.03-5.704 5.57h-.226v-3.1c0-1.66-1.471-3.02-3.235-3.02h-4.591c-1.741 0-3.202 1.49-3.202 3.35v37.36c0 1.85 1.461 3.35 3.202 3.35h5.164c1.775 0 3.213-1.5 3.213-3.35v-19.76c0-4.15.623-7.23 1.825-9.19.11-.19.187-.32.286-.48 1.428-1.97 3.709-2.96 6.851-2.96 2.777 0 4.706.89 5.787 2.69 1.091 1.79 1.631 4.5 1.631 8.15v21.54c0 1.86 1.438 3.36 3.207 3.36h5.17c1.747 0 3.197-1.5 3.197-3.36v-20.4c0-7.99-.579-10.29-.689-10.81Zm41.219 15.48a11.033 11.033 0 0 0-3.032-3.54c-1.267-.94-2.689-1.68-4.315-2.29-1.609-.57-3.252-1.03-4.96-1.44-1.648-.4-3.268-.75-4.845-1.11-1.592-.36-2.998-.72-4.221-1.16-1.235-.45-2.243-.99-2.998-1.69-.772-.65-1.147-1.56-1.147-2.64 0-.92.215-1.65.667-2.19.425-.54.959-.95 1.582-1.24.639-.28 1.334-.46 2.111-.57.755-.1 1.46-.12 2.116-.12 2.083 0 3.88.41 5.412 1.24.976.54 1.687 1.36 2.089 2.51l.061.14c.452 1.22 1.636 2.14 2.976 2.14h5.268c1.775 0 2.988-1.5 2.64-3.33 0 0-.297-1.72-1.411-3.5-1.129-1.81-2.529-3.26-4.227-4.34-1.697-1.08-3.632-1.86-5.792-2.33a32.72 32.72 0 0 0-6.696-.67c-2.298 0-4.536.21-6.713.64-2.182.44-4.161 1.17-5.93 2.24-1.753 1.03-3.169 2.48-4.227 4.31-1.058 1.85-1.604 4.21-1.604 7.08 0 1.92.402 3.56 1.152 4.92.782 1.34 1.78 2.46 3.031 3.33 1.279.91 2.701 1.62 4.332 2.15a48.13 48.13 0 0 0 4.96 1.43c4.15.93 7.407 1.83 9.722 2.76 2.304.92 3.505 2.29 3.505 4.11 0 1.09-.248 2-.755 2.71-.49.73-1.113 1.27-1.841 1.7-.738.41-1.565.75-2.463.95-.888.22-1.764.31-2.585.31a12.57 12.57 0 0 1-3.323-.43c-1.064-.28-2.051-.68-2.844-1.33-1.207-.97-1.455-1.42-2.001-2.31-.645-1.05-.661-3.1-3.499-3.39h-5.131c-1.775 0-3.032 1.51-2.773 3.34 0 0 .293 2.09 1.472 4.07 1.174 1.99 2.667 3.58 4.503 4.79 1.835 1.18 3.935 2.04 6.299 2.55 2.337.52 4.751.79 7.22.79 2.408 0 4.756-.24 7.104-.75 2.304-.46 4.387-1.32 6.189-2.49 1.808-1.21 3.268-2.8 4.387-4.79 1.13-1.97 1.686-4.44 1.686-7.35 0-2.07-.38-3.81-1.151-5.21Zm50.053-2.87c0 3.52.513 6.69 1.549 9.52 1.036 2.85 2.496 5.3 4.42 7.32 1.89 2.02 4.172 3.56 6.834 4.63 2.651 1.09 5.643 1.63 8.967 1.63 3.317 0 6.316-.54 9.011-1.63 2.7-1.07 4.982-2.61 6.889-4.63 1.901-2.02 3.373-4.47 4.398-7.32 1.041-2.83 1.554-6 1.554-9.52 0-3.53-.513-6.74-1.554-9.61-1.031-2.86-2.497-5.29-4.398-7.33-1.902-2.01-4.189-3.58-6.889-4.69-2.695-1.1-5.694-1.66-9.011-1.66-3.324 0-6.316.56-8.967 1.66-2.662 1.12-4.944 2.69-6.834 4.69-1.924 2.04-3.379 4.47-4.42 7.33-1.036 2.87-1.549 6.08-1.549 9.61Zm11.574 0c0-1.78.16-3.5.479-5.2.331-1.72.882-3.21 1.681-4.53a9.659 9.659 0 0 1 3.12-3.2c1.311-.81 2.943-1.25 4.905-1.25 1.951 0 3.587.44 4.932 1.25a9.688 9.688 0 0 1 3.18 3.2c.783 1.32 1.345 2.81 1.665 4.53.33 1.7.474 3.42.474 5.2 0 1.77-.149 3.48-.474 5.15-.32 1.68-.882 3.19-1.665 4.54-.804 1.3-1.852 2.38-3.18 3.18-1.345.79-2.981 1.19-4.932 1.19-1.962 0-3.594-.39-4.905-1.19-1.301-.8-2.337-1.88-3.12-3.18-.799-1.35-1.356-2.86-1.681-4.54a27.759 27.759 0 0 1-.479-5.15Zm-14.616.43c0 2.94-.358 5.77-1.13 8.53-.761 2.72-1.923 5.12-3.467 7.23-1.548 2.1-3.499 3.77-5.786 5.03-2.31 1.24-5.01 1.9-8.113 1.9-2.607 0-4.999-.56-7.209-1.66a13.76 13.76 0 0 1-1.532-.9c-.039-.03-.077-.08-.149-.12-.358-.23-.694-.52-1.041-.84a4.38 4.38 0 0 1-.585-.57c-.76-.88-1.438-1.67-1.835-2.12-.094-.11-.198-.23-.275-.36h-.177v17.54c0 1.85-1.438 3.36-3.191 3.36h-5.175c-1.758 0-3.202-1.51-3.202-3.36v-52.83c0-1.83 1.439-3.35 3.202-3.35h4.602c1.758 0 3.208 1.27 3.208 2.81v2.85h.154c1.422-2.41 3.207-4.14 5.379-5.21 2.182-1.08 4.552-1.63 7.17-1.63 3.307 0 6.173.67 8.565 1.96 2.381 1.32 4.365 3.05 5.957 5.2 1.571 2.17 2.739 4.68 3.5 7.55.772 2.85 1.13 5.88 1.13 8.99Zm-11.568-.33c0-1.8-.16-3.52-.529-5.22-.348-1.7-.937-3.24-1.759-4.56a9.865 9.865 0 0 0-3.141-3.25c-1.268-.81-2.827-1.25-4.679-1.25-1.907 0-3.5.44-4.767 1.25a9.56 9.56 0 0 0-3.103 3.2c-.788 1.32-1.339 2.81-1.676 4.53a28.71 28.71 0 0 0-.485 5.3c0 1.75.177 3.46.535 5.18.342 1.68.926 3.21 1.708 4.47a9.331 9.331 0 0 0 3.136 3.12c1.301.79 2.883 1.19 4.735 1.19 1.884 0 3.488-.39 4.75-1.19a9.333 9.333 0 0 0 3.103-3.12c.788-1.26 1.35-2.79 1.676-4.47.341-1.72.496-3.43.496-5.18Zm91.167 11.48c0 2.22.342 4.01 1.042 5.36.722 1.37 1.692 2.42 2.91 3.17 1.223.71 2.64 1.24 4.244 1.47.799.13 1.614.23 2.469.29l-.039.01h.452c.727.05 1.449.08 2.21.08 1.069 0 3.72-.09 3.797-.09 1.659-.13 2.976-1.58 2.976-3.33v-2.7c0-1.83-1.416-3.33-3.152-3.34h-.998c-1.642-.08-2.777-.4-3.362-1.02-.644-.68-.97-2.07-.97-4.1v-21.82h6.327c1.174 0 2.161-1.02 2.161-2.25v-3.6c0-1.24-.981-2.26-2.161-2.26h-6.327v-9.84c0-1.85-1.444-3.36-3.218-3.36h-5.153c-1.758 0-3.208 1.51-3.208 3.36v43.97Zm-248.955-24c-.943 2.93 1.24 3.9 2.959 3.9h4.79c4.458 0 2.75-3.02 5.5-5.14 1.323-.97 3.097-1.53 5.384-1.53 1.02 0 1.99.07 2.888.23.888.12 1.698.41 2.359.84.689.43 1.224 1.04 1.626 1.79.424.79.606 1.81.606 3.11.066 1.24-.281 2.23-1.053 2.85-.76.67-1.785 1.18-3.102 1.53-1.296.33-2.795.59-4.459.74-1.703.19-3.406.42-5.17.69-1.73.27-3.45.67-5.175 1.16-1.703.48-3.213 1.2-4.552 2.16-1.323.97-2.408 2.28-3.246 3.9-.849 1.6-1.279 3.66-1.279 6.18 0 2.24.364 4.21 1.108 5.87.722 1.64 1.758 3.02 3.064 4.07a11.97 11.97 0 0 0 4.558 2.4c1.747.51 3.599.79 5.627.79 2.601 0 5.17-.4 7.666-1.21 2.497-.78 4.663-2.18 6.509-4.17.061.71.116 1.46.309 2.18.512 2.08 2.97 2.08 2.97 2.08h6.085c2.932 0 2.281-2.28 2.061-4.11a48.534 48.534 0 0 1-.325-5.69v-19.61c0-1.84-.182-4.83-.397-6.68 0 0-.176-1.46-1.306-3.08-1.146-1.64-2.612-2.89-4.404-3.82-1.796-.91-3.769-1.53-5.952-1.83-2.171-.3-4.326-.46-6.437-.46-2.326 0-4.652.24-6.983.72-2.304.49-4.37 1.29-6.222 2.43a14.082 14.082 0 0 0-4.563 4.5c-.645.96-1.07 2.02-1.444 3.21Zm26.107 12.85v1.16c0 1.85-.017 4.07-.061 4.93l-.127 1.15a9.157 9.157 0 0 1-1.113 3.37c-.59 1.11-1.51 2.05-2.761 2.85-1.246.79-3.031 1.2-5.286 1.2-.931 0-1.829-.08-2.689-.26a5.573 5.573 0 0 1-2.309-.89c-.634-.44-1.163-1-1.538-1.73-.386-.75-.568-1.65-.568-2.76 0-1.11.182-2.06.568-2.8.375-.74.882-1.33 1.499-1.84.623-.47 1.361-.84 2.221-1.16.832-.26 1.676-.49 2.563-.65.92-.18 1.841-.34 2.767-.43.931-.12 1.807-.27 2.645-.43.843-.19 1.637-.38 2.375-.65.717-.26 1.34-.61 1.814-1.06Z" fill="#fff"/><mask id="b" style="mask-type:alpha" maskUnits="userSpaceOnUse" x="341" y="3358" width="184" height="67"><path d="M424.637 3359.44c-39.519 5.68-67.103 31.18-82.618 50.17-.266.28-.398.56-.398.84 0 .69.53 1.24 1.193 1.24.266 0 .398 0 .531-.14l.132-.13c16.577-15.53 43.763-37.29 79.303-35.49 13.792.69 26.39 5.27 37.795 12.06 11.802 7.07 33.816 30.36 33.816 30.36 3.581 3.88 8.62 6.23 14.057 6.23 0 0 3.183 0 5.835-.97l1.193-.41c1.592-.7 10.61-5.27 9.283-17.33-.53-4.85-2.785-9.84-7.161-14.14-.928-.83-28.246-33.13-80.231-33.13-4.111.14-8.222.42-12.73.84Z" fill="#000"/></mask><g mask="url(#b)"><path d="M338.838 3356.25h192.288v70.69H338.838v-70.69Z" fill="#fff"/></g><mask id="c" style="mask-type:alpha" maskUnits="userSpaceOnUse" x="341" y="3367" width="35" height="58"><path d="M341.621 3410.31v.14c0 .69.53 1.24 1.193 1.24.531 0 1.061-.41 1.194-.97v-.14c4.509-21.48 7.294-28.97 11.272-29.24 9.15-.42 17.505 42.41 17.505 42.41.132.56.53.83.928.97.531.14 1.194-.14 1.459-.83 0 0 .133-.28 0-.55v-.42c-6.366-42.14-12.598-55.58-17.903-55.58-8.885 0-15.118 37.01-15.648 42.97Z" fill="#000"/></mask><g mask="url(#c)"><path d="M340.166 3364.56h35.805v60.99h-35.805v-60.99Z" fill="#fff"/></g><mask id="d" style="mask-type:alpha" maskUnits="userSpaceOnUse" x="372" y="3291" width="157" height="134"><path d="M443.735 3292.62c-13.261 3.47-23.605 15.39-31.96 27.03-22.544 31.33-35.805 90.38-38.988 103.41-.133.83.265 1.39.928 1.52.531.14 1.194-.13 1.459-.83 1.724-6.93 6.498-23.84 8.752-30.49 7.427-22.46 29.838-63.76 53.974-63.49 31.96.28 47.343 62.24 51.719 79.43 2.122 8.73 9.946 15.25 18.964 15.38 10.874 0 19.759-9.14 19.759-20.51 0-.97-.133-4.02-.796-7.21-1.061-4.71-22.677-105.76-73.467-105.76-3.316.14-6.764.69-10.344 1.52Z" fill="#000"/></mask><g mask="url(#d)"><path d="M370.662 3289.71h159.135v138.62H370.662v-138.62Z" fill="#fff"/><path d="M523.169 3404.07c0 8.46-6.631 15.25-14.721 15.25-8.089 0-14.587-6.93-14.587-15.39 0-8.45 6.631-15.38 14.72-15.25 8.09 0 14.588 6.93 14.588 15.39Z" fill="#0098CD"/></g></g><defs><clipPath id="a"><path fill="#fff" d="M0 0h2480v3508H0z"/></clipPath></defs></svg>