<svg width="213" height="246" viewBox="0 0 213 246" fill="none" xmlns="http://www.w3.org/2000/svg"><path fill-rule="evenodd" clip-rule="evenodd" d="M105.5 0 0 61l105.5 58.5 107-58.5-107-61ZM50 71.5c9.941 0 18-4.701 18-10.5s-8.059-10.5-18-10.5c-9.94 0-18 4.701-18 10.5s8.06 10.5 18 10.5Zm56.5 0c9.941 0 18-4.701 18-10.5s-8.059-10.5-18-10.5c-9.94 0-18 4.701-18 10.5s8.06 10.5 18 10.5Zm56.5 0c9.941 0 18-4.701 18-10.5s-8.059-10.5-18-10.5-18 4.701-18 10.5 8.059 10.5 18 10.5Z" fill="#F3F3FF"/><path fill-rule="evenodd" clip-rule="evenodd" d="M0 184.5 105.5 246V119.5L0 61v123.5Zm59.083 15.229c5.326-3.075 5.417-12.888.203-21.919-5.214-9.03-13.758-13.859-19.084-10.784-5.325 3.075-5.416 12.888-.202 21.919 5.214 9.03 13.758 13.859 19.083 10.784Zm0-58c5.326-3.075 5.417-12.888.203-21.919-5.214-9.03-13.758-13.859-19.084-10.784-5.325 3.075-5.416 12.888-.202 21.919 5.214 9.03 13.758 13.859 19.083 10.784Z" fill="#fff"/><path fill-rule="evenodd" clip-rule="evenodd" d="M212.5 184.5V61l-107 58.5V246l107-61.5Zm-88.173-38.35c5.209 3.007 13.521-1.639 18.566-10.377 5.044-8.738 4.912-18.259-.297-21.267-5.208-3.007-13.52 1.639-18.565 10.377-5.045 8.738-4.912 18.26.296 21.267Zm50.104-28.562c5.208 3.007 13.52-1.639 18.565-10.377 5.045-8.738 4.912-18.26-.296-21.266-5.208-3.007-13.52 1.639-18.565 10.377-5.045 8.738-4.913 18.259.296 21.266Zm0 37c5.208 3.007 13.52-1.639 18.565-10.377 5.045-8.738 4.912-18.259-.296-21.266-5.208-3.007-13.52 1.639-18.565 10.377-5.045 8.738-4.913 18.259.296 21.266Zm0 36c5.208 3.007 13.52-1.639 18.565-10.377 5.045-8.738 4.912-18.259-.296-21.266-5.208-3.007-13.52 1.639-18.565 10.377-5.045 8.738-4.913 18.259.296 21.266Zm-50.104 30c5.209 3.007 13.521-1.639 18.566-10.377 5.044-8.738 4.912-18.259-.297-21.266-5.208-3.007-13.52 1.639-18.565 10.377-5.045 8.738-4.912 18.259.296 21.266Zm.104-37c5.208 3.007 13.52-1.639 18.565-10.377 5.045-8.738 4.912-18.259-.296-21.266-5.208-3.007-13.52 1.639-18.565 10.377-5.045 8.738-4.913 18.259.296 21.266Z" fill="#D2D4FF"/></svg>