<svg width="213" height="246" viewBox="0 0 213 246" fill="none" xmlns="http://www.w3.org/2000/svg">
<path fill-rule="evenodd" clip-rule="evenodd" d="M105.5 0L0 61L105.5 119.5L212.5 61L105.5 0ZM50.0002 71.5C59.9414 71.5 68.0002 66.799 68.0002 61C68.0002 55.201 59.9414 50.5 50.0002 50.5C40.0591 50.5 32.0002 55.201 32.0002 61C32.0002 66.799 40.0591 71.5 50.0002 71.5ZM106.5 71.5C116.441 71.5 124.5 66.799 124.5 61C124.5 55.201 116.441 50.5 106.5 50.5C96.5591 50.5 88.5002 55.201 88.5002 61C88.5002 66.799 96.5591 71.5 106.5 71.5ZM163 71.5C172.941 71.5 181 66.799 181 61C181 55.201 172.941 50.5 163 50.5C153.059 50.5 145 55.201 145 61C145 66.799 153.059 71.5 163 71.5Z" fill="#F3F3FF"/>
<path fill-rule="evenodd" clip-rule="evenodd" d="M0 184.5L105.5 246V119.5L0 61V184.5ZM87.0836 220.995C92.4093 217.92 92.5 208.107 87.2861 199.077C82.0723 190.046 73.5284 185.218 68.2027 188.293C62.8771 191.367 62.7864 201.181 68.0002 210.211C73.214 219.242 81.758 224.07 87.0836 220.995ZM30 117.588C35.3257 114.513 35.4163 104.7 30.2025 95.6693C24.9887 86.6387 16.4448 81.8106 11.1191 84.8854C5.79345 87.9601 5.70278 97.7735 10.9166 106.804C16.1304 115.835 24.6743 120.663 30 117.588Z" fill="white"/>
<path fill-rule="evenodd" clip-rule="evenodd" d="M212.5 184.5V61L105.5 119.5V246L212.5 184.5ZM124.327 146.15C129.536 149.157 137.848 144.511 142.893 135.773C147.937 127.035 147.805 117.514 142.596 114.506C137.388 111.499 129.076 116.145 124.031 124.883C118.986 133.621 119.119 143.143 124.327 146.15ZM174.431 117.588C179.639 120.595 187.951 115.949 192.996 107.211C198.041 98.4732 197.908 88.9519 192.7 85.9448C187.492 82.9377 179.18 87.5836 174.135 96.3216C169.09 105.06 169.222 114.581 174.431 117.588ZM174.431 154.588C179.639 157.595 187.951 152.949 192.996 144.211C198.041 135.473 197.908 125.952 192.7 122.945C187.492 119.938 179.18 124.584 174.135 133.322C169.09 142.06 169.222 151.581 174.431 154.588ZM174.431 190.588C179.639 193.595 187.951 188.949 192.996 180.211C198.041 171.473 197.908 161.952 192.7 158.945C187.492 155.938 179.18 160.584 174.135 169.322C169.09 178.06 169.222 187.581 174.431 190.588ZM124.327 220.588C129.536 223.595 137.848 218.949 142.893 210.211C147.937 201.473 147.805 191.952 142.596 188.945C137.388 185.938 129.076 190.584 124.031 199.322C118.986 208.06 119.119 217.581 124.327 220.588ZM124.431 183.588C129.639 186.595 137.951 181.949 142.996 173.211C148.041 164.473 147.908 154.952 142.7 151.945C137.492 148.938 129.18 153.584 124.135 162.322C119.09 171.06 119.222 180.581 124.431 183.588Z" fill="#D2D4FF"/>
</svg>
