<svg width="1022" height="1774" viewBox="0 0 1022 1774" fill="none" xmlns="http://www.w3.org/2000/svg"><g filter="url(#a)"><path d="M0 90C0 40.294 40.294 0 90 0h832c49.706 0 90 40.294 90 90v1574c0 49.71-40.294 90-90 90H90c-49.706 0-90-40.29-90-90V90Z" fill="#4D413C"/><g filter="url(#b)"><path d="M306.042 224.438v-13h23.5c4.084 0 7.355-.646 9.813-1.938 2.5-1.292 4.333-3.083 5.5-5.375 1.167-2.292 1.75-4.917 1.75-7.875 0-2.833-.583-5.479-1.75-7.938-1.167-2.458-3-4.458-5.5-6-2.458-1.541-5.729-2.312-9.813-2.312h-18.625v78h-16.125v-91h34.75c7.084 0 13.105 1.25 18.063 3.75 4.958 2.5 8.729 5.938 11.312 10.312 2.625 4.376 3.938 9.396 3.938 15.063 0 5.875-1.313 10.937-3.938 15.187-2.583 4.209-6.354 7.459-11.312 9.75-4.958 2.25-10.979 3.376-18.063 3.376h-23.5ZM394.57 258h-15.5v-67.625h14.75l.75 13.25V258Zm20.375-53.375a32.157 32.157 0 0 0-3.063-.375 39.31 39.31 0 0 0-3.125-.125c-3.416 0-6.27.625-8.562 1.875-2.25 1.208-3.958 2.958-5.125 5.25-1.167 2.25-1.854 4.917-2.063 8l-3.562.062c0-5.708.75-10.833 2.25-15.374 1.5-4.542 3.75-8.146 6.75-10.813s6.75-4 11.25-4c.875 0 1.854.083 2.937.25 1.084.167 1.896.354 2.438.563l-.125 14.687Zm9.09 18.937c0-6.583 1.25-12.458 3.75-17.624 2.5-5.167 6.083-9.25 10.75-12.25 4.708-3.042 10.354-4.563 16.937-4.563 6.667 0 12.355 1.521 17.063 4.563 4.708 3 8.292 7.083 10.75 12.25 2.5 5.166 3.75 11.041 3.75 17.624v1.313c0 6.542-1.25 12.417-3.75 17.625-2.458 5.167-6.042 9.25-10.75 12.25-4.667 3-10.313 4.5-16.938 4.5-6.625 0-12.291-1.5-17-4.5-4.708-3-8.312-7.083-10.812-12.25-2.5-5.208-3.75-11.083-3.75-17.625v-1.313Zm15.5 1.313c0 4 .562 7.667 1.687 11 1.125 3.292 2.855 5.937 5.188 7.937 2.375 2 5.437 3 9.187 3 3.709 0 6.73-1 9.063-3 2.375-2 4.104-4.645 5.187-7.937 1.125-3.333 1.688-7 1.688-11v-1.313c0-3.958-.563-7.604-1.688-10.937-1.083-3.333-2.812-6-5.187-8-2.375-2.042-5.438-3.063-9.188-3.063-3.708 0-6.75 1.021-9.125 3.063-2.333 2-4.062 4.667-5.187 8-1.083 3.333-1.625 6.979-1.625 10.937v1.313Zm95.027-23.063h-38.374v-11.437h38.374v11.437Zm-12-28v65.126c0 2.083.292 3.666.876 4.75.583 1.041 1.416 1.75 2.5 2.124 1.083.376 2.333.563 3.75.563 1.041 0 2.041-.063 3-.187.958-.126 1.729-.25 2.312-.376v11.938c-1.25.417-2.708.771-4.375 1.062-1.625.292-3.542.438-5.75.438-3.458 0-6.542-.625-9.25-1.875-2.667-1.25-4.771-3.271-6.313-6.063-1.5-2.833-2.25-6.583-2.25-11.25v-66.25h15.5Zm57.215 85.438c-6.708 0-12.5-1.438-17.375-4.312-4.875-2.917-8.625-6.834-11.25-11.75-2.625-4.959-3.937-10.5-3.937-16.626V224c0-7.042 1.333-13.167 4-18.375 2.667-5.25 6.312-9.313 10.937-12.187 4.667-2.876 9.938-4.313 15.813-4.313 6.5 0 11.896 1.417 16.187 4.25 4.292 2.792 7.5 6.687 9.625 11.687 2.125 4.959 3.188 10.709 3.188 17.25V229h-52.313v-11.188h37v-1.187c-.083-2.625-.583-5.083-1.5-7.375-.916-2.292-2.375-4.146-4.375-5.562-1.958-1.417-4.583-2.126-7.875-2.126-3.291 0-6.062.938-8.312 2.813-2.25 1.833-3.958 4.437-5.125 7.813-1.167 3.333-1.75 7.27-1.75 11.812v2.562c0 3.834.708 7.271 2.125 10.313 1.417 3.042 3.479 5.458 6.187 7.25 2.709 1.75 5.938 2.625 9.688 2.625 3.625 0 6.833-.708 9.625-2.125 2.833-1.417 5.271-3.458 7.312-6.125l8.125 8.125c-2.125 3.208-5.333 6.125-9.625 8.75-4.25 2.583-9.708 3.875-16.375 3.875Zm70.403-12.438c2.417 0 4.604-.479 6.562-1.437 1.959-1 3.521-2.354 4.688-4.063 1.167-1.708 1.812-3.666 1.937-5.874h14.625c-.125 4.458-1.437 8.479-3.937 12.062s-5.813 6.438-9.938 8.562c-4.125 2.126-8.729 3.188-13.812 3.188-6.875 0-12.604-1.521-17.188-4.562-4.541-3.084-7.937-7.188-10.187-12.313-2.25-5.167-3.375-10.875-3.375-17.125v-2.125c0-6.25 1.125-11.937 3.375-17.063 2.25-5.166 5.646-9.27 10.187-12.312 4.584-3.083 10.313-4.625 17.188-4.625 5.458 0 10.229 1.083 14.312 3.25 4.125 2.125 7.355 5.104 9.688 8.937 2.333 3.834 3.562 8.313 3.687 13.438h-14.625c-.125-2.417-.729-4.625-1.812-6.625-1.042-2-2.542-3.583-4.5-4.75-1.917-1.208-4.229-1.813-6.938-1.813-4 0-7.104 1.042-9.312 3.126-2.167 2.083-3.667 4.77-4.5 8.062-.833 3.292-1.25 6.75-1.25 10.375v2.125c0 3.667.396 7.146 1.187 10.438.834 3.291 2.355 5.979 4.563 8.062 2.208 2.042 5.333 3.062 9.375 3.062Zm74.403-45h-38.375v-11.437h38.375v11.437Zm-12-28v65.126c0 2.083.291 3.666.875 4.75.583 1.041 1.416 1.75 2.5 2.124 1.083.376 2.333.563 3.75.563 1.041 0 2.041-.063 3-.187.958-.126 1.729-.25 2.312-.376v11.938c-1.25.417-2.708.771-4.375 1.062-1.625.292-3.542.438-5.75.438-3.458 0-6.542-.625-9.25-1.875-2.667-1.25-4.771-3.271-6.312-6.063-1.5-2.833-2.25-6.583-2.25-11.25v-66.25h15.5ZM200.22 397.875 221.033 355h17.812l-30.5 57.562V446h-16.25v-33.438L161.595 355h17.875l20.75 42.875Zm40.84 13.687c0-6.583 1.25-12.458 3.75-17.624 2.5-5.167 6.083-9.25 10.75-12.25 4.708-3.042 10.354-4.563 16.937-4.563 6.667 0 12.355 1.521 17.063 4.563 4.708 3 8.292 7.083 10.75 12.25 2.5 5.166 3.75 11.041 3.75 17.624v1.313c0 6.542-1.25 12.417-3.75 17.625-2.458 5.167-6.042 9.25-10.75 12.25-4.667 3-10.313 4.5-16.938 4.5-6.625 0-12.291-1.5-17-4.5-4.708-3-8.312-7.083-10.812-12.25-2.5-5.208-3.75-11.083-3.75-17.625v-1.313Zm15.5 1.313c0 4 .562 7.667 1.687 11 1.125 3.292 2.855 5.937 5.188 7.937 2.375 2 5.437 3 9.187 3 3.709 0 6.73-1 9.063-3 2.375-2 4.104-4.645 5.187-7.937 1.125-3.333 1.688-7 1.688-11v-1.313c0-3.958-.563-7.604-1.688-10.937-1.083-3.333-2.812-6-5.187-8-2.375-2.042-5.438-3.063-9.188-3.063-3.708 0-6.75 1.021-9.125 3.063-2.333 2-4.062 4.667-5.187 8-1.083 3.333-1.625 6.979-1.625 10.937v1.313Zm104.465-34.5h15.5V446H361.9l-.875-16v-51.625Zm7.312 37.375c0 6.083-.895 11.5-2.687 16.25-1.792 4.708-4.583 8.438-8.375 11.188-3.792 2.708-8.708 4.062-14.75 4.062-6.667 0-12.063-1.958-16.188-5.875-4.125-3.917-6.187-10.354-6.187-19.313v-43.687h15.5v43.813c0 3.124.479 5.604 1.437 7.437 1 1.792 2.313 3.063 3.938 3.813s3.417 1.124 5.375 1.124c4.208 0 7.521-.812 9.937-2.437 2.459-1.667 4.209-3.917 5.25-6.75 1.042-2.833 1.563-6 1.563-9.5l5.187-.125ZM411.115 446h-15.5v-67.625h14.75l.75 13.25V446Zm20.375-53.375a32.175 32.175 0 0 0-3.062-.375 39.348 39.348 0 0 0-3.125-.125c-3.417 0-6.271.625-8.563 1.875-2.25 1.208-3.958 2.958-5.125 5.25-1.167 2.25-1.854 4.917-2.062 8l-3.563.062c0-5.708.75-10.833 2.25-15.374 1.5-4.542 3.75-8.146 6.75-10.813s6.75-4 11.25-4c.875 0 1.854.083 2.938.25 1.083.167 1.895.354 2.437.563l-.125 14.687Zm123.368 10.25c0 9.208-1.584 17.125-4.75 23.75-3.167 6.625-7.584 11.729-13.25 15.313-5.625 3.541-12.23 5.312-19.813 5.312-7.417 0-14-1.771-19.75-5.312-5.708-3.584-10.187-8.688-13.437-15.313-3.209-6.625-4.813-14.542-4.813-23.75v-4.687c0-9.209 1.604-17.126 4.813-23.75 3.208-6.667 7.666-11.771 13.375-15.313 5.708-3.583 12.27-5.375 19.687-5.375 7.583 0 14.208 1.792 19.875 5.375 5.667 3.542 10.083 8.646 13.25 15.313 3.208 6.624 4.813 14.541 4.813 23.75v4.687Zm-16.188-4.813c0-6.708-.854-12.354-2.562-16.937-1.709-4.625-4.188-8.104-7.438-10.437-3.25-2.376-7.167-3.563-11.75-3.563-4.5 0-8.375 1.187-11.625 3.563-3.208 2.333-5.687 5.812-7.437 10.437-1.709 4.583-2.563 10.229-2.563 16.937v4.813c0 6.708.875 12.375 2.625 17s4.25 8.125 7.5 10.5 7.125 3.563 11.625 3.563c4.625 0 8.542-1.188 11.75-3.563 3.25-2.375 5.708-5.875 7.375-10.5 1.667-4.625 2.5-10.292 2.5-17v-4.813Zm61.84 36.75c2.417 0 4.604-.479 6.563-1.437 1.958-1 3.52-2.354 4.687-4.063 1.167-1.708 1.813-3.666 1.938-5.874h14.625c-.125 4.458-1.438 8.479-3.938 12.062s-5.812 6.438-9.937 8.562c-4.125 2.126-8.73 3.188-13.813 3.188-6.875 0-12.604-1.521-17.187-4.562-4.542-3.084-7.938-7.188-10.188-12.313-2.25-5.167-3.375-10.875-3.375-17.125v-2.125c0-6.25 1.125-11.937 3.375-17.063 2.25-5.166 5.646-9.27 10.188-12.312 4.583-3.083 10.312-4.625 17.187-4.625 5.458 0 10.229 1.083 14.313 3.25 4.125 2.125 7.354 5.104 9.687 8.937 2.333 3.834 3.563 8.313 3.688 13.438h-14.625c-.125-2.417-.73-4.625-1.813-6.625-1.042-2-2.542-3.583-4.5-4.75-1.917-1.208-4.229-1.813-6.937-1.813-4 0-7.105 1.042-9.313 3.126-2.167 2.083-3.667 4.77-4.5 8.062-.833 3.292-1.25 6.75-1.25 10.375v2.125c0 3.667.396 7.146 1.188 10.438.833 3.291 2.354 5.979 4.562 8.062 2.208 2.042 5.333 3.062 9.375 3.062Zm73.028 12.438c-6.709 0-12.5-1.438-17.375-4.312-4.875-2.917-8.625-6.834-11.25-11.75-2.625-4.959-3.938-10.5-3.938-16.626V412c0-7.042 1.333-13.167 4-18.375 2.667-5.25 6.313-9.313 10.938-12.187 4.666-2.876 9.937-4.313 15.812-4.313 6.5 0 11.896 1.417 16.188 4.25 4.291 2.792 7.5 6.687 9.625 11.687 2.125 4.959 3.187 10.709 3.187 17.25V417h-52.312v-11.188h37v-1.187c-.084-2.625-.584-5.083-1.5-7.375-.917-2.292-2.375-4.146-4.375-5.562-1.959-1.417-4.584-2.126-7.875-2.126-3.292 0-6.063.938-8.313 2.813-2.25 1.833-3.958 4.437-5.125 7.813-1.167 3.333-1.75 7.27-1.75 11.812v2.562c0 3.834.708 7.271 2.125 10.313 1.417 3.042 3.479 5.458 6.188 7.25 2.708 1.75 5.937 2.625 9.687 2.625 3.625 0 6.833-.708 9.625-2.125 2.833-1.417 5.271-3.458 7.313-6.125l8.125 8.125c-2.125 3.208-5.334 6.125-9.625 8.75-4.25 2.583-9.709 3.875-16.375 3.875Zm80.589-46.938c0-3.5-.979-6.291-2.937-8.374-1.917-2.084-4.833-3.126-8.75-3.126-2.333 0-4.375.417-6.125 1.25-1.75.792-3.104 1.876-4.063 3.25-.958 1.376-1.437 2.938-1.437 4.688h-15.5c0-3.625 1.146-7.021 3.437-10.188 2.292-3.208 5.521-5.791 9.688-7.75 4.208-1.958 9.167-2.937 14.875-2.937 5.083 0 9.604.854 13.562 2.563 3.959 1.708 7.063 4.291 9.313 7.75 2.292 3.458 3.437 7.791 3.437 13v29.812c0 3.167.23 5.958.688 8.375.458 2.417 1.104 4.521 1.937 6.313V446h-15.875c-.708-1.625-1.27-3.729-1.687-6.312a52.638 52.638 0 0 1-.563-7.563v-31.813Zm2.375 14.063h-10.625c-5.5 0-9.645 1.021-12.437 3.063-2.75 2-4.125 4.729-4.125 8.187 0 2.667.917 4.896 2.75 6.687 1.833 1.75 4.417 2.626 7.75 2.626 3.042 0 5.687-.605 7.937-1.813 2.292-1.25 4.084-2.771 5.375-4.563 1.292-1.833 1.959-3.541 2-5.124l4.938 6.937c-.5 1.708-1.354 3.542-2.563 5.5-1.166 1.917-2.729 3.75-4.687 5.5-1.917 1.708-4.208 3.125-6.875 4.25-2.625 1.083-5.688 1.625-9.188 1.625-4.416 0-8.354-.875-11.812-2.625s-6.188-4.146-8.188-7.187c-1.958-3.084-2.937-6.542-2.937-10.376 0-7.166 2.687-12.666 8.062-16.5 5.375-3.833 13-5.75 22.875-5.75h11.625l.125 9.563ZM804.468 446h-15.5v-67.625h14.562l.938 14.437V446Zm-7.75-36.188c.041-6.541 1.187-12.25 3.437-17.124 2.25-4.917 5.396-8.73 9.438-11.438 4.041-2.75 8.75-4.125 14.125-4.125 4.375 0 8.166.833 11.375 2.5 3.208 1.625 5.708 4.292 7.5 8 1.791 3.667 2.687 8.604 2.687 14.813V446h-15.562v-43.688c0-3.124-.459-5.604-1.375-7.437-.875-1.833-2.209-3.125-4-3.875-1.75-.792-3.896-1.188-6.438-1.188-2.583 0-4.875.521-6.875 1.563-1.958 1-3.646 2.417-5.062 4.25-1.375 1.833-2.438 3.958-3.188 6.375-.708 2.417-1.062 5-1.062 7.75l-5 .062Z" fill="#EDEDED"/></g><g filter="url(#c)"><path d="M216.408 1388h-48.063v-12.94h48.063V1388Zm-43.563 0H156.72v-91h16.125v91Zm37.25-40.5h-41.75v-12.75h41.75v12.75Zm6-37.5h-47.75v-13h47.75v13Zm30.715 78h-15.5v-67.62h14.562l.938 14.43V1388Zm-7.75-36.19c.042-6.54 1.187-12.25 3.437-17.12 2.25-4.92 5.396-8.73 9.438-11.44 4.042-2.75 8.75-4.13 14.125-4.13 4.375 0 8.167.84 11.375 2.5 3.208 1.63 5.708 4.3 7.5 8 1.792 3.67 2.687 8.61 2.687 14.82V1388H272.06v-43.69c0-3.12-.458-5.6-1.375-7.43-.875-1.84-2.208-3.13-4-3.88-1.75-.79-3.896-1.19-6.438-1.19-2.583 0-4.875.52-6.875 1.57-1.958 1-3.645 2.41-5.062 4.24-1.375 1.84-2.438 3.96-3.188 6.38-.708 2.42-1.062 5-1.062 7.75l-5 .06ZM347.775 1292h15.5v96h-14.063l-1.437-14.19V1292Zm-43.875 61.62c0-6.83 1.062-12.83 3.187-18 2.167-5.2 5.23-9.24 9.188-12.12 3.958-2.92 8.708-4.38 14.25-4.38 5.458 0 10.021 1.42 13.687 4.26 3.667 2.83 6.542 6.77 8.625 11.81 2.125 5 3.542 10.81 4.25 17.43v3.63c-.708 6.42-2.104 12.1-4.187 17.06-2.083 4.96-4.979 8.86-8.688 11.69-3.666 2.83-8.27 4.25-13.812 4.25-5.458 0-10.167-1.48-14.125-4.44-3.958-3-7.021-7.08-9.188-12.25-2.125-5.16-3.187-11.04-3.187-17.62v-1.32Zm15.5 1.32c0 4 .5 7.64 1.5 10.94 1 3.24 2.583 5.85 4.75 7.81 2.208 1.91 5.104 2.87 8.687 2.87 3.375 0 6.146-.73 8.313-2.18 2.208-1.5 3.917-3.53 5.125-6.07 1.25-2.54 2.104-5.39 2.562-8.56v-10.56c-.291-2.5-.812-4.81-1.562-6.94-.75-2.13-1.771-3.96-3.063-5.5-1.25-1.54-2.812-2.75-4.687-3.63-1.875-.87-4.063-1.31-6.563-1.31-3.583 0-6.5.98-8.75 2.94-2.208 1.92-3.812 4.54-4.812 7.87-1 3.3-1.5 6.96-1.5 11v1.32Zm101.34-12.63c0-3.5-.979-6.29-2.938-8.37-1.916-2.09-4.833-3.13-8.75-3.13-2.333 0-4.375.42-6.125 1.25-1.75.79-3.104 1.88-4.062 3.25-.958 1.38-1.438 2.94-1.438 4.69h-15.5c0-3.62 1.146-7.02 3.438-10.19 2.292-3.21 5.521-5.79 9.687-7.75 4.209-1.96 9.167-2.94 14.875-2.94 5.084 0 9.605.86 13.563 2.57s7.062 4.29 9.312 7.75c2.292 3.46 3.438 7.79 3.438 13v29.81c0 3.17.229 5.96.687 8.37.459 2.42 1.105 4.53 1.938 6.32v1.06H422.99c-.708-1.62-1.271-3.73-1.688-6.31a52.772 52.772 0 0 1-.562-7.57v-31.81Zm2.375 14.07H412.49c-5.5 0-9.646 1.02-12.438 3.06-2.75 2-4.125 4.73-4.125 8.18 0 2.67.917 4.9 2.75 6.69 1.834 1.75 4.417 2.63 7.75 2.63 3.042 0 5.688-.61 7.938-1.82 2.292-1.24 4.083-2.77 5.375-4.56 1.292-1.83 1.958-3.54 2-5.12l4.937 6.94c-.5 1.7-1.354 3.54-2.562 5.5-1.167 1.91-2.729 3.74-4.688 5.5-1.916 1.7-4.208 3.12-6.875 4.24-2.625 1.09-5.687 1.63-9.187 1.63-4.417 0-8.354-.87-11.813-2.63-3.458-1.74-6.187-4.14-8.187-7.18-1.958-3.09-2.938-6.54-2.938-10.38 0-7.16 2.688-12.66 8.063-16.5 5.375-3.83 13-5.75 22.875-5.75h11.625l.125 9.57ZM471.08 1388h-15.5v-67.62h14.562l.938 14.43V1388Zm-7.75-36.19c.042-6.54 1.187-12.25 3.437-17.12 2.25-4.92 5.396-8.73 9.438-11.44 4.042-2.75 8.75-4.13 14.125-4.13 4.375 0 8.167.84 11.375 2.5 3.208 1.63 5.708 4.3 7.5 8 1.792 3.67 2.687 8.61 2.687 14.82V1388H496.33v-43.69c0-3.12-.458-5.6-1.375-7.43-.875-1.84-2.208-3.13-4-3.88-1.75-.79-3.896-1.19-6.438-1.19-2.583 0-4.875.52-6.875 1.57-1.958 1-3.645 2.41-5.062 4.24-1.375 1.84-2.438 3.96-3.188 6.38-.708 2.42-1.062 5-1.062 7.75l-5 .06Zm124.965-31.43v65.68c0 6.09-1.312 11.25-3.937 15.5-2.625 4.29-6.271 7.54-10.938 9.75-4.625 2.21-10 3.31-16.125 3.31-2.583 0-5.458-.37-8.625-1.12-3.125-.71-6.167-1.88-9.125-3.5s-5.437-3.75-7.437-6.38l7.25-9.37c2.416 2.79 5.062 4.85 7.937 6.19a21.362 21.362 0 0 0 9.188 2.06c5.041 0 9-1.4 11.875-4.19 2.916-2.79 4.375-6.79 4.375-12v-50.56l1.437-15.37h14.125Zm-60 33.24c0-6.83 1.083-12.83 3.25-18 2.208-5.2 5.333-9.24 9.375-12.12 4.083-2.92 8.917-4.38 14.5-4.38 4.417 0 8.188.82 11.313 2.44 3.125 1.59 5.708 3.88 7.75 6.88 2.083 2.96 3.708 6.5 4.875 10.62 1.208 4.09 2.104 8.61 2.687 13.56v3.63c-.75 6.42-2.146 12.1-4.187 17.06-2.042 4.96-4.917 8.86-8.625 11.69-3.667 2.83-8.313 4.25-13.938 4.25-5.5 0-10.271-1.48-14.312-4.44-4.042-3-7.167-7.08-9.375-12.25-2.209-5.16-3.313-11.04-3.313-17.62v-1.32Zm15.5 1.32c0 4 .542 7.64 1.625 10.94 1.083 3.24 2.75 5.85 5 7.81 2.292 1.91 5.229 2.87 8.813 2.87 3.5 0 6.354-.73 8.562-2.18 2.208-1.5 3.917-3.53 5.125-6.07 1.25-2.54 2.104-5.39 2.563-8.56v-10.56c-.25-2.5-.75-4.81-1.5-6.94-.709-2.13-1.73-3.96-3.063-5.5-1.292-1.54-2.896-2.75-4.812-3.63-1.917-.87-4.167-1.31-6.75-1.31-3.584 0-6.521.98-8.813 2.94-2.292 1.92-4 4.54-5.125 7.87-1.083 3.3-1.625 6.96-1.625 11v1.32Zm93.59 34.31c-6.708 0-12.5-1.44-17.375-4.31-4.875-2.92-8.625-6.84-11.25-11.75-2.625-4.96-3.937-10.5-3.937-16.63V1354c0-7.04 1.333-13.17 4-18.38 2.666-5.24 6.312-9.31 10.937-12.18 4.667-2.88 9.938-4.32 15.813-4.32 6.5 0 11.895 1.42 16.187 4.26 4.292 2.79 7.5 6.68 9.625 11.68 2.125 4.96 3.188 10.71 3.188 17.25v6.69H612.26v-11.19h37v-1.19c-.083-2.62-.583-5.08-1.5-7.37s-2.375-4.15-4.375-5.56c-1.958-1.42-4.583-2.13-7.875-2.13s-6.062.94-8.312 2.82c-2.25 1.83-3.959 4.43-5.125 7.81-1.167 3.33-1.75 7.27-1.75 11.81v2.56c0 3.84.708 7.27 2.125 10.32 1.416 3.04 3.479 5.45 6.187 7.24 2.708 1.76 5.938 2.63 9.688 2.63 3.625 0 6.833-.71 9.625-2.13 2.833-1.41 5.27-3.45 7.312-6.12l8.125 8.12c-2.125 3.21-5.333 6.13-9.625 8.76-4.25 2.58-9.708 3.87-16.375 3.87Zm58.152-1.25h-15.5v-67.62h14.75l.75 13.24V1388Zm20.375-53.38c-.958-.16-1.979-.29-3.062-.37a40.81 40.81 0 0 0-3.125-.13c-3.417 0-6.271.63-8.563 1.88-2.25 1.21-3.958 2.96-5.125 5.25-1.166 2.25-1.854 4.92-2.062 8l-3.563.06c0-5.71.75-10.83 2.25-15.37 1.5-4.54 3.75-8.15 6.75-10.82 3-2.66 6.75-4 11.25-4 .875 0 1.855.09 2.938.26 1.083.16 1.896.35 2.437.56l-.125 14.68Zm43.278 54.63c-6.708 0-12.5-1.44-17.375-4.31-4.875-2.92-8.625-6.84-11.25-11.75-2.625-4.96-3.938-10.5-3.938-16.63V1354c0-7.04 1.334-13.17 4-18.38 2.667-5.24 6.313-9.31 10.938-12.18 4.667-2.88 9.937-4.32 15.812-4.32 6.5 0 11.896 1.42 16.188 4.26 4.292 2.79 7.5 6.68 9.625 11.68 2.125 4.96 3.187 10.71 3.187 17.25v6.69h-52.312v-11.19h37v-1.19c-.083-2.62-.583-5.08-1.5-7.37s-2.375-4.15-4.375-5.56c-1.958-1.42-4.583-2.13-7.875-2.13s-6.063.94-8.313 2.82c-2.25 1.83-3.958 4.43-5.125 7.81-1.166 3.33-1.75 7.27-1.75 11.81v2.56c0 3.84.709 7.27 2.125 10.32 1.417 3.04 3.48 5.45 6.188 7.24 2.708 1.76 5.937 2.63 9.687 2.63 3.625 0 6.834-.71 9.625-2.13 2.834-1.41 5.271-3.45 7.313-6.12l8.125 8.12c-2.125 3.21-5.333 6.13-9.625 8.76-4.25 2.58-9.708 3.87-16.375 3.87Zm83.715-97.25h15.5v96h-14.062l-1.438-14.19V1292Zm-43.875 61.62c0-6.83 1.063-12.83 3.188-18 2.166-5.2 5.229-9.24 9.187-12.12 3.958-2.92 8.708-4.38 14.25-4.38 5.458 0 10.021 1.42 13.688 4.26 3.666 2.83 6.541 6.77 8.625 11.81 2.125 5 3.541 10.81 4.25 17.43v3.63c-.709 6.42-2.105 12.1-4.188 17.06-2.083 4.96-4.979 8.86-8.687 11.69-3.667 2.83-8.271 4.25-13.813 4.25-5.458 0-10.167-1.48-14.125-4.44-3.958-3-7.021-7.08-9.187-12.25-2.125-5.16-3.188-11.04-3.188-17.62v-1.32Zm15.5 1.32c0 4 .5 7.64 1.5 10.94 1 3.24 2.583 5.85 4.75 7.81 2.208 1.91 5.104 2.87 8.688 2.87 3.375 0 6.145-.73 8.312-2.18 2.208-1.5 3.917-3.53 5.125-6.07 1.25-2.54 2.104-5.39 2.563-8.56v-10.56c-.292-2.5-.813-4.81-1.563-6.94-.75-2.13-1.771-3.96-3.062-5.5-1.25-1.54-2.813-2.75-4.688-3.63-1.875-.87-4.062-1.31-6.562-1.31-3.584 0-6.5.98-8.75 2.94-2.209 1.92-3.813 4.54-4.813 7.87-1 3.3-1.5 6.96-1.5 11v1.32ZM117.307 1576H71.683v-12.94h45.624V1576Zm-41.124 0H60.056v-91h16.126v91Zm85.464 1.25c-6.708 0-12.5-1.44-17.375-4.31-4.875-2.92-8.625-6.84-11.25-11.75-2.625-4.96-3.937-10.5-3.937-16.63V1542c0-7.04 1.333-13.17 4-18.38 2.667-5.24 6.312-9.31 10.937-12.18 4.667-2.88 9.938-4.32 15.813-4.32 6.5 0 11.896 1.42 16.187 4.26 4.292 2.79 7.5 6.68 9.625 11.68 2.125 4.96 3.188 10.71 3.188 17.25v6.69h-52.313v-11.19h37v-1.19c-.083-2.62-.583-5.08-1.5-7.37-.916-2.29-2.375-4.15-4.375-5.56-1.958-1.42-4.583-2.13-7.875-2.13-3.291 0-6.062.94-8.312 2.82-2.25 1.83-3.958 4.43-5.125 7.81-1.167 3.33-1.75 7.27-1.75 11.81v2.56c0 3.84.708 7.27 2.125 10.32 1.417 3.04 3.479 5.45 6.187 7.24 2.709 1.76 5.938 2.63 9.688 2.63 3.625 0 6.833-.71 9.625-2.13 2.833-1.41 5.271-3.45 7.312-6.12l8.125 8.12c-2.125 3.21-5.333 6.13-9.625 8.76-4.25 2.58-9.708 3.87-16.375 3.87Zm79.965-68.87h16.063L234.3 1576h-10l1-12.25 16.312-55.37Zm-11.937 55.56.75 12.06h-9.938l-23.562-67.62h16.125l16.625 55.56Zm71.028 13.31c-6.709 0-12.5-1.44-17.375-4.31-4.875-2.92-8.625-6.84-11.25-11.75-2.625-4.96-3.938-10.5-3.938-16.63V1542c0-7.04 1.333-13.17 4-18.38 2.667-5.24 6.313-9.31 10.938-12.18 4.666-2.88 9.937-4.32 15.812-4.32 6.5 0 11.896 1.42 16.188 4.26 4.291 2.79 7.5 6.68 9.625 11.68 2.125 4.96 3.187 10.71 3.187 17.25v6.69h-52.312v-11.19h37v-1.19c-.084-2.62-.584-5.08-1.5-7.37-.917-2.29-2.375-4.15-4.375-5.56-1.959-1.42-4.584-2.13-7.875-2.13-3.292 0-6.063.94-8.313 2.82-2.25 1.83-3.958 4.43-5.125 7.81-1.167 3.33-1.75 7.27-1.75 11.81v2.56c0 3.84.708 7.27 2.125 10.32 1.417 3.04 3.479 5.45 6.188 7.24 2.708 1.76 5.937 2.63 9.687 2.63 3.625 0 6.833-.71 9.625-2.13 2.833-1.41 5.271-3.45 7.313-6.12l8.125 8.12c-2.125 3.21-5.334 6.13-9.625 8.76-4.25 2.58-9.709 3.87-16.375 3.87Zm59.152-1.25h-15.5v-96h15.5v96Zm96.555 0h-15.562v-72.69l-22.188 7.44v-13l35.813-13.06h1.937V1576Zm133.242-40.25h-47.875v-13h47.875v13ZM545.777 1576h-16.125v-91h16.125v91Zm56.313 0h-16.063v-91h16.063v91Zm58.777-45.69c0-3.5-.979-6.29-2.937-8.37-1.917-2.09-4.833-3.13-8.75-3.13-2.333 0-4.375.42-6.125 1.25-1.75.79-3.104 1.88-4.063 3.25-.958 1.38-1.437 2.94-1.437 4.69h-15.5c0-3.62 1.146-7.02 3.437-10.19 2.292-3.21 5.521-5.79 9.688-7.75 4.208-1.96 9.167-2.94 14.875-2.94 5.083 0 9.604.86 13.562 2.57 3.959 1.71 7.063 4.29 9.313 7.75 2.292 3.46 3.437 7.79 3.437 13v29.81c0 3.17.23 5.96.688 8.37.458 2.42 1.104 4.53 1.937 6.32v1.06h-15.875c-.708-1.62-1.27-3.73-1.687-6.31a52.776 52.776 0 0 1-.563-7.57v-31.81Zm2.375 14.07h-10.625c-5.5 0-9.645 1.02-12.437 3.06-2.75 2-4.125 4.73-4.125 8.18 0 2.67.917 4.9 2.75 6.69 1.833 1.75 4.417 2.63 7.75 2.63 3.042 0 5.687-.61 7.937-1.82 2.292-1.24 4.084-2.77 5.375-4.56 1.292-1.83 1.959-3.54 2-5.12l4.938 6.94c-.5 1.7-1.354 3.54-2.563 5.5-1.166 1.91-2.729 3.74-4.687 5.5-1.917 1.7-4.208 3.12-6.875 4.24-2.625 1.09-5.688 1.63-9.188 1.63-4.416 0-8.354-.87-11.812-2.63-3.458-1.74-6.188-4.14-8.188-7.18-1.958-3.09-2.937-6.54-2.937-10.38 0-7.16 2.687-12.66 8.062-16.5 5.375-3.83 13-5.75 22.875-5.75h11.625l.125 9.57Zm48.153-64.38v81.38l-1.5 14.62h-14v-96h15.5Zm44 62.88c0 6.66-1 12.58-3 17.74-1.958 5.17-4.896 9.23-8.812 12.19-3.875 2.96-8.709 4.44-14.5 4.44-5.625 0-10.292-1.42-14-4.25-3.667-2.83-6.521-6.73-8.563-11.69-2-5-3.375-10.75-4.125-17.25v-3.68c.75-6.55 2.125-12.3 4.125-17.26 2.042-5 4.896-8.91 8.563-11.74 3.666-2.84 8.291-4.26 13.875-4.26 5.833 0 10.708 1.46 14.625 4.38 3.916 2.92 6.854 6.96 8.812 12.12 2 5.17 3 11.15 3 17.94v1.32Zm-15.5-1.32c0-3.96-.458-7.58-1.375-10.87-.875-3.29-2.396-5.92-4.562-7.88-2.125-2-5.084-3-8.875-3-2.625 0-4.875.44-6.75 1.31-1.875.88-3.459 2.09-4.75 3.63-1.25 1.54-2.23 3.35-2.938 5.44-.708 2.08-1.187 4.33-1.437 6.75v10.62c.375 3.13 1.145 5.98 2.312 8.56 1.167 2.59 2.875 4.65 5.125 6.19 2.25 1.5 5.104 2.25 8.563 2.25 3.708 0 6.625-.96 8.75-2.87 2.125-1.92 3.645-4.5 4.562-7.75.917-3.29 1.375-6.98 1.375-11.06v-1.32Zm48.34 34.44h-15.5v-67.62h15.5V1576Zm-16.5-85.31c0-2.38.771-4.34 2.312-5.88 1.542-1.58 3.688-2.37 6.438-2.37 2.75 0 4.917.79 6.5 2.37 1.583 1.54 2.375 3.5 2.375 5.88 0 2.33-.792 4.29-2.375 5.87-1.583 1.54-3.75 2.32-6.5 2.32s-4.896-.78-6.438-2.32c-1.541-1.58-2.312-3.54-2.312-5.87Zm68.028 29.12h-38.375v-11.43h38.375v11.43Zm-12-28v65.13c0 2.08.291 3.66.875 4.75.583 1.04 1.416 1.75 2.5 2.12 1.083.38 2.333.57 3.75.57 1.041 0 2.041-.07 3-.19.958-.13 1.729-.25 2.312-.38v11.94c-1.25.42-2.708.77-4.375 1.06-1.625.29-3.542.44-5.75.44-3.458 0-6.542-.63-9.25-1.87-2.667-1.26-4.771-3.28-6.312-6.07-1.5-2.83-2.25-6.58-2.25-11.25v-66.25h15.5Zm65.214 38.5c0-3.5-.979-6.29-2.937-8.37-1.917-2.09-4.833-3.13-8.75-3.13-2.333 0-4.375.42-6.125 1.25-1.75.79-3.104 1.88-4.063 3.25-.958 1.38-1.437 2.94-1.437 4.69h-15.5c0-3.62 1.146-7.02 3.437-10.19 2.292-3.21 5.521-5.79 9.688-7.75 4.208-1.96 9.167-2.94 14.875-2.94 5.083 0 9.604.86 13.562 2.57 3.959 1.71 7.063 4.29 9.313 7.75 2.292 3.46 3.437 7.79 3.437 13v29.81c0 3.17.23 5.96.688 8.37.458 2.42 1.104 4.53 1.937 6.32v1.06h-15.875c-.708-1.62-1.27-3.73-1.687-6.31a52.776 52.776 0 0 1-.563-7.57v-31.81Zm2.375 14.07h-10.625c-5.5 0-9.645 1.02-12.437 3.06-2.75 2-4.125 4.73-4.125 8.18 0 2.67.917 4.9 2.75 6.69 1.833 1.75 4.417 2.63 7.75 2.63 3.042 0 5.687-.61 7.937-1.82 2.292-1.24 4.084-2.77 5.375-4.56 1.292-1.83 1.959-3.54 2-5.12l4.938 6.94c-.5 1.7-1.354 3.54-2.563 5.5-1.166 1.91-2.729 3.74-4.687 5.5-1.917 1.7-4.208 3.12-6.875 4.24-2.625 1.09-5.688 1.63-9.188 1.63-4.416 0-8.354-.87-11.812-2.63-3.458-1.74-6.188-4.14-8.188-7.18-1.958-3.09-2.937-6.54-2.937-10.38 0-7.16 2.687-12.66 8.062-16.5 5.375-3.83 13-5.75 22.875-5.75h11.625l.125 9.57Zm63.966-24.57h-38.375v-11.43h38.375v11.43Zm-12-28v65.13c0 2.08.291 3.66.875 4.75.583 1.04 1.416 1.75 2.5 2.12 1.083.38 2.333.57 3.75.57 1.041 0 2.041-.07 3-.19.958-.13 1.729-.25 2.312-.38v11.94c-1.25.42-2.708.77-4.375 1.06-1.625.29-3.542.44-5.75.44-3.458 0-6.542-.63-9.25-1.87-2.667-1.26-4.771-3.28-6.312-6.07-1.5-2.83-2.25-6.58-2.25-11.25v-66.25h15.5Z" fill="#EDEDED"/></g><g filter="url(#d)"><rect x="207" y="552" width="600" height="650" rx="65" stroke="#EDEDED" stroke-width="50" shape-rendering="crispEdges"/></g><mask id="e" style="mask-type:luminance" maskUnits="userSpaceOnUse" x="182" y="527" width="650" height="700"><rect x="207" y="552" width="600" height="650" rx="65" stroke="#D9D9D9" stroke-width="50"/></mask><g mask="url(#e)" fill="#EDEDED"><path d="M745 564h51v627h-51z"/><path d="M787 1140v51H228v-51z"/></g><rect x="231" y="577" width="550" height="600" rx="40" fill="#765242"/><mask id="f" style="mask-type:alpha" maskUnits="userSpaceOnUse" x="232" y="577" width="550" height="600"><rect x="232" y="577" width="550" height="600" rx="40" fill="#765242"/></mask><g mask="url(#f)"><path d="M506 614c-7.278 16.827-13.792 33.937-19.613 51.064h39.226C519.792 647.937 513.278 630.827 506 614Zm65 454.59H441v35.71h130v-35.71Z" fill="#EDEDED"/><path d="M441 1140h130v-35.7H441v35.7Zm0-218.786v147.376h130V921.214c0-44.988-9.616-150.901-45.387-256.15h-39.226C450.616 770.313 441 876.226 441 921.214Z" fill="#6F9FC4"/><path d="M646 614c-7.278 16.827-13.792 33.937-19.613 51.064h39.226C659.792 647.937 653.278 630.827 646 614Zm65 454.59H581v35.71h130v-35.71Z" fill="#EDEDED"/><path d="M581 1140h130v-35.7H581v35.7Zm0-218.786v147.376h130V921.214c0-44.988-9.616-150.901-45.387-256.15h-39.226C590.616 770.313 581 876.226 581 921.214Z" fill="#6F9FC4"/><path d="M366 614c-7.278 16.827-13.792 33.937-19.613 51.064h39.226C379.792 647.937 373.278 630.827 366 614Zm65 454.59H301v35.71h130v-35.71Z" fill="#EDEDED"/><path d="M301 1140h130v-35.7H301v35.7Zm0-218.786v147.376h130V921.214c0-44.988-9.616-150.901-45.387-256.15h-39.226C310.616 770.313 301 876.226 301 921.214Z" fill="#6F9FC4"/><path d="M784.179 1175.5 237.714 587" stroke="#F35355" stroke-width="50" stroke-linecap="round"/></g><g filter="url(#g)"><circle cx="506" cy="93" r="31" fill="#EDEDED"/></g><g filter="url(#h)"><circle cx="506" cy="1661" r="31" fill="#EDEDED"/></g><g filter="url(#i)"><circle cx="506" cy="575" r="24" fill="#EDEDED"/></g><g filter="url(#j)"><circle cx="507" cy="1179" r="24" fill="#EDEDED"/></g></g><defs><filter id="a" x="0" y="0" width="1022" height="1774" filterUnits="userSpaceOnUse" color-interpolation-filters="sRGB"><feFlood flood-opacity="0" result="BackgroundImageFix"/><feColorMatrix in="SourceAlpha" values="0 0 0 0 0 0 0 0 0 0 0 0 0 0 0 0 0 0 127 0" result="hardAlpha"/><feOffset dx="10" dy="20"/><feComposite in2="hardAlpha" operator="out"/><feColorMatrix values="0 0 0 0 0 0 0 0 0 0 0 0 0 0 0 0 0 0 0.25 0"/><feBlend mode="multiply" in2="BackgroundImageFix" result="effect1_dropShadow_509_9"/><feBlend in="SourceGraphic" in2="effect1_dropShadow_509_9" result="shape"/><feColorMatrix in="SourceAlpha" values="0 0 0 0 0 0 0 0 0 0 0 0 0 0 0 0 0 0 127 0" result="hardAlpha"/><feOffset dx="5" dy="10"/><feComposite in2="hardAlpha" operator="arithmetic" k2="-1" k3="1"/><feColorMatrix values="0 0 0 0 1 0 0 0 0 1 0 0 0 0 1 0 0 0 0.25 0"/><feBlend in2="shape" result="effect2_innerShadow_509_9"/></filter><filter id="b" x="161.595" y="167" width="683.685" height="280.25" filterUnits="userSpaceOnUse" color-interpolation-filters="sRGB"><feFlood flood-opacity="0" result="BackgroundImageFix"/><feBlend in="SourceGraphic" in2="BackgroundImageFix" result="shape"/><feColorMatrix in="SourceAlpha" values="0 0 0 0 0 0 0 0 0 0 0 0 0 0 0 0 0 0 127 0" result="hardAlpha"/><feOffset dx="1.5" dy="3"/><feComposite in2="hardAlpha" operator="arithmetic" k2="-1" k3="1"/><feColorMatrix values="0 0 0 0 0 0 0 0 0 0 0 0 0 0 0 0 0 0 0.5 0"/><feBlend mode="multiply" in2="shape" result="effect1_innerShadow_509_9"/></filter><filter id="c" x="60.057" y="1292" width="899.698" height="285.25" filterUnits="userSpaceOnUse" color-interpolation-filters="sRGB"><feFlood flood-opacity="0" result="BackgroundImageFix"/><feBlend in="SourceGraphic" in2="BackgroundImageFix" result="shape"/><feColorMatrix in="SourceAlpha" values="0 0 0 0 0 0 0 0 0 0 0 0 0 0 0 0 0 0 127 0" result="hardAlpha"/><feOffset dx="1.5" dy="3"/><feComposite in2="hardAlpha" operator="arithmetic" k2="-1" k3="1"/><feColorMatrix values="0 0 0 0 0 0 0 0 0 0 0 0 0 0 0 0 0 0 0.5 0"/><feBlend in2="shape" result="effect1_innerShadow_509_9"/></filter><filter id="d" x="182" y="527" width="670" height="740" filterUnits="userSpaceOnUse" color-interpolation-filters="sRGB"><feFlood flood-opacity="0" result="BackgroundImageFix"/><feColorMatrix in="SourceAlpha" values="0 0 0 0 0 0 0 0 0 0 0 0 0 0 0 0 0 0 127 0" result="hardAlpha"/><feOffset dx="20" dy="40"/><feComposite in2="hardAlpha" operator="out"/><feColorMatrix values="0 0 0 0 0 0 0 0 0 0 0 0 0 0 0 0 0 0 0.25 0"/><feBlend mode="soft-light" in2="BackgroundImageFix" result="effect1_dropShadow_509_9"/><feBlend in="SourceGraphic" in2="effect1_dropShadow_509_9" result="shape"/><feColorMatrix in="SourceAlpha" values="0 0 0 0 0 0 0 0 0 0 0 0 0 0 0 0 0 0 127 0" result="hardAlpha"/><feOffset dx="5" dy="10"/><feComposite in2="hardAlpha" operator="arithmetic" k2="-1" k3="1"/><feColorMatrix values="0 0 0 0 1 0 0 0 0 1 0 0 0 0 1 0 0 0 1 0"/><feBlend mode="soft-light" in2="shape" result="effect2_innerShadow_509_9"/></filter><filter id="g" x="475" y="62" width="72" height="82" filterUnits="userSpaceOnUse" color-interpolation-filters="sRGB"><feFlood flood-opacity="0" result="BackgroundImageFix"/><feColorMatrix in="SourceAlpha" values="0 0 0 0 0 0 0 0 0 0 0 0 0 0 0 0 0 0 127 0" result="hardAlpha"/><feOffset dx="10" dy="20"/><feComposite in2="hardAlpha" operator="out"/><feColorMatrix values="0 0 0 0 0 0 0 0 0 0 0 0 0 0 0 0 0 0 0.25 0"/><feBlend mode="multiply" in2="BackgroundImageFix" result="effect1_dropShadow_509_9"/><feBlend in="SourceGraphic" in2="effect1_dropShadow_509_9" result="shape"/><feColorMatrix in="SourceAlpha" values="0 0 0 0 0 0 0 0 0 0 0 0 0 0 0 0 0 0 127 0" result="hardAlpha"/><feOffset dx="-3" dy="-6"/><feComposite in2="hardAlpha" operator="arithmetic" k2="-1" k3="1"/><feColorMatrix values="0 0 0 0 0 0 0 0 0 0 0 0 0 0 0 0 0 0 1 0"/><feBlend mode="overlay" in2="shape" result="effect2_innerShadow_509_9"/><feColorMatrix in="SourceAlpha" values="0 0 0 0 0 0 0 0 0 0 0 0 0 0 0 0 0 0 127 0" result="hardAlpha"/><feOffset dx="3" dy="6"/><feComposite in2="hardAlpha" operator="arithmetic" k2="-1" k3="1"/><feColorMatrix values="0 0 0 0 1 0 0 0 0 1 0 0 0 0 1 0 0 0 1 0"/><feBlend mode="soft-light" in2="effect2_innerShadow_509_9" result="effect3_innerShadow_509_9"/></filter><filter id="h" x="475" y="1630" width="72" height="82" filterUnits="userSpaceOnUse" color-interpolation-filters="sRGB"><feFlood flood-opacity="0" result="BackgroundImageFix"/><feColorMatrix in="SourceAlpha" values="0 0 0 0 0 0 0 0 0 0 0 0 0 0 0 0 0 0 127 0" result="hardAlpha"/><feOffset dx="10" dy="20"/><feComposite in2="hardAlpha" operator="out"/><feColorMatrix values="0 0 0 0 0 0 0 0 0 0 0 0 0 0 0 0 0 0 0.25 0"/><feBlend in2="BackgroundImageFix" result="effect1_dropShadow_509_9"/><feBlend in="SourceGraphic" in2="effect1_dropShadow_509_9" result="shape"/><feColorMatrix in="SourceAlpha" values="0 0 0 0 0 0 0 0 0 0 0 0 0 0 0 0 0 0 127 0" result="hardAlpha"/><feOffset dx="-3" dy="-6"/><feComposite in2="hardAlpha" operator="arithmetic" k2="-1" k3="1"/><feColorMatrix values="0 0 0 0 0 0 0 0 0 0 0 0 0 0 0 0 0 0 1 0"/><feBlend mode="overlay" in2="shape" result="effect2_innerShadow_509_9"/><feColorMatrix in="SourceAlpha" values="0 0 0 0 0 0 0 0 0 0 0 0 0 0 0 0 0 0 127 0" result="hardAlpha"/><feOffset dx="3" dy="6"/><feComposite in2="hardAlpha" operator="arithmetic" k2="-1" k3="1"/><feColorMatrix values="0 0 0 0 1 0 0 0 0 1 0 0 0 0 1 0 0 0 1 0"/><feBlend mode="soft-light" in2="effect2_innerShadow_509_9" result="effect3_innerShadow_509_9"/></filter><filter id="i" x="482" y="551" width="55" height="62" filterUnits="userSpaceOnUse" color-interpolation-filters="sRGB"><feFlood flood-opacity="0" result="BackgroundImageFix"/><feColorMatrix in="SourceAlpha" values="0 0 0 0 0 0 0 0 0 0 0 0 0 0 0 0 0 0 127 0" result="hardAlpha"/><feOffset dx="7" dy="14"/><feComposite in2="hardAlpha" operator="out"/><feColorMatrix values="0 0 0 0 0 0 0 0 0 0 0 0 0 0 0 0 0 0 0.25 0"/><feBlend mode="multiply" in2="BackgroundImageFix" result="effect1_dropShadow_509_9"/><feBlend in="SourceGraphic" in2="effect1_dropShadow_509_9" result="shape"/><feColorMatrix in="SourceAlpha" values="0 0 0 0 0 0 0 0 0 0 0 0 0 0 0 0 0 0 127 0" result="hardAlpha"/><feOffset dx="-2" dy="-4"/><feComposite in2="hardAlpha" operator="arithmetic" k2="-1" k3="1"/><feColorMatrix values="0 0 0 0 0 0 0 0 0 0 0 0 0 0 0 0 0 0 1 0"/><feBlend mode="overlay" in2="shape" result="effect2_innerShadow_509_9"/><feColorMatrix in="SourceAlpha" values="0 0 0 0 0 0 0 0 0 0 0 0 0 0 0 0 0 0 127 0" result="hardAlpha"/><feOffset dx="2" dy="4"/><feComposite in2="hardAlpha" operator="arithmetic" k2="-1" k3="1"/><feColorMatrix values="0 0 0 0 1 0 0 0 0 1 0 0 0 0 1 0 0 0 1 0"/><feBlend mode="soft-light" in2="effect2_innerShadow_509_9" result="effect3_innerShadow_509_9"/></filter><filter id="j" x="483" y="1155" width="55" height="62" filterUnits="userSpaceOnUse" color-interpolation-filters="sRGB"><feFlood flood-opacity="0" result="BackgroundImageFix"/><feColorMatrix in="SourceAlpha" values="0 0 0 0 0 0 0 0 0 0 0 0 0 0 0 0 0 0 127 0" result="hardAlpha"/><feOffset dx="7" dy="14"/><feComposite in2="hardAlpha" operator="out"/><feColorMatrix values="0 0 0 0 0 0 0 0 0 0 0 0 0 0 0 0 0 0 0.25 0"/><feBlend mode="multiply" in2="BackgroundImageFix" result="effect1_dropShadow_509_9"/><feBlend in="SourceGraphic" in2="effect1_dropShadow_509_9" result="shape"/><feColorMatrix in="SourceAlpha" values="0 0 0 0 0 0 0 0 0 0 0 0 0 0 0 0 0 0 127 0" result="hardAlpha"/><feOffset dx="-2" dy="-4"/><feComposite in2="hardAlpha" operator="arithmetic" k2="-1" k3="1"/><feColorMatrix values="0 0 0 0 0 0 0 0 0 0 0 0 0 0 0 0 0 0 1 0"/><feBlend mode="overlay" in2="shape" result="effect2_innerShadow_509_9"/><feColorMatrix in="SourceAlpha" values="0 0 0 0 0 0 0 0 0 0 0 0 0 0 0 0 0 0 127 0" result="hardAlpha"/><feOffset dx="2" dy="4"/><feComposite in2="hardAlpha" operator="arithmetic" k2="-1" k3="1"/><feColorMatrix values="0 0 0 0 1 0 0 0 0 1 0 0 0 0 1 0 0 0 1 0"/><feBlend mode="soft-light" in2="effect2_innerShadow_509_9" result="effect3_innerShadow_509_9"/></filter></defs></svg>