<svg xmlns="http://www.w3.org/2000/svg" width="141" height="132" fill="none" viewBox="0 0 141 132"><path fill="#fff" stroke="#000" stroke-width="3" d="M99.89 3V1.5H41.11v6.279h1.5c3.422 0 7.912.485 11.489 2.175 1.772.837 3.261 1.942 4.306 3.374 1.033 1.415 1.69 3.227 1.69 5.598v47.656c-5.175-.177-11.223-1.337-16.341-5.098-5.565-4.09-10.273-11.434-11.367-24.649C30.98 19.857 27.92 10.81 22.791 6.136 17.7 1.498 10.895 1.5 3.352 1.5H1.5v6.279H3c1.509 0 3.181.877 4.558 3.524 1.396 2.686 2.38 7.04 2.38 13.478v.145c0 8.78 0 14.924.93 20.204.952 5.397 2.866 9.861 6.591 15.385 6.317 9.366 18.126 15.633 42.635 15.877v36.682c0 4.318-1.997 7-5.107 8.695-3.222 1.757-7.674 2.452-12.378 2.452h-1.5v6.279h58.782v-6.279h-1.5c-3.186 0-7.683-.461-11.324-2.145-1.806-.835-3.338-1.941-4.417-3.38-1.064-1.42-1.744-3.238-1.744-5.622V76.393c24.959-.24 36.319-6.513 42.634-15.878 3.726-5.523 5.64-9.988 6.592-15.385.931-5.28.931-11.424.93-20.204v-.145c0-6.439.984-10.792 2.38-13.477 1.377-2.648 3.049-3.525 4.558-3.525h1.5V1.5h-1.852c-7.543-.001-14.348-.002-19.438 4.636-5.129 4.674-8.189 13.72-9.596 30.7-1.091 13.181-6.071 20.534-11.793 24.638-5.21 3.737-11.214 4.908-15.915 5.103V18.926c0-2.463.685-4.316 1.747-5.745 1.076-1.446 2.603-2.542 4.404-3.358 3.635-1.648 8.127-2.044 11.334-2.044h1.5V3Z"/></svg>