<svg width="155" height="155" viewBox="0 0 155 155" fill="none" xmlns="http://www.w3.org/2000/svg"><path d="M125.415 105.1c15.326-26.545 6.231-60.488-20.315-75.814C78.555 13.96 44.612 23.056 29.286 49.6c-15.326 26.546-6.23 60.49 20.314 75.815 26.546 15.326 60.489 6.231 75.815-20.315Z" fill="#F79617" stroke="#000" stroke-width="8"/><path fill-rule="evenodd" clip-rule="evenodd" d="M37.08 54.1c-12.84 22.24-5.22 50.68 17.02 63.52 22.24 12.841 50.68 5.221 63.52-17.02 12.841-22.24 5.221-50.68-17.02-63.52-22.24-12.84-50.68-5.22-63.52 17.02Zm12.02 72.181c-27.023-15.602-36.282-50.157-20.68-77.18C44.022 22.076 78.577 12.817 105.6 28.42c27.024 15.602 36.283 50.157 20.681 77.18-15.602 27.024-50.157 36.283-77.18 20.681Z" fill="#F79617"/><path fill-rule="evenodd" clip-rule="evenodd" d="M51.6 32.75a51.5 51.5 0 0 0-25.75 44.579l38.625.016A12.875 12.875 0 0 1 70.913 66.2L51.6 32.75Zm25.74 96.1a51.503 51.503 0 0 1-25.74-6.899l19.313-33.45a12.875 12.875 0 0 0 12.87.002l19.299 33.458a51.501 51.501 0 0 1-25.742 6.889Zm44.616-77.24a51.495 51.495 0 0 1 6.894 25.74H90.225a12.874 12.874 0 0 0-6.432-11.147l19.326-33.442a51.502 51.502 0 0 1 18.837 18.849ZM85.578 82.1A9.5 9.5 0 0 0 82.1 69.123 9.5 9.5 0 0 0 69.123 72.6a9.5 9.5 0 1 0 16.455 9.5Z" fill="#000"/></svg>