<svg xmlns="http://www.w3.org/2000/svg" width="223" height="208" fill="none" viewBox="0 0 223 208"><mask id="a" width="223" height="208" x="0" y="0" maskUnits="userSpaceOnUse" style="mask-type:alpha"><path fill="#aaa" fill-rule="evenodd" d="M129.882 163h-.03.03Zm-.37.002h-.05ZM111.5 188C83.886 188 68 161.5 68 139.5s15.886-32 43.5-32 43.5 10 43.5 32-15.886 48.5-43.5 48.5Zm-18.665-51.792C92.873 121.893 102.902 122 111.5 122c8.539 0 18.47.092 18.664 14.114a.1.1 0 0 1-.074.1c-5.755 1.447-15.719 4.537-15.719 15.818 0 11.038 10.042 10.993 15.091 10.97h.05l.209-.001h.016l.115-.001h.447c4.813.002 12.817.004 12.817-7v.196c.19 6.598.374 14.644-31.616 14.644S79.693 162.598 79.883 156c0 7.004 8.005 7.002 12.818 7h.21l.627.002c5.05.023 15.09.068 15.09-10.97 0-11.468-9.962-14.372-15.717-15.724a.101.101 0 0 1-.076-.1Z" clip-rule="evenodd"/><path fill="#aaa" fill-rule="evenodd" d="M8.124 77.745.946 80.624C6.039 66.762 11.99 55.48 18.615 46.306c-7.93-4.042-13.362-12.3-13.362-21.83C5.253 10.957 16.18 0 29.66 0c11.011 0 20.32 7.312 23.36 17.358C71.255 8.89 91.409 4.319 111.5 4.319s40.245 4.571 58.479 13.039C173.019 7.312 182.328 0 193.339 0c13.48 0 24.408 10.958 24.408 24.475 0 9.53-5.432 17.79-13.362 21.831 6.625 9.174 12.576 20.456 17.669 34.318l-7.178-2.88c3.828 7.68 10.624 27.355 7.178 44.632l-10.05-10.078c2.393 12.957 3.446 42.903-11.486 59.028l-5.743-7.199c-2.264 9.119-11.464 29.659-18.665 33.114l-2.872-7.199c-7.179 6.719-30.151 17.277-61.738 17.277s-54.56-10.558-61.738-17.277l-1.436 7.199c-7.202-3.455-17.837-23.995-20.1-33.113l-5.744 7.198C7.55 155.201 8.603 125.255 10.996 112.298L.946 122.376c-3.446-17.277 3.35-36.953 7.178-44.631ZM158.88 139.5c0 27.614-19.766 52-47.38 52-27.614 0-47.38-24.386-47.38-52s19.766-36 47.38-36c27.614 0 47.38 8.386 47.38 36ZM40.203 77.745c7.918-4.206 26.939-9.23 39.68 4.319C81.002 74.543 79.891 59 66.5 57c-14.903-2.226-23.11 12.996-26.297 20.745Zm102.913 4.319c12.742-13.55 31.762-8.525 39.68-4.32-3.186-7.748-11.394-22.97-26.297-20.744-13.39 2-14.501 17.543-13.383 25.064Z" clip-rule="evenodd"/></mask><g mask="url(#a)"><path fill="#F9C22B" d="M-28 103h325v162.75H-28z"/><path fill="#74B9FF" d="M-28 103.75h325V-59H-28z"/></g></svg>