<svg xmlns="http://www.w3.org/2000/svg" width="124" height="127" fill="none" viewBox="0 0 124 127"><path fill="#E83B3B" d="M111.963 39.651c2.483-1.283 6.172-5.46 1.064-11.9-1.892-1.634-3.76-4.83 3.902-4.55.827-1.984 1.206-7.42-3.902-13.3l-1.064 2.8-1.065-5.25-1.418 3.5-1.419-4.901-1.419 4.9-3.193-4.9v4.9L97.774 5l1.064 5.95-4.257-2.1c-1.891 3.967-3.263 11.34 6.385 9.1 7.378-.84 8.75 1.284 8.514 2.45-.134 2.895-1.183 3.945-2.483 4.052-.673.055-1.413-.143-2.129-.468-.845-.385-1.656-.948-2.282-1.483l-1.62 3.15c-.851 1.96 6.976 10.15 10.997 14Z"/><path fill="#1E1E1E" d="M113.027 27.75c-.237-.35.709-.84 6.385 0 5.675.84.709-2.683-2.483-4.55-7.662-.28-5.794 2.917-3.902 4.55ZM102.74 20.4c-.524.13-.464 1.008-.154 2.1.626.537 1.437 1.1 2.282 1.484-1.419-1.614-.591-3.164 0-3.737-.918.007-1.708.05-2.128.154Z"/><path fill="#000" d="M104.868 20.247c-.591.573-1.419 2.123 0 3.737.716.325 1.456.523 2.129.468.945-.84 2.341-2.847.354-4.16a56.754 56.754 0 0 0-2.483-.045Z"/><path fill="#1E1E1E" d="M106.997 24.452c1.3-.107 2.349-1.157 2.483-4.052a79.028 79.028 0 0 0-2.129-.108c1.987 1.313.591 3.32-.354 4.16ZM102.74 20.4c-.524.13-.464 1.008-.154 2.1.626.537 1.437 1.1 2.282 1.484-1.419-1.614-.591-3.164 0-3.737-.918.007-1.708.05-2.128.154Z"/><path fill="#1E1E1E" d="M100.966 17.95c-2.246 1.517-7.307 6.37-9.577 13.65-2.72 9.335-9.08 28.142-12.77 28.702-4.611.7-23.057 5.95-25.185 4.55-9.222-7.35-7.449-19.25-10.287-23.8-1.04-1.67-5.912-2.917-8.868-3.15C28.84 33.35 16.827 26.56 12.287 35.8l2.483 2.1c-4.02.7-12.202 3.64-12.77 9.8 2.983-.736 7.927-1.742 12.77-2.288 0 1.696-.497 5.439-2.483 6.839-1.987 1.4.118 3.383 1.419 4.2-2.623 3.5-6.478 11.27-.919 14.35-.176 2.16.08 4.183.919 5.95-.355 1.984-.639 5.88 1.064 5.6.71.35 2.341 1.47 3.192 3.15 1.064 2.1 1.064-4.55 2.838-7.35 1.419-2.24 1.774-.233 1.774 1.05-.828 1.984-1.774 5.67 1.064 4.55-.355 1.75-.568 5.46 1.419 6.3 1.986.84 2.246-1.283 2.128-2.45 1.419-.116 4.115.21 3.547 2.45-.71 2.801-1.419 4.901 1.064 4.901s8.159-.7 12.416 4.55c4.256 5.25 1.773 6.65 7.448 10.851-.354 4.433.923 12.81 8.869 10.85 7.945-1.96 9.932 1.517 9.932 3.5 2.483.583 8.229.7 11.35-3.5 3.902-5.25 6.74-1.75 7.45-9.45 3.665-1.867 12.06-7.211 16.317-13.65 5.32-8.051 17.736-3.15 13.834-41.652.118-4.317-1.206-13.72-7.449-16.8-4.021-3.851-11.848-12.041-10.997-14.001l1.62-3.15c-.31-1.093-.37-1.971.154-2.1.42-.104 1.21-.147 2.128-.154.784-.006 1.662.014 2.483.045.814.03 1.573.072 2.129.108.236-1.166-1.136-3.29-8.514-2.45Z"/><path fill="#000" d="m100.966 17.95-.169-1.49-.086.01-.084.02.339 1.46ZM91.389 31.6l-1.432-.446-.004.014-.004.013 1.44.42Zm-12.77 28.702.225 1.483-.225-1.483Zm-25.185 4.55-.935 1.173.054.043.057.037.824-1.253Zm-10.287-23.8 1.273-.794-1.273.793Zm-8.868-3.15-.962 1.15.367.307.477.038.118-1.496ZM12.287 35.8l-1.346-.662-.517 1.051.894.756.969-1.145Zm2.483 2.1.257 1.478 3.162-.55-2.45-2.073-.97 1.145ZM2 47.701l-1.494-.137-.193 2.099 2.046-.505L2 47.702Zm11.706 29.051 1.476.264.085-.473-.206-.434-1.355.643Zm1.064 5.6.664-1.345-.432-.213-.476.079.244 1.48Zm3.192 3.15-1.338.679 1.338-.678Zm4.612-6.3 1.384.578.116-.277v-.3h-1.5Zm1.064 4.55 1.47.299.549-2.708-2.57 1.014.55 1.396Zm3.547 3.85-.123-1.494-1.524.125.155 1.521 1.492-.151Zm3.547 2.45 1.454.37-1.454-.37Zm20.928 20.302 1.496.119.066-.83-.67-.495-.892 1.206Zm18.8 14.35h-1.5v1.189l1.158.271.343-1.46Zm11.352-3.5 1.204.895-1.204-.895Zm7.449-9.45-.681-1.337-.737.375-.076.824 1.494.138Zm16.317-13.65 1.251.826-1.251-.827Zm13.834-41.652-1.5-.041-.002.096.009.096 1.493-.151Zm-7.449-16.8-1.038 1.082.167.16.207.102.664-1.345ZM113.027 9.9l1.132-.984-1.644-1.892-.89 2.343 1.402.533Zm-1.064 2.8-1.47.298 1.03 5.082 1.842-4.847-1.402-.533Zm-1.065-5.25 1.471-.298-.99-4.88-1.871 4.615 1.39.563Zm-1.418 3.5-1.441.417 1.204 4.16 1.627-4.013-1.39-.564Zm-1.419-4.9 1.441-.417-1.441-4.976-1.441 4.976 1.441.417Zm-1.419 4.9-1.257.819 1.787 2.743.911-3.145-1.441-.417Zm-3.193-4.9 1.257-.819L101.949 1v5.05h1.5Zm0 4.9-1.085 1.036 2.585 2.71V10.95h-1.5ZM97.774 5l1.085-1.035L95.42.359l.877 4.905L97.774 5Zm1.064 5.95-.664 1.345 2.663 1.314-.522-2.923-1.477.264Zm-4.257-2.1.664-1.345-1.363-.673-.654 1.372 1.353.646ZM14.77 45.413h1.5v-1.678l-1.668.188.168 1.49Zm-1.064 11.039 1.2.9.977-1.304-1.38-.867-.797 1.27Zm-.919 14.35 1.495.122.079-.965-.847-.469-.727 1.312Zm88.179-45.151-1.334-.686-.022.043-.02.045 1.376.598Zm1.774-5.25-.359-1.457.359 1.457Zm2.128 3.583-.621 1.365.621-1.365Zm2.483-3.692.057-1.499-.057 1.5Zm-7.224-3.585c-2.474 1.67-7.78 6.784-10.17 14.447l2.864.893c2.15-6.897 6.966-11.49 8.985-12.853l-1.679-2.487ZM89.949 31.181c-1.352 4.638-3.606 11.623-5.973 17.5-1.186 2.946-2.38 5.563-3.484 7.458-.554.951-1.055 1.667-1.487 2.143-.477.525-.682.548-.611.537l.45 2.966c.993-.15 1.794-.839 2.382-1.486.632-.696 1.255-1.614 1.859-2.65 1.211-2.081 2.469-4.854 3.674-7.847 2.416-6 4.702-13.086 6.07-17.782l-2.88-.839ZM78.394 58.82c-2.372.36-8.287 1.882-13.627 3.082-2.72.611-5.324 1.147-7.365 1.445-1.024.15-1.864.232-2.487.241a4.31 4.31 0 0 1-.674-.03c-.169-.026-.115-.046.017.042l-1.648 2.506c.399.263.846.367 1.183.417a7.2 7.2 0 0 0 1.168.065c.812-.012 1.798-.116 2.874-.273 2.16-.314 4.856-.872 7.59-1.486 5.567-1.25 11.18-2.703 13.42-3.043l-.451-2.966Zm-24.025 4.86c-4.233-3.374-5.984-7.807-7.014-12.125-.526-2.207-.833-4.227-1.23-6.194-.375-1.862-.835-3.708-1.705-5.102l-2.546 1.587c.55.88.932 2.228 1.31 4.107.358 1.774.715 4.042 1.253 6.297 1.099 4.607 3.073 9.8 8.062 13.776l1.87-2.346ZM44.42 40.257c-.466-.746-1.238-1.29-1.962-1.685-.76-.416-1.655-.77-2.57-1.063-1.825-.584-3.895-.977-5.49-1.103l-.237 2.99c1.36.108 3.204.455 4.813.97.804.258 1.506.543 2.044.837.575.315.802.554.856.642l2.546-1.587Zm-9.178-3.506c-2.808-2.349-7.368-5.333-11.916-6.523-2.285-.597-4.693-.775-6.91-.066-2.27.727-4.176 2.334-5.475 4.977l2.692 1.324c.971-1.977 2.27-2.986 3.698-3.443 1.483-.475 3.269-.403 5.236.11 3.953 1.034 8.118 3.72 10.75 5.922l1.925-2.301Zm-23.924.195 2.483 2.1 1.938-2.29-2.484-2.1-1.937 2.29Zm3.194-.523c-2.147.374-5.386 1.337-8.201 3.05-2.792 1.697-5.457 4.32-5.805 8.09l2.988.276c.22-2.39 1.93-4.316 4.376-5.804 2.422-1.473 5.285-2.33 7.157-2.656l-.514-2.956ZM12.23 76.488c-.188 1.052-.37 2.666-.258 4.036.054.659.19 1.453.567 2.104.2.345.508.715.969.965.48.26 1.005.322 1.506.24l-.487-2.96a.674.674 0 0 1 .409.082c.152.082.204.178.197.166-.036-.063-.127-.314-.17-.843-.083-1.004.054-2.33.22-3.262l-2.953-.528Zm1.877 7.21c.532.262 1.862 1.188 2.518 2.483l2.676-1.356c-1.046-2.066-2.98-3.38-3.867-3.818l-1.327 2.69Zm2.518 2.483c.095.186.226.412.407.615.166.185.525.522 1.093.596a1.678 1.678 0 0 0 1.385-.469 2.21 2.21 0 0 0 .45-.643c.159-.333.271-.733.357-1.082.092-.37.18-.799.27-1.235.18-.895.37-1.867.62-2.794.255-.943.54-1.708.861-2.214l-2.534-1.605c-.567.894-.946 2.01-1.223 3.036-.281 1.042-.492 2.127-.665 2.981-.089.44-.166.81-.241 1.111a6.011 6.011 0 0 1-.136.47.959.959 0 0 1-.012.03l-.003.008a.072.072 0 0 1-.002.002l.002-.003a1 1 0 0 1 .173-.22 1.323 1.323 0 0 1 1.084-.348c.463.06.711.328.76.381.063.071.069.103.03.027l-2.676 1.356Zm5.443-7.226c.147-.231.253-.364.317-.434.072-.078.047-.026-.083.033a1.1 1.1 0 0 1-.801.027 1.027 1.027 0 0 1-.512-.368c-.047-.067-.047-.094-.028-.034.017.05.037.133.056.249.039.233.058.514.058.775h3c0-.381-.026-.832-.098-1.267-.064-.383-.194-.96-.526-1.437a1.98 1.98 0 0 0-.98-.757 1.905 1.905 0 0 0-1.42.086c-.66.303-1.145.935-1.517 1.522l2.534 1.605Zm-.878-.33c-.43 1.031-.977 2.686-.958 4.038.01.632.148 1.683 1.037 2.338.938.69 2.064.485 2.92.147l-1.1-2.79c-.564.221-.383-.025-.04.227.294.217.189.433.183.035-.01-.708.33-1.888.727-2.84l-2.769-1.155Zm.979 4.83c-.2.981-.363 2.514-.188 3.969.162 1.34.697 3.25 2.492 4.01l1.169-2.763c-.19-.08-.542-.444-.682-1.606-.127-1.048-.007-2.246.149-3.014l-2.94-.596Zm2.304 7.98c.703.297 1.481.428 2.24.179.774-.255 1.254-.814 1.528-1.34.5-.959.507-2.135.437-2.822l-2.984.302c.02.2.023.445-.002.677a1.408 1.408 0 0 1-.11.455c-.025.047.024-.066.195-.123.154-.05.155.031-.135-.092l-1.169 2.763Zm2.836-2.337c.59-.049 1.332.015 1.786.217.207.092.232.158.218.134-.031-.055.032-.026-.034.236l2.908.736c.218-.859.157-1.71-.264-2.453-.404-.711-1.035-1.14-1.609-1.395-1.107-.492-2.423-.533-3.25-.465l.245 2.99Zm1.97.587c-.168.665-.36 1.373-.494 1.998-.134.62-.248 1.303-.215 1.946.033.66.233 1.467.919 2.075.66.585 1.51.75 2.308.75v-3c-.444 0-.436-.1-.319.005.143.126.099.233.088.018-.012-.232.03-.598.151-1.16.12-.557.284-1.161.47-1.896l-2.908-.737Zm2.518 6.768c2.675 0 7.523-.603 11.25 3.995l2.33-1.89c-4.785-5.903-11.288-5.105-13.58-5.105v3Zm11.25 3.995c1.96 2.417 2.325 3.852 2.968 5.438.34.84.758 1.712 1.508 2.665.738.94 1.756 1.906 3.246 3.008l1.785-2.411c-1.348-.998-2.148-1.782-2.673-2.45-.514-.654-.806-1.248-1.086-1.939-.598-1.477-1.12-3.368-3.417-6.2l-2.33 1.889Zm7.12 9.786c-.19 2.355.034 5.884 1.49 8.642.743 1.409 1.847 2.688 3.447 3.44 1.608.756 3.542.898 5.785.344l-.719-2.912c-1.73.426-2.935.255-3.79-.147-.864-.406-1.546-1.13-2.07-2.125-1.081-2.048-1.32-4.925-1.153-7.003l-2.99-.239Zm10.722 12.426c3.781-.933 5.812-.485 6.828.11.982.574 1.245 1.416 1.245 1.934h3c0-1.465-.73-3.354-2.729-4.523-1.963-1.15-4.899-1.461-9.063-.433l.719 2.912Zm9.23 3.504c1.426.335 3.7.524 6.07.055 2.386-.472 4.983-1.638 6.828-4.12l-2.408-1.79c-1.277 1.718-3.114 2.594-5.002 2.967-1.905.377-3.745.216-4.802-.032l-.686 2.92Zm12.898-4.065c1.71-2.303 2.977-2.541 4.468-3.403.82-.474 1.606-1.113 2.198-2.274.555-1.087.888-2.533 1.072-4.531l-2.987-.275c-.17 1.852-.458 2.856-.757 3.443-.261.513-.562.771-1.028 1.04-1.08.625-3.184 1.262-5.374 4.21l2.407 1.79Zm6.925-9.009c1.915-.975 5.008-2.827 8.17-5.257 3.153-2.423 6.46-5.487 8.718-8.903l-2.503-1.654c-1.999 3.024-5.017 5.853-8.043 8.178-3.015 2.318-5.952 4.071-7.703 4.963l1.361 2.673Zm16.888-14.16c1.145-1.732 2.669-2.784 4.554-4.081 1.852-1.275 3.982-2.748 5.791-5.28 3.62-5.07 5.687-13.959 3.73-33.269l-2.985.303c1.945 19.191-.245 27.103-3.186 31.222-1.473 2.061-3.2 3.279-5.051 4.553-1.818 1.25-3.84 2.605-5.356 4.898l2.503 1.654Zm14.082-42.437c.063-2.302-.254-5.911-1.416-9.382-1.154-3.446-3.231-7.01-6.869-8.805l-1.327 2.69c2.605 1.286 4.312 3.964 5.351 7.068 1.032 3.08 1.317 6.332 1.262 8.347l2.999.082Zm-8.26-15.51c1.502-.776 3.39-2.423 4.129-4.923.767-2.593.196-5.744-2.578-9.241l-2.35 1.864c2.333 2.943 2.472 5.1 2.051 6.526-.449 1.52-1.648 2.603-2.629 3.11l1.377 2.665Zm1.619-14.072c.147.218.322.647.161 1.157a1.266 1.266 0 0 1-.562.72c-.17.097-.189.041.233.013.751-.05 2.276.017 5.09.434l.439-2.968c-2.861-.424-4.647-.532-5.729-.46-.493.034-1.06.114-1.518.374-.241.138-.64.434-.814.982a1.65 1.65 0 0 0 .214 1.427l2.486-1.679Zm4.922 2.324c.755.111 1.407.163 1.947.136.466-.023 1.162-.112 1.702-.574.315-.269.548-.641.628-1.084.076-.413 0-.778-.093-1.04-.173-.491-.505-.904-.778-1.2-1.102-1.194-3.327-2.64-4.912-3.567l-1.514 2.59c1.606.94 3.461 2.188 4.221 3.012.193.209.188.258.154.164a.987.987 0 0 1-.029-.498c.051-.28.201-.51.375-.658.258-.22.435-.158.099-.141-.262.013-.697-.01-1.361-.108l-.439 2.968Zm-.879-5.457c1.07-2.564 1.287-8.598-4.154-14.862l-2.265 1.968c4.775 5.497 4.236 10.337 3.65 11.739l2.769 1.155Zm-6.688-14.41-1.065 2.8 2.805 1.065 1.064-2.8-2.804-1.066Zm1.808 3.034-1.064-5.25-2.941.596 1.065 5.25 2.94-.596Zm-3.925-5.515-1.419 3.5 2.781 1.127 1.419-3.5-2.781-1.127Zm1.412 3.646-1.418-4.9-2.882.834 1.419 4.9 2.881-.834Zm-4.3-4.9-1.419 4.9 2.882.834 1.419-4.9-2.882-.834Zm1.279 4.498-3.193-4.9-2.513 1.638 3.192 4.9 2.514-1.638Zm-5.95-4.081v4.9h3v-4.9h-3Zm2.586 3.865-5.676-5.95-2.17 2.07 5.675 5.95 2.171-2.07Zm-8.238-4.65 1.065 5.95 2.953-.529-1.064-5.95-2.954.528Zm3.205 4.34-4.257-2.1-1.327 2.69 4.256 2.1 1.328-2.69Zm-6.274-1.4a16.458 16.458 0 0 0-1.274 3.76c-.269 1.337-.357 2.838.057 4.2.438 1.438 1.426 2.661 3.106 3.275 1.589.581 3.644.562 6.189-.028l-.679-2.923c-2.28.53-3.67.43-4.48.134-.717-.263-1.077-.711-1.266-1.332-.212-.697-.206-1.643.014-2.735a13.54 13.54 0 0 1 1.04-3.06l-2.707-1.292ZM2.359 49.157c2.935-.724 7.813-1.717 12.579-2.254l-.336-2.981c-4.92.554-9.93 1.574-12.961 2.322l.718 2.913Zm10.91-3.745c0 .734-.11 1.954-.44 3.124-.344 1.222-.843 2.091-1.406 2.489l1.728 2.452c1.423-1.003 2.165-2.705 2.566-4.128.416-1.475.553-2.974.553-3.937h-3Zm-1.846 5.613c-.746.525-1.279 1.238-1.418 2.127-.132.847.136 1.6.455 2.16.618 1.084 1.707 1.944 2.448 2.41l1.595-2.542c-.56-.351-1.173-.89-1.436-1.353-.122-.213-.089-.27-.097-.213-.016.097-.067.038.181-.137l-1.728-2.453Zm-.131 19.654c-.191 2.347.077 4.65 1.059 6.716l2.71-1.287c-.698-1.468-.94-3.211-.779-5.185l-2.99-.244Zm1.213-15.128c-1.385 1.849-3.134 4.865-3.793 7.916-.331 1.535-.41 3.186.073 4.731.496 1.592 1.554 2.962 3.275 3.915l1.454-2.624c-1.058-.586-1.603-1.343-1.865-2.184-.277-.887-.27-1.975-.004-3.205.535-2.479 2.024-5.098 3.261-6.75l-2.4-1.799ZM113 38.568c-1.988-1.904-4.91-4.875-7.218-7.596-1.16-1.367-2.126-2.626-2.743-3.633-.312-.507-.498-.893-.587-1.158-.11-.327.013-.215-.11.067l-2.751-1.195c-.336.772-.155 1.57.016 2.08.192.573.509 1.179.874 1.775.737 1.201 1.819 2.597 3.013 4.005 2.398 2.826 5.399 5.875 7.431 7.822L113 38.567Zm-8.971-16.476a6.256 6.256 0 0 1-.145-.617 1.76 1.76 0 0 1-.034-.338c.002-.068.013.035-.077.202a1.071 1.071 0 0 1-.674.518l-.718-2.913c-.58.143-1.006.52-1.251.976a2.538 2.538 0 0 0-.279 1.122c-.019.609.126 1.281.292 1.867l2.886-.817Zm-1.729 4.245 1.62-3.15-2.668-1.372-1.62 3.15 2.668 1.372Zm8.65-5.639c.291-1.438-.552-2.855-2.242-3.636-1.607-.744-4.124-1.033-7.911-.602l.339 2.98c3.591-.408 5.449-.055 6.313.344.781.362.505.59.56.319l2.941.595Zm3.057 5.917c-.397-.342-.751-.734-.967-1.087-.241-.393-.167-.492-.194-.389-.053.202-.175.052.441-.15.627-.205 1.742-.357 3.587-.29l.109-2.997c-1.986-.073-3.511.07-4.629.436-1.129.37-2.102 1.068-2.41 2.24-.281 1.071.136 2.06.538 2.717.426.696 1.016 1.317 1.564 1.791l1.961-2.27Zm-10.908-4.758c.222-.055.836-.103 1.781-.11l-.023-3c-.892.007-1.857.044-2.476.197l.718 2.913Zm-1.489 1.783c.706.604 1.635 1.253 2.637 1.71l1.242-2.732c-.688-.313-1.381-.789-1.928-1.257l-1.951 2.279Zm2.214-4.47a4.221 4.221 0 0 0-1.191 2.323c-.174 1.11.112 2.347 1.109 3.481l2.253-1.98c-.422-.48-.432-.826-.399-1.037.045-.287.213-.533.316-.633l-2.088-2.154Zm.423 6.18c.833.378 1.843.68 2.872.597l-.245-2.99c-.316.025-.787-.067-1.385-.339l-1.242 2.731Zm2.872.597c1.069-.088 2.077-.591 2.79-1.621.667-.963.996-2.268 1.069-3.857l-2.997-.138c-.06 1.307-.322 1.974-.538 2.287-.17.245-.337.32-.569.339l.245 2.99Zm-2.239-4.2c.753-.006 1.607.014 2.415.044l.113-2.998a58.258 58.258 0 0 0-2.551-.046l.023 3Zm2.415.044c.8.03 1.544.07 2.086.106l.197-2.993c-.57-.038-1.342-.08-2.17-.11l-.113 2.997Zm.697 3.783c.587-.521 1.398-1.464 1.725-2.615.171-.605.225-1.33-.033-2.072-.261-.753-.787-1.371-1.505-1.846l-1.655 2.502c.275.182.319.307.326.326.01.03.027.106-.019.271-.111.39-.471.871-.83 1.19l1.991 2.244Z"/><path fill="#FF8630" d="M106.287 24.25c2.483 0 3.902-2.45 2.838-3.5-.41-.404-1.669-.427-2.483-.458 2.225.292 2.128 3.959-.355 3.959Z"/><path fill="#FF8630" d="M103.993 20.247c-.524.13-1.253.854-.898 2.254.192.759 0 1.75 3.192 1.75-2.838-.35-1.064-4.2.355-3.959-.918.007-2.229-.149-2.649-.045Z"/></svg>