<svg width="38" height="19" viewBox="0 0 38 19" fill="none" xmlns="http://www.w3.org/2000/svg"><path d="m10 18.5-.003.5h.006L10 18.5ZM10 1l.003-.5h-.006L10 1ZM1.5 15.118V4.132h-1v10.986h1Zm6 0V4.132h-1v10.986h1Zm18 0V7.5h-1v7.618h1Zm0-7.618V4.132h-1V7.5h1ZM25 8h6V7h-6v1ZM13.5 19v-3.882h-1V19h1Zm0-3.882V7.5h-1v7.618h1Zm0-7.618V4.132h-1V7.5h1ZM13 8h6V7h-6v1Zm6.057-6.645C17.798.376 16.18.158 14.86.641c-1.345.491-2.36 1.705-2.36 3.49h1c0-1.346.735-2.197 1.703-2.551.992-.363 2.249-.206 3.24.565l.614-.79Zm12 0C29.791.371 28.169.192 26.854.692c-1.332.506-2.354 1.713-2.354 3.44h1c0-1.274.728-2.133 1.709-2.505.997-.379 2.25-.248 3.234.518l.614-.79Zm-.584 15.729c-.995.663-2.268.797-3.275.441-.981-.345-1.698-1.143-1.698-2.407h-1c0 1.737 1.033 2.88 2.365 3.35 1.306.461 2.907.285 4.162-.552l-.554-.832ZM1.5 4.132c0-1.274.728-2.133 1.709-2.505.997-.379 2.25-.248 3.234.518l.614-.79C5.791.371 4.169.192 2.854.692 1.522 1.198.5 2.405.5 4.132h1Zm-1 10.986c0 1.737 1.033 2.88 2.365 3.35 1.305.461 2.907.285 4.162-.552l-.554-.832c-.995.663-2.268.797-3.275.441-.981-.345-1.698-1.143-1.698-2.407h-1Zm31 0V7.5h-1v7.618h1Zm0-7.618V4.132h-1V7.5h1ZM31 8h6V7h-6v1Zm6.104-6.604C34.667-1.04 30.5.686 30.5 4.132h1c0-2.556 3.09-3.835 4.896-2.028l.708-.708Zm-.631 15.688c-.995.663-2.268.797-3.275.441-.981-.345-1.698-1.143-1.698-2.407h-1c0 1.737 1.033 2.88 2.365 3.35 1.305.461 2.907.285 4.162-.552l-.554-.832ZM19.5 19V7.5h-1V19h1Zm0-11.5V4.132h-1V7.5h1ZM19 8h6V7h-6v1Zm6.057-6.645C23.791.371 22.169.192 20.854.692c-1.332.506-2.354 1.713-2.354 3.44h1c0-1.274.728-2.133 1.709-2.505.997-.379 2.25-.248 3.234.518l.614-.79ZM6.5 15.118c0 2.118 1.648 3.87 3.497 3.882l.006-1C8.78 17.992 7.5 16.764 7.5 15.118h-1Zm3.988 3.49c.358-1.607.085-2.835-.12-4.12-.202-1.28-.361-2.713.12-4.88l-.976-.216c-.519 2.333-.345 3.904-.13 5.252.212 1.34.438 2.363.13 3.747l.976.218ZM7.5 4.133c0-.944.32-1.585.763-1.994.451-.417 1.075-.633 1.74-.638l-.006-1c-.871.006-1.748.29-2.412.903-.673.62-1.085 1.54-1.085 2.729h1Zm2.988 5.476c.519-2.333.345-4.133.131-5.53-.108-.713-.217-1.264-.262-1.763-.044-.489-.016-.838.104-1.12L9.54.805c-.214.506-.228 1.05-.179 1.6.05.539.17 1.17.27 1.824.203 1.333.362 2.996-.12 5.163l.977.216ZM13.5 4.132c0-1.188-.412-2.108-1.085-2.729C11.751.79 10.875.506 10.003.5l-.006 1c.665.005 1.289.22 1.74.638.443.41.763 1.05.763 1.994h1Zm-1 10.986c0 .763-.312 1.49-.795 2.026-.486.54-1.11.852-1.708.856l.006 1c.939-.006 1.815-.487 2.445-1.187a4.065 4.065 0 0 0 1.052-2.695h-1Z" fill="#000"/></svg>