<svg width="1023" height="1774" viewBox="0 0 1023 1774" fill="none" xmlns="http://www.w3.org/2000/svg">
<g filter="url(#filter0_di_642_74)">
<path d="M0 90C0 40.2944 40.2944 0 90 0H923C972.706 0 1013 40.2944 1013 90V1664C1013 1713.71 972.706 1754 923 1754H90C40.2944 1754 0 1713.71 0 1664V90Z" fill="#4D413C"/>
<path d="M36 125.844C36 83.9565 70.8922 50 113.934 50H901.066C944.108 50 979 83.9565 979 125.844V1367.16C979 1409.04 944.108 1443 901.066 1443H113.934C70.8922 1443 36 1409.04 36 1367.16V125.844Z" fill="#4D413C"/>
<g filter="url(#filter1_i_642_74)">
<path fill-rule="evenodd" clip-rule="evenodd" d="M24.6897 140C24.6897 83.3908 64.4452 37.5 113.486 37.5H900.958C949.999 37.5 989.754 83.3908 989.754 140V1613C989.754 1669.61 949.999 1715.5 900.958 1715.5H113.486C64.4452 1715.5 24.6897 1669.61 24.6897 1613V140ZM113.486 62.5C76.4063 62.5 46.3473 97.1979 46.3473 140V1613C46.3473 1655.8 76.4064 1690.5 113.486 1690.5H900.958C938.037 1690.5 968.096 1655.8 968.096 1613V140C968.096 97.1979 938.037 62.5 900.958 62.5H113.486Z" fill="#EDEDED"/>
</g>
<g filter="url(#filter2_i_642_74)">
<path d="M227.97 1202.44V1189.44H251.47C255.553 1189.44 258.824 1188.79 261.283 1187.5C263.783 1186.21 265.616 1184.42 266.783 1182.12C267.949 1179.83 268.533 1177.21 268.533 1174.25C268.533 1171.42 267.949 1168.77 266.783 1166.31C265.616 1163.85 263.783 1161.85 261.283 1160.31C258.824 1158.77 255.553 1158 251.47 1158H232.845V1236H216.72V1145H251.47C258.553 1145 264.574 1146.25 269.533 1148.75C274.491 1151.25 278.262 1154.69 280.845 1159.06C283.47 1163.44 284.783 1168.46 284.783 1174.12C284.783 1180 283.47 1185.06 280.845 1189.31C278.262 1193.52 274.491 1196.77 269.533 1199.06C264.574 1201.31 258.553 1202.44 251.47 1202.44H227.97ZM317.497 1236H301.997V1140H317.497V1236ZM367.65 1237.25C360.942 1237.25 355.15 1235.81 350.275 1232.94C345.4 1230.02 341.65 1226.1 339.025 1221.19C336.4 1216.23 335.087 1210.69 335.087 1204.56V1202C335.087 1194.96 336.421 1188.83 339.087 1183.62C341.754 1178.38 345.4 1174.31 350.025 1171.44C354.692 1168.56 359.962 1167.12 365.837 1167.12C372.337 1167.12 377.733 1168.54 382.025 1171.38C386.317 1174.17 389.525 1178.06 391.65 1183.06C393.775 1188.02 394.837 1193.77 394.837 1200.31V1207H342.525V1195.81H379.525V1194.62C379.442 1192 378.942 1189.54 378.025 1187.25C377.108 1184.96 375.65 1183.1 373.65 1181.69C371.692 1180.27 369.067 1179.56 365.775 1179.56C362.483 1179.56 359.712 1180.5 357.462 1182.38C355.212 1184.21 353.504 1186.81 352.337 1190.19C351.171 1193.52 350.587 1197.46 350.587 1202V1204.56C350.587 1208.4 351.296 1211.83 352.712 1214.88C354.129 1217.92 356.192 1220.33 358.9 1222.12C361.608 1223.88 364.837 1224.75 368.587 1224.75C372.212 1224.75 375.421 1224.04 378.212 1222.62C381.046 1221.21 383.483 1219.17 385.525 1216.5L393.65 1224.62C391.525 1227.83 388.317 1230.75 384.025 1233.38C379.775 1235.96 374.317 1237.25 367.65 1237.25ZM448.24 1190.31C448.24 1186.81 447.261 1184.02 445.302 1181.94C443.386 1179.85 440.469 1178.81 436.552 1178.81C434.219 1178.81 432.177 1179.23 430.427 1180.06C428.677 1180.85 427.323 1181.94 426.365 1183.31C425.407 1184.69 424.927 1186.25 424.927 1188H409.427C409.427 1184.38 410.573 1180.98 412.865 1177.81C415.157 1174.6 418.386 1172.02 422.552 1170.06C426.761 1168.1 431.719 1167.12 437.427 1167.12C442.511 1167.12 447.032 1167.98 450.99 1169.69C454.948 1171.4 458.052 1173.98 460.302 1177.44C462.594 1180.9 463.74 1185.23 463.74 1190.44V1220.25C463.74 1223.42 463.969 1226.21 464.427 1228.62C464.886 1231.04 465.532 1233.15 466.365 1234.94V1236H450.49C449.782 1234.38 449.219 1232.27 448.802 1229.69C448.427 1227.1 448.24 1224.58 448.24 1222.12V1190.31ZM450.615 1204.38H439.99C434.49 1204.38 430.344 1205.4 427.552 1207.44C424.802 1209.44 423.427 1212.17 423.427 1215.62C423.427 1218.29 424.344 1220.52 426.177 1222.31C428.011 1224.06 430.594 1224.94 433.927 1224.94C436.969 1224.94 439.615 1224.33 441.865 1223.12C444.157 1221.88 445.948 1220.35 447.24 1218.56C448.532 1216.73 449.198 1215.02 449.24 1213.44L454.177 1220.38C453.677 1222.08 452.823 1223.92 451.615 1225.88C450.448 1227.79 448.886 1229.62 446.927 1231.38C445.011 1233.08 442.719 1234.5 440.052 1235.62C437.427 1236.71 434.365 1237.25 430.865 1237.25C426.448 1237.25 422.511 1236.38 419.052 1234.62C415.594 1232.88 412.865 1230.48 410.865 1227.44C408.907 1224.35 407.927 1220.9 407.927 1217.06C407.927 1209.9 410.615 1204.4 415.99 1200.56C421.365 1196.73 428.99 1194.81 438.865 1194.81H450.49L450.615 1204.38ZM521.017 1217.56C521.017 1216.15 520.642 1214.85 519.892 1213.69C519.184 1212.52 517.788 1211.44 515.705 1210.44C513.622 1209.44 510.559 1208.52 506.517 1207.69C501.726 1206.69 497.497 1205.35 493.83 1203.69C490.205 1202.02 487.372 1199.88 485.33 1197.25C483.33 1194.62 482.33 1191.42 482.33 1187.62C482.33 1183.96 483.372 1180.58 485.455 1177.5C487.58 1174.38 490.601 1171.88 494.517 1170C498.476 1168.08 503.142 1167.12 508.517 1167.12C514.184 1167.12 519.059 1168.08 523.142 1170C527.226 1171.88 530.351 1174.44 532.517 1177.69C534.726 1180.9 535.83 1184.54 535.83 1188.62H520.33C520.33 1185.96 519.33 1183.62 517.33 1181.62C515.372 1179.58 512.413 1178.56 508.455 1178.56C505.997 1178.56 503.934 1178.96 502.267 1179.75C500.642 1180.54 499.413 1181.56 498.58 1182.81C497.788 1184.06 497.392 1185.44 497.392 1186.94C497.392 1188.4 497.788 1189.67 498.58 1190.75C499.413 1191.83 500.809 1192.79 502.767 1193.62C504.767 1194.46 507.559 1195.25 511.142 1196C516.309 1197.08 520.767 1198.46 524.517 1200.12C528.267 1201.75 531.142 1203.92 533.142 1206.62C535.184 1209.29 536.205 1212.69 536.205 1216.81C536.205 1220.77 535.059 1224.29 532.767 1227.38C530.517 1230.46 527.33 1232.88 523.205 1234.62C519.122 1236.38 514.288 1237.25 508.705 1237.25C502.497 1237.25 497.267 1236.15 493.017 1233.94C488.767 1231.73 485.538 1228.92 483.33 1225.5C481.163 1222.04 480.08 1218.46 480.08 1214.75H495.017C495.184 1217.42 495.934 1219.56 497.267 1221.19C498.642 1222.81 500.351 1224 502.392 1224.75C504.476 1225.46 506.642 1225.81 508.892 1225.81C511.559 1225.81 513.767 1225.46 515.517 1224.75C517.309 1224.04 518.663 1223.08 519.58 1221.88C520.538 1220.62 521.017 1219.19 521.017 1217.56ZM583.045 1237.25C576.337 1237.25 570.545 1235.81 565.67 1232.94C560.795 1230.02 557.045 1226.1 554.42 1221.19C551.795 1216.23 550.483 1210.69 550.483 1204.56V1202C550.483 1194.96 551.816 1188.83 554.483 1183.62C557.149 1178.38 560.795 1174.31 565.42 1171.44C570.087 1168.56 575.358 1167.12 581.233 1167.12C587.733 1167.12 593.128 1168.54 597.42 1171.38C601.712 1174.17 604.92 1178.06 607.045 1183.06C609.17 1188.02 610.233 1193.77 610.233 1200.31V1207H557.92V1195.81H594.92V1194.62C594.837 1192 594.337 1189.54 593.42 1187.25C592.503 1184.96 591.045 1183.1 589.045 1181.69C587.087 1180.27 584.462 1179.56 581.17 1179.56C577.878 1179.56 575.108 1180.5 572.858 1182.38C570.608 1184.21 568.899 1186.81 567.733 1190.19C566.566 1193.52 565.983 1197.46 565.983 1202V1204.56C565.983 1208.4 566.691 1211.83 568.108 1214.88C569.524 1217.92 571.587 1220.33 574.295 1222.12C577.003 1223.88 580.233 1224.75 583.983 1224.75C587.608 1224.75 590.816 1224.04 593.608 1222.62C596.441 1221.21 598.878 1219.17 600.92 1216.5L609.045 1224.62C606.92 1227.83 603.712 1230.75 599.42 1233.38C595.17 1235.96 589.712 1237.25 583.045 1237.25ZM702.475 1140H717.975V1236H703.912L702.475 1221.81V1140ZM658.6 1201.62C658.6 1194.79 659.662 1188.79 661.787 1183.62C663.954 1178.42 667.017 1174.38 670.975 1171.5C674.933 1168.58 679.683 1167.12 685.225 1167.12C690.683 1167.12 695.246 1168.54 698.912 1171.38C702.579 1174.21 705.454 1178.15 707.537 1183.19C709.662 1188.19 711.079 1194 711.787 1200.62V1204.25C711.079 1210.67 709.683 1216.35 707.6 1221.31C705.517 1226.27 702.621 1230.17 698.912 1233C695.246 1235.83 690.642 1237.25 685.1 1237.25C679.642 1237.25 674.933 1235.77 670.975 1232.81C667.017 1229.81 663.954 1225.73 661.787 1220.56C659.662 1215.4 658.6 1209.52 658.6 1202.94V1201.62ZM674.1 1202.94C674.1 1206.94 674.6 1210.58 675.6 1213.88C676.6 1217.12 678.183 1219.73 680.35 1221.69C682.558 1223.6 685.454 1224.56 689.037 1224.56C692.412 1224.56 695.183 1223.83 697.35 1222.38C699.558 1220.88 701.267 1218.85 702.475 1216.31C703.725 1213.77 704.579 1210.92 705.037 1207.75V1197.19C704.746 1194.69 704.225 1192.38 703.475 1190.25C702.725 1188.12 701.704 1186.29 700.412 1184.75C699.162 1183.21 697.6 1182 695.725 1181.12C693.85 1180.25 691.662 1179.81 689.162 1179.81C685.579 1179.81 682.662 1180.79 680.412 1182.75C678.204 1184.67 676.6 1187.29 675.6 1190.62C674.6 1193.92 674.1 1197.58 674.1 1201.62V1202.94ZM734.627 1201.56C734.627 1194.98 735.877 1189.1 738.377 1183.94C740.877 1178.77 744.461 1174.69 749.127 1171.69C753.836 1168.65 759.482 1167.12 766.065 1167.12C772.732 1167.12 778.419 1168.65 783.127 1171.69C787.836 1174.69 791.419 1178.77 793.877 1183.94C796.377 1189.1 797.627 1194.98 797.627 1201.56V1202.88C797.627 1209.42 796.377 1215.29 793.877 1220.5C791.419 1225.67 787.836 1229.75 783.127 1232.75C778.461 1235.75 772.815 1237.25 766.19 1237.25C759.565 1237.25 753.898 1235.75 749.19 1232.75C744.482 1229.75 740.877 1225.67 738.377 1220.5C735.877 1215.29 734.627 1209.42 734.627 1202.88V1201.56ZM750.127 1202.88C750.127 1206.88 750.69 1210.54 751.815 1213.88C752.94 1217.17 754.669 1219.81 757.002 1221.81C759.377 1223.81 762.44 1224.81 766.19 1224.81C769.898 1224.81 772.919 1223.81 775.252 1221.81C777.627 1219.81 779.357 1217.17 780.44 1213.88C781.565 1210.54 782.127 1206.88 782.127 1202.88V1201.56C782.127 1197.6 781.565 1193.96 780.44 1190.62C779.357 1187.29 777.627 1184.62 775.252 1182.62C772.877 1180.58 769.815 1179.56 766.065 1179.56C762.357 1179.56 759.315 1180.58 756.94 1182.62C754.607 1184.62 752.877 1187.29 751.752 1190.62C750.669 1193.96 750.127 1197.6 750.127 1201.56V1202.88ZM162.835 1424H147.335V1356.38H161.897L162.835 1370.81V1424ZM155.085 1387.81C155.127 1381.27 156.272 1375.56 158.522 1370.69C160.772 1365.77 163.918 1361.96 167.96 1359.25C172.002 1356.5 176.71 1355.12 182.085 1355.12C186.46 1355.12 190.252 1355.96 193.46 1357.62C196.668 1359.25 199.168 1361.92 200.96 1365.62C202.752 1369.29 203.647 1374.23 203.647 1380.44V1424H188.085V1380.31C188.085 1377.19 187.627 1374.71 186.71 1372.88C185.835 1371.04 184.502 1369.75 182.71 1369C180.96 1368.21 178.814 1367.81 176.272 1367.81C173.689 1367.81 171.397 1368.33 169.397 1369.38C167.439 1370.38 165.752 1371.79 164.335 1373.62C162.96 1375.46 161.897 1377.58 161.147 1380C160.439 1382.42 160.085 1385 160.085 1387.75L155.085 1387.81ZM219.862 1389.56C219.862 1382.98 221.112 1377.1 223.612 1371.94C226.112 1366.77 229.696 1362.69 234.362 1359.69C239.071 1356.65 244.717 1355.12 251.3 1355.12C257.967 1355.12 263.654 1356.65 268.362 1359.69C273.071 1362.69 276.654 1366.77 279.112 1371.94C281.612 1377.1 282.862 1382.98 282.862 1389.56V1390.88C282.862 1397.42 281.612 1403.29 279.112 1408.5C276.654 1413.67 273.071 1417.75 268.362 1420.75C263.696 1423.75 258.05 1425.25 251.425 1425.25C244.8 1425.25 239.133 1423.75 234.425 1420.75C229.717 1417.75 226.112 1413.67 223.612 1408.5C221.112 1403.29 219.862 1397.42 219.862 1390.88V1389.56ZM235.362 1390.88C235.362 1394.88 235.925 1398.54 237.05 1401.88C238.175 1405.17 239.904 1407.81 242.237 1409.81C244.612 1411.81 247.675 1412.81 251.425 1412.81C255.133 1412.81 258.154 1411.81 260.487 1409.81C262.862 1407.81 264.592 1405.17 265.675 1401.88C266.8 1398.54 267.362 1394.88 267.362 1390.88V1389.56C267.362 1385.6 266.8 1381.96 265.675 1378.62C264.592 1375.29 262.862 1372.62 260.487 1370.62C258.112 1368.58 255.05 1367.56 251.3 1367.56C247.592 1367.56 244.55 1368.58 242.175 1370.62C239.842 1372.62 238.112 1375.29 236.987 1378.62C235.904 1381.96 235.362 1385.6 235.362 1389.56V1390.88ZM330.39 1367.81H292.015V1356.38H330.39V1367.81ZM318.39 1339.81V1404.94C318.39 1407.02 318.682 1408.6 319.265 1409.69C319.848 1410.73 320.682 1411.44 321.765 1411.81C322.848 1412.19 324.098 1412.38 325.515 1412.38C326.557 1412.38 327.557 1412.31 328.515 1412.19C329.473 1412.06 330.244 1411.94 330.827 1411.81V1423.75C329.577 1424.17 328.119 1424.52 326.452 1424.81C324.827 1425.1 322.911 1425.25 320.702 1425.25C317.244 1425.25 314.161 1424.62 311.452 1423.38C308.786 1422.12 306.682 1420.1 305.14 1417.31C303.64 1414.48 302.89 1410.73 302.89 1406.06V1339.81H318.39ZM386.632 1424V1349.94C386.632 1342.44 388.757 1336.69 393.007 1332.69C397.257 1328.69 403.07 1326.69 410.445 1326.69C411.945 1326.69 413.424 1326.79 414.882 1327C416.341 1327.21 417.757 1327.48 419.132 1327.81L418.757 1339.94C417.966 1339.77 417.07 1339.65 416.07 1339.56C415.07 1339.48 414.028 1339.44 412.945 1339.44C409.528 1339.44 406.862 1340.35 404.945 1342.19C403.07 1343.98 402.132 1346.56 402.132 1349.94V1424H386.632ZM415.945 1367.81H376.32V1356.38H415.945V1367.81ZM460.535 1425.25C453.827 1425.25 448.035 1423.81 443.16 1420.94C438.285 1418.02 434.535 1414.1 431.91 1409.19C429.285 1404.23 427.973 1398.69 427.973 1392.56V1390C427.973 1382.96 429.306 1376.83 431.973 1371.62C434.639 1366.38 438.285 1362.31 442.91 1359.44C447.577 1356.56 452.848 1355.12 458.723 1355.12C465.223 1355.12 470.618 1356.54 474.91 1359.38C479.202 1362.17 482.41 1366.06 484.535 1371.06C486.66 1376.02 487.723 1381.77 487.723 1388.31V1395H435.41V1383.81H472.41V1382.62C472.327 1380 471.827 1377.54 470.91 1375.25C469.993 1372.96 468.535 1371.1 466.535 1369.69C464.577 1368.27 461.952 1367.56 458.66 1367.56C455.368 1367.56 452.598 1368.5 450.348 1370.38C448.098 1372.21 446.389 1374.81 445.223 1378.19C444.056 1381.52 443.473 1385.46 443.473 1390V1392.56C443.473 1396.4 444.181 1399.83 445.598 1402.88C447.014 1405.92 449.077 1408.33 451.785 1410.12C454.493 1411.88 457.723 1412.75 461.473 1412.75C465.098 1412.75 468.306 1412.04 471.098 1410.62C473.931 1409.21 476.368 1407.17 478.41 1404.5L486.535 1412.62C484.41 1415.83 481.202 1418.75 476.91 1421.38C472.66 1423.96 467.202 1425.25 460.535 1425.25ZM533.125 1425.25C526.417 1425.25 520.625 1423.81 515.75 1420.94C510.875 1418.02 507.125 1414.1 504.5 1409.19C501.875 1404.23 500.562 1398.69 500.562 1392.56V1390C500.562 1382.96 501.896 1376.83 504.562 1371.62C507.229 1366.38 510.875 1362.31 515.5 1359.44C520.167 1356.56 525.438 1355.12 531.312 1355.12C537.812 1355.12 543.208 1356.54 547.5 1359.38C551.792 1362.17 555 1366.06 557.125 1371.06C559.25 1376.02 560.312 1381.77 560.312 1388.31V1395H508V1383.81H545V1382.62C544.917 1380 544.417 1377.54 543.5 1375.25C542.583 1372.96 541.125 1371.1 539.125 1369.69C537.167 1368.27 534.542 1367.56 531.25 1367.56C527.958 1367.56 525.188 1368.5 522.938 1370.38C520.688 1372.21 518.979 1374.81 517.812 1378.19C516.646 1381.52 516.062 1385.46 516.062 1390V1392.56C516.062 1396.4 516.771 1399.83 518.188 1402.88C519.604 1405.92 521.667 1408.33 524.375 1410.12C527.083 1411.88 530.312 1412.75 534.062 1412.75C537.688 1412.75 540.896 1412.04 543.688 1410.62C546.521 1409.21 548.958 1407.17 551 1404.5L559.125 1412.62C557 1415.83 553.792 1418.75 549.5 1421.38C545.25 1423.96 539.792 1425.25 533.125 1425.25ZM616.84 1328H632.34V1424H618.277L616.84 1409.81V1328ZM572.965 1389.62C572.965 1382.79 574.027 1376.79 576.152 1371.62C578.319 1366.42 581.382 1362.38 585.34 1359.5C589.298 1356.58 594.048 1355.12 599.59 1355.12C605.048 1355.12 609.611 1356.54 613.277 1359.38C616.944 1362.21 619.819 1366.15 621.902 1371.19C624.027 1376.19 625.444 1382 626.152 1388.62V1392.25C625.444 1398.67 624.048 1404.35 621.965 1409.31C619.882 1414.27 616.986 1418.17 613.277 1421C609.611 1423.83 605.007 1425.25 599.465 1425.25C594.007 1425.25 589.298 1423.77 585.34 1420.81C581.382 1417.81 578.319 1413.73 576.152 1408.56C574.027 1403.4 572.965 1397.52 572.965 1390.94V1389.62ZM588.465 1390.94C588.465 1394.94 588.965 1398.58 589.965 1401.88C590.965 1405.12 592.548 1407.73 594.715 1409.69C596.923 1411.6 599.819 1412.56 603.402 1412.56C606.777 1412.56 609.548 1411.83 611.715 1410.38C613.923 1408.88 615.632 1406.85 616.84 1404.31C618.09 1401.77 618.944 1398.92 619.402 1395.75V1385.19C619.111 1382.69 618.59 1380.38 617.84 1378.25C617.09 1376.12 616.069 1374.29 614.777 1372.75C613.527 1371.21 611.965 1370 610.09 1369.12C608.215 1368.25 606.027 1367.81 603.527 1367.81C599.944 1367.81 597.027 1368.79 594.777 1370.75C592.569 1372.67 590.965 1375.29 589.965 1378.62C588.965 1381.92 588.465 1385.58 588.465 1389.62V1390.94ZM718.895 1367.81H680.52V1356.38H718.895V1367.81ZM706.895 1339.81V1404.94C706.895 1407.02 707.187 1408.6 707.77 1409.69C708.353 1410.73 709.187 1411.44 710.27 1411.81C711.353 1412.19 712.603 1412.38 714.02 1412.38C715.062 1412.38 716.062 1412.31 717.02 1412.19C717.978 1412.06 718.749 1411.94 719.333 1411.81V1423.75C718.083 1424.17 716.624 1424.52 714.958 1424.81C713.333 1425.1 711.416 1425.25 709.208 1425.25C705.749 1425.25 702.666 1424.62 699.958 1423.38C697.291 1422.12 695.187 1420.1 693.645 1417.31C692.145 1414.48 691.395 1410.73 691.395 1406.06V1339.81H706.895ZM749.422 1424H733.922V1328H749.422V1424ZM741.735 1387.81C741.777 1381.52 742.881 1375.92 745.047 1371C747.256 1366.08 750.339 1362.21 754.297 1359.38C758.256 1356.54 762.881 1355.12 768.172 1355.12C772.631 1355.12 776.506 1355.98 779.797 1357.69C783.131 1359.35 785.714 1362.06 787.547 1365.81C789.381 1369.52 790.297 1374.48 790.297 1380.69V1424H774.735V1380.56C774.735 1377.4 774.277 1374.88 773.36 1373C772.443 1371.12 771.089 1369.79 769.297 1369C767.547 1368.21 765.402 1367.81 762.86 1367.81C760.193 1367.81 757.86 1368.33 755.86 1369.38C753.86 1370.38 752.172 1371.79 750.797 1373.62C749.422 1375.46 748.402 1377.58 747.735 1380C747.068 1382.42 746.735 1385 746.735 1387.75L741.735 1387.81ZM839.2 1425.25C832.492 1425.25 826.7 1423.81 821.825 1420.94C816.95 1418.02 813.2 1414.1 810.575 1409.19C807.95 1404.23 806.637 1398.69 806.637 1392.56V1390C806.637 1382.96 807.971 1376.83 810.637 1371.62C813.304 1366.38 816.95 1362.31 821.575 1359.44C826.242 1356.56 831.512 1355.12 837.387 1355.12C843.887 1355.12 849.283 1356.54 853.575 1359.38C857.867 1362.17 861.075 1366.06 863.2 1371.06C865.325 1376.02 866.387 1381.77 866.387 1388.31V1395H814.075V1383.81H851.075V1382.62C850.992 1380 850.492 1377.54 849.575 1375.25C848.658 1372.96 847.2 1371.1 845.2 1369.69C843.242 1368.27 840.617 1367.56 837.325 1367.56C834.033 1367.56 831.262 1368.5 829.012 1370.38C826.762 1372.21 825.054 1374.81 823.887 1378.19C822.721 1381.52 822.137 1385.46 822.137 1390V1392.56C822.137 1396.4 822.846 1399.83 824.262 1402.88C825.679 1405.92 827.742 1408.33 830.45 1410.12C833.158 1411.88 836.387 1412.75 840.137 1412.75C843.762 1412.75 846.971 1412.04 849.762 1410.62C852.596 1409.21 855.033 1407.17 857.075 1404.5L865.2 1412.62C863.075 1415.83 859.867 1418.75 855.575 1421.38C851.325 1423.96 845.867 1425.25 839.2 1425.25ZM377.945 1516V1597.38L376.445 1612H362.445V1516H377.945ZM421.945 1578.88C421.945 1585.54 420.945 1591.46 418.945 1596.62C416.987 1601.79 414.049 1605.85 410.133 1608.81C406.258 1611.77 401.424 1613.25 395.633 1613.25C390.008 1613.25 385.341 1611.83 381.633 1609C377.966 1606.17 375.112 1602.27 373.07 1597.31C371.07 1592.31 369.695 1586.56 368.945 1580.06V1576.38C369.695 1569.83 371.07 1564.08 373.07 1559.12C375.112 1554.12 377.966 1550.21 381.633 1547.38C385.299 1544.54 389.924 1543.12 395.508 1543.12C401.341 1543.12 406.216 1544.58 410.133 1547.5C414.049 1550.42 416.987 1554.46 418.945 1559.62C420.945 1564.79 421.945 1570.77 421.945 1577.56V1578.88ZM406.445 1577.56C406.445 1573.6 405.987 1569.98 405.07 1566.69C404.195 1563.4 402.674 1560.77 400.508 1558.81C398.383 1556.81 395.424 1555.81 391.633 1555.81C389.008 1555.81 386.758 1556.25 384.883 1557.12C383.008 1558 381.424 1559.21 380.133 1560.75C378.883 1562.29 377.903 1564.1 377.195 1566.19C376.487 1568.27 376.008 1570.52 375.758 1572.94V1583.56C376.133 1586.69 376.903 1589.54 378.07 1592.12C379.237 1594.71 380.945 1596.77 383.195 1598.31C385.445 1599.81 388.299 1600.56 391.758 1600.56C395.466 1600.56 398.383 1599.6 400.508 1597.69C402.633 1595.77 404.153 1593.19 405.07 1589.94C405.987 1586.65 406.445 1582.96 406.445 1578.88V1577.56ZM435.41 1577.56C435.41 1570.98 436.66 1565.1 439.16 1559.94C441.66 1554.77 445.243 1550.69 449.91 1547.69C454.618 1544.65 460.264 1543.12 466.848 1543.12C473.514 1543.12 479.202 1544.65 483.91 1547.69C488.618 1550.69 492.202 1554.77 494.66 1559.94C497.16 1565.1 498.41 1570.98 498.41 1577.56V1578.88C498.41 1585.42 497.16 1591.29 494.66 1596.5C492.202 1601.67 488.618 1605.75 483.91 1608.75C479.243 1611.75 473.598 1613.25 466.973 1613.25C460.348 1613.25 454.681 1611.75 449.973 1608.75C445.264 1605.75 441.66 1601.67 439.16 1596.5C436.66 1591.29 435.41 1585.42 435.41 1578.88V1577.56ZM450.91 1578.88C450.91 1582.88 451.473 1586.54 452.598 1589.88C453.723 1593.17 455.452 1595.81 457.785 1597.81C460.16 1599.81 463.223 1600.81 466.973 1600.81C470.681 1600.81 473.702 1599.81 476.035 1597.81C478.41 1595.81 480.139 1593.17 481.223 1589.88C482.348 1586.54 482.91 1582.88 482.91 1578.88V1577.56C482.91 1573.6 482.348 1569.96 481.223 1566.62C480.139 1563.29 478.41 1560.62 476.035 1558.62C473.66 1556.58 470.598 1555.56 466.848 1555.56C463.139 1555.56 460.098 1556.58 457.723 1558.62C455.389 1560.62 453.66 1563.29 452.535 1566.62C451.452 1569.96 450.91 1573.6 450.91 1577.56V1578.88ZM545.938 1555.81H507.562V1544.38H545.938V1555.81ZM533.938 1527.81V1592.94C533.938 1595.02 534.229 1596.6 534.812 1597.69C535.396 1598.73 536.229 1599.44 537.312 1599.81C538.396 1600.19 539.646 1600.38 541.062 1600.38C542.104 1600.38 543.104 1600.31 544.062 1600.19C545.021 1600.06 545.792 1599.94 546.375 1599.81V1611.75C545.125 1612.17 543.667 1612.52 542 1612.81C540.375 1613.1 538.458 1613.25 536.25 1613.25C532.792 1613.25 529.708 1612.62 527 1611.38C524.333 1610.12 522.229 1608.1 520.688 1605.31C519.188 1602.48 518.438 1598.73 518.438 1594.06V1527.81H533.938ZM598.965 1593.56C598.965 1592.15 598.59 1590.85 597.84 1589.69C597.132 1588.52 595.736 1587.44 593.653 1586.44C591.569 1585.44 588.507 1584.52 584.465 1583.69C579.673 1582.69 575.444 1581.35 571.778 1579.69C568.153 1578.02 565.319 1575.88 563.278 1573.25C561.278 1570.62 560.278 1567.42 560.278 1563.62C560.278 1559.96 561.319 1556.58 563.403 1553.5C565.528 1550.38 568.548 1547.88 572.465 1546C576.423 1544.08 581.09 1543.12 586.465 1543.12C592.132 1543.12 597.007 1544.08 601.09 1546C605.173 1547.88 608.298 1550.44 610.465 1553.69C612.673 1556.9 613.778 1560.54 613.778 1564.62H598.278C598.278 1561.96 597.278 1559.62 595.278 1557.62C593.319 1555.58 590.361 1554.56 586.403 1554.56C583.944 1554.56 581.882 1554.96 580.215 1555.75C578.59 1556.54 577.361 1557.56 576.528 1558.81C575.736 1560.06 575.34 1561.44 575.34 1562.94C575.34 1564.4 575.736 1565.67 576.528 1566.75C577.361 1567.83 578.757 1568.79 580.715 1569.62C582.715 1570.46 585.507 1571.25 589.09 1572C594.257 1573.08 598.715 1574.46 602.465 1576.12C606.215 1577.75 609.09 1579.92 611.09 1582.62C613.132 1585.29 614.153 1588.69 614.153 1592.81C614.153 1596.77 613.007 1600.29 610.715 1603.38C608.465 1606.46 605.278 1608.88 601.153 1610.62C597.069 1612.38 592.236 1613.25 586.653 1613.25C580.444 1613.25 575.215 1612.15 570.965 1609.94C566.715 1607.73 563.486 1604.92 561.278 1601.5C559.111 1598.04 558.028 1594.46 558.028 1590.75H572.965C573.132 1593.42 573.882 1595.56 575.215 1597.19C576.59 1598.81 578.298 1600 580.34 1600.75C582.423 1601.46 584.59 1601.81 586.84 1601.81C589.507 1601.81 591.715 1601.46 593.465 1600.75C595.257 1600.04 596.611 1599.08 597.528 1597.88C598.486 1596.62 598.965 1595.19 598.965 1593.56ZM631.68 1604.25C631.68 1601.79 632.472 1599.75 634.055 1598.12C635.68 1596.46 637.888 1595.62 640.68 1595.62C643.513 1595.62 645.722 1596.46 647.305 1598.12C648.93 1599.75 649.742 1601.79 649.742 1604.25C649.742 1606.62 648.93 1608.62 647.305 1610.25C645.722 1611.88 643.513 1612.69 640.68 1612.69C637.888 1612.69 635.68 1611.88 634.055 1610.25C632.472 1608.62 631.68 1606.62 631.68 1604.25Z" fill="#EDEDED"/>
</g>
<g filter="url(#filter3_i_642_74)">
<path d="M148.377 256H125.221L172.047 131.586H186.744L185.292 149.274L148.377 256ZM178.883 149.274L177.259 131.586H192.042L239.039 256H215.882L178.883 149.274ZM214.43 227.545H146.668V209.772H214.43V227.545ZM297.268 179.181H244.802V163.544H297.268V179.181ZM280.861 140.9V229.938C280.861 232.786 281.26 234.951 282.058 236.432C282.855 237.856 283.994 238.825 285.476 239.337C286.957 239.85 288.666 240.106 290.603 240.106C292.027 240.106 293.394 240.021 294.704 239.85C296.014 239.679 297.068 239.508 297.866 239.337V255.658C296.157 256.228 294.163 256.712 291.884 257.111C289.663 257.51 287.042 257.709 284.023 257.709C279.295 257.709 275.079 256.854 271.376 255.146C267.731 253.437 264.854 250.674 262.746 246.857C260.695 242.983 259.67 237.856 259.67 231.476V140.9H280.861ZM362.503 179.181H310.037V163.544H362.503V179.181ZM346.097 140.9V229.938C346.097 232.786 346.495 234.951 347.293 236.432C348.09 237.856 349.23 238.825 350.711 239.337C352.192 239.85 353.901 240.106 355.838 240.106C357.262 240.106 358.629 240.021 359.939 239.85C361.25 239.679 362.304 239.508 363.101 239.337V255.658C361.392 256.228 359.398 256.712 357.12 257.111C354.898 257.51 352.278 257.709 349.258 257.709C344.53 257.709 340.315 256.854 336.612 255.146C332.966 253.437 330.089 250.674 327.981 246.857C325.931 242.983 324.905 237.856 324.905 231.476V140.9H346.097ZM424.32 257.709C415.149 257.709 407.23 255.744 400.565 251.813C393.9 247.825 388.773 242.471 385.185 235.749C381.596 228.97 379.801 221.393 379.801 213.019V209.516C379.801 199.888 381.624 191.514 385.27 184.394C388.916 177.216 393.9 171.662 400.224 167.731C406.604 163.8 413.81 161.835 421.842 161.835C430.729 161.835 438.106 163.772 443.974 167.646C449.841 171.462 454.228 176.789 457.133 183.625C460.038 190.403 461.491 198.265 461.491 207.208V216.352H389.97V201.056H440.556V199.433C440.442 195.844 439.758 192.483 438.505 189.35C437.252 186.216 435.258 183.681 432.523 181.745C429.846 179.808 426.257 178.839 421.757 178.839C417.257 178.839 413.468 180.121 410.392 182.685C407.316 185.191 404.98 188.751 403.385 193.366C401.79 197.923 400.993 203.306 400.993 209.516V213.019C400.993 218.26 401.961 222.96 403.898 227.118C405.835 231.277 408.655 234.581 412.357 237.03C416.06 239.423 420.475 240.619 425.602 240.619C430.558 240.619 434.944 239.651 438.761 237.714C442.635 235.777 445.967 232.986 448.759 229.34L459.867 240.448C456.962 244.835 452.576 248.822 446.708 252.411C440.897 255.943 433.435 257.709 424.32 257.709ZM503.569 256H482.378V163.544H502.288L503.569 183.283V256ZM492.974 206.525C493.031 197.581 494.597 189.777 497.673 183.112C500.75 176.39 505.05 171.177 510.576 167.475C516.102 163.715 522.539 161.835 529.888 161.835C535.869 161.835 541.053 162.974 545.439 165.253C549.826 167.475 553.244 171.12 555.693 176.19C558.143 181.203 559.368 187.954 559.368 196.442V256H538.091V196.271C538.091 191.999 537.464 188.609 536.211 186.103C535.015 183.596 533.192 181.83 530.742 180.805C528.35 179.722 525.416 179.181 521.941 179.181C518.409 179.181 515.276 179.893 512.542 181.317C509.864 182.685 507.557 184.621 505.62 187.128C503.74 189.634 502.288 192.54 501.262 195.844C500.294 199.148 499.81 202.68 499.81 206.439L492.974 206.525ZM628.277 179.181H575.812V163.544H628.277V179.181ZM611.871 140.9V229.938C611.871 232.786 612.27 234.951 613.067 236.432C613.865 237.856 615.004 238.825 616.485 239.337C617.966 239.85 619.675 240.106 621.612 240.106C623.036 240.106 624.404 240.021 625.714 239.85C627.024 239.679 628.078 239.508 628.875 239.337V255.658C627.167 256.228 625.173 256.712 622.894 257.111C620.672 257.51 618.052 257.709 615.033 257.709C610.305 257.709 606.089 256.854 602.386 255.146C598.74 253.437 595.864 250.674 593.756 246.857C591.705 242.983 590.68 237.856 590.68 231.476V140.9H611.871ZM671.723 256H650.532V163.544H671.723V256ZM649.165 139.362C649.165 136.115 650.218 133.437 652.326 131.33C654.434 129.165 657.368 128.083 661.127 128.083C664.887 128.083 667.849 129.165 670.014 131.33C672.179 133.437 673.261 136.115 673.261 139.362C673.261 142.552 672.179 145.229 670.014 147.394C667.849 149.502 664.887 150.556 661.127 150.556C657.368 150.556 654.434 149.502 652.326 147.394C650.218 145.229 649.165 142.552 649.165 139.362ZM695.43 208.917C695.43 199.917 697.139 191.885 700.557 184.821C703.975 177.757 708.874 172.174 715.254 168.073C721.692 163.914 729.41 161.835 738.411 161.835C747.526 161.835 755.302 163.914 761.739 168.073C768.176 172.174 773.075 177.757 776.436 184.821C779.854 191.885 781.563 199.917 781.563 208.917V210.712C781.563 219.656 779.854 227.688 776.436 234.809C773.075 241.872 768.176 247.455 761.739 251.557C755.359 255.658 747.64 257.709 738.582 257.709C729.524 257.709 721.777 255.658 715.34 251.557C708.903 247.455 703.975 241.872 700.557 234.809C697.139 227.688 695.43 219.656 695.43 210.712V208.917ZM716.622 210.712C716.622 216.181 717.391 221.194 718.929 225.751C720.467 230.251 722.831 233.869 726.021 236.603C729.268 239.337 733.455 240.705 738.582 240.705C743.652 240.705 747.782 239.337 750.972 236.603C754.219 233.869 756.583 230.251 758.064 225.751C759.603 221.194 760.372 216.181 760.372 210.712V208.917C760.372 203.506 759.603 198.521 758.064 193.964C756.583 189.407 754.219 185.761 750.972 183.026C747.725 180.235 743.538 178.839 738.411 178.839C733.341 178.839 729.183 180.235 725.936 183.026C722.745 185.761 720.381 189.407 718.843 193.964C717.362 198.521 716.622 203.506 716.622 208.917V210.712ZM825.009 256H803.817V163.544H823.727L825.009 183.283V256ZM814.413 206.525C814.47 197.581 816.037 189.777 819.113 183.112C822.189 176.39 826.49 171.177 832.016 167.475C837.541 163.715 843.979 161.835 851.327 161.835C857.309 161.835 862.493 162.974 866.879 165.253C871.265 167.475 874.683 171.12 877.133 176.19C879.582 181.203 880.807 187.954 880.807 196.442V256H859.53V196.271C859.53 191.999 858.904 188.609 857.65 186.103C856.454 183.596 854.631 181.83 852.182 180.805C849.789 179.722 846.855 179.181 843.38 179.181C839.848 179.181 836.715 179.893 833.981 181.317C831.304 182.685 828.996 184.621 827.06 187.128C825.18 189.634 823.727 192.54 822.702 195.844C821.733 199.148 821.249 202.68 821.249 206.439L814.413 206.525Z" fill="#EDEDED"/>
</g>
<mask id="mask0_642_74" style="mask-type:alpha" maskUnits="userSpaceOnUse" x="156" y="356" width="700" height="700">
<circle cx="506" cy="706" r="350" fill="#D9D9D9"/>
</mask>
<g mask="url(#mask0_642_74)">
<path fill-rule="evenodd" clip-rule="evenodd" d="M295.672 900.841C275.669 907.837 259.02 913.96 246.398 918.811L248.704 928.639L257.755 967.21L260.061 977.038C273.524 975.768 291.158 973.846 312.185 971.215C386.363 961.807 502.928 943.489 624.225 915.109C646.568 909.853 669.178 904.232 691.855 898.231C722.513 890.119 784.71 864.917 786.704 822.744C766.159 785.86 699.244 790.954 668.177 797.326C645.199 802.039 622.45 807.061 600.103 812.291C478.841 840.829 366.293 876.272 295.672 900.841ZM481.4 871.9C460.263 877.299 451.182 884.508 441.128 903.869C458.773 916.698 470.069 919.088 491.402 914.521C512.734 909.955 534.988 904.477 543.449 902.309L552.334 888.692L547.463 867.93L533.447 859.687C524.906 861.508 502.538 866.501 481.4 871.9ZM655.848 833.711L565.286 854.961L569.669 873.637L569.684 873.703L574.066 892.378L664.628 871.128L660.246 852.452L660.231 852.386L655.848 833.711ZM694.596 844.387C696.08 850.711 692.156 857.041 685.833 858.525C679.509 860.009 673.179 856.085 671.695 849.761C671.693 849.752 671.691 849.742 671.689 849.733C671.687 849.723 671.684 849.714 671.682 849.704C670.198 843.38 674.122 837.051 680.446 835.567C686.769 834.083 693.099 838.007 694.583 844.33C694.585 844.34 694.587 844.349 694.589 844.359C694.592 844.368 694.594 844.378 694.596 844.387Z" fill="#EDEDED"/>
<path fill-rule="evenodd" clip-rule="evenodd" d="M680.446 835.567C686.769 834.083 693.099 838.007 694.583 844.33L694.589 844.359C693.093 838.052 686.773 834.142 680.459 835.624C674.145 837.106 670.223 843.418 671.689 849.733L671.682 849.704C670.198 843.38 674.122 837.051 680.446 835.567ZM671.689 849.733L671.695 849.761C673.179 856.085 679.509 860.009 685.833 858.525C692.156 857.041 696.08 850.711 694.596 844.387L694.589 844.359C696.055 850.673 692.134 856.986 685.819 858.468C679.505 859.949 673.185 856.04 671.689 849.733Z" fill="#EDEDED"/>
<path d="M354.933 762.921L326.466 674.878L414.51 646.411L354.933 762.921Z" stroke="#EDEDED" stroke-width="5"/>
<path d="M426.905 652.749L455.371 740.793L367.327 769.259L426.905 652.749Z" stroke="#EDEDED" stroke-width="5"/>
<path d="M385.406 575.024L409.588 485.709L498.904 509.891L385.406 575.024Z" stroke="#EDEDED" stroke-width="5"/>
<path d="M505.833 521.965L481.651 611.281L392.335 587.099L505.833 521.965Z" stroke="#EDEDED" stroke-width="5"/>
<path d="M578.311 692.528L541.891 607.465L626.953 571.045L578.311 692.528Z" stroke="#EDEDED" stroke-width="5"/>
<path d="M639.877 576.22L676.297 661.282L591.235 697.702L639.877 576.22Z" stroke="#EDEDED" stroke-width="5"/>
<path d="M277.187 643C295.309 643 310 628.309 310 610.188C310 592.066 295.309 577.375 277.187 577.375C259.065 577.375 244.375 592.066 244.375 610.188C244.375 628.309 259.065 643 277.187 643Z" stroke="#EDEDED" stroke-width="5"/>
<path d="M577.312 496.875C595.434 496.875 610.125 482.184 610.125 464.063C610.125 445.941 595.434 431.25 577.312 431.25C559.191 431.25 544.5 445.941 544.5 464.062C544.5 482.184 559.191 496.875 577.312 496.875Z" stroke="#EDEDED" stroke-width="5"/>
<path d="M523.062 782.125C541.184 782.125 555.875 767.434 555.875 749.313C555.875 731.191 541.184 716.5 523.062 716.5C504.941 716.5 490.25 731.191 490.25 749.312C490.25 767.434 504.941 782.125 523.062 782.125Z" stroke="#EDEDED" stroke-width="5"/>
<path d="M742.687 681.5C760.809 681.5 775.5 666.809 775.5 648.688C775.5 630.566 760.809 615.875 742.687 615.875C724.566 615.875 709.875 630.566 709.875 648.688C709.875 666.809 724.566 681.5 742.687 681.5Z" stroke="#EDEDED" stroke-width="5"/>
</g>
<g filter="url(#filter4_di_642_74)">
<circle cx="506" cy="706" r="350" stroke="#6F9FC4" stroke-width="50" shape-rendering="crispEdges"/>
</g>
<mask id="mask1_642_74" style="mask-type:alpha" maskUnits="userSpaceOnUse" x="131" y="331" width="750" height="750">
<circle cx="506" cy="706" r="350" stroke="#6F9FC4" stroke-width="50"/>
</mask>
<g mask="url(#mask1_642_74)">
<path fill-rule="evenodd" clip-rule="evenodd" d="M506 381C326.507 381 181 526.507 181 706C181 885.493 326.507 1081 506 1081C685.493 1081 881 885.493 881 706C881 526.507 685.493 381 506 381Z" fill="#6F9FC4"/>
</g>
<rect x="237.667" y="478.915" width="58.3333" height="700" transform="rotate(-45 237.667 478.915)" fill="#6F9FC4"/>
<g filter="url(#filter5_dii_642_74)">
<circle cx="113.646" cy="113.646" r="31" fill="#EDEDED"/>
</g>
<g filter="url(#filter6_dii_642_74)">
<circle cx="899.354" cy="113.646" r="31" fill="#EDEDED"/>
</g>
<g filter="url(#filter7_dii_642_74)">
<circle cx="113.646" cy="1638" r="31" fill="#EDEDED"/>
</g>
<g filter="url(#filter8_dii_642_74)">
<circle cx="899.354" cy="1638" r="31" fill="#EDEDED"/>
</g>
</g>
<defs>
<filter id="filter0_di_642_74" x="0" y="0" width="1023" height="1774" filterUnits="userSpaceOnUse" color-interpolation-filters="sRGB">
<feFlood flood-opacity="0" result="BackgroundImageFix"/>
<feColorMatrix in="SourceAlpha" type="matrix" values="0 0 0 0 0 0 0 0 0 0 0 0 0 0 0 0 0 0 127 0" result="hardAlpha"/>
<feOffset dx="10" dy="20"/>
<feComposite in2="hardAlpha" operator="out"/>
<feColorMatrix type="matrix" values="0 0 0 0 0 0 0 0 0 0 0 0 0 0 0 0 0 0 0.25 0"/>
<feBlend mode="multiply" in2="BackgroundImageFix" result="effect1_dropShadow_642_74"/>
<feBlend mode="normal" in="SourceGraphic" in2="effect1_dropShadow_642_74" result="shape"/>
<feColorMatrix in="SourceAlpha" type="matrix" values="0 0 0 0 0 0 0 0 0 0 0 0 0 0 0 0 0 0 127 0" result="hardAlpha"/>
<feOffset dx="5" dy="10"/>
<feComposite in2="hardAlpha" operator="arithmetic" k2="-1" k3="1"/>
<feColorMatrix type="matrix" values="0 0 0 0 1 0 0 0 0 1 0 0 0 0 1 0 0 0 0.25 0"/>
<feBlend mode="normal" in2="shape" result="effect2_innerShadow_642_74"/>
</filter>
<filter id="filter1_i_642_74" x="24.6897" y="37.5" width="965.064" height="1678" filterUnits="userSpaceOnUse" color-interpolation-filters="sRGB">
<feFlood flood-opacity="0" result="BackgroundImageFix"/>
<feBlend mode="normal" in="SourceGraphic" in2="BackgroundImageFix" result="shape"/>
<feColorMatrix in="SourceAlpha" type="matrix" values="0 0 0 0 0 0 0 0 0 0 0 0 0 0 0 0 0 0 127 0" result="hardAlpha"/>
<feOffset dx="3" dy="6"/>
<feComposite in2="hardAlpha" operator="arithmetic" k2="-1" k3="1"/>
<feColorMatrix type="matrix" values="0 0 0 0 0 0 0 0 0 0 0 0 0 0 0 0 0 0 0.25 0"/>
<feBlend mode="normal" in2="shape" result="effect1_innerShadow_642_74"/>
</filter>
<filter id="filter2_i_642_74" x="147.335" y="1140" width="719.052" height="473.25" filterUnits="userSpaceOnUse" color-interpolation-filters="sRGB">
<feFlood flood-opacity="0" result="BackgroundImageFix"/>
<feBlend mode="normal" in="SourceGraphic" in2="BackgroundImageFix" result="shape"/>
<feColorMatrix in="SourceAlpha" type="matrix" values="0 0 0 0 0 0 0 0 0 0 0 0 0 0 0 0 0 0 127 0" result="hardAlpha"/>
<feOffset dx="1.5" dy="3"/>
<feComposite in2="hardAlpha" operator="arithmetic" k2="-1" k3="1"/>
<feColorMatrix type="matrix" values="0 0 0 0 0 0 0 0 0 0 0 0 0 0 0 0 0 0 0.5 0"/>
<feBlend mode="multiply" in2="shape" result="effect1_innerShadow_642_74"/>
</filter>
<filter id="filter3_i_642_74" x="125.221" y="128.083" width="755.586" height="129.626" filterUnits="userSpaceOnUse" color-interpolation-filters="sRGB">
<feFlood flood-opacity="0" result="BackgroundImageFix"/>
<feBlend mode="normal" in="SourceGraphic" in2="BackgroundImageFix" result="shape"/>
<feColorMatrix in="SourceAlpha" type="matrix" values="0 0 0 0 0 0 0 0 0 0 0 0 0 0 0 0 0 0 127 0" result="hardAlpha"/>
<feOffset dx="1.5" dy="3"/>
<feComposite in2="hardAlpha" operator="arithmetic" k2="-1" k3="1"/>
<feColorMatrix type="matrix" values="0 0 0 0 0 0 0 0 0 0 0 0 0 0 0 0 0 0 0.25 0"/>
<feBlend mode="normal" in2="shape" result="effect1_innerShadow_642_74"/>
</filter>
<filter id="filter4_di_642_74" x="131" y="331" width="770" height="790" filterUnits="userSpaceOnUse" color-interpolation-filters="sRGB">
<feFlood flood-opacity="0" result="BackgroundImageFix"/>
<feColorMatrix in="SourceAlpha" type="matrix" values="0 0 0 0 0 0 0 0 0 0 0 0 0 0 0 0 0 0 127 0" result="hardAlpha"/>
<feOffset dx="20" dy="40"/>
<feComposite in2="hardAlpha" operator="out"/>
<feColorMatrix type="matrix" values="0 0 0 0 0 0 0 0 0 0 0 0 0 0 0 0 0 0 0.25 0"/>
<feBlend mode="normal" in2="BackgroundImageFix" result="effect1_dropShadow_642_74"/>
<feBlend mode="normal" in="SourceGraphic" in2="effect1_dropShadow_642_74" result="shape"/>
<feColorMatrix in="SourceAlpha" type="matrix" values="0 0 0 0 0 0 0 0 0 0 0 0 0 0 0 0 0 0 127 0" result="hardAlpha"/>
<feOffset dx="5" dy="10"/>
<feComposite in2="hardAlpha" operator="arithmetic" k2="-1" k3="1"/>
<feColorMatrix type="matrix" values="0 0 0 0 1 0 0 0 0 1 0 0 0 0 1 0 0 0 0.25 0"/>
<feBlend mode="normal" in2="shape" result="effect2_innerShadow_642_74"/>
</filter>
<filter id="filter5_dii_642_74" x="82.646" y="82.646" width="72" height="82" filterUnits="userSpaceOnUse" color-interpolation-filters="sRGB">
<feFlood flood-opacity="0" result="BackgroundImageFix"/>
<feColorMatrix in="SourceAlpha" type="matrix" values="0 0 0 0 0 0 0 0 0 0 0 0 0 0 0 0 0 0 127 0" result="hardAlpha"/>
<feOffset dx="10" dy="20"/>
<feComposite in2="hardAlpha" operator="out"/>
<feColorMatrix type="matrix" values="0 0 0 0 0 0 0 0 0 0 0 0 0 0 0 0 0 0 0.25 0"/>
<feBlend mode="multiply" in2="BackgroundImageFix" result="effect1_dropShadow_642_74"/>
<feBlend mode="normal" in="SourceGraphic" in2="effect1_dropShadow_642_74" result="shape"/>
<feColorMatrix in="SourceAlpha" type="matrix" values="0 0 0 0 0 0 0 0 0 0 0 0 0 0 0 0 0 0 127 0" result="hardAlpha"/>
<feOffset dx="-3" dy="-6"/>
<feComposite in2="hardAlpha" operator="arithmetic" k2="-1" k3="1"/>
<feColorMatrix type="matrix" values="0 0 0 0 0 0 0 0 0 0 0 0 0 0 0 0 0 0 1 0"/>
<feBlend mode="overlay" in2="shape" result="effect2_innerShadow_642_74"/>
<feColorMatrix in="SourceAlpha" type="matrix" values="0 0 0 0 0 0 0 0 0 0 0 0 0 0 0 0 0 0 127 0" result="hardAlpha"/>
<feOffset dx="3" dy="6"/>
<feComposite in2="hardAlpha" operator="arithmetic" k2="-1" k3="1"/>
<feColorMatrix type="matrix" values="0 0 0 0 1 0 0 0 0 1 0 0 0 0 1 0 0 0 1 0"/>
<feBlend mode="soft-light" in2="effect2_innerShadow_642_74" result="effect3_innerShadow_642_74"/>
</filter>
<filter id="filter6_dii_642_74" x="868.354" y="82.646" width="72" height="82" filterUnits="userSpaceOnUse" color-interpolation-filters="sRGB">
<feFlood flood-opacity="0" result="BackgroundImageFix"/>
<feColorMatrix in="SourceAlpha" type="matrix" values="0 0 0 0 0 0 0 0 0 0 0 0 0 0 0 0 0 0 127 0" result="hardAlpha"/>
<feOffset dx="10" dy="20"/>
<feComposite in2="hardAlpha" operator="out"/>
<feColorMatrix type="matrix" values="0 0 0 0 0 0 0 0 0 0 0 0 0 0 0 0 0 0 0.25 0"/>
<feBlend mode="multiply" in2="BackgroundImageFix" result="effect1_dropShadow_642_74"/>
<feBlend mode="normal" in="SourceGraphic" in2="effect1_dropShadow_642_74" result="shape"/>
<feColorMatrix in="SourceAlpha" type="matrix" values="0 0 0 0 0 0 0 0 0 0 0 0 0 0 0 0 0 0 127 0" result="hardAlpha"/>
<feOffset dx="-3" dy="-6"/>
<feComposite in2="hardAlpha" operator="arithmetic" k2="-1" k3="1"/>
<feColorMatrix type="matrix" values="0 0 0 0 0 0 0 0 0 0 0 0 0 0 0 0 0 0 1 0"/>
<feBlend mode="overlay" in2="shape" result="effect2_innerShadow_642_74"/>
<feColorMatrix in="SourceAlpha" type="matrix" values="0 0 0 0 0 0 0 0 0 0 0 0 0 0 0 0 0 0 127 0" result="hardAlpha"/>
<feOffset dx="3" dy="6"/>
<feComposite in2="hardAlpha" operator="arithmetic" k2="-1" k3="1"/>
<feColorMatrix type="matrix" values="0 0 0 0 1 0 0 0 0 1 0 0 0 0 1 0 0 0 1 0"/>
<feBlend mode="soft-light" in2="effect2_innerShadow_642_74" result="effect3_innerShadow_642_74"/>
</filter>
<filter id="filter7_dii_642_74" x="82.646" y="1607" width="72" height="82" filterUnits="userSpaceOnUse" color-interpolation-filters="sRGB">
<feFlood flood-opacity="0" result="BackgroundImageFix"/>
<feColorMatrix in="SourceAlpha" type="matrix" values="0 0 0 0 0 0 0 0 0 0 0 0 0 0 0 0 0 0 127 0" result="hardAlpha"/>
<feOffset dx="10" dy="20"/>
<feComposite in2="hardAlpha" operator="out"/>
<feColorMatrix type="matrix" values="0 0 0 0 0 0 0 0 0 0 0 0 0 0 0 0 0 0 0.25 0"/>
<feBlend mode="multiply" in2="BackgroundImageFix" result="effect1_dropShadow_642_74"/>
<feBlend mode="normal" in="SourceGraphic" in2="effect1_dropShadow_642_74" result="shape"/>
<feColorMatrix in="SourceAlpha" type="matrix" values="0 0 0 0 0 0 0 0 0 0 0 0 0 0 0 0 0 0 127 0" result="hardAlpha"/>
<feOffset dx="-3" dy="-6"/>
<feComposite in2="hardAlpha" operator="arithmetic" k2="-1" k3="1"/>
<feColorMatrix type="matrix" values="0 0 0 0 0 0 0 0 0 0 0 0 0 0 0 0 0 0 1 0"/>
<feBlend mode="overlay" in2="shape" result="effect2_innerShadow_642_74"/>
<feColorMatrix in="SourceAlpha" type="matrix" values="0 0 0 0 0 0 0 0 0 0 0 0 0 0 0 0 0 0 127 0" result="hardAlpha"/>
<feOffset dx="3" dy="6"/>
<feComposite in2="hardAlpha" operator="arithmetic" k2="-1" k3="1"/>
<feColorMatrix type="matrix" values="0 0 0 0 1 0 0 0 0 1 0 0 0 0 1 0 0 0 1 0"/>
<feBlend mode="soft-light" in2="effect2_innerShadow_642_74" result="effect3_innerShadow_642_74"/>
</filter>
<filter id="filter8_dii_642_74" x="868.354" y="1607" width="72" height="82" filterUnits="userSpaceOnUse" color-interpolation-filters="sRGB">
<feFlood flood-opacity="0" result="BackgroundImageFix"/>
<feColorMatrix in="SourceAlpha" type="matrix" values="0 0 0 0 0 0 0 0 0 0 0 0 0 0 0 0 0 0 127 0" result="hardAlpha"/>
<feOffset dx="10" dy="20"/>
<feComposite in2="hardAlpha" operator="out"/>
<feColorMatrix type="matrix" values="0 0 0 0 0 0 0 0 0 0 0 0 0 0 0 0 0 0 0.25 0"/>
<feBlend mode="multiply" in2="BackgroundImageFix" result="effect1_dropShadow_642_74"/>
<feBlend mode="normal" in="SourceGraphic" in2="effect1_dropShadow_642_74" result="shape"/>
<feColorMatrix in="SourceAlpha" type="matrix" values="0 0 0 0 0 0 0 0 0 0 0 0 0 0 0 0 0 0 127 0" result="hardAlpha"/>
<feOffset dx="-3" dy="-6"/>
<feComposite in2="hardAlpha" operator="arithmetic" k2="-1" k3="1"/>
<feColorMatrix type="matrix" values="0 0 0 0 0 0 0 0 0 0 0 0 0 0 0 0 0 0 1 0"/>
<feBlend mode="overlay" in2="shape" result="effect2_innerShadow_642_74"/>
<feColorMatrix in="SourceAlpha" type="matrix" values="0 0 0 0 0 0 0 0 0 0 0 0 0 0 0 0 0 0 127 0" result="hardAlpha"/>
<feOffset dx="3" dy="6"/>
<feComposite in2="hardAlpha" operator="arithmetic" k2="-1" k3="1"/>
<feColorMatrix type="matrix" values="0 0 0 0 1 0 0 0 0 1 0 0 0 0 1 0 0 0 1 0"/>
<feBlend mode="soft-light" in2="effect2_innerShadow_642_74" result="effect3_innerShadow_642_74"/>
</filter>
</defs>
</svg>
