<svg width="2418" height="1296" viewBox="0 0 2418 1296" fill="none" xmlns="http://www.w3.org/2000/svg">
<rect width="2418" height="1296" rx="50" fill="white"/>
<path d="M2326 97H1131.18V390.171H2326V97Z" fill="#9F231B"/>
<path d="M1131.18 97H89V1177H1131.18M1131.18 97H2326V390.171M1131.18 97V390.171M1131.18 1177H2326V390.171M1131.18 1177V390.171M1131.18 390.171H2326" stroke="black" stroke-width="21"/>
<path d="M576.201 287.411C593.322 256.045 638.413 256.188 655.335 287.662L1005.35 938.691C1021.47 968.67 999.753 1005 965.715 1005H260.331C226.167 1005 204.464 968.426 220.833 938.439L576.201 287.411Z" fill="#E8CA10"/>
<path fill-rule="evenodd" clip-rule="evenodd" d="M615.6 340.462L285.608 945H940.62L615.6 340.462ZM655.335 287.662C638.413 256.188 593.322 256.045 576.201 287.411L220.833 938.439C204.464 968.426 226.167 1005 260.331 1005H965.715C999.753 1005 1021.47 968.67 1005.35 938.691L655.335 287.662Z" fill="black"/>
<path fill-rule="evenodd" clip-rule="evenodd" d="M598.574 267.295C609.586 262.825 622.107 262.865 633.09 267.405C642.102 271.13 650.078 277.884 655.335 287.662L1005.35 938.691C1010.58 948.41 1011.82 958.796 1009.97 968.395C1007.95 978.808 1002.28 988.294 994.064 995C986.489 1001.18 976.75 1005 965.715 1005H260.331C249.292 1005 239.554 1001.18 231.98 995C223.69 988.233 217.994 978.635 216.026 968.115C214.229 958.506 215.543 948.129 220.833 938.439L576.201 287.411C581.52 277.666 589.539 270.963 598.574 267.295ZM532.314 263.454C568.459 197.238 663.65 197.54 699.373 263.985L1049.39 915.014C1083.42 978.304 1037.57 1055 965.715 1055H260.331C188.207 1055 142.389 977.789 176.945 914.483L532.314 263.454ZM285.608 945H940.62L615.6 340.462L285.608 945ZM615.266 445.43L369.865 895H856.97L615.266 445.43Z" fill="#E8CA10"/>
<path d="M581 486.5H651L570 681.5L683 615L625 848L658 827.5L599.5 925.5L577 815.5L597.5 843.5L622 676.5L517.5 739.5L581 486.5Z" fill="black"/>
<path d="M1270.11 157.657C1274.25 150.087 1285.13 150.122 1289.21 157.718L1373.69 314.847C1377.58 322.082 1372.34 330.851 1364.12 330.851H1193.88C1185.63 330.851 1180.39 322.023 1184.34 314.786L1270.11 157.657Z" fill="#E8CA10"/>
<path fill-rule="evenodd" clip-rule="evenodd" d="M1279.62 170.461L1199.98 316.369H1358.07L1279.62 170.461ZM1289.21 157.718C1285.13 150.122 1274.25 150.087 1270.11 157.657L1184.34 314.786C1180.39 322.023 1185.63 330.851 1193.88 330.851H1364.12C1372.34 330.851 1377.58 322.082 1373.69 314.847L1289.21 157.718Z" fill="black"/>
<path d="M101.002 1232.56H105.97C104.998 1236.5 102.406 1239.68 97.006 1239.68C91.282 1239.68 87.394 1235.47 87.394 1229.32C87.394 1223.75 90.796 1218.79 97.06 1218.73C103.108 1218.68 105.7 1222.89 105.97 1225.91H101.164C100.678 1224.46 99.652 1222.89 97.006 1222.89C94.522 1222.89 92.524 1225.05 92.524 1228.99C92.524 1233.1 94.306 1235.47 97.114 1235.47C99.328 1235.47 100.462 1234.12 101.002 1232.56ZM96.844 1210.31C107.266 1210.31 115.204 1218.19 115.204 1229.42C115.204 1240.49 107.212 1248.54 96.844 1248.54C86.26 1248.54 78.322 1240.93 78.322 1229.42C78.322 1218.52 86.314 1210.31 96.844 1210.31ZM96.79 1213.71C88.312 1213.71 82.048 1219.6 82.048 1229.48C82.048 1238.44 88.312 1245.14 96.79 1245.14C105.106 1245.14 111.478 1239.41 111.478 1229.48C111.478 1220.08 105.16 1213.71 96.79 1213.71Z" fill="black"/>
<path d="M143.84 1236.5H151.94C150.482 1243.46 145.244 1248.54 135.902 1248.54C124.076 1248.54 118.514 1240.17 118.514 1229.59C118.514 1219.38 124.292 1210.25 136.28 1210.25C146.216 1210.25 151.022 1216.03 151.94 1222.3H143.894C143.084 1219.38 141.086 1216.52 136.01 1216.52C129.368 1216.52 126.83 1222.51 126.83 1229.32C126.83 1235.58 129.044 1242.22 136.226 1242.22C141.518 1242.22 143.138 1238.71 143.84 1236.5Z" fill="black"/>
<path d="M162.646 1248H154.87V1208.58H162.646V1248Z" fill="black"/>
<path d="M190.432 1229.05V1240.76C190.432 1243.46 190.648 1247.35 190.81 1248H183.412C183.196 1247.46 183.034 1245.95 183.034 1245.25C182.008 1246.81 180.118 1248.65 175.15 1248.65C168.4 1248.65 165.592 1244.22 165.592 1239.9C165.592 1233.53 170.668 1230.56 178.876 1230.56H182.872V1228.88C182.872 1226.89 182.17 1224.94 178.552 1224.94C175.312 1224.94 174.556 1226.29 174.232 1228.34H166.888C167.266 1223.38 170.344 1219.38 178.876 1219.38C186.328 1219.43 190.432 1222.35 190.432 1229.05ZM182.872 1236.01V1235.26H179.74C175.042 1235.26 173.314 1236.71 173.314 1239.41C173.314 1241.41 174.556 1243.14 177.364 1243.14C182.278 1243.14 182.872 1239.68 182.872 1236.01Z" fill="black"/>
<path d="M195.216 1248V1227.64C195.216 1224.83 195.216 1222.4 195.162 1220.03H202.776C202.884 1220.68 202.992 1223.43 202.992 1224.94C204.234 1221.76 207.204 1219.43 211.956 1219.38V1226.78C206.34 1226.62 202.992 1228.13 202.992 1235.8V1248H195.216Z" fill="black"/>
<path d="M213 1248V1220.03H220.776V1248H213ZM220.776 1215.49H213V1208.58H220.776V1215.49Z" fill="black"/>
<path d="M237.094 1219.38C245.302 1219.38 250.648 1225.21 250.648 1233.96C250.648 1242.44 245.572 1248.65 236.716 1248.65C228.076 1248.65 223 1242.44 223 1234.12C223 1225.48 228.238 1219.38 237.094 1219.38ZM236.77 1225.48C233.206 1225.48 230.83 1228.13 230.83 1234.01C230.83 1239.41 233.152 1242.6 236.878 1242.6C240.712 1242.6 242.818 1239.41 242.818 1234.07C242.818 1228.24 240.658 1225.48 236.77 1225.48Z" fill="black"/>
<path d="M253.838 1248V1227.1C253.838 1224.73 253.838 1222.13 253.784 1220.03H261.29C261.452 1220.78 261.56 1222.73 261.614 1223.59C262.532 1221.86 264.8 1219.38 269.714 1219.38C275.33 1219.38 278.948 1223.21 278.948 1230.23V1248H271.226V1231.1C271.226 1227.91 270.2 1225.64 266.744 1225.64C263.45 1225.64 261.614 1227.48 261.614 1232.45V1248H253.838Z" fill="black"/>
<path d="M294.908 1237.09H303.008C303.872 1240.82 306.518 1242.49 310.838 1242.49C315.158 1242.49 316.994 1240.76 316.994 1238.06C316.994 1234.99 315.212 1233.69 308.84 1232.23C298.688 1229.86 296.204 1226.13 296.204 1221.11C296.204 1214.63 301.064 1210.25 309.866 1210.25C319.748 1210.25 323.69 1215.55 324.23 1221H316.13C315.698 1218.68 314.456 1216.19 309.65 1216.19C306.356 1216.19 304.412 1217.54 304.412 1220.19C304.412 1222.78 305.978 1223.86 312.026 1225.21C322.826 1227.8 325.202 1231.8 325.202 1237.09C325.202 1243.84 320.072 1248.54 310.244 1248.54C300.794 1248.54 295.772 1243.9 294.908 1237.09Z" fill="black"/>
<path d="M351.709 1229.05V1240.76C351.709 1243.46 351.925 1247.35 352.087 1248H344.689C344.473 1247.46 344.311 1245.95 344.311 1245.25C343.285 1246.81 341.395 1248.65 336.427 1248.65C329.677 1248.65 326.869 1244.22 326.869 1239.9C326.869 1233.53 331.945 1230.56 340.153 1230.56H344.149V1228.88C344.149 1226.89 343.447 1224.94 339.829 1224.94C336.589 1224.94 335.833 1226.29 335.509 1228.34H328.165C328.543 1223.38 331.621 1219.38 340.153 1219.38C347.605 1219.43 351.709 1222.35 351.709 1229.05ZM344.149 1236.01V1235.26H341.017C336.319 1235.26 334.591 1236.71 334.591 1239.41C334.591 1241.41 335.833 1243.14 338.641 1243.14C343.555 1243.14 344.149 1239.68 344.149 1236.01Z" fill="black"/>
<path d="M364.978 1248H357.256V1225.86H353.152V1220.03H357.256V1217.6C357.256 1211.82 360.118 1208.04 366.166 1208.04C367.408 1208.04 369.028 1208.15 369.73 1208.36V1214.47C369.298 1214.41 368.704 1214.36 368.11 1214.36C365.842 1214.36 364.978 1215.17 364.978 1218.19V1220.03H369.838V1225.86H364.978V1248Z" fill="black"/>
<path d="M395.885 1235.69H377.417C377.417 1239.2 379.199 1242.6 383.033 1242.6C386.273 1242.6 387.191 1241.3 387.947 1239.63H395.669C394.697 1243.03 391.619 1248.65 382.871 1248.65C373.637 1248.65 369.641 1241.79 369.641 1234.45C369.641 1225.64 374.123 1219.38 383.141 1219.38C392.699 1219.38 395.993 1226.35 395.993 1233.31C395.993 1234.28 395.993 1234.88 395.885 1235.69ZM377.579 1230.94H388.217C388.163 1227.7 386.867 1224.94 383.087 1224.94C379.415 1224.94 377.903 1227.48 377.579 1230.94Z" fill="black"/>
<path d="M394.95 1225.86V1220.03H399.27V1212.47H406.992V1220.03H412.5V1225.86H406.992V1239.68C406.992 1241.79 407.64 1242.6 409.962 1242.6C410.394 1242.6 411.15 1242.6 411.69 1242.55V1247.84C410.178 1248.38 408.072 1248.38 406.506 1248.38C401.052 1248.38 399.27 1245.46 399.27 1240.55V1225.86H394.95Z" fill="black"/>
<path d="M409.5 1220.03H417.816C420.678 1229.69 423.216 1238.28 423.648 1240.87H423.702C424.296 1238.06 425.97 1231.8 429.264 1220.03H436.986L427.59 1248.81C424.944 1256.86 422.676 1259.23 415.98 1259.23C415.278 1259.23 413.712 1259.18 412.362 1259.02V1252.81C412.902 1252.86 413.712 1252.91 414.36 1252.91C417.222 1252.91 418.626 1251.94 419.706 1248.86L409.5 1220.03Z" fill="black"/>
<path d="M452.441 1237.09H460.541C461.405 1240.82 464.051 1242.49 468.371 1242.49C472.691 1242.49 474.527 1240.76 474.527 1238.06C474.527 1234.99 472.745 1233.69 466.373 1232.23C456.221 1229.86 453.737 1226.13 453.737 1221.11C453.737 1214.63 458.597 1210.25 467.399 1210.25C477.281 1210.25 481.223 1215.55 481.763 1221H473.663C473.231 1218.68 471.989 1216.19 467.183 1216.19C463.889 1216.19 461.945 1217.54 461.945 1220.19C461.945 1222.78 463.511 1223.86 469.559 1225.21C480.359 1227.8 482.735 1231.8 482.735 1237.09C482.735 1243.84 477.605 1248.54 467.777 1248.54C458.327 1248.54 453.305 1243.9 452.441 1237.09Z" fill="black"/>
<path d="M482.73 1220.03H491.046C493.908 1229.69 496.446 1238.28 496.878 1240.87H496.932C497.526 1238.06 499.2 1231.8 502.494 1220.03H510.216L500.82 1248.81C498.174 1256.86 495.906 1259.23 489.21 1259.23C488.508 1259.23 486.942 1259.18 485.592 1259.02V1252.81C486.132 1252.86 486.942 1252.91 487.59 1252.91C490.452 1252.91 491.856 1251.94 492.936 1248.86L482.73 1220.03Z" fill="black"/>
<path d="M508 1239.58H515.614C516.208 1241.84 518.044 1243.09 520.906 1243.09C523.768 1243.09 524.794 1242.06 524.794 1240.33C524.794 1238.55 523.606 1237.85 519.61 1236.88C510.484 1234.61 509.026 1231.8 509.026 1227.86C509.026 1223.75 511.888 1219.38 520.312 1219.38C528.79 1219.38 531.706 1224.02 531.922 1227.8H524.578C524.308 1226.78 523.606 1224.83 519.988 1224.83C517.45 1224.83 516.586 1225.97 516.586 1227.21C516.586 1228.61 517.45 1229.26 521.986 1230.34C531.328 1232.5 532.678 1235.69 532.678 1239.79C532.678 1244.44 529.114 1248.65 520.636 1248.65C512.104 1248.65 508.648 1244.54 508 1239.58Z" fill="black"/>
<path d="M532.5 1225.86V1220.03H536.82V1212.47H544.542V1220.03H550.05V1225.86H544.542V1239.68C544.542 1241.79 545.19 1242.6 547.512 1242.6C547.944 1242.6 548.7 1242.6 549.24 1242.55V1247.84C547.728 1248.38 545.622 1248.38 544.056 1248.38C538.602 1248.38 536.82 1245.46 536.82 1240.55V1225.86H532.5Z" fill="black"/>
<path d="M575.392 1235.69H556.924C556.924 1239.2 558.706 1242.6 562.54 1242.6C565.78 1242.6 566.698 1241.3 567.454 1239.63H575.176C574.204 1243.03 571.126 1248.65 562.378 1248.65C553.144 1248.65 549.148 1241.79 549.148 1234.45C549.148 1225.64 553.63 1219.38 562.648 1219.38C572.206 1219.38 575.5 1226.35 575.5 1233.31C575.5 1234.28 575.5 1234.88 575.392 1235.69ZM557.086 1230.94H567.724C567.67 1227.7 566.374 1224.94 562.594 1224.94C558.922 1224.94 557.41 1227.48 557.086 1230.94Z" fill="black"/>
<path d="M577.054 1248V1227.26C577.054 1224.83 577.054 1222.46 577 1220.03H584.398C584.506 1220.73 584.668 1222.3 584.722 1223.38C586.126 1221.32 588.394 1219.38 592.498 1219.38C596.494 1219.38 598.708 1221.49 599.68 1223.65C601.354 1221.38 603.73 1219.38 608.32 1219.38C613.18 1219.38 617.176 1222.4 617.176 1229.64V1248H609.616V1230.61C609.616 1228.07 608.698 1225.59 605.512 1225.59C602.272 1225.59 600.976 1227.75 600.976 1232.02V1248H593.362V1230.88C593.362 1228.02 592.66 1225.64 589.366 1225.64C586.234 1225.64 584.722 1227.59 584.722 1232.39V1248H577.054Z" fill="black"/>
<path d="M619.568 1239.58H627.182C627.776 1241.84 629.612 1243.09 632.474 1243.09C635.336 1243.09 636.362 1242.06 636.362 1240.33C636.362 1238.55 635.174 1237.85 631.178 1236.88C622.052 1234.61 620.594 1231.8 620.594 1227.86C620.594 1223.75 623.456 1219.38 631.88 1219.38C640.358 1219.38 643.274 1224.02 643.49 1227.8H636.146C635.876 1226.78 635.174 1224.83 631.556 1224.83C629.018 1224.83 628.154 1225.97 628.154 1227.21C628.154 1228.61 629.018 1229.26 633.554 1230.34C642.896 1232.5 644.246 1235.69 644.246 1239.79C644.246 1244.44 640.682 1248.65 632.204 1248.65C623.672 1248.65 620.216 1244.54 619.568 1239.58Z" fill="black"/>
<path d="M650.321 1254.26H644.327C647.459 1247.08 647.945 1242.44 648.323 1238.5H656.261C655.667 1243.84 653.885 1249.84 650.321 1254.26Z" fill="black"/>
<path d="M671.5 1247.44V1210.24H679.546V1240.86H698.122L697.204 1247.44H671.5Z" fill="black"/>
<path d="M700.717 1247.44V1210.24H708.763V1240.86H727.339L726.421 1247.44H700.717Z" fill="black"/>
<path d="M752.844 1235.94H760.944C759.486 1242.91 754.248 1247.98 744.906 1247.98C733.08 1247.98 727.518 1239.61 727.518 1229.03C727.518 1218.82 733.296 1209.7 745.284 1209.7C755.22 1209.7 760.026 1215.48 760.944 1221.74H752.898C752.088 1218.82 750.09 1215.96 745.014 1215.96C738.372 1215.96 735.834 1221.96 735.834 1228.76C735.834 1235.02 738.048 1241.67 745.23 1241.67C750.522 1241.67 752.142 1238.16 752.844 1235.94Z" fill="black"/>
<path d="M863.94 1236.98H871.5C870.582 1241.63 867.288 1246.65 858.972 1246.65C850.278 1246.65 845.796 1240.65 845.796 1232.23C845.796 1223.97 850.818 1217.38 859.35 1217.38C868.746 1217.38 871.392 1224.18 871.5 1227.32H863.994C863.508 1225.05 862.212 1223.48 859.188 1223.48C855.624 1223.48 853.626 1226.56 853.626 1231.96C853.626 1237.95 855.786 1240.65 859.134 1240.65C861.834 1240.65 863.238 1239.09 863.94 1236.98Z" fill="black"/>
<path d="M880.776 1246H873V1206.58H880.776V1246Z" fill="black"/>
<path d="M907.84 1227.05V1238.76C907.84 1241.46 908.056 1245.35 908.218 1246H900.82C900.604 1245.46 900.442 1243.95 900.442 1243.25C899.416 1244.81 897.526 1246.65 892.558 1246.65C885.808 1246.65 883 1242.22 883 1237.9C883 1231.53 888.076 1228.56 896.284 1228.56H900.28V1226.88C900.28 1224.89 899.578 1222.94 895.96 1222.94C892.72 1222.94 891.964 1224.29 891.64 1226.34H884.296C884.674 1221.38 887.752 1217.38 896.284 1217.38C903.736 1217.43 907.84 1220.35 907.84 1227.05ZM900.28 1234.01V1233.26H897.148C892.45 1233.26 890.722 1234.71 890.722 1237.41C890.722 1239.41 891.964 1241.14 894.772 1241.14C899.686 1241.14 900.28 1237.68 900.28 1234.01Z" fill="black"/>
<path d="M911.054 1246V1225.64C911.054 1222.83 911.054 1220.4 911 1218.03H918.614C918.722 1218.68 918.83 1221.43 918.83 1222.94C920.072 1219.76 923.042 1217.43 927.794 1217.38V1224.78C922.178 1224.62 918.83 1226.13 918.83 1233.8V1246H911.054Z" fill="black"/>
<path d="M928.392 1246V1218.03H936.168V1246H928.392ZM936.168 1213.49H928.392V1206.58H936.168V1213.49Z" fill="black"/>
<path d="M951.776 1217.38C959.984 1217.38 965.33 1223.21 965.33 1231.96C965.33 1240.44 960.254 1246.65 951.398 1246.65C942.758 1246.65 937.682 1240.44 937.682 1232.12C937.682 1223.48 942.92 1217.38 951.776 1217.38ZM951.452 1223.48C947.888 1223.48 945.512 1226.13 945.512 1232.01C945.512 1237.41 947.834 1240.6 951.56 1240.6C955.394 1240.6 957.5 1237.41 957.5 1232.07C957.5 1226.24 955.34 1223.48 951.452 1223.48Z" fill="black"/>
<path d="M967.554 1246V1225.1C967.554 1222.73 967.554 1220.13 967.5 1218.03H975.006C975.168 1218.78 975.276 1220.73 975.33 1221.59C976.248 1219.86 978.516 1217.38 983.43 1217.38C989.046 1217.38 992.664 1221.21 992.664 1228.23V1246H984.942V1229.1C984.942 1225.91 983.916 1223.64 980.46 1223.64C977.166 1223.64 975.33 1225.48 975.33 1230.45V1246H967.554Z" fill="black"/>
<path d="M993 1237.58H1000.61C1001.21 1239.84 1003.04 1241.09 1005.91 1241.09C1008.77 1241.09 1009.79 1240.06 1009.79 1238.33C1009.79 1236.55 1008.61 1235.85 1004.61 1234.88C995.484 1232.61 994.026 1229.8 994.026 1225.86C994.026 1221.75 996.888 1217.38 1005.31 1217.38C1013.79 1217.38 1016.71 1222.02 1016.92 1225.8H1009.58C1009.31 1224.78 1008.61 1222.83 1004.99 1222.83C1002.45 1222.83 1001.59 1223.97 1001.59 1225.21C1001.59 1226.61 1002.45 1227.26 1006.99 1228.34C1016.33 1230.5 1017.68 1233.69 1017.68 1237.79C1017.68 1242.44 1014.11 1246.65 1005.64 1246.65C997.104 1246.65 993.648 1242.54 993 1237.58Z" fill="black"/>
<path d="M1044.12 1227.05V1238.76C1044.12 1241.46 1044.34 1245.35 1044.5 1246H1037.1C1036.89 1245.46 1036.72 1243.95 1036.72 1243.25C1035.7 1244.81 1033.81 1246.65 1028.84 1246.65C1022.09 1246.65 1019.28 1242.22 1019.28 1237.9C1019.28 1231.53 1024.36 1228.56 1032.57 1228.56H1036.56V1226.88C1036.56 1224.89 1035.86 1222.94 1032.24 1222.94C1029 1222.94 1028.25 1224.29 1027.92 1226.34H1020.58C1020.96 1221.38 1024.03 1217.38 1032.57 1217.38C1040.02 1217.43 1044.12 1220.35 1044.12 1227.05ZM1036.56 1234.01V1233.26H1033.43C1028.73 1233.26 1027 1234.71 1027 1237.41C1027 1239.41 1028.25 1241.14 1031.05 1241.14C1035.97 1241.14 1036.56 1237.68 1036.56 1234.01Z" fill="black"/>
<path d="M1057.82 1246H1050.1V1223.86H1045.99V1218.03H1050.1V1215.6C1050.1 1209.82 1052.96 1206.04 1059.01 1206.04C1060.25 1206.04 1061.87 1206.15 1062.57 1206.36V1212.47C1062.14 1212.41 1061.55 1212.36 1060.95 1212.36C1058.68 1212.36 1057.82 1213.17 1057.82 1216.19V1218.03H1062.68V1223.86H1057.82V1246Z" fill="black"/>
<path d="M1087.92 1233.69H1069.45C1069.45 1237.2 1071.23 1240.6 1075.06 1240.6C1078.3 1240.6 1079.22 1239.3 1079.98 1237.63H1087.7C1086.73 1241.03 1083.65 1246.65 1074.9 1246.65C1065.67 1246.65 1061.67 1239.79 1061.67 1232.45C1061.67 1223.64 1066.15 1217.38 1075.17 1217.38C1084.73 1217.38 1088.02 1224.35 1088.02 1231.31C1088.02 1232.28 1088.02 1232.88 1087.92 1233.69ZM1069.61 1228.94H1080.25C1080.19 1225.7 1078.9 1222.94 1075.12 1222.94C1071.45 1222.94 1069.93 1225.48 1069.61 1228.94Z" fill="black"/>
<path d="M1086.95 1223.86V1218.03H1091.27V1210.47H1098.99V1218.03H1104.5V1223.86H1098.99V1237.68C1098.99 1239.79 1099.64 1240.6 1101.96 1240.6C1102.39 1240.6 1103.15 1240.6 1103.69 1240.55V1245.84C1102.18 1246.38 1100.07 1246.38 1098.51 1246.38C1093.05 1246.38 1091.27 1243.46 1091.27 1238.55V1223.86H1086.95Z" fill="black"/>
<path d="M1101 1218.03H1109.32C1112.18 1227.69 1114.72 1236.28 1115.15 1238.87H1115.2C1115.8 1236.06 1117.47 1229.8 1120.76 1218.03H1128.49L1119.09 1246.81C1116.44 1254.86 1114.18 1257.23 1107.48 1257.23C1106.78 1257.23 1105.21 1257.18 1103.86 1257.02V1250.81C1104.4 1250.86 1105.21 1250.91 1105.86 1250.91C1108.72 1250.91 1110.13 1249.94 1111.21 1246.86L1101 1218.03Z" fill="black"/>
<path d="M1136.51 1246H1128.24V1236.5H1136.51V1246Z" fill="black"/>
<path d="M1158.7 1236.98H1166.26C1165.34 1241.63 1162.05 1246.65 1153.73 1246.65C1145.04 1246.65 1140.56 1240.65 1140.56 1232.23C1140.56 1223.97 1145.58 1217.38 1154.11 1217.38C1163.51 1217.38 1166.15 1224.18 1166.26 1227.32H1158.75C1158.27 1225.05 1156.97 1223.48 1153.95 1223.48C1150.38 1223.48 1148.39 1226.56 1148.39 1231.96C1148.39 1237.95 1150.55 1240.65 1153.89 1240.65C1156.59 1240.65 1158 1239.09 1158.7 1236.98Z" fill="black"/>
<path d="M1180.95 1217.38C1189.15 1217.38 1194.5 1223.21 1194.5 1231.96C1194.5 1240.44 1189.42 1246.65 1180.57 1246.65C1171.93 1246.65 1166.85 1240.44 1166.85 1232.12C1166.85 1223.48 1172.09 1217.38 1180.95 1217.38ZM1180.62 1223.48C1177.06 1223.48 1174.68 1226.13 1174.68 1232.01C1174.68 1237.41 1177 1240.6 1180.73 1240.6C1184.56 1240.6 1186.67 1237.41 1186.67 1232.07C1186.67 1226.24 1184.51 1223.48 1180.62 1223.48Z" fill="black"/>
<path d="M1194.55 1246V1225.26C1194.55 1222.83 1194.55 1220.46 1194.5 1218.03H1201.9C1202 1218.73 1202.17 1220.3 1202.22 1221.38C1203.62 1219.32 1205.89 1217.38 1210 1217.38C1213.99 1217.38 1216.21 1219.49 1217.18 1221.65C1218.85 1219.38 1221.23 1217.38 1225.82 1217.38C1230.68 1217.38 1234.67 1220.4 1234.67 1227.64V1246H1227.11V1228.61C1227.11 1226.07 1226.2 1223.59 1223.01 1223.59C1219.77 1223.59 1218.47 1225.75 1218.47 1230.02V1246H1210.86V1228.88C1210.86 1226.02 1210.16 1223.64 1206.86 1223.64C1203.73 1223.64 1202.22 1225.59 1202.22 1230.39V1246H1194.55Z" fill="black"/>
<path d="M1381.38 1247.68H1356.27V1247.19C1356.27 1240.98 1359.02 1235.96 1366.74 1230.35C1371.77 1226.67 1373.28 1225.43 1373.28 1222.3C1373.28 1219.22 1371.77 1217.49 1368.8 1217.49C1365.29 1217.49 1364.04 1219.65 1363.56 1222.73H1356.11C1356.59 1216.63 1360.59 1211.5 1368.8 1211.5C1377.92 1211.5 1381.05 1216.95 1381.05 1222.25C1381.05 1227.43 1378.79 1229.91 1372.25 1234.5C1367.88 1237.58 1366.1 1239.63 1365.5 1241.25H1382.35L1381.38 1247.68Z" fill="black"/>
<path d="M1409.05 1247.68H1383.94V1247.19C1383.94 1240.98 1386.69 1235.96 1394.41 1230.35C1399.43 1226.67 1400.95 1225.43 1400.95 1222.3C1400.95 1219.22 1399.43 1217.49 1396.46 1217.49C1392.95 1217.49 1391.71 1219.65 1391.23 1222.73H1383.77C1384.26 1216.63 1388.26 1211.5 1396.46 1211.5C1405.59 1211.5 1408.72 1216.95 1408.72 1222.25C1408.72 1227.43 1406.45 1229.91 1399.92 1234.5C1395.55 1237.58 1393.76 1239.63 1393.17 1241.25H1410.02L1409.05 1247.68Z" fill="black"/>
<path d="M1424.95 1211.5C1434.89 1211.5 1438.45 1219.6 1438.45 1229.7C1438.45 1239.47 1435.38 1248.33 1424.79 1248.33C1414.37 1248.33 1411.18 1239.74 1411.18 1229.91C1411.18 1220.19 1414.75 1211.5 1424.95 1211.5ZM1424.95 1217.66C1420.42 1217.66 1419.12 1222.14 1419.12 1229.81C1419.12 1236.34 1419.88 1242.17 1424.9 1242.17C1429.81 1242.17 1430.46 1236.72 1430.46 1229.75C1430.46 1222.84 1429.6 1217.66 1424.95 1217.66Z" fill="black"/>
<path d="M1466.25 1220.79H1458.74C1458.31 1219.06 1457.34 1217.39 1454.21 1217.39C1449.45 1217.39 1448.21 1221.81 1448 1226.62C1449.51 1224.78 1452.05 1223.33 1456.04 1223.33C1462.58 1223.33 1467.17 1228.13 1467.17 1235.1C1467.17 1242.71 1462.31 1248.33 1454.15 1248.33C1443.84 1248.33 1440.38 1240.39 1440.38 1230.35C1440.38 1221.11 1443.68 1211.5 1454.58 1211.5C1462.31 1211.5 1465.87 1216.36 1466.25 1220.79ZM1453.94 1242.17C1457.72 1242.17 1459.44 1239.36 1459.44 1235.75C1459.44 1232.34 1458.2 1229.32 1453.94 1229.32C1450.48 1229.32 1448.48 1231.37 1448.48 1235.48C1448.48 1238.34 1449.83 1242.17 1453.94 1242.17Z" fill="black"/>
<path d="M1468.79 1238.88H1476.52C1477.22 1240.98 1478.46 1242.33 1481.43 1242.33C1486.45 1242.33 1486.99 1236.23 1487.21 1232.29C1485.75 1234.34 1482.89 1235.26 1479.81 1235.26C1472.47 1235.26 1468.31 1230.24 1468.31 1223.81C1468.31 1216.85 1473.11 1211.55 1481.38 1211.55C1491.42 1211.55 1494.82 1219.33 1494.82 1228.08C1494.82 1238.07 1492.28 1248.33 1481.11 1248.33C1472.84 1248.33 1469.44 1243.25 1468.79 1238.88ZM1481.43 1217.55C1477.87 1217.55 1476.08 1220.14 1476.08 1223.43C1476.08 1227.05 1478.19 1229.27 1481.54 1229.27C1484.94 1229.27 1486.83 1227.54 1486.83 1223.6C1486.83 1221.22 1485.86 1217.55 1481.43 1217.55Z" fill="black"/>
<path d="M1685.6 1231.1H1680.31V1246H1672.43V1208.79H1688.79C1696.89 1208.79 1701.26 1213.22 1701.26 1219C1701.26 1223.97 1698.56 1226.67 1695.86 1227.8C1697.7 1228.5 1700.51 1230.39 1700.51 1237.09V1238.93C1700.51 1241.41 1700.51 1244.27 1701.05 1246H1693.38C1692.73 1244.38 1692.62 1241.57 1692.62 1237.63V1237.09C1692.62 1233.04 1691.6 1231.1 1685.6 1231.1ZM1680.31 1215.17V1224.67H1687.06C1691.44 1224.67 1693.16 1223 1693.16 1219.92C1693.16 1216.89 1691.17 1215.17 1687.22 1215.17H1680.31Z" fill="black"/>
<path d="M1731.24 1233.69H1712.78C1712.78 1237.2 1714.56 1240.6 1718.39 1240.6C1721.63 1240.6 1722.55 1239.3 1723.31 1237.63H1731.03C1730.06 1241.03 1726.98 1246.65 1718.23 1246.65C1709 1246.65 1705 1239.79 1705 1232.45C1705 1223.64 1709.48 1217.38 1718.5 1217.38C1728.06 1217.38 1731.35 1224.35 1731.35 1231.31C1731.35 1232.28 1731.35 1232.88 1731.24 1233.69ZM1712.94 1228.94H1723.58C1723.52 1225.7 1722.23 1222.94 1718.45 1222.94C1714.77 1222.94 1713.26 1225.48 1712.94 1228.94Z" fill="black"/>
<path d="M1747.36 1217.38C1755.57 1217.38 1760.92 1223.21 1760.92 1231.96C1760.92 1240.44 1755.84 1246.65 1746.98 1246.65C1738.34 1246.65 1733.27 1240.44 1733.27 1232.12C1733.27 1223.48 1738.51 1217.38 1747.36 1217.38ZM1747.04 1223.48C1743.47 1223.48 1741.1 1226.13 1741.1 1232.01C1741.1 1237.41 1743.42 1240.6 1747.15 1240.6C1750.98 1240.6 1753.09 1237.41 1753.09 1232.07C1753.09 1226.24 1750.93 1223.48 1747.04 1223.48Z" fill="black"/>
<path d="M1762.17 1246V1225.64C1762.17 1222.83 1762.17 1220.4 1762.11 1218.03H1769.73C1769.83 1218.68 1769.94 1221.43 1769.94 1222.94C1771.18 1219.76 1774.15 1217.43 1778.91 1217.38V1224.78C1773.29 1224.62 1769.94 1226.13 1769.94 1233.8V1246H1762.17Z" fill="black"/>
<path d="M1797.49 1206.58H1805.22V1238.33C1805.22 1240.87 1805.22 1243.46 1805.27 1246H1797.87C1797.71 1245.14 1797.55 1243.73 1797.49 1243.08C1796.14 1245.3 1793.71 1246.65 1789.56 1246.65C1782.48 1246.65 1778 1240.98 1778 1232.23C1778 1223.64 1782.75 1217.38 1790.69 1217.38C1794.74 1217.38 1796.9 1218.84 1797.49 1220.08V1206.58ZM1785.94 1232.07C1785.94 1237.52 1788.04 1240.44 1791.88 1240.44C1797.17 1240.44 1797.82 1236.01 1797.82 1232.01C1797.82 1227.21 1797.12 1223.59 1792.04 1223.59C1787.99 1223.59 1785.94 1226.78 1785.94 1232.07Z" fill="black"/>
<path d="M1832.74 1233.69H1814.28C1814.28 1237.2 1816.06 1240.6 1819.89 1240.6C1823.13 1240.6 1824.05 1239.3 1824.81 1237.63H1832.53C1831.56 1241.03 1828.48 1246.65 1819.73 1246.65C1810.5 1246.65 1806.5 1239.79 1806.5 1232.45C1806.5 1223.64 1810.98 1217.38 1820 1217.38C1829.56 1217.38 1832.85 1224.35 1832.85 1231.31C1832.85 1232.28 1832.85 1232.88 1832.74 1233.69ZM1814.44 1228.94H1825.08C1825.02 1225.7 1823.73 1222.94 1819.95 1222.94C1816.27 1222.94 1814.76 1225.48 1814.44 1228.94Z" fill="black"/>
<path d="M1836.05 1246V1225.64C1836.05 1222.83 1836.05 1220.4 1836 1218.03H1843.61C1843.72 1218.68 1843.83 1221.43 1843.83 1222.94C1845.07 1219.76 1848.04 1217.43 1852.79 1217.38V1224.78C1847.18 1224.62 1843.83 1226.13 1843.83 1233.8V1246H1836.05Z" fill="black"/>
<path d="M1874.34 1246H1867V1208.79H1876.99C1881.63 1217.11 1890.22 1232.23 1891.95 1236.28H1892.06C1891.62 1232.39 1891.62 1225.91 1891.62 1219.81V1208.79H1898.91V1246H1889.46C1885.47 1238.71 1875.96 1221.43 1874.07 1217.11H1873.97C1874.24 1220.35 1874.34 1228.02 1874.34 1234.66V1246Z" fill="black"/>
<path d="M1916.53 1217.38C1924.73 1217.38 1930.08 1223.21 1930.08 1231.96C1930.08 1240.44 1925 1246.65 1916.15 1246.65C1907.51 1246.65 1902.43 1240.44 1902.43 1232.12C1902.43 1223.48 1907.67 1217.38 1916.53 1217.38ZM1916.2 1223.48C1912.64 1223.48 1910.26 1226.13 1910.26 1232.01C1910.26 1237.41 1912.58 1240.6 1916.31 1240.6C1920.14 1240.6 1922.25 1237.41 1922.25 1232.07C1922.25 1226.24 1920.09 1223.48 1916.2 1223.48Z" fill="black"/>
<path d="M1943.71 1246H1935.45V1236.5H1943.71V1246Z" fill="black"/>
<path d="M1958.43 1246V1208.79H1966.47V1223.27H1981.49V1208.79H1989.53V1246H1981.49V1229.91H1966.47V1246H1958.43Z" fill="black"/>
<path d="M2018.87 1219.11H2011.36C2010.93 1217.38 2009.96 1215.71 2006.82 1215.71C2002.07 1215.71 2000.83 1220.13 2000.61 1224.94C2002.13 1223.1 2004.66 1221.65 2008.66 1221.65C2015.19 1221.65 2019.78 1226.45 2019.78 1233.42C2019.78 1241.03 2014.92 1246.65 2006.77 1246.65C1996.46 1246.65 1993 1238.71 1993 1228.67C1993 1219.43 1996.29 1209.82 2007.2 1209.82C2014.92 1209.82 2018.49 1214.68 2018.87 1219.11ZM2006.55 1240.49C2010.33 1240.49 2012.06 1237.68 2012.06 1234.07C2012.06 1230.66 2010.82 1227.64 2006.55 1227.64C2003.1 1227.64 2001.1 1229.69 2001.1 1233.8C2001.1 1236.66 2002.45 1240.49 2006.55 1240.49Z" fill="black"/>
<path d="M2035.66 1209.82C2045.6 1209.82 2049.16 1217.92 2049.16 1228.02C2049.16 1237.79 2046.08 1246.65 2035.5 1246.65C2025.08 1246.65 2021.89 1238.06 2021.89 1228.23C2021.89 1218.51 2025.46 1209.82 2035.66 1209.82ZM2035.66 1215.98C2031.13 1215.98 2029.83 1220.46 2029.83 1228.13C2029.83 1234.66 2030.59 1240.49 2035.61 1240.49C2040.52 1240.49 2041.17 1235.04 2041.17 1228.07C2041.17 1221.16 2040.31 1215.98 2035.66 1215.98Z" fill="black"/>
<path d="M2068.51 1246H2060.62V1219.43C2059 1220.19 2055.98 1220.84 2054.2 1221V1215.22C2057.6 1214.57 2061 1212.68 2063 1210.41H2068.51V1246Z" fill="black"/>
<path d="M2091.33 1209.82C2101.27 1209.82 2104.83 1217.92 2104.83 1228.02C2104.83 1237.79 2101.75 1246.65 2091.17 1246.65C2080.75 1246.65 2077.56 1238.06 2077.56 1228.23C2077.56 1218.51 2081.13 1209.82 2091.33 1209.82ZM2091.33 1215.98C2086.8 1215.98 2085.5 1220.46 2085.5 1228.13C2085.5 1234.66 2086.26 1240.49 2091.28 1240.49C2096.19 1240.49 2096.84 1235.04 2096.84 1228.07C2096.84 1221.16 2095.98 1215.98 2091.33 1215.98Z" fill="black"/>
<path d="M2106.27 1228.72H2121.28V1235.47H2106.27V1228.72Z" fill="black"/>
<path d="M2124.5 1246V1208.79H2140.75C2149.77 1208.79 2153.17 1213.44 2153.17 1218.3C2153.17 1222.51 2150.96 1225.21 2148.42 1226.34C2150.96 1227.32 2154.25 1229.96 2154.25 1234.88C2154.25 1241.25 2149.23 1246 2141.35 1246H2124.5ZM2132.38 1223.48H2139.84C2143.67 1223.48 2145.24 1221.75 2145.24 1219.11C2145.24 1216.41 2143.18 1215 2140.11 1215H2132.38V1223.48ZM2132.38 1229.69V1239.79H2139.67C2144.05 1239.79 2145.99 1237.95 2145.99 1234.61C2145.99 1231.58 2144.05 1229.69 2139.62 1229.69H2132.38Z" fill="black"/>
<path d="M2175.01 1246H2167.12V1219.43C2165.5 1220.19 2162.48 1220.84 2160.7 1221V1215.22C2164.1 1214.57 2167.5 1212.68 2169.5 1210.41H2175.01V1246Z" fill="black"/>
<path d="M2185.28 1246V1208.79H2200.07C2210.87 1208.79 2218 1215.92 2218 1226.94C2218 1237.79 2211.09 1246 2199.69 1246H2185.28ZM2193.32 1215.27V1239.52H2199.37C2206.5 1239.52 2209.68 1234.17 2209.68 1226.94C2209.68 1220.84 2206.71 1215.27 2199.42 1215.27H2193.32Z" fill="black"/>
<path d="M2221.5 1246V1208.79H2229.55V1223.27H2244.56V1208.79H2252.6V1246H2244.56V1229.91H2229.55V1246H2221.5Z" fill="black"/>
<path d="M2258.4 1246V1208.79H2273.79C2281.73 1208.79 2287.08 1213.22 2287.08 1220.3C2287.08 1228.4 2280.97 1232.12 2273.63 1232.12H2266.45V1246H2258.4ZM2266.45 1215.17V1225.7H2272.6C2276.33 1225.7 2278.98 1224.24 2278.98 1220.46C2278.98 1216.62 2276.17 1215.17 2272.77 1215.17H2266.45Z" fill="black"/>
<path d="M2291.67 1246V1208.79H2299.61V1225.37C2302.09 1222.51 2309.76 1214.14 2314.46 1208.79H2324.07L2309.11 1224.24L2324.66 1246H2315L2303.55 1229.48L2299.61 1233.2V1246H2291.67Z" fill="black"/>
<path d="M1266 219H1291L1284 272H1271L1266 219Z" fill="black"/>
<circle cx="1277.5" cy="271.5" r="6.5" fill="black"/>
<circle cx="1278.5" cy="218.5" r="12.5" fill="black"/>
<circle cx="1277.5" cy="296.5" r="8.5" fill="black"/>
<path d="M1178.2 555V488.856H1192.51V514.584H1219.2V488.856H1233.5V555H1219.2V526.392H1192.51V555H1178.2Z" fill="black"/>
<path d="M1285.46 539.736H1261.26L1256.18 555H1242.06L1264.53 488.856H1282.48L1306 555H1290.93L1285.46 539.736ZM1264.34 528.024H1282.38C1277.68 514.008 1274.7 505.08 1273.07 499.128H1272.98C1271.34 505.656 1268.08 516.024 1264.34 528.024Z" fill="black"/>
<path d="M1310.08 555V544.536L1346.46 500.568H1311.71V488.856H1362.69V500.376L1327.65 543.288H1364.61L1362.78 555H1310.08Z" fill="black"/>
<path d="M1411.46 539.736H1387.26L1382.18 555H1368.06L1390.53 488.856H1408.48L1432 555H1416.93L1411.46 539.736ZM1390.34 528.024H1408.38C1403.68 514.008 1400.7 505.08 1399.07 499.128H1398.98C1397.34 505.656 1394.08 516.024 1390.34 528.024Z" fill="black"/>
<path d="M1466.09 528.504H1456.68V555H1442.67V488.856H1471.76C1486.16 488.856 1493.93 496.728 1493.93 507C1493.93 515.832 1489.13 520.632 1484.33 522.648C1487.6 523.896 1492.59 527.256 1492.59 539.16V542.424C1492.59 546.84 1492.59 551.928 1493.55 555H1479.92C1478.76 552.12 1478.57 547.128 1478.57 540.12V539.16C1478.57 531.96 1476.75 528.504 1466.09 528.504ZM1456.68 500.184V517.08H1468.68C1476.46 517.08 1479.53 514.104 1479.53 508.632C1479.53 503.256 1475.98 500.184 1468.97 500.184H1456.68Z" fill="black"/>
<path d="M1506.7 555V488.856H1533C1552.2 488.856 1564.88 501.528 1564.88 521.112C1564.88 540.408 1552.59 555 1532.33 555H1506.7ZM1521 500.376V543.48H1531.76C1544.43 543.48 1550.09 533.976 1550.09 521.112C1550.09 510.264 1544.81 500.376 1531.85 500.376H1521Z" fill="black"/>
<path d="M1606.67 487.896C1626.06 487.896 1638.35 501.432 1638.35 521.688C1638.35 540.12 1627.31 555.96 1605.8 555.96C1584.97 555.96 1574.12 540.888 1574.12 521.88C1574.12 502.68 1586.12 487.896 1606.67 487.896ZM1606.09 499.512C1594.09 499.512 1588.91 508.728 1588.91 521.592C1588.91 534.552 1594.57 544.344 1606.28 544.344C1619.05 544.344 1623.56 533.688 1623.56 521.88C1623.56 509.304 1618.38 499.512 1606.09 499.512Z" fill="black"/>
<path d="M1647.89 488.856H1662.19V528.216C1662.19 540.984 1668.72 544.728 1675.92 544.728C1684.08 544.728 1689.17 540.312 1689.17 528.216V488.856H1703.57V527.544C1703.57 550.2 1690.32 555.96 1675.73 555.96C1660.75 555.96 1647.89 549.912 1647.89 527.832V488.856Z" fill="black"/>
<path d="M1713.14 535.608H1727.54C1729.08 542.232 1733.78 545.208 1741.46 545.208C1749.14 545.208 1752.41 542.136 1752.41 537.336C1752.41 531.864 1749.24 529.56 1737.91 526.968C1719.86 522.744 1715.45 516.12 1715.45 507.192C1715.45 495.672 1724.09 487.896 1739.74 487.896C1757.3 487.896 1764.31 497.304 1765.27 507H1750.87C1750.1 502.872 1747.9 498.456 1739.35 498.456C1733.5 498.456 1730.04 500.856 1730.04 505.56C1730.04 510.168 1732.82 512.088 1743.58 514.488C1762.78 519.096 1767 526.2 1767 535.608C1767 547.608 1757.88 555.96 1740.41 555.96C1723.61 555.96 1714.68 547.704 1713.14 535.608Z" fill="black"/>
<path d="M1838.8 555H1821.91L1798.58 488.856H1813.94L1823.73 519.384C1826.8 528.6 1829.01 536.472 1830.55 543.288H1830.74C1832.08 537.048 1834.68 528.984 1837.84 519.576L1848.21 488.856H1862.8L1838.8 555Z" fill="black"/>
<path d="M1899.01 487.896C1918.4 487.896 1930.69 501.432 1930.69 521.688C1930.69 540.12 1919.65 555.96 1898.15 555.96C1877.32 555.96 1866.47 540.888 1866.47 521.88C1866.47 502.68 1878.47 487.896 1899.01 487.896ZM1898.44 499.512C1886.44 499.512 1881.25 508.728 1881.25 521.592C1881.25 534.552 1886.92 544.344 1898.63 544.344C1911.4 544.344 1915.91 533.688 1915.91 521.88C1915.91 509.304 1910.72 499.512 1898.44 499.512Z" fill="black"/>
<path d="M1942.3 555V488.856H1956.61V543.288H1989.63L1988 555H1942.3Z" fill="black"/>
<path d="M1215.94 671.895H1228.69C1226.4 682.86 1218.15 690.85 1203.45 690.85C1184.83 690.85 1176.08 677.675 1176.08 661.015C1176.08 644.95 1185.17 630.585 1204.04 630.585C1219.68 630.585 1227.25 639.68 1228.69 649.54H1216.03C1214.75 644.95 1211.61 640.445 1203.62 640.445C1193.16 640.445 1189.17 649.88 1189.17 660.59C1189.17 670.45 1192.65 680.905 1203.96 680.905C1212.29 680.905 1214.84 675.38 1215.94 671.895Z" fill="black"/>
<path d="M1257.17 644.95C1270.09 644.95 1278.51 654.13 1278.51 667.9C1278.51 681.245 1270.52 691.02 1256.58 691.02C1242.98 691.02 1234.99 681.245 1234.99 668.155C1234.99 654.555 1243.23 644.95 1257.17 644.95ZM1256.66 654.555C1251.05 654.555 1247.31 658.72 1247.31 667.985C1247.31 676.485 1250.97 681.5 1256.83 681.5C1262.87 681.5 1266.18 676.485 1266.18 668.07C1266.18 658.89 1262.78 654.555 1256.66 654.555Z" fill="black"/>
<path d="M1286.93 690V657.105C1286.93 653.365 1286.93 649.285 1286.84 645.97H1298.66C1298.91 647.16 1299.08 650.22 1299.17 651.58C1300.61 648.86 1304.18 644.95 1311.92 644.95C1320.76 644.95 1326.45 650.985 1326.45 662.035V690H1314.3V663.395C1314.3 658.38 1312.68 654.81 1307.24 654.81C1302.06 654.81 1299.17 657.7 1299.17 665.52V690H1286.93Z" fill="black"/>
<path d="M1332.15 655.15V645.97H1338.95V634.07H1351.1V645.97H1359.77V655.15H1351.1V676.91C1351.1 680.225 1352.12 681.5 1355.78 681.5C1356.46 681.5 1357.65 681.5 1358.5 681.415V689.745C1356.12 690.595 1352.8 690.595 1350.34 690.595C1341.75 690.595 1338.95 686.005 1338.95 678.27V655.15H1332.15Z" fill="black"/>
<path d="M1403.33 660.165V678.61C1403.33 682.86 1403.67 688.98 1403.93 690H1392.28C1391.94 689.15 1391.69 686.77 1391.69 685.665C1390.07 688.13 1387.1 691.02 1379.28 691.02C1368.65 691.02 1364.23 684.05 1364.23 677.25C1364.23 667.22 1372.22 662.545 1385.14 662.545H1391.43V659.91C1391.43 656.765 1390.33 653.705 1384.63 653.705C1379.53 653.705 1378.34 655.83 1377.83 659.06H1366.27C1366.87 651.24 1371.71 644.95 1385.14 644.95C1396.87 645.035 1403.33 649.625 1403.33 660.165ZM1391.43 671.13V669.94H1386.5C1379.11 669.94 1376.39 672.235 1376.39 676.485C1376.39 679.63 1378.34 682.35 1382.76 682.35C1390.5 682.35 1391.43 676.91 1391.43 671.13Z" fill="black"/>
<path d="M1440.19 675.805H1452.09C1450.65 683.115 1445.46 691.02 1432.37 691.02C1418.69 691.02 1411.63 681.585 1411.63 668.325C1411.63 655.32 1419.54 644.95 1432.97 644.95C1447.76 644.95 1451.92 655.66 1452.09 660.59H1440.28C1439.51 657.02 1437.47 654.555 1432.71 654.555C1427.1 654.555 1423.96 659.4 1423.96 667.9C1423.96 677.335 1427.36 681.585 1432.63 681.585C1436.88 681.585 1439.09 679.12 1440.19 675.805Z" fill="black"/>
<path d="M1456.25 655.15V645.97H1463.05V634.07H1475.2V645.97H1483.87V655.15H1475.2V676.91C1475.2 680.225 1476.22 681.5 1479.88 681.5C1480.56 681.5 1481.75 681.5 1482.6 681.415V689.745C1480.22 690.595 1476.9 690.595 1474.44 690.595C1465.85 690.595 1463.05 686.005 1463.05 678.27V655.15H1456.25Z" fill="black"/>
<path d="M1504.5 646.02H1517.33C1521.33 663.7 1523.45 673.73 1524.3 679.255H1524.47C1525.41 674.325 1526.68 667.44 1532.04 646.02H1543.34C1548.27 667.695 1549.8 674.07 1550.4 678.745H1550.48C1551.42 674.24 1552.78 667.695 1557.88 646.02H1569.95L1556.86 690.05H1543.85C1540.2 673.39 1538.16 664.55 1537.14 658.77H1537.05C1536.37 664.295 1533.99 674.24 1530.08 690.05H1516.99L1504.5 646.02Z" fill="black"/>
<path d="M1576.81 690.05V646.02H1589.05V690.05H1576.81ZM1589.05 638.88H1576.81V628H1589.05V638.88Z" fill="black"/>
<path d="M1612.21 690.05H1599.97V628H1612.21V690.05Z" fill="black"/>
<path d="M1635.37 690.05H1623.13V628H1635.37V690.05Z" fill="black"/>
<path d="M1693.56 677.285H1705.46C1704.01 684.595 1698.83 692.5 1685.74 692.5C1672.05 692.5 1665 683.065 1665 669.805C1665 656.8 1672.9 646.43 1686.33 646.43C1701.12 646.43 1705.29 657.14 1705.46 662.07H1693.65C1692.88 658.5 1690.84 656.035 1686.08 656.035C1680.47 656.035 1677.32 660.88 1677.32 669.38C1677.32 678.815 1680.72 683.065 1685.99 683.065C1690.24 683.065 1692.45 680.6 1693.56 677.285Z" fill="black"/>
<path d="M1749.75 661.645V680.09C1749.75 684.34 1750.09 690.46 1750.35 691.48H1738.7C1738.36 690.63 1738.11 688.25 1738.11 687.145C1736.49 689.61 1733.52 692.5 1725.7 692.5C1715.07 692.5 1710.65 685.53 1710.65 678.73C1710.65 668.7 1718.64 664.025 1731.56 664.025H1737.85V661.39C1737.85 658.245 1736.75 655.185 1731.05 655.185C1725.95 655.185 1724.76 657.31 1724.25 660.54H1712.69C1713.29 652.72 1718.13 646.43 1731.56 646.43C1743.29 646.515 1749.75 651.105 1749.75 661.645ZM1737.85 672.61V671.42H1732.92C1725.53 671.42 1722.81 673.715 1722.81 677.965C1722.81 681.11 1724.76 683.83 1729.18 683.83C1736.92 683.83 1737.85 678.39 1737.85 672.61Z" fill="black"/>
<path d="M1799.19 647.45V678.73C1799.19 682.895 1799.19 687.57 1799.28 691.48H1787.38C1787.21 690.29 1787.12 687.91 1787.04 686.38C1784.4 690.8 1780.58 692.5 1774.88 692.5C1765.96 692.5 1760.26 687.06 1760.26 676.18V647.45H1772.42V673.715C1772.42 678.56 1773.95 682.555 1779.22 682.555C1784.74 682.555 1787.04 679.58 1787.04 670.91V647.45H1799.19Z" fill="black"/>
<path d="M1809.47 678.22H1821.46C1822.39 681.79 1825.28 683.745 1829.79 683.745C1834.29 683.745 1835.91 682.13 1835.91 679.41C1835.91 676.605 1834.04 675.5 1827.75 673.97C1813.38 670.4 1811.09 665.98 1811.09 659.775C1811.09 653.315 1815.59 646.43 1828.85 646.43C1842.2 646.43 1846.79 653.74 1847.13 659.69H1835.57C1835.14 658.075 1834.04 655.015 1828.34 655.015C1824.35 655.015 1822.99 656.8 1822.99 658.755C1822.99 660.965 1824.35 661.985 1831.49 663.685C1846.19 667.085 1848.32 672.1 1848.32 678.56C1848.32 685.87 1842.71 692.5 1829.36 692.5C1815.93 692.5 1810.49 686.04 1809.47 678.22Z" fill="black"/>
<path d="M1895.37 672.1H1866.3C1866.3 677.625 1869.1 682.98 1875.14 682.98C1880.24 682.98 1881.68 680.94 1882.87 678.305H1895.03C1893.5 683.66 1888.65 692.5 1874.88 692.5C1860.35 692.5 1854.06 681.705 1854.06 670.145C1854.06 656.29 1861.11 646.43 1875.31 646.43C1890.35 646.43 1895.54 657.395 1895.54 668.36C1895.54 669.89 1895.54 670.825 1895.37 672.1ZM1866.55 664.62H1883.3C1883.21 659.52 1881.17 655.185 1875.22 655.185C1869.44 655.185 1867.06 659.18 1866.55 664.62Z" fill="black"/>
<path d="M1965.87 670.62H1936.8C1936.8 676.145 1939.61 681.5 1945.64 681.5C1950.74 681.5 1952.19 679.46 1953.38 676.825H1965.53C1964 682.18 1959.16 691.02 1945.39 691.02C1930.85 691.02 1924.56 680.225 1924.56 668.665C1924.56 654.81 1931.62 644.95 1945.81 644.95C1960.86 644.95 1966.04 655.915 1966.04 666.88C1966.04 668.41 1966.04 669.345 1965.87 670.62ZM1937.06 663.14H1953.8C1953.72 658.04 1951.68 653.705 1945.73 653.705C1939.95 653.705 1937.57 657.7 1937.06 663.14Z" fill="black"/>
<path d="M1986.5 690H1974.26V627.95H1986.5V690Z" fill="black"/>
<path d="M2035.28 670.62H2006.21C2006.21 676.145 2009.02 681.5 2015.05 681.5C2020.15 681.5 2021.6 679.46 2022.79 676.825H2034.94C2033.41 682.18 2028.57 691.02 2014.8 691.02C2000.26 691.02 1993.97 680.225 1993.97 668.665C1993.97 654.81 2001.03 644.95 2015.22 644.95C2030.27 644.95 2035.45 655.915 2035.45 666.88C2035.45 668.41 2035.45 669.345 2035.28 670.62ZM2006.47 663.14H2023.21C2023.13 658.04 2021.09 653.705 2015.14 653.705C2009.36 653.705 2006.98 657.7 2006.47 663.14Z" fill="black"/>
<path d="M2070.6 675.805H2082.5C2081.06 683.115 2075.87 691.02 2062.78 691.02C2049.09 691.02 2042.04 681.585 2042.04 668.325C2042.04 655.32 2049.95 644.95 2063.38 644.95C2078.17 644.95 2082.33 655.66 2082.5 660.59H2070.68C2069.92 657.02 2067.88 654.555 2063.12 654.555C2057.51 654.555 2054.36 659.4 2054.36 667.9C2054.36 677.335 2057.76 681.585 2063.03 681.585C2067.28 681.585 2069.49 679.12 2070.6 675.805Z" fill="black"/>
<path d="M2084.78 655.15V645.97H2091.58V634.07H2103.74V645.97H2112.41V655.15H2103.74V676.91C2103.74 680.225 2104.76 681.5 2108.41 681.5C2109.09 681.5 2110.28 681.5 2111.13 681.415V689.745C2108.75 690.595 2105.44 690.595 2102.97 690.595C2094.39 690.595 2091.58 686.005 2091.58 678.27V655.15H2084.78Z" fill="black"/>
<path d="M2118.65 690V657.955C2118.65 653.535 2118.65 649.71 2118.57 645.97H2130.55C2130.72 646.99 2130.89 651.325 2130.89 653.705C2132.84 648.69 2137.52 645.035 2145 644.95V656.595C2136.16 656.34 2130.89 658.72 2130.89 670.79V690H2118.65Z" fill="black"/>
<path d="M2152.62 690V645.97H2164.86V690H2152.62ZM2164.86 638.83H2152.62V627.95H2164.86V638.83Z" fill="black"/>
<path d="M2200.1 675.805H2212C2210.56 683.115 2205.37 691.02 2192.28 691.02C2178.59 691.02 2171.54 681.585 2171.54 668.325C2171.54 655.32 2179.44 644.95 2192.87 644.95C2207.66 644.95 2211.83 655.66 2212 660.59H2200.19C2199.42 657.02 2197.38 654.555 2192.62 654.555C2187.01 654.555 2183.86 659.4 2183.86 667.9C2183.86 677.335 2187.26 681.585 2192.53 681.585C2196.78 681.585 2198.99 679.12 2200.1 675.805Z" fill="black"/>
<path d="M1174.52 782.428H1186.79C1187.75 786.082 1190.7 788.083 1195.32 788.083C1199.93 788.083 1201.58 786.43 1201.58 783.646C1201.58 780.775 1199.67 779.644 1193.23 778.078C1178.52 774.424 1176.18 769.9 1176.18 763.549C1176.18 756.937 1180.79 749.89 1194.36 749.89C1208.02 749.89 1212.72 757.372 1213.06 763.462H1201.23C1200.8 761.809 1199.67 758.677 1193.84 758.677C1189.75 758.677 1188.36 760.504 1188.36 762.505C1188.36 764.767 1189.75 765.811 1197.06 767.551C1212.11 771.031 1214.28 776.164 1214.28 782.776C1214.28 790.258 1208.54 797.044 1194.88 797.044C1181.13 797.044 1175.57 790.432 1174.52 782.428Z" fill="black"/>
<path d="M1222 732.49H1234.53V756.328C1236.44 753.37 1240.1 749.89 1247.41 749.89C1255.76 749.89 1262.46 754.936 1262.46 767.116V796H1250.1V768.943C1250.1 763.114 1248.02 759.982 1242.8 759.982C1235.84 759.982 1234.53 765.202 1234.53 772.075V796H1222V732.49Z" fill="black"/>
<path d="M1293.76 749.89C1306.98 749.89 1315.59 759.286 1315.59 773.38C1315.59 787.039 1307.41 797.044 1293.15 797.044C1279.23 797.044 1271.05 787.039 1271.05 773.641C1271.05 759.721 1279.49 749.89 1293.76 749.89ZM1293.23 759.721C1287.49 759.721 1283.66 763.984 1283.66 773.467C1283.66 782.167 1287.4 787.3 1293.41 787.3C1299.58 787.3 1302.98 782.167 1302.98 773.554C1302.98 764.158 1299.5 759.721 1293.23 759.721Z" fill="black"/>
<path d="M1351.43 781.471H1363.61C1362.13 788.953 1356.83 797.044 1343.43 797.044C1329.42 797.044 1322.2 787.387 1322.2 773.815C1322.2 760.504 1330.29 749.89 1344.04 749.89C1359.17 749.89 1363.44 760.852 1363.61 765.898H1351.52C1350.74 762.244 1348.65 759.721 1343.78 759.721C1338.03 759.721 1334.81 764.68 1334.81 773.38C1334.81 783.037 1338.29 787.387 1343.69 787.387C1348.04 787.387 1350.3 784.864 1351.43 781.471Z" fill="black"/>
<path d="M1384.06 732.49V769.987C1387.37 765.463 1393.28 758.503 1399.55 750.934H1413.82L1398.16 767.986L1415.29 796H1401.2L1389.8 775.99L1384.06 781.558V796H1371.53V732.49H1384.06Z" fill="black"/>
<path d="M1461.13 749.89C1474.35 749.89 1482.97 759.286 1482.97 773.38C1482.97 787.039 1474.79 797.044 1460.52 797.044C1446.6 797.044 1438.42 787.039 1438.42 773.641C1438.42 759.721 1446.86 749.89 1461.13 749.89ZM1460.61 759.721C1454.86 759.721 1451.04 763.984 1451.04 773.467C1451.04 782.167 1454.78 787.3 1460.78 787.3C1466.96 787.3 1470.35 782.167 1470.35 773.554C1470.35 764.158 1466.87 759.721 1460.61 759.721Z" fill="black"/>
<path d="M1491.5 796V763.201C1491.5 758.677 1491.5 754.762 1491.41 750.934H1503.68C1503.85 751.978 1504.03 756.415 1504.03 758.851C1506.03 753.718 1510.81 749.977 1518.47 749.89V761.809C1509.42 761.548 1504.03 763.984 1504.03 776.338V796H1491.5Z" fill="black"/>
<path d="M1546.81 781.297V732.49H1559.34V755.719C1561.16 752.848 1564.9 749.89 1572.21 749.89C1584.48 749.89 1590.57 760.069 1590.57 772.684C1590.57 785.56 1583.96 797.044 1570.99 797.044C1564.3 797.044 1561.34 795.043 1559.16 791.737C1559.16 793.216 1558.9 794.869 1558.64 796H1546.72C1546.81 791.128 1546.81 786.169 1546.81 781.297ZM1577.95 772.945C1577.95 765.376 1575.08 759.895 1568.38 759.895C1561.25 759.895 1558.73 764.506 1558.73 773.728C1558.73 781.297 1560.99 787.126 1568.21 787.126C1574.56 787.126 1577.95 781.471 1577.95 772.945Z" fill="black"/>
<path d="M1638.73 750.934V782.95C1638.73 787.213 1638.73 791.998 1638.82 796H1626.64C1626.46 794.782 1626.38 792.346 1626.29 790.78C1623.59 795.304 1619.68 797.044 1613.85 797.044C1604.71 797.044 1598.89 791.476 1598.89 780.34V750.934H1611.33V777.817C1611.33 782.776 1612.89 786.865 1618.29 786.865C1623.94 786.865 1626.29 783.82 1626.29 774.946V750.934H1638.73Z" fill="black"/>
<path d="M1649.95 796V763.201C1649.95 758.677 1649.95 754.762 1649.86 750.934H1662.13C1662.3 751.978 1662.48 756.415 1662.48 758.851C1664.48 753.718 1669.26 749.977 1676.92 749.89V761.809C1667.87 761.548 1662.48 763.984 1662.48 776.338V796H1649.95Z" fill="black"/>
<path d="M1683.6 796V762.331C1683.6 758.503 1683.6 754.327 1683.51 750.934H1695.6C1695.86 752.152 1696.04 755.284 1696.13 756.676C1697.6 753.892 1701.26 749.89 1709.18 749.89C1718.22 749.89 1724.05 756.067 1724.05 767.377V796H1711.61V768.769C1711.61 763.636 1709.96 759.982 1704.39 759.982C1699.08 759.982 1696.13 762.94 1696.13 770.944V796H1683.6Z" fill="black"/>
<path d="M1746.49 796H1733.18V780.688H1746.49V796Z" fill="black"/>
<path d="M1190.37 937V889.656H1172.83V879.469H1220.26V889.656H1202.81V937H1190.37Z" fill="black"/>
<path d="M1263.74 893.747V924.475C1263.74 928.567 1263.74 933.159 1263.83 937H1252.14C1251.97 935.831 1251.89 933.493 1251.8 931.99C1249.21 936.332 1245.46 938.002 1239.86 938.002C1231.09 938.002 1225.5 932.658 1225.5 921.97V893.747H1237.44V919.549C1237.44 924.308 1238.94 928.233 1244.12 928.233C1249.55 928.233 1251.8 925.31 1251.8 916.793V893.747H1263.74Z" fill="black"/>
<path d="M1271.08 935.404V903.925C1271.08 899.583 1271.08 895.825 1271 892.151H1282.77C1282.94 893.153 1283.11 897.412 1283.11 899.75C1285.03 894.823 1289.62 891.233 1296.97 891.149V902.589C1288.28 902.338 1283.11 904.676 1283.11 916.533V935.404H1271.08Z" fill="black"/>
<path d="M1303.38 935.404V903.09C1303.38 899.416 1303.38 895.408 1303.29 892.151H1314.9C1315.15 893.32 1315.32 896.326 1315.4 897.662C1316.82 894.99 1320.33 891.149 1327.93 891.149C1336.61 891.149 1342.2 897.078 1342.2 907.933V935.404H1330.26V909.269C1330.26 904.342 1328.68 900.835 1323.33 900.835C1318.24 900.835 1315.4 903.674 1315.4 911.356V935.404H1303.38Z" fill="black"/>
<path d="M1394.18 892.745C1406.87 892.745 1415.14 901.763 1415.14 915.29C1415.14 928.4 1407.29 938.002 1393.6 938.002C1380.24 938.002 1372.39 928.4 1372.39 915.541C1372.39 902.181 1380.49 892.745 1394.18 892.745ZM1393.68 902.181C1388.17 902.181 1384.5 906.272 1384.5 915.374C1384.5 923.724 1388.09 928.65 1393.85 928.65C1399.78 928.65 1403.03 923.724 1403.03 915.457C1403.03 906.439 1399.69 902.181 1393.68 902.181Z" fill="black"/>
<path d="M1450.46 902.765H1437.18V937H1425.24V902.765H1418.9V893.747H1425.24V889.906C1425.24 880.972 1429.17 875.21 1439.27 875.21C1441.28 875.21 1443.03 875.461 1444.11 875.795V885.063C1443.11 884.896 1442.28 884.813 1441.36 884.813C1438.1 884.813 1437.18 886.817 1437.18 890.24V893.747H1450.46V889.906C1450.46 880.972 1454.55 875.21 1464.57 875.21C1466.58 875.21 1468.33 875.461 1469.42 875.795V885.063C1468.41 884.896 1467.58 884.813 1466.66 884.813C1463.4 884.813 1462.48 886.817 1462.48 890.24V893.747H1470V902.765H1462.48V937H1450.46V902.765Z" fill="black"/>
<path d="M1531.91 907.692V925.811C1531.91 929.986 1532.24 935.998 1532.49 937H1521.05C1520.72 936.165 1520.47 933.827 1520.47 932.742C1518.88 935.163 1515.96 938.002 1508.28 938.002C1497.84 938.002 1493.5 931.155 1493.5 924.475C1493.5 914.622 1501.35 910.03 1514.04 910.03H1520.22V907.441C1520.22 904.352 1519.13 901.346 1513.54 901.346C1508.53 901.346 1507.36 903.433 1506.86 906.606H1495.5C1496.09 898.924 1500.85 892.745 1514.04 892.745C1525.56 892.829 1531.91 897.338 1531.91 907.692ZM1520.22 918.463V917.294H1515.38C1508.11 917.294 1505.44 919.549 1505.44 923.724C1505.44 926.813 1507.36 929.485 1511.7 929.485C1519.3 929.485 1520.22 924.141 1520.22 918.463Z" fill="black"/>
<path d="M1539.8 937V904.686C1539.8 901.012 1539.8 897.004 1539.72 893.747H1551.33C1551.58 894.916 1551.74 897.922 1551.83 899.258C1553.25 896.586 1556.75 892.745 1564.35 892.745C1573.04 892.745 1578.63 898.674 1578.63 909.529V937H1566.69V910.865C1566.69 905.938 1565.1 902.431 1559.76 902.431C1554.67 902.431 1551.83 905.27 1551.83 912.952V937H1539.8Z" fill="black"/>
<path d="M1616.94 876.045H1628.88V925.143C1628.88 929.068 1628.88 933.076 1628.96 937H1617.52C1617.27 935.664 1617.02 933.493 1616.94 932.491C1614.85 935.915 1611.09 938.002 1604.66 938.002C1593.73 938.002 1586.8 929.235 1586.8 915.708C1586.8 902.431 1594.14 892.745 1606.42 892.745C1612.68 892.745 1616.02 895 1616.94 896.92V876.045ZM1599.07 915.457C1599.07 923.891 1602.33 928.4 1608.26 928.4C1616.44 928.4 1617.44 921.553 1617.44 915.374C1617.44 907.942 1616.35 902.348 1608.51 902.348C1602.24 902.348 1599.07 907.274 1599.07 915.457Z" fill="black"/>
<path d="M1673.53 937.955H1661.5V877H1673.53V937.955Z" fill="black"/>
<path d="M1703.54 893.7C1716.23 893.7 1724.5 902.718 1724.5 916.245C1724.5 929.355 1716.65 938.957 1702.96 938.957C1689.6 938.957 1681.75 929.355 1681.75 916.496C1681.75 903.136 1689.85 893.7 1703.54 893.7ZM1703.04 903.136C1697.53 903.136 1693.86 907.227 1693.86 916.329C1693.86 924.679 1697.45 929.605 1703.21 929.605C1709.14 929.605 1712.39 924.679 1712.39 916.412C1712.39 907.394 1709.05 903.136 1703.04 903.136Z" fill="black"/>
<path d="M1757.06 923.554H1768.75C1767.34 930.735 1762.24 938.5 1749.38 938.5C1735.94 938.5 1729.01 929.232 1729.01 916.206C1729.01 903.43 1736.77 893.243 1749.97 893.243C1764.5 893.243 1768.59 903.764 1768.75 908.607H1757.15C1756.4 905.1 1754.39 902.679 1749.72 902.679C1744.21 902.679 1741.12 907.438 1741.12 915.788C1741.12 925.057 1744.46 929.232 1749.63 929.232C1753.81 929.232 1755.98 926.81 1757.06 923.554Z" fill="black"/>
<path d="M1788.38 876.543V912.532C1791.56 908.19 1797.23 901.51 1803.25 894.245L1816.94 896.188L1801.91 910.611L1818.36 939.441L1804.83 937.498L1793.89 918.293L1788.38 923.637V937.498H1776.36V876.543H1788.38Z" fill="black"/>
<path d="M1862.35 894.688C1875.04 894.688 1883.31 903.706 1883.31 917.233C1883.31 930.343 1875.46 939.945 1861.76 939.945C1848.4 939.945 1840.56 930.343 1840.56 917.484C1840.56 904.124 1848.66 894.688 1862.35 894.688ZM1861.85 904.124C1856.34 904.124 1852.66 908.215 1852.66 917.317C1852.66 925.667 1856.25 930.593 1862.02 930.593C1867.94 930.593 1871.2 925.667 1871.2 917.4C1871.2 908.382 1867.86 904.124 1861.85 904.124Z" fill="black"/>
<path d="M1929.57 895.69V926.418C1929.57 930.51 1929.57 935.102 1929.66 938.943H1917.97C1917.8 937.774 1917.72 935.436 1917.63 933.933C1915.04 938.275 1911.29 939.945 1905.69 939.945C1896.92 939.945 1891.33 934.601 1891.33 923.913V895.69H1903.27V921.492C1903.27 926.251 1904.77 930.176 1909.95 930.176C1915.38 930.176 1917.63 927.253 1917.63 918.736V895.69H1929.57Z" fill="black"/>
<path d="M1935.36 904.708V895.69H1942.04V884H1953.98V895.69H1962.5V904.708H1953.98V926.084C1953.98 929.341 1954.98 930.593 1958.58 930.593C1959.24 930.593 1960.41 930.593 1961.25 930.51V938.693C1958.91 939.528 1955.65 939.528 1953.23 939.528C1944.8 939.528 1942.04 935.019 1942.04 927.42V904.708H1935.36Z" fill="black"/>
<path d="M1987.34 925.917H1999.11C2000.03 929.424 2002.87 931.345 2007.3 931.345C2011.72 931.345 2013.31 929.758 2013.31 927.086C2013.31 924.331 2011.47 923.245 2005.29 921.742C1991.18 918.235 1988.93 913.893 1988.93 907.798C1988.93 901.452 1993.35 894.688 2006.38 894.688C2019.49 894.688 2024 901.869 2024.33 907.714H2012.98C2012.56 906.128 2011.47 903.122 2005.88 903.122C2001.95 903.122 2000.62 904.875 2000.62 906.796C2000.62 908.967 2001.95 909.969 2008.97 911.639C2023.41 914.979 2025.5 919.905 2025.5 926.251C2025.5 933.432 2019.99 939.945 2006.88 939.945C1993.69 939.945 1988.34 933.599 1987.34 925.917Z" fill="black"/>
<path d="M2029.35 895.69H2042.21C2046.64 910.637 2050.56 923.913 2051.23 927.921H2051.31C2052.23 923.579 2054.82 913.893 2059.91 895.69H2071.85L2057.33 940.196C2053.23 952.637 2049.73 956.311 2039.37 956.311C2038.29 956.311 2035.87 956.228 2033.78 955.977V946.375C2034.61 946.458 2035.87 946.542 2036.87 946.542C2041.29 946.542 2043.46 945.039 2045.13 940.279L2029.35 895.69Z" fill="black"/>
<path d="M2074.66 925.917H2086.43C2087.35 929.424 2090.19 931.345 2094.61 931.345C2099.04 931.345 2100.62 929.758 2100.62 927.086C2100.62 924.331 2098.79 923.245 2092.61 921.742C2078.5 918.235 2076.24 913.893 2076.24 907.798C2076.24 901.452 2080.67 894.688 2093.69 894.688C2106.8 894.688 2111.31 901.869 2111.65 907.714H2100.29C2099.87 906.128 2098.79 903.122 2093.19 903.122C2089.27 903.122 2087.93 904.875 2087.93 906.796C2087.93 908.967 2089.27 909.969 2096.28 911.639C2110.73 914.979 2112.82 919.905 2112.82 926.251C2112.82 933.432 2107.3 939.945 2094.19 939.945C2081 939.945 2075.66 933.599 2074.66 925.917Z" fill="black"/>
<path d="M2115.97 904.708V895.69H2122.65V884H2134.59V895.69H2143.11V904.708H2134.59V926.084C2134.59 929.341 2135.59 930.593 2139.18 930.593C2139.85 930.593 2141.02 930.593 2141.85 930.51V938.693C2139.52 939.528 2136.26 939.528 2133.84 939.528C2125.4 939.528 2122.65 935.019 2122.65 927.42V904.708H2115.97Z" fill="black"/>
<path d="M2187.74 919.905H2159.18C2159.18 925.333 2161.94 930.593 2167.87 930.593C2172.88 930.593 2174.29 928.589 2175.46 926.001H2187.4C2185.9 931.261 2181.14 939.945 2167.61 939.945C2153.34 939.945 2147.16 929.341 2147.16 917.985C2147.16 904.374 2154.09 894.688 2168.03 894.688C2182.81 894.688 2187.91 905.46 2187.91 916.231C2187.91 917.734 2187.91 918.653 2187.74 919.905ZM2159.43 912.557H2175.88C2175.8 907.547 2173.79 903.289 2167.95 903.289C2162.27 903.289 2159.93 907.213 2159.43 912.557Z" fill="black"/>
<path d="M2194.08 938.943V906.879C2194.08 903.122 2194.08 899.448 2194 895.69H2205.44C2205.61 896.776 2205.86 899.197 2205.94 900.867C2208.11 897.694 2211.62 894.688 2217.96 894.688C2224.14 894.688 2227.57 897.945 2229.07 901.285C2231.66 897.778 2235.33 894.688 2242.43 894.688C2249.95 894.688 2256.12 899.364 2256.12 910.553V938.943H2244.43V912.056C2244.43 908.132 2243.01 904.291 2238.09 904.291C2233.08 904.291 2231.07 907.631 2231.07 914.227V938.943H2219.3V912.474C2219.3 908.048 2218.22 904.374 2213.12 904.374C2208.28 904.374 2205.94 907.38 2205.94 914.812V938.943H2194.08Z" fill="black"/>
<path d="M1187.31 1056.24H1175.58V1007.77C1175.58 1004.33 1175.58 1000.97 1175.5 997.524H1186.9C1187.06 998.672 1187.31 1001.3 1187.31 1002.85C1189.11 999.738 1192.88 996.54 1199.61 996.54C1209.2 996.54 1216.5 1004.58 1216.5 1017.7C1216.5 1032.7 1208.3 1040.98 1198.05 1040.98C1192.06 1040.98 1188.95 1038.69 1187.31 1036.23V1056.24ZM1204.61 1018.19C1204.61 1010.4 1201.49 1005.97 1195.84 1005.97C1189.19 1005.97 1186.82 1010.32 1186.82 1018.84C1186.82 1026.96 1189.03 1031.64 1195.34 1031.64C1201.58 1031.64 1204.61 1026.8 1204.61 1018.19Z" fill="black"/>
<path d="M1244.01 996.54C1256.48 996.54 1264.59 1005.4 1264.59 1018.68C1264.59 1031.55 1256.89 1040.98 1243.44 1040.98C1230.32 1040.98 1222.61 1031.55 1222.61 1018.93C1222.61 1005.81 1230.56 996.54 1244.01 996.54ZM1243.52 1005.81C1238.11 1005.81 1234.5 1009.82 1234.5 1018.76C1234.5 1026.96 1238.03 1031.8 1243.68 1031.8C1249.51 1031.8 1252.7 1026.96 1252.7 1018.84C1252.7 1009.99 1249.42 1005.81 1243.52 1005.81Z" fill="black"/>
<path d="M1267.5 997.524H1279.88C1283.74 1014.58 1285.79 1024.26 1286.61 1029.59H1286.77C1287.67 1024.83 1288.9 1018.19 1294.07 997.524H1304.97C1309.73 1018.43 1311.21 1024.58 1311.78 1029.09H1311.86C1312.76 1024.75 1314.08 1018.43 1319 997.524H1330.64L1318.01 1040H1305.47C1301.94 1023.93 1299.97 1015.4 1298.99 1009.82H1298.91C1298.25 1015.15 1295.95 1024.75 1292.18 1040H1279.55L1267.5 997.524Z" fill="black"/>
<path d="M1371 1021.3H1342.95C1342.95 1026.63 1345.66 1031.8 1351.48 1031.8C1356.4 1031.8 1357.8 1029.83 1358.94 1027.29H1370.67C1369.19 1032.46 1364.52 1040.98 1351.24 1040.98C1337.21 1040.98 1331.15 1030.57 1331.15 1019.42C1331.15 1006.05 1337.95 996.54 1351.65 996.54C1366.16 996.54 1371.16 1007.12 1371.16 1017.7C1371.16 1019.17 1371.16 1020.07 1371 1021.3ZM1343.2 1014.09H1359.35C1359.27 1009.17 1357.3 1004.99 1351.56 1004.99C1345.99 1004.99 1343.69 1008.84 1343.2 1014.09Z" fill="black"/>
<path d="M1379.33 1040V1009.09C1379.33 1004.82 1379.33 1001.13 1379.25 997.524H1390.81C1390.97 998.508 1391.14 1002.69 1391.14 1004.99C1393.02 1000.15 1397.53 996.622 1404.75 996.54V1007.77C1396.22 1007.53 1391.14 1009.82 1391.14 1021.47V1040H1379.33Z" fill="black"/>
<path d="M1431.46 1026.14V980.14H1443.27V1002.03C1444.99 999.328 1448.52 996.54 1455.4 996.54C1466.97 996.54 1472.71 1006.13 1472.71 1018.02C1472.71 1030.16 1466.47 1040.98 1454.26 1040.98C1447.94 1040.98 1445.15 1039.1 1443.1 1035.98C1443.1 1037.38 1442.86 1038.93 1442.61 1040H1431.38C1431.46 1035.41 1431.46 1030.73 1431.46 1026.14ZM1460.82 1018.27C1460.82 1011.14 1458.11 1005.97 1451.8 1005.97C1445.07 1005.97 1442.69 1010.32 1442.69 1019.01C1442.69 1026.14 1444.83 1031.64 1451.63 1031.64C1457.62 1031.64 1460.82 1026.31 1460.82 1018.27Z" fill="black"/>
<path d="M1516.85 1021.3H1488.81C1488.81 1026.63 1491.51 1031.8 1497.34 1031.8C1502.26 1031.8 1503.65 1029.83 1504.8 1027.29H1516.52C1515.05 1032.46 1510.37 1040.98 1497.09 1040.98C1483.07 1040.98 1477 1030.57 1477 1019.42C1477 1006.05 1483.81 996.54 1497.5 996.54C1512.01 996.54 1517.02 1007.12 1517.02 1017.7C1517.02 1019.17 1517.02 1020.07 1516.85 1021.3ZM1489.05 1014.09H1505.21C1505.13 1009.17 1503.16 1004.99 1497.42 1004.99C1491.84 1004.99 1489.55 1008.84 1489.05 1014.09Z" fill="black"/>
<path d="M1538.85 1040H1527.13V1006.38H1520.9V997.524H1527.13V993.834C1527.13 985.06 1531.47 979.32 1540.66 979.32C1542.54 979.32 1545 979.484 1546.07 979.812V989.078C1545.41 988.996 1544.51 988.914 1543.61 988.914C1540.17 988.914 1538.85 990.144 1538.85 994.736V997.524H1546.23V1006.38H1538.85V1040Z" fill="black"/>
<path d="M1569.81 996.54C1582.27 996.54 1590.39 1005.4 1590.39 1018.68C1590.39 1031.55 1582.68 1040.98 1569.23 1040.98C1556.11 1040.98 1546.5 1031.55 1546.5 1018.93C1546.5 1005.81 1556.36 996.54 1569.81 996.54ZM1569.32 1005.81C1563.9 1005.81 1560.3 1009.82 1560.3 1018.76C1560.3 1026.96 1563.82 1031.8 1569.48 1031.8C1575.3 1031.8 1578.5 1026.96 1578.5 1018.84C1578.5 1009.99 1575.22 1005.81 1569.32 1005.81Z" fill="black"/>
<path d="M1599.58 1040V1009.09C1599.58 1004.82 1599.58 1001.13 1599.5 997.524H1611.06C1611.23 998.508 1611.39 1002.69 1611.39 1004.99C1613.28 1000.15 1617.79 996.622 1625 996.54V1007.77C1616.47 1007.53 1611.39 1009.82 1611.39 1021.47V1040H1599.58Z" fill="black"/>
<path d="M1667.34 1021.3H1639.29C1639.29 1026.63 1642 1031.8 1647.82 1031.8C1652.74 1031.8 1654.13 1029.83 1655.28 1027.29H1667.01C1665.53 1032.46 1660.86 1040.98 1647.57 1040.98C1633.55 1040.98 1627.48 1030.57 1627.48 1019.42C1627.48 1006.05 1634.29 996.54 1647.98 996.54C1662.5 996.54 1667.5 1007.12 1667.5 1017.7C1667.5 1019.17 1667.5 1020.07 1667.34 1021.3ZM1639.54 1014.09H1655.69C1655.61 1009.17 1653.64 1004.99 1647.9 1004.99C1642.33 1004.99 1640.03 1008.84 1639.54 1014.09Z" fill="black"/>
<path d="M1695.17 1027.21H1706.73C1707.63 1030.65 1710.42 1032.54 1714.77 1032.54C1719.11 1032.54 1720.67 1030.98 1720.67 1028.36C1720.67 1025.65 1718.87 1024.58 1712.8 1023.11C1698.94 1019.66 1696.73 1015.4 1696.73 1009.41C1696.73 1003.18 1701.07 996.54 1713.87 996.54C1726.74 996.54 1731.17 1003.59 1731.5 1009.33H1720.34C1719.93 1007.77 1718.87 1004.82 1713.37 1004.82C1709.52 1004.82 1708.21 1006.54 1708.21 1008.43C1708.21 1010.56 1709.52 1011.55 1716.41 1013.19C1730.59 1016.47 1732.64 1021.3 1732.64 1027.54C1732.64 1034.59 1727.23 1040.98 1714.36 1040.98C1701.4 1040.98 1696.15 1034.75 1695.17 1027.21Z" fill="black"/>
<path d="M1778.03 1021.3H1749.99C1749.99 1026.63 1752.7 1031.8 1758.52 1031.8C1763.44 1031.8 1764.83 1029.83 1765.98 1027.29H1777.71C1776.23 1032.46 1771.56 1040.98 1758.27 1040.98C1744.25 1040.98 1738.18 1030.57 1738.18 1019.42C1738.18 1006.05 1744.99 996.54 1758.68 996.54C1773.2 996.54 1778.2 1007.12 1778.2 1017.7C1778.2 1019.17 1778.2 1020.07 1778.03 1021.3ZM1750.24 1014.09H1766.39C1766.31 1009.17 1764.34 1004.99 1758.6 1004.99C1753.02 1004.99 1750.73 1008.84 1750.24 1014.09Z" fill="black"/>
<path d="M1784.58 1040V1009.09C1784.58 1004.82 1784.58 1001.13 1784.5 997.524H1796.06C1796.23 998.508 1796.39 1002.69 1796.39 1004.99C1798.28 1000.15 1802.79 996.622 1810 996.54V1007.77C1801.47 1007.53 1796.39 1009.82 1796.39 1021.47V1040H1784.58Z" fill="black"/>
<path d="M1812.46 997.524H1825.17C1829.19 1011.96 1832.55 1024.5 1833.37 1029.59H1833.45C1834.68 1022.62 1838.78 1009.82 1842.47 997.524H1854.2L1839.19 1040H1826.89L1812.46 997.524Z" fill="black"/>
<path d="M1863.48 1040V997.524H1875.29V1040H1863.48ZM1875.29 990.636H1863.48V980.14H1875.29V990.636Z" fill="black"/>
<path d="M1906.15 1026.31H1917.63C1916.24 1033.36 1911.24 1040.98 1898.61 1040.98C1885.41 1040.98 1878.6 1031.88 1878.6 1019.09C1878.6 1006.54 1886.23 996.54 1899.18 996.54C1913.45 996.54 1917.47 1006.87 1917.63 1011.63H1906.23C1905.5 1008.18 1903.53 1005.81 1898.94 1005.81C1893.52 1005.81 1890.49 1010.48 1890.49 1018.68C1890.49 1027.78 1893.77 1031.88 1898.85 1031.88C1902.95 1031.88 1905.09 1029.5 1906.15 1026.31Z" fill="black"/>
<path d="M1928 1040V997.524H1939.81V1040H1928ZM1939.81 990.636H1928V980.14H1939.81V990.636Z" fill="black"/>
<path d="M1950.37 1040V1008.27C1950.37 1004.66 1950.37 1000.72 1950.29 997.524H1961.69C1961.93 998.672 1962.1 1001.62 1962.18 1002.94C1963.57 1000.31 1967.02 996.54 1974.48 996.54C1983.01 996.54 1988.5 1002.36 1988.5 1013.02V1040H1976.77V1014.33C1976.77 1009.5 1975.22 1006.05 1969.97 1006.05C1964.97 1006.05 1962.18 1008.84 1962.18 1016.38V1040H1950.37Z" fill="black"/>
<path d="M2037.92 1009.74V1034.83C2037.92 1048.45 2032.92 1057.06 2016.84 1057.06C2001.35 1057.06 1998.31 1048.45 1997.9 1043.61H2009.87C2010.69 1046.56 2012.83 1048.53 2017.34 1048.53C2024.96 1048.53 2026.44 1043.85 2026.44 1035.57V1033.52C2024.22 1037.21 2020.7 1039.51 2014.47 1039.51C2003.31 1039.51 1996.92 1030.32 1996.92 1018.93C1996.92 1005.64 2004.87 996.54 2015.45 996.54C2022.75 996.54 2025.78 999.984 2026.44 1001.95C2026.52 1000.8 2026.85 998.262 2026.93 997.524H2038C2038 1001.38 2037.92 1005.64 2037.92 1009.74ZM2008.97 1018.43C2008.97 1025.73 2012.66 1030 2017.83 1030C2024.88 1030 2026.77 1025.16 2026.77 1018.02C2026.77 1010.89 2025.54 1005.97 2018.07 1005.97C2012.99 1005.97 2008.97 1009.91 2008.97 1018.43Z" fill="black"/>
<path d="M2059.5 1040H2046.95V1025.57H2059.5V1040Z" fill="black"/>
<path d="M2014.13 555V500.568H1993.97V488.856H2048.5V500.568H2028.44V555H2014.13Z" fill="black"/>
<path d="M2096.96 539.736H2072.76L2067.68 555H2053.56L2076.03 488.856H2093.98L2117.5 555H2102.43L2096.96 539.736ZM2075.84 528.024H2093.88C2089.18 514.008 2086.2 505.08 2084.57 499.128H2084.48C2082.84 505.656 2079.58 516.024 2075.84 528.024Z" fill="black"/>
<path d="M2183.52 517.944V555H2173.05C2172.48 552.984 2172.09 550.68 2171.9 548.472C2168.25 553.464 2161.82 556.152 2152.6 556.152C2133.4 556.152 2122.65 541.56 2122.65 522.744C2122.65 502.872 2134.27 487.896 2155.1 487.896C2172.09 487.896 2182.17 497.496 2183.71 508.728H2169.4C2168.06 504.312 2164.6 499.032 2154.91 499.032C2141.28 499.032 2137.44 510.456 2137.44 522.072C2137.44 533.496 2141.85 544.728 2155 544.728C2167.2 544.728 2169.5 536.184 2169.5 530.328V529.656H2155V517.944H2183.52Z" fill="black"/>
<path d="M2246.24 514.68V526.488H2214.56V543.288H2249.5L2247.77 555H2200.64V488.856H2247.58V500.568H2214.56V514.68H2246.24Z" fill="black"/>
<path d="M2273.06 555H2258.38V538.104H2273.06V555Z" fill="black"/>
<path d="M1424.7 317V164.76H1483C1505 164.76 1514.28 171.58 1527.48 185.22C1540.83 198.713 1547.5 216.68 1547.5 239.12C1547.5 261.853 1540.75 280.553 1527.26 295.22C1513.91 309.74 1504.34 317 1481.9 317H1424.7ZM1453.3 188.08V293.68H1480.58C1495.69 293.68 1498.73 288.767 1506.36 278.94C1514.13 268.967 1518.02 255.767 1518.02 239.34C1518.02 224.82 1514.21 212.647 1506.58 202.82C1498.95 192.993 1495.83 188.08 1480.58 188.08H1453.3Z" fill="white"/>
<path d="M1655.63 278.28H1598.21L1584.79 317H1556.63L1609.21 164.76H1644.85L1699.63 317H1669.49L1655.63 278.28ZM1604.59 254.52H1649.03C1635.54 215.213 1627.91 192.407 1626.15 186.1H1625.93C1623.29 196.073 1616.18 218.88 1604.59 254.52Z" fill="white"/>
<path d="M1735.9 317H1709.5V164.76H1745.58C1747.63 168.28 1755.11 181.187 1768.02 203.48C1781.07 225.773 1791.19 243.3 1798.38 256.06C1805.56 268.673 1810.26 277.473 1812.46 282.46H1812.68C1811.65 271.02 1811.14 248.507 1811.14 214.92V164.76H1837.32V317H1803.44C1765.45 251.44 1742.57 210.52 1734.8 194.24H1734.58C1735.46 205.973 1735.9 229.807 1735.9 265.74V317Z" fill="white"/>
<path d="M1993.07 232.96V317H1971.95C1970.78 312.453 1969.97 306.807 1969.53 300.06C1960.73 312.967 1945.63 319.42 1924.21 319.42C1902.8 319.42 1886.08 312.233 1874.05 297.86C1862.02 283.487 1856.01 265.08 1856.01 242.64C1856.01 219.173 1862.47 199.96 1875.37 185C1888.28 170.04 1906.25 162.56 1929.27 162.56C1947.46 162.56 1962.2 167.033 1973.49 175.98C1984.93 184.927 1991.68 196.293 1993.73 210.08H1965.35C1960.22 193.653 1948.05 185.44 1928.83 185.44C1913.73 185.44 1902.73 190.72 1895.83 201.28C1888.94 211.693 1885.49 225.04 1885.49 241.32C1885.49 257.013 1889.01 270.14 1896.05 280.7C1903.09 291.113 1913.94 296.32 1928.61 296.32C1935.8 296.32 1941.89 295.22 1946.87 293.02C1952.01 290.673 1955.82 287.593 1958.31 283.78C1960.81 279.82 1962.57 275.787 1963.59 271.68C1964.62 267.427 1965.13 262.88 1965.13 258.04V256.5H1928.61V232.96H1993.07Z" fill="white"/>
<path d="M2117.85 225.92V249.46H2044.15V293.46H2125.33L2121.81 317H2016.21V164.76H2121.15V188.52H2044.15V225.92H2117.85Z" fill="white"/>
<path d="M2206.12 254.08H2181.26V317H2153.1V164.76H2217.56C2233.4 164.76 2245.65 168.647 2254.3 176.42C2263.1 184.047 2267.5 194.02 2267.5 206.34C2267.5 215.727 2265.23 223.427 2260.68 229.44C2256.28 235.453 2250.71 239.707 2243.96 242.2C2257.6 246.453 2264.42 259.213 2264.42 280.48V287.52C2264.42 302.627 2265.15 312.453 2266.62 317H2239.34C2237.43 312.307 2236.48 301.087 2236.48 283.34V280.7C2236.48 271.02 2234.43 264.2 2230.32 260.24C2226.36 256.133 2218.29 254.08 2206.12 254.08ZM2181.26 187.86V230.98H2210.74C2220.42 230.98 2227.46 229.22 2231.86 225.7C2236.26 222.033 2238.46 216.533 2238.46 209.2C2238.46 194.973 2229.59 187.86 2211.84 187.86H2181.26Z" fill="white"/>
</svg>
