<svg xmlns="http://www.w3.org/2000/svg" width="147" height="190" fill="none" viewBox="0 0 147 190"><path fill="#D5E04B" stroke="#000" stroke-width="3" d="M9.06 50.073c1.793 2.561 4.213 4.229 6.38 5.176l-.142.197 2.169.51 1.244.323.024-.058c2.938.542 6.944.806 10.712.05 4.352-.874 8.68-3.193 10.31-8.316l.395-1.245-1.178-.563c-5.114-2.446-9.983-1.633-13.887.296-1.829.904-3.465 2.06-4.852 3.264a15.565 15.565 0 0 0-.645-4.535c-1.187-3.979-4.152-8.043-10.092-11.014l-1.61-.804-.502 1.728c-1.912 6.587-.751 11.524 1.675 14.99Zm13.176-8.377c.2.08.399.154.592.219 2.365.873 6.2 1.882 10.15 2.108 3.906.223 8.27-.3 11.318-2.878l1.142-.967-.964-1.144c-3.617-4.295-8.202-5.092-12.31-4.36-2.254.4-4.385 1.259-6.199 2.25 2.637-11.25-2.258-17.727-5.915-19.738l-1.322-.727-.72 1.325c-3.938 7.255-4.212 12.851-2.616 16.948a12.385 12.385 0 0 0 5.167 6.122l-.183.153 1.86.689Zm-.97 28.983a25.5 25.5 0 0 0 7.008-2.716c3.221-1.85 6.401-4.713 7.96-8.944l.584-1.584-1.641-.394c-5.549-1.331-9.694.444-12.529 3.241-1.482 1.463-2.596 3.19-3.395 4.87-.968-2.134-2.26-4.466-3.858-6.562C12.753 55.126 9.03 52 4.327 52H3.089l-.235 1.215c-.646 3.337-.38 6.174.567 8.549.946 2.371 2.532 4.18 4.367 5.532 2.995 2.204 6.711 3.233 9.711 3.575l-.081.38 1.982-.248 1.985.055-.118-.38Zm3.063 13.258c4.003-.737 11.233-4.884 12.488-15.765l.23-1.99-1.975.34c-6.18 1.065-9.739 3.924-11.54 7.266a12.733 12.733 0 0 0-1.464 5.013c-2.108-1.85-4.548-3.73-7.035-5.214-1.851-1.105-3.78-2.02-5.655-2.52-1.868-.5-3.799-.618-5.564.023l-1.262.46.317 1.305c1.895 7.789 5.837 11.528 10.3 12.708 4.182 1.105 8.44-.148 11.16-1.626Zm-2.002 17.188c4.432 0 8.603-2.2 10.445-5.214 1.733-.32 3.687-1.521 5.217-3.9 1.811-2.817 3.043-7.277 2.837-14.056l-.058-1.918-1.847.519c-6.75 1.898-9.905 5.35-10.678 9.252-.368 1.859-.168 3.696.317 5.342-1.93-.86-4.163-1.694-6.492-2.301-4.192-1.094-8.996-1.534-12.88.294l-1.37.644.657 1.364c3.476 7.218 8.846 9.974 13.852 9.974Zm11.717 11.651c4.01-1.048 7.314-3.79 9.232-6.069 1.597-.849 3.176-2.808 3.978-5.906.87-3.356.864-8.138-.983-14.707l-.593-2.107-1.751 1.313c-5.15 3.862-6.844 8.236-6.636 12.228.106 2.024.697 3.883 1.488 5.462-2.414-.539-5.18-.965-7.842-1.027-2.164-.05-4.344.138-6.24.756-1.908.622-3.632 1.716-4.672 3.537l-.542.948.736.807c4.568 5.003 9.512 5.892 13.825 4.765Zm37.933 13.59c.56-.449 1.08-.911 1.523-1.378.443.467.963.929 1.523 1.378 1.587 1.271 3.685 2.584 5.814 3.76a67.038 67.038 0 0 0 6.215 3.03c.927.39 1.781.714 2.5.944.662.211 1.377.4 1.948.4 1.768 0 4.36-.646 6.066-1.141.66-.191.966-.705 1.081-1.021.115-.315.122-.615.098-.837a1.894 1.894 0 0 0-.255-.771 1.659 1.659 0 0 0-1.138-.79c-1.266-.218-3.094-.86-5.227-1.818-2.108-.947-4.425-2.161-6.643-3.462-2.218-1.301-4.312-2.676-5.978-3.936-1.308-.989-2.255-1.837-2.816-2.476.14.009.29.023.452.042 1.843.213 4.448.961 6.333 1.615 17.945 7.244 31.226 4.997 36.755 2.422a1.635 1.635 0 0 0 .861-2.023 1.647 1.647 0 0 0-1.836-1.083l.25 1.479-.25-1.479c-4.011.678-9.473.023-14.994-1.337-5.487-1.353-10.849-3.356-14.588-5.226-6.446-3.223-13.044-2.019-16.171-.789-3.127-1.23-9.725-2.434-16.17.789-3.74 1.87-9.102 3.873-14.589 5.226-5.52 1.36-10.983 2.015-14.994 1.337l-.25 1.479.25-1.479a1.646 1.646 0 0 0-1.835 1.083c-.25.718.02 1.632.86 2.023 5.53 2.575 18.81 4.822 36.755-2.422 1.885-.654 4.49-1.402 6.333-1.615.158-.018.306-.032.442-.041-.548.605-1.475 1.41-2.763 2.355-1.663 1.221-3.757 2.555-5.971 3.832-4.478 2.582-9.232 4.803-11.787 5.426-.76.186-1.055.81-1.126.974-.11.253-.155.505-.17.704a2.1 2.1 0 0 0 .072.743c.054.189.298.912 1.123 1.147 1.687.479 4.128 1.07 5.82 1.07.57 0 1.286-.189 1.948-.4.719-.23 1.573-.554 2.5-.944a67.038 67.038 0 0 0 6.215-3.03c2.13-1.176 4.227-2.489 5.814-3.76ZM25.248 20.963c.491 4.476 2.917 7.625 5.131 9.204 3.152 2.91 11.536 7.433 20.644 2.662l1.72-.901-1.306-1.437c-4.258-4.683-8.667-6.241-12.539-6.102-1.33.047-2.571.294-3.698.664 4.416-9.945 1.455-17.836-1.226-21.02l-1.168-1.386-1.143 1.407c-5.379 6.62-6.916 12.34-6.415 16.91Zm14.587-.117-.171 1.654h1.663c2.885 0 7.282-.774 11.259-3.106 4.025-2.361 7.632-6.335 8.72-12.64L61.607 5h-1.781c-7.195 0-12.094 2.574-15.251 5.906-3.115 3.287-4.461 7.232-4.741 9.94Zm75.329-16.792-1.143-1.407-1.168 1.387c-2.681 3.183-5.642 11.075-1.226 21.02a13.37 13.37 0 0 0-3.698-.665c-3.871-.14-8.281 1.419-12.539 6.102l-1.306 1.437 1.72.9c9.108 4.772 17.492.248 20.644-2.66 2.214-1.58 4.64-4.729 5.131-9.204.5-4.57-1.036-10.29-6.415-16.91ZM105.5 22.5h1.663l-.171-1.654c-.28-2.708-1.626-6.653-4.741-9.94C99.094 7.574 94.195 5 87 5h-1.78l.302 1.755c1.087 6.304 4.694 10.278 8.72 12.639 3.976 2.332 8.373 3.106 11.258 3.106Zm23.318-4.716-.719-1.325-1.322.727c-3.657 2.011-8.552 8.487-5.915 19.738-1.815-.991-3.945-1.85-6.199-2.25-4.108-.732-8.693.065-12.31 4.36l-.964 1.145 1.142.966c3.048 2.579 7.412 3.101 11.317 2.878 3.95-.226 7.786-1.235 10.15-2.108.194-.065.392-.138.593-.22l1.86-.688-.183-.153a12.383 12.383 0 0 0 5.167-6.122c1.596-4.097 1.322-9.693-2.617-16.948Zm.542 38.172 2.169-.51-.142-.197c2.166-.947 4.587-2.615 6.379-5.176 2.426-3.467 3.587-8.404 1.675-14.991l-.502-1.728-1.61.804c-5.94 2.97-8.905 7.035-10.091 11.014a15.56 15.56 0 0 0-.646 4.535c-1.387-1.204-3.023-2.36-4.852-3.264-3.904-1.93-8.773-2.742-13.887-.296l-1.178.563.396 1.245c1.63 5.123 5.957 7.442 10.309 8.316 3.768.756 7.774.492 10.712-.05l.024.058 1.244-.323Zm-1.933 15.047 1.982.247-.081-.38c3-.34 6.716-1.37 9.711-3.575 1.835-1.35 3.421-3.16 4.367-5.531.947-2.375 1.213-5.212.567-8.549L143.738 52H142.5c-4.704 0-8.426 3.126-11.068 6.59-1.597 2.096-2.89 4.428-3.858 6.562-.799-1.68-1.913-3.407-3.395-4.87-2.836-2.797-6.981-4.572-12.529-3.24l-1.641.393.583 1.584c1.559 4.231 4.74 7.094 7.961 8.944a25.499 25.499 0 0 0 7.007 2.716l-.118.379 1.985-.055Zm-2.668 7.797a12.728 12.728 0 0 0-1.464-5.012c-1.802-3.342-5.36-6.2-11.54-7.266l-1.975-.34.23 1.99c1.255 10.881 8.485 15.028 12.488 15.765 2.721 1.478 6.978 2.73 11.16 1.626 4.463-1.18 8.405-4.92 10.3-12.709l.317-1.305-1.262-.459c-1.765-.641-3.696-.523-5.564-.023-1.875.5-3.804 1.416-5.655 2.52-2.487 1.483-4.927 3.364-7.035 5.213Zm-15.921 13.211c1.53 2.379 3.484 3.58 5.217 3.9 1.842 3.014 6.013 5.214 10.445 5.214 5.006 0 10.376-2.756 13.852-9.974l.656-1.364-1.369-.644c-3.884-1.828-8.688-1.388-12.88-.294-2.329.607-4.562 1.442-6.492 2.3.485-1.645.685-3.482.317-5.34-.773-3.903-3.928-7.355-10.678-9.253l-1.847-.52-.058 1.919c-.206 6.78 1.026 11.24 2.837 14.056Zm-9.265 8.79c.802 3.098 2.381 5.057 3.978 5.906 1.918 2.279 5.221 5.021 9.232 6.069 4.313 1.127 9.257.238 13.825-4.765l.736-.807-.542-.948c-1.04-1.821-2.764-2.915-4.671-3.537-1.897-.618-4.077-.806-6.241-.756-2.663.062-5.428.488-7.842 1.027.791-1.579 1.382-3.438 1.487-5.462.209-3.992-1.486-8.366-6.635-12.228l-1.751-1.313-.593 2.107c-1.848 6.57-1.852 11.35-.983 14.707Z"/><mask id="a" width="126" height="42" x="11" y="148" fill="#000" maskUnits="userSpaceOnUse"><path fill="#fff" d="M11 148h126v42H11z"/><path d="M20.436 177.842c-1.099 0-2.12-.171-3.061-.513a7.871 7.871 0 0 1-2.472-1.382 4.185 4.185 0 0 1-.314-.355 2.178 2.178 0 0 1-.197-.434c-.13-.526-.222-1.211-.274-2.053a34.165 34.165 0 0 0-.118-2.092.41.41 0 0 1 .236-.395.964.964 0 0 1 .549-.157c.13 0 .261.039.392.118.131.053.21.158.236.316.523 2.026 1.295 3.473 2.315 4.342 1.046.868 2.132 1.302 3.257 1.302.916 0 1.727-.197 2.433-.592a4.167 4.167 0 0 0 1.649-1.658c.418-.736.627-1.592.627-2.565 0-1.079-.183-1.948-.549-2.606a5.062 5.062 0 0 0-1.491-1.776 28.918 28.918 0 0 0-2.394-1.618 304.208 304.208 0 0 1-3.022-1.974c-.994-.684-1.818-1.461-2.472-2.329-.654-.895-.981-1.974-.981-3.237 0-1.342.3-2.552.902-3.631.602-1.079 1.505-1.935 2.708-2.566 1.23-.658 2.76-.987 4.592-.987.941 0 1.753.105 2.433.316.706.184 1.268.368 1.687.552.21.079.38.211.51.395.157.184.262.382.314.592.157.553.327 1.184.51 1.895.184.711.275 1.382.275 2.013 0 .29-.196.434-.589.434-.235 0-.47-.052-.706-.158-.21-.105-.34-.236-.392-.394-.55-1.395-1.19-2.461-1.923-3.198-.733-.736-1.662-1.105-2.787-1.105a5.56 5.56 0 0 0-2.197.434c-.68.29-1.243.763-1.688 1.421-.418.658-.627 1.54-.627 2.645 0 .79.248 1.513.745 2.171.523.632 1.204 1.237 2.04 1.816.838.579 1.74 1.171 2.709 1.776a29.915 29.915 0 0 1 2.668 1.816 8.065 8.065 0 0 1 2.158 2.368c.576.895.864 2 .864 3.316 0 1.553-.353 2.921-1.06 4.106-.706 1.157-1.7 2.052-2.982 2.684-1.282.631-2.787.947-4.513.947Zm20.172-.434c-.34 0-.615-.04-.824-.119-.21-.052-.314-.157-.314-.315 0-.316.432-.553 1.295-.711.994-.184 1.714-.487 2.158-.908.471-.421.707-1.118.707-2.092v-16.658c0-1.184-.157-2.092-.471-2.723-.288-.632-.929-1.04-1.923-1.224-.445-.079-.772-.184-.981-.316-.21-.131-.314-.289-.314-.474 0-.157.105-.263.314-.315.21-.079.484-.119.824-.119h1.57c.366 0 .706.013 1.02.04h1.256c.523 0 1.046-.013 1.57-.04a39.49 39.49 0 0 1 1.53-.118c.471-.053.89-.079 1.256-.079 2.982 0 5.376.618 7.181 1.855 1.832 1.237 2.747 2.961 2.747 5.171 0 1.605-.314 3.092-.942 4.461-.627 1.342-1.595 2.421-2.904 3.237-1.281.815-2.93 1.223-4.944 1.223-.576 0-1.02-.079-1.334-.237-.288-.184-.432-.355-.432-.513 0-.105.065-.223.196-.355.157-.132.301-.197.432-.197.13 0 .327.013.589.039.287.026.693.04 1.216.04 1.57 0 2.747-.658 3.532-1.974.81-1.316 1.216-3.132 1.216-5.448 0-2.105-.614-3.657-1.844-4.657-1.23-1.027-2.8-1.54-4.71-1.54-.732 0-1.333.132-1.804.395-.471.237-.707.658-.707 1.263v18.829c0 .947.197 1.71.589 2.289.392.579 1.073.961 2.04 1.145.445.079.772.171.982.276.209.106.314.25.314.435 0 .158-.105.263-.314.315-.21.079-.484.119-.825.119-.706 0-1.255-.026-1.648-.079a16.863 16.863 0 0 0-1.02-.118c-.288-.053-.68-.079-1.177-.079-.654 0-1.243.026-1.766.079-.497.026-1.007.065-1.53.118-.498.053-1.1.079-1.806.079ZM97.234 187c-1.884 0-3.493-.276-4.827-.829a18.572 18.572 0 0 1-3.846-2.132 216.556 216.556 0 0 1-2.904-2.131 66.455 66.455 0 0 1-3.296-2.566c-.916-.763-1.766-1.316-2.551-1.658a42.152 42.152 0 0 1-1.962-.868A18.024 18.024 0 0 1 74.787 175a13.14 13.14 0 0 1-2.59-2.526c-.733-.974-1.321-2.092-1.766-3.356-.419-1.289-.628-2.736-.628-4.342 0-1.789.288-3.5.863-5.131a13.277 13.277 0 0 1 2.551-4.421c1.125-1.29 2.525-2.316 4.2-3.079 1.674-.763 3.596-1.145 5.768-1.145 1.727 0 3.375.316 4.944.947a12.354 12.354 0 0 1 4.16 2.645c1.204 1.132 2.159 2.5 2.865 4.105.706 1.579 1.06 3.342 1.06 5.29 0 2-.367 3.908-1.1 5.724a12.915 12.915 0 0 1-3.178 4.736c-1.413 1.342-3.166 2.29-5.259 2.842-.209.053-.314.145-.314.277 0 .131.053.25.157.355a30.78 30.78 0 0 0 2.316 2.25c.81.711 1.7 1.421 2.668 2.132 1.308.947 2.525 1.592 3.65 1.934 1.151.368 2.485.552 4.003.552.47 0 .902-.026 1.295-.078.418-.053.719-.119.902-.198.131-.052.262-.092.393-.118.13-.027.248-.04.353-.04.288 0 .432.106.432.316 0 .237-.053.421-.157.553-.079.131-.262.289-.55.473a8.493 8.493 0 0 1-2.315.987 8.753 8.753 0 0 1-2.276.316ZM83.42 176.184c3.009 0 5.259-.934 6.75-2.802 1.517-1.869 2.276-4.356 2.276-7.461 0-1.816-.21-3.526-.628-5.132-.418-1.605-1.046-3.013-1.883-4.223-.811-1.237-1.832-2.198-3.061-2.882-1.23-.684-2.669-1.026-4.317-1.026-2.956 0-5.193.921-6.71 2.763-1.518 1.842-2.277 4.303-2.277 7.382 0 1.842.197 3.565.589 5.171.418 1.605 1.033 3.026 1.844 4.263.838 1.237 1.87 2.21 3.1 2.921 1.23.684 2.67 1.026 4.317 1.026Zm47.401 1.855c-.732 0-1.426-.065-2.08-.197a5.284 5.284 0 0 1-1.805-.631 5.864 5.864 0 0 1-1.53-1.303c-.628-.79-1.23-1.54-1.805-2.25a53.446 53.446 0 0 1-1.845-2.526 153.46 153.46 0 0 1-2.315-3.632c-.393-.658-.955-1.171-1.688-1.539a6.409 6.409 0 0 0-1.726-.593 8.848 8.848 0 0 0-1.374-.236c-.209-.027-.366.039-.471.197a1.331 1.331 0 0 0-.117.592v6.947c0 .843.196 1.579.588 2.211.393.605 1.073 1 2.041 1.184.445.079.772.171.981.276.209.106.314.25.314.435 0 .158-.105.263-.314.315-.209.079-.484.119-.824.119-.706 0-1.256-.026-1.648-.079a16.956 16.956 0 0 0-1.021-.118c-.287-.053-.68-.079-1.177-.079-.654 0-1.243.026-1.766.079-.497.026-1.007.065-1.53.118-.497.053-1.099.079-1.805.079-.341 0-.615-.04-.825-.119-.209-.052-.314-.157-.314-.315 0-.316.432-.553 1.295-.711.995-.184 1.714-.487 2.159-.908.471-.421.706-1.118.706-2.092v-16.816c0-1-.052-1.75-.157-2.25-.078-.526-.288-.894-.628-1.105-.314-.21-.85-.355-1.609-.434-.444-.053-.771-.145-.981-.276-.209-.158-.314-.329-.314-.514 0-.157.105-.263.314-.315.21-.079.484-.119.824-.119h1.57c.366 0 .707.013 1.02.04h1.256c.497 0 .942-.013 1.334-.04.393-.052.825-.092 1.295-.118.498-.027 1.125-.04 1.884-.04 2.878 0 5.062.54 6.554 1.619 1.517 1.079 2.276 2.697 2.276 4.855 0 1.184-.236 2.211-.707 3.079a7.373 7.373 0 0 1-1.766 2.132 11.777 11.777 0 0 1-2.158 1.421c-.105.026-.157.092-.157.197.026.079.079.184.157.316a884.196 884.196 0 0 0 2.315 3.513 40.795 40.795 0 0 0 2.473 3.237c.889 1.052 1.949 2.144 3.178 3.276.681.605 1.374.974 2.08 1.105.707.132 1.518.198 2.433.198.393 0 .589.144.589.434 0 .395-.196.684-.589.868a3.59 3.59 0 0 1-1.334.395 8.227 8.227 0 0 1-1.256.118Zm-14.676-13.815c1.203 0 2.236-.277 3.1-.829a5.598 5.598 0 0 0 2.04-2.171 5.767 5.767 0 0 0 .746-2.842c0-1.079-.144-2.066-.432-2.961-.261-.895-.811-1.605-1.648-2.132-.811-.552-2.041-.828-3.689-.828-.837 0-1.386.276-1.648.828-.262.527-.419 1.474-.471 2.843-.026.657-.052 1.552-.078 2.684v4.026c0 .658.183 1.053.549 1.184.366.132.876.198 1.531.198Z"/></mask><path fill="#fff" d="M20.436 177.842c-1.099 0-2.12-.171-3.061-.513a7.871 7.871 0 0 1-2.472-1.382 4.185 4.185 0 0 1-.314-.355 2.178 2.178 0 0 1-.197-.434c-.13-.526-.222-1.211-.274-2.053a34.165 34.165 0 0 0-.118-2.092.41.41 0 0 1 .236-.395.964.964 0 0 1 .549-.157c.13 0 .261.039.392.118.131.053.21.158.236.316.523 2.026 1.295 3.473 2.315 4.342 1.046.868 2.132 1.302 3.257 1.302.916 0 1.727-.197 2.433-.592a4.167 4.167 0 0 0 1.649-1.658c.418-.736.627-1.592.627-2.565 0-1.079-.183-1.948-.549-2.606a5.062 5.062 0 0 0-1.491-1.776 28.918 28.918 0 0 0-2.394-1.618 304.208 304.208 0 0 1-3.022-1.974c-.994-.684-1.818-1.461-2.472-2.329-.654-.895-.981-1.974-.981-3.237 0-1.342.3-2.552.902-3.631.602-1.079 1.505-1.935 2.708-2.566 1.23-.658 2.76-.987 4.592-.987.941 0 1.753.105 2.433.316.706.184 1.268.368 1.687.552.21.079.38.211.51.395.157.184.262.382.314.592.157.553.327 1.184.51 1.895.184.711.275 1.382.275 2.013 0 .29-.196.434-.589.434-.235 0-.47-.052-.706-.158-.21-.105-.34-.236-.392-.394-.55-1.395-1.19-2.461-1.923-3.198-.733-.736-1.662-1.105-2.787-1.105a5.56 5.56 0 0 0-2.197.434c-.68.29-1.243.763-1.688 1.421-.418.658-.627 1.54-.627 2.645 0 .79.248 1.513.745 2.171.523.632 1.204 1.237 2.04 1.816.838.579 1.74 1.171 2.709 1.776a29.915 29.915 0 0 1 2.668 1.816 8.065 8.065 0 0 1 2.158 2.368c.576.895.864 2 .864 3.316 0 1.553-.353 2.921-1.06 4.106-.706 1.157-1.7 2.052-2.982 2.684-1.282.631-2.787.947-4.513.947Zm20.172-.434c-.34 0-.615-.04-.824-.119-.21-.052-.314-.157-.314-.315 0-.316.432-.553 1.295-.711.994-.184 1.714-.487 2.158-.908.471-.421.707-1.118.707-2.092v-16.658c0-1.184-.157-2.092-.471-2.723-.288-.632-.929-1.04-1.923-1.224-.445-.079-.772-.184-.981-.316-.21-.131-.314-.289-.314-.474 0-.157.105-.263.314-.315.21-.079.484-.119.824-.119h1.57c.366 0 .706.013 1.02.04h1.256c.523 0 1.046-.013 1.57-.04a39.49 39.49 0 0 1 1.53-.118c.471-.053.89-.079 1.256-.079 2.982 0 5.376.618 7.181 1.855 1.832 1.237 2.747 2.961 2.747 5.171 0 1.605-.314 3.092-.942 4.461-.627 1.342-1.595 2.421-2.904 3.237-1.281.815-2.93 1.223-4.944 1.223-.576 0-1.02-.079-1.334-.237-.288-.184-.432-.355-.432-.513 0-.105.065-.223.196-.355.157-.132.301-.197.432-.197.13 0 .327.013.589.039.287.026.693.04 1.216.04 1.57 0 2.747-.658 3.532-1.974.81-1.316 1.216-3.132 1.216-5.448 0-2.105-.614-3.657-1.844-4.657-1.23-1.027-2.8-1.54-4.71-1.54-.732 0-1.333.132-1.804.395-.471.237-.707.658-.707 1.263v18.829c0 .947.197 1.71.589 2.289.392.579 1.073.961 2.04 1.145.445.079.772.171.982.276.209.106.314.25.314.435 0 .158-.105.263-.314.315-.21.079-.484.119-.825.119-.706 0-1.255-.026-1.648-.079a16.863 16.863 0 0 0-1.02-.118c-.288-.053-.68-.079-1.177-.079-.654 0-1.243.026-1.766.079-.497.026-1.007.065-1.53.118-.498.053-1.1.079-1.806.079ZM97.234 187c-1.884 0-3.493-.276-4.827-.829a18.572 18.572 0 0 1-3.846-2.132 216.556 216.556 0 0 1-2.904-2.131 66.455 66.455 0 0 1-3.296-2.566c-.916-.763-1.766-1.316-2.551-1.658a42.152 42.152 0 0 1-1.962-.868A18.024 18.024 0 0 1 74.787 175a13.14 13.14 0 0 1-2.59-2.526c-.733-.974-1.321-2.092-1.766-3.356-.419-1.289-.628-2.736-.628-4.342 0-1.789.288-3.5.863-5.131a13.277 13.277 0 0 1 2.551-4.421c1.125-1.29 2.525-2.316 4.2-3.079 1.674-.763 3.596-1.145 5.768-1.145 1.727 0 3.375.316 4.944.947a12.354 12.354 0 0 1 4.16 2.645c1.204 1.132 2.159 2.5 2.865 4.105.706 1.579 1.06 3.342 1.06 5.29 0 2-.367 3.908-1.1 5.724a12.915 12.915 0 0 1-3.178 4.736c-1.413 1.342-3.166 2.29-5.259 2.842-.209.053-.314.145-.314.277 0 .131.053.25.157.355a30.78 30.78 0 0 0 2.316 2.25c.81.711 1.7 1.421 2.668 2.132 1.308.947 2.525 1.592 3.65 1.934 1.151.368 2.485.552 4.003.552.47 0 .902-.026 1.295-.078.418-.053.719-.119.902-.198.131-.052.262-.092.393-.118.13-.027.248-.04.353-.04.288 0 .432.106.432.316 0 .237-.053.421-.157.553-.079.131-.262.289-.55.473a8.493 8.493 0 0 1-2.315.987 8.753 8.753 0 0 1-2.276.316ZM83.42 176.184c3.009 0 5.259-.934 6.75-2.802 1.517-1.869 2.276-4.356 2.276-7.461 0-1.816-.21-3.526-.628-5.132-.418-1.605-1.046-3.013-1.883-4.223-.811-1.237-1.832-2.198-3.061-2.882-1.23-.684-2.669-1.026-4.317-1.026-2.956 0-5.193.921-6.71 2.763-1.518 1.842-2.277 4.303-2.277 7.382 0 1.842.197 3.565.589 5.171.418 1.605 1.033 3.026 1.844 4.263.838 1.237 1.87 2.21 3.1 2.921 1.23.684 2.67 1.026 4.317 1.026Zm47.401 1.855c-.732 0-1.426-.065-2.08-.197a5.284 5.284 0 0 1-1.805-.631 5.864 5.864 0 0 1-1.53-1.303c-.628-.79-1.23-1.54-1.805-2.25a53.446 53.446 0 0 1-1.845-2.526 153.46 153.46 0 0 1-2.315-3.632c-.393-.658-.955-1.171-1.688-1.539a6.409 6.409 0 0 0-1.726-.593 8.848 8.848 0 0 0-1.374-.236c-.209-.027-.366.039-.471.197a1.331 1.331 0 0 0-.117.592v6.947c0 .843.196 1.579.588 2.211.393.605 1.073 1 2.041 1.184.445.079.772.171.981.276.209.106.314.25.314.435 0 .158-.105.263-.314.315-.209.079-.484.119-.824.119-.706 0-1.256-.026-1.648-.079a16.956 16.956 0 0 0-1.021-.118c-.287-.053-.68-.079-1.177-.079-.654 0-1.243.026-1.766.079-.497.026-1.007.065-1.53.118-.497.053-1.099.079-1.805.079-.341 0-.615-.04-.825-.119-.209-.052-.314-.157-.314-.315 0-.316.432-.553 1.295-.711.995-.184 1.714-.487 2.159-.908.471-.421.706-1.118.706-2.092v-16.816c0-1-.052-1.75-.157-2.25-.078-.526-.288-.894-.628-1.105-.314-.21-.85-.355-1.609-.434-.444-.053-.771-.145-.981-.276-.209-.158-.314-.329-.314-.514 0-.157.105-.263.314-.315.21-.079.484-.119.824-.119h1.57c.366 0 .707.013 1.02.04h1.256c.497 0 .942-.013 1.334-.04.393-.052.825-.092 1.295-.118.498-.027 1.125-.04 1.884-.04 2.878 0 5.062.54 6.554 1.619 1.517 1.079 2.276 2.697 2.276 4.855 0 1.184-.236 2.211-.707 3.079a7.373 7.373 0 0 1-1.766 2.132 11.777 11.777 0 0 1-2.158 1.421c-.105.026-.157.092-.157.197.026.079.079.184.157.316a884.196 884.196 0 0 0 2.315 3.513 40.795 40.795 0 0 0 2.473 3.237c.889 1.052 1.949 2.144 3.178 3.276.681.605 1.374.974 2.08 1.105.707.132 1.518.198 2.433.198.393 0 .589.144.589.434 0 .395-.196.684-.589.868a3.59 3.59 0 0 1-1.334.395 8.227 8.227 0 0 1-1.256.118Zm-14.676-13.815c1.203 0 2.236-.277 3.1-.829a5.598 5.598 0 0 0 2.04-2.171 5.767 5.767 0 0 0 .746-2.842c0-1.079-.144-2.066-.432-2.961-.261-.895-.811-1.605-1.648-2.132-.811-.552-2.041-.828-3.689-.828-.837 0-1.386.276-1.648.828-.262.527-.419 1.474-.471 2.843-.026.657-.052 1.552-.078 2.684v4.026c0 .658.183 1.053.549 1.184.366.132.876.198 1.531.198Z"/><path stroke="#000" stroke-width="6" d="M20.436 177.842c-1.099 0-2.12-.171-3.061-.513a7.871 7.871 0 0 1-2.472-1.382 4.185 4.185 0 0 1-.314-.355 2.178 2.178 0 0 1-.197-.434c-.13-.526-.222-1.211-.274-2.053a34.165 34.165 0 0 0-.118-2.092.41.41 0 0 1 .236-.395.964.964 0 0 1 .549-.157c.13 0 .261.039.392.118.131.053.21.158.236.316.523 2.026 1.295 3.473 2.315 4.342 1.046.868 2.132 1.302 3.257 1.302.916 0 1.727-.197 2.433-.592a4.167 4.167 0 0 0 1.649-1.658c.418-.736.627-1.592.627-2.565 0-1.079-.183-1.948-.549-2.606a5.062 5.062 0 0 0-1.491-1.776 28.918 28.918 0 0 0-2.394-1.618 304.208 304.208 0 0 1-3.022-1.974c-.994-.684-1.818-1.461-2.472-2.329-.654-.895-.981-1.974-.981-3.237 0-1.342.3-2.552.902-3.631.602-1.079 1.505-1.935 2.708-2.566 1.23-.658 2.76-.987 4.592-.987.941 0 1.753.105 2.433.316.706.184 1.268.368 1.687.552.21.079.38.211.51.395.157.184.262.382.314.592.157.553.327 1.184.51 1.895.184.711.275 1.382.275 2.013 0 .29-.196.434-.589.434-.235 0-.47-.052-.706-.158-.21-.105-.34-.236-.392-.394-.55-1.395-1.19-2.461-1.923-3.198-.733-.736-1.662-1.105-2.787-1.105a5.56 5.56 0 0 0-2.197.434c-.68.29-1.243.763-1.688 1.421-.418.658-.627 1.54-.627 2.645 0 .79.248 1.513.745 2.171.523.632 1.204 1.237 2.04 1.816.838.579 1.74 1.171 2.709 1.776a29.915 29.915 0 0 1 2.668 1.816 8.065 8.065 0 0 1 2.158 2.368c.576.895.864 2 .864 3.316 0 1.553-.353 2.921-1.06 4.106-.706 1.157-1.7 2.052-2.982 2.684-1.282.631-2.787.947-4.513.947Zm20.172-.434c-.34 0-.615-.04-.824-.119-.21-.052-.314-.157-.314-.315 0-.316.432-.553 1.295-.711.994-.184 1.714-.487 2.158-.908.471-.421.707-1.118.707-2.092v-16.658c0-1.184-.157-2.092-.471-2.723-.288-.632-.929-1.04-1.923-1.224-.445-.079-.772-.184-.981-.316-.21-.131-.314-.289-.314-.474 0-.157.105-.263.314-.315.21-.079.484-.119.824-.119h1.57c.366 0 .706.013 1.02.04h1.256c.523 0 1.046-.013 1.57-.04a39.49 39.49 0 0 1 1.53-.118c.471-.053.89-.079 1.256-.079 2.982 0 5.376.618 7.181 1.855 1.832 1.237 2.747 2.961 2.747 5.171 0 1.605-.314 3.092-.942 4.461-.627 1.342-1.595 2.421-2.904 3.237-1.281.815-2.93 1.223-4.944 1.223-.576 0-1.02-.079-1.334-.237-.288-.184-.432-.355-.432-.513 0-.105.065-.223.196-.355.157-.132.301-.197.432-.197.13 0 .327.013.589.039.287.026.693.04 1.216.04 1.57 0 2.747-.658 3.532-1.974.81-1.316 1.216-3.132 1.216-5.448 0-2.105-.614-3.657-1.844-4.657-1.23-1.027-2.8-1.54-4.71-1.54-.732 0-1.333.132-1.804.395-.471.237-.707.658-.707 1.263v18.829c0 .947.197 1.71.589 2.289.392.579 1.073.961 2.04 1.145.445.079.772.171.982.276.209.106.314.25.314.435 0 .158-.105.263-.314.315-.21.079-.484.119-.825.119-.706 0-1.255-.026-1.648-.079a16.863 16.863 0 0 0-1.02-.118c-.288-.053-.68-.079-1.177-.079-.654 0-1.243.026-1.766.079-.497.026-1.007.065-1.53.118-.498.053-1.1.079-1.806.079ZM97.234 187c-1.884 0-3.493-.276-4.827-.829a18.572 18.572 0 0 1-3.846-2.132 216.556 216.556 0 0 1-2.904-2.131 66.455 66.455 0 0 1-3.296-2.566c-.916-.763-1.766-1.316-2.551-1.658a42.152 42.152 0 0 1-1.962-.868A18.024 18.024 0 0 1 74.787 175a13.14 13.14 0 0 1-2.59-2.526c-.733-.974-1.321-2.092-1.766-3.356-.419-1.289-.628-2.736-.628-4.342 0-1.789.288-3.5.863-5.131a13.277 13.277 0 0 1 2.551-4.421c1.125-1.29 2.525-2.316 4.2-3.079 1.674-.763 3.596-1.145 5.768-1.145 1.727 0 3.375.316 4.944.947a12.354 12.354 0 0 1 4.16 2.645c1.204 1.132 2.159 2.5 2.865 4.105.706 1.579 1.06 3.342 1.06 5.29 0 2-.367 3.908-1.1 5.724a12.915 12.915 0 0 1-3.178 4.736c-1.413 1.342-3.166 2.29-5.259 2.842-.209.053-.314.145-.314.277 0 .131.053.25.157.355a30.78 30.78 0 0 0 2.316 2.25c.81.711 1.7 1.421 2.668 2.132 1.308.947 2.525 1.592 3.65 1.934 1.151.368 2.485.552 4.003.552.47 0 .902-.026 1.295-.078.418-.053.719-.119.902-.198.131-.052.262-.092.393-.118.13-.027.248-.04.353-.04.288 0 .432.106.432.316 0 .237-.053.421-.157.553-.079.131-.262.289-.55.473a8.493 8.493 0 0 1-2.315.987 8.753 8.753 0 0 1-2.276.316ZM83.42 176.184c3.009 0 5.259-.934 6.75-2.802 1.517-1.869 2.276-4.356 2.276-7.461 0-1.816-.21-3.526-.628-5.132-.418-1.605-1.046-3.013-1.883-4.223-.811-1.237-1.832-2.198-3.061-2.882-1.23-.684-2.669-1.026-4.317-1.026-2.956 0-5.193.921-6.71 2.763-1.518 1.842-2.277 4.303-2.277 7.382 0 1.842.197 3.565.589 5.171.418 1.605 1.033 3.026 1.844 4.263.838 1.237 1.87 2.21 3.1 2.921 1.23.684 2.67 1.026 4.317 1.026Zm47.401 1.855c-.732 0-1.426-.065-2.08-.197a5.284 5.284 0 0 1-1.805-.631 5.864 5.864 0 0 1-1.53-1.303c-.628-.79-1.23-1.54-1.805-2.25a53.446 53.446 0 0 1-1.845-2.526 153.46 153.46 0 0 1-2.315-3.632c-.393-.658-.955-1.171-1.688-1.539a6.409 6.409 0 0 0-1.726-.593 8.848 8.848 0 0 0-1.374-.236c-.209-.027-.366.039-.471.197a1.331 1.331 0 0 0-.117.592v6.947c0 .843.196 1.579.588 2.211.393.605 1.073 1 2.041 1.184.445.079.772.171.981.276.209.106.314.25.314.435 0 .158-.105.263-.314.315-.209.079-.484.119-.824.119-.706 0-1.256-.026-1.648-.079a16.956 16.956 0 0 0-1.021-.118c-.287-.053-.68-.079-1.177-.079-.654 0-1.243.026-1.766.079-.497.026-1.007.065-1.53.118-.497.053-1.099.079-1.805.079-.341 0-.615-.04-.825-.119-.209-.052-.314-.157-.314-.315 0-.316.432-.553 1.295-.711.995-.184 1.714-.487 2.159-.908.471-.421.706-1.118.706-2.092v-16.816c0-1-.052-1.75-.157-2.25-.078-.526-.288-.894-.628-1.105-.314-.21-.85-.355-1.609-.434-.444-.053-.771-.145-.981-.276-.209-.158-.314-.329-.314-.514 0-.157.105-.263.314-.315.21-.079.484-.119.824-.119h1.57c.366 0 .707.013 1.02.04h1.256c.497 0 .942-.013 1.334-.04.393-.052.825-.092 1.295-.118.498-.027 1.125-.04 1.884-.04 2.878 0 5.062.54 6.554 1.619 1.517 1.079 2.276 2.697 2.276 4.855 0 1.184-.236 2.211-.707 3.079a7.373 7.373 0 0 1-1.766 2.132 11.777 11.777 0 0 1-2.158 1.421c-.105.026-.157.092-.157.197.026.079.079.184.157.316a884.196 884.196 0 0 0 2.315 3.513 40.795 40.795 0 0 0 2.473 3.237c.889 1.052 1.949 2.144 3.178 3.276.681.605 1.374.974 2.08 1.105.707.132 1.518.198 2.433.198.393 0 .589.144.589.434 0 .395-.196.684-.589.868a3.59 3.59 0 0 1-1.334.395 8.227 8.227 0 0 1-1.256.118Zm-14.676-13.815c1.203 0 2.236-.277 3.1-.829a5.598 5.598 0 0 0 2.04-2.171 5.767 5.767 0 0 0 .746-2.842c0-1.079-.144-2.066-.432-2.961-.261-.895-.811-1.605-1.648-2.132-.811-.552-2.041-.828-3.689-.828-.837 0-1.386.276-1.648.828-.262.527-.419 1.474-.471 2.843-.026.657-.052 1.552-.078 2.684v4.026c0 .658.183 1.053.549 1.184.366.132.876.198 1.531.198Z" mask="url(#a)"/><circle cx="36" cy="167" r="3.5" fill="#fff" stroke="#000" stroke-width="3"/><circle cx="103.5" cy="167" r="3.5" fill="#fff" stroke="#000" stroke-width="3"/><circle cx="64" cy="167" r="3.5" fill="#fff" stroke="#000" stroke-width="3"/></svg>